<svg width="58" height="85" viewBox="0 0 58 85" fill="none" xmlns="http://www.w3.org/2000/svg">
<path d="M56.3 14.2V82.9C56.3 83.2 56 83.5 55.7 83.5H50C49.7 83.5 49.4 83.2 49.4 82.9V79.2C49.4 78.9 49.1 78.6 48.8 78.6H43.1C42.8 78.6 42.5 78.9 42.5 79.2V82.9C42.5 83.2 42.2 83.5 41.9 83.5H36.2C35.9 83.5 35.6 83.2 35.6 82.9V79.2C35.6 78.9 35.3 78.6 35 78.6H22.3C22 78.6 21.7 78.9 21.7 79.2V82.9C21.7 83.2 21.4 83.5 21.1 83.5H15.4C15.1 83.5 14.8 83.2 14.8 82.9V79.2C14.8 78.9 14.5 78.6 14.2 78.6H8.5C8.2 78.6 7.90001 78.9 7.90001 79.2V82.9C7.90001 83.2 7.6 83.5 7.3 83.5H1.60001C1.30001 83.5 1 83.2 1 82.9V14.2C1 13.9 1.30001 13.6 1.60001 13.6H3.8C4.1 13.6 4.40001 13.3 4.40001 13V10.3C4.40001 10 4.7 9.7 5 9.7H6.70001C7.00001 9.7 7.3 9.4 7.3 9.1V7.4C7.3 7.1 7.60001 6.8 7.90001 6.8H13.6C13.9 6.8 14.2 6.5 14.2 6.2V4.5C14.2 4.2 14.5 3.9 14.8 3.9H20.5C20.8 3.9 21.1 3.6 21.1 3.3V1.6C21.1 1.3 21.4 1 21.7 1H35.4C35.7 1 36 1.3 36 1.6V3.3C36 3.6 36.3 3.9 36.6 3.9H42.3C42.6 3.9 42.9 4.2 42.9 4.5V6.2C42.9 6.5 43.2 6.8 43.5 6.8H49.2C49.5 6.8 49.8 7.1 49.8 7.4V9.1C49.8 9.4 50.1 9.7 50.4 9.7H52.1C52.4 9.7 52.7 10 52.7 10.3V13C52.7 13.3 53 13.6 53.3 13.6H55.5C56 13.6 56.3 13.9 56.3 14.2Z" stroke="#323233" stroke-width="2" stroke-miterlimit="10" stroke-linecap="round" stroke-linejoin="round"/>
<path d="M20.8 44.6001V47.6001H23.8V50.6001H32.8V47.6001H35.8V44.6001" stroke="#323233" stroke-width="2" stroke-miterlimit="10" stroke-linecap="round" stroke-linejoin="round"/>
<path d="M18.8 26.6001H11.8V30.1001H8.30005V37.1001H11.8V40.6001H18.8V37.1001H22.3V30.1001H18.8V26.6001Z" stroke="#673AB7" stroke-width="2" stroke-miterlimit="10" stroke-linecap="round" stroke-linejoin="round"/>
<path d="M46.3 30.1001H42.8V26.6001H35.8V30.1001H32.3V37.1001H35.8V40.6001H42.8V37.1001H46.3V30.1001Z" stroke="#673AB7" stroke-width="2" stroke-miterlimit="10" stroke-linecap="round" stroke-linejoin="round"/>
<path d="M5.80005 62.6001L8.80005 65.0001C10.1 66.0001 11.7 66.6001 13.3 66.6001H17.8V58.6001C16.5 58.3001 14.7 57.7001 12.8 56.6001C10.5 55.3001 8.80005 53.7001 7.80005 52.6001" stroke="#673AB7" stroke-width="2" stroke-miterlimit="10" stroke-linecap="round" stroke-linejoin="round"/>
<path d="M49.8 62.6001L46.8 65.0001C45.5 66.0001 43.9 66.6001 42.3 66.6001H37.8V58.6001C39.1 58.3001 40.9 57.7001 42.8 56.6001C45.1 55.3001 46.8 53.7001 47.8 52.6001" stroke="#673AB7" stroke-width="2" stroke-miterlimit="10" stroke-linecap="round" stroke-linejoin="round"/>
<path d="M33.8 15.6001H32.8V13.6001H30.8V11.6001H28.8V10.6001H26.8V11.6001H24.8V13.6001H22.8V15.6001H21.8V21.6001H22.8V23.6001H24.8V25.6001H26.8V26.6001H28.8V25.6001H30.8V23.6001H32.8V21.6001H33.8V15.6001Z" stroke="#323233" stroke-width="2" stroke-miterlimit="10" stroke-linecap="round" stroke-linejoin="round"/>
</svg>