<svg width="90" height="105" viewBox="0 0 90 105" fill="none" xmlns="http://www.w3.org/2000/svg">
<path d="M33.8999 36.4V68.6C26.4999 67 20.8999 60.4 20.8999 52.5C20.8999 44.6 26.4999 38 33.8999 36.4Z" stroke="#323233" stroke-width="2" stroke-miterlimit="10" stroke-linecap="round" stroke-linejoin="round"/>
<path d="M88.9 52.5C88.9 80.9 65.8 104 37.4 104C23.2 104 10.3 98.2 1 88.9L10.2 79.7C17.2 86.7 26.8 91 37.4 91C58.7 91 75.9 73.8 75.9 52.5C75.9 31.2 58.7 14 37.4 14C26.8 14 17.1 18.3 10.2 25.3L1 16.1C10.3 6.8 23.2 1 37.4 1C65.8 1 88.9 24.1 88.9 52.5Z" stroke="#323233" stroke-width="2" stroke-miterlimit="10" stroke-linecap="round" stroke-linejoin="round"/>
<path d="M33.8999 36.4V68.6C26.4999 67 20.8999 60.4 20.8999 52.5C20.8999 44.6 26.4999 38 33.8999 36.4Z" stroke="#323233" stroke-width="2" stroke-miterlimit="10" stroke-linecap="round" stroke-linejoin="round"/>
<path d="M33.8999 36.4V68.6C26.4999 67 20.8999 60.4 20.8999 52.5C20.8999 44.6 26.4999 38 33.8999 36.4Z" stroke="#323233" stroke-width="2" stroke-miterlimit="10" stroke-linecap="round" stroke-linejoin="round"/>
<path d="M33.8999 36.4V68.6C26.4999 67 20.8999 60.4 20.8999 52.5C20.8999 44.6 26.4999 38 33.8999 36.4Z" stroke="#323233" stroke-width="2" stroke-miterlimit="10" stroke-linecap="round" stroke-linejoin="round"/>
<path d="M33.8999 36.4V68.6C26.4999 67 20.8999 60.4 20.8999 52.5C20.8999 44.6 26.4999 38 33.8999 36.4Z" stroke="#323233" stroke-width="2" stroke-miterlimit="10" stroke-linecap="round" stroke-linejoin="round"/>
<path d="M33.8999 68.6V36.4" stroke="#323233" stroke-width="2" stroke-miterlimit="10" stroke-linecap="round" stroke-linejoin="round"/>
<path d="M70.8999 53C70.5999 71.3 55.6999 86 37.3999 86C18.8999 86 3.8999 71 3.8999 52.5C3.8999 34 18.8999 19 37.3999 19C46.5999 19 54.9999 22.8 61.0999 28.8L51.8999 38C48.1999 34.3 43.0999 32 37.3999 32C26.0999 32 16.8999 41.2 16.8999 52.5C16.8999 63.8 26.0999 73 37.3999 73C45.5999 73 52.6999 68.1 55.9999 61.1L47.8999 53H70.8999Z" stroke="#673AB7" stroke-width="2" stroke-miterlimit="10" stroke-linecap="round" stroke-linejoin="round"/>
</svg>