<svg width="82" height="83" viewBox="0 0 82 83" fill="none" xmlns="http://www.w3.org/2000/svg">
<path d="M80.8 41.2C80.8 63.3 63 81.4 40.9 81.4C18.9 81.4 1 63.3 1 41.2C1 32 4.10001 23.6 9.20001 16.8C16.4 7.1 28 1 40.9 1C54.6 1 66.9 8 74 18.7L40.5 50.1L32 40.9L56.1 18.3C51.9 15.3 46.5 13.5 40.9 13.5C31.3 13.5 22.8 18.5 17.9 26.1C15 30.5 13.4 35.7 13.4 41.2C13.4 56.4 25.8 68.9 40.8 68.9C55.9 68.9 68.2 56.5 68.2 41.2L79.3 30.8C80.3 34.1 80.8 37.6 80.8 41.2Z" stroke="#323233" stroke-width="2" stroke-miterlimit="10" stroke-linecap="round" stroke-linejoin="round"/>
</svg>