<svg width="91" height="93" viewBox="0 0 91 93" fill="none" xmlns="http://www.w3.org/2000/svg">
<path d="M81.3 19C86.8 26.4 90 35.6 90 45.5C90 70.1 70.1 90 45.5 90C35.6 90 26.4 86.8 19 81.3" stroke="#673AB7" stroke-width="2" stroke-miterlimit="10" stroke-linecap="round" stroke-linejoin="round"/>
<path d="M10 72.4C4.3 64.9 1 55.6 1 45.5C1 20.9 20.9 1 45.5 1C55.6 1 64.9 4.4 72.4 10" stroke="#323233" stroke-width="2" stroke-miterlimit="10" stroke-linecap="round" stroke-linejoin="round"/>
<path d="M72.0999 1.30005C64.3999 9.00005 55.2999 19.6 46.7999 33.3C38.6999 46.4 33.3999 58.7001 29.8999 68.7001H18.8999C22.7999 61.1001 27.6999 52.6 33.9999 43.5L16.3999 19.8H31.5999L42.1999 32.4C42.7999 31.6 43.4999 30.7 44.1999 29.9C53.7999 18.1 63.4999 8.60005 72.0999 1.30005Z" stroke="#323233" stroke-width="2" stroke-miterlimit="10" stroke-linecap="round" stroke-linejoin="round"/>
<path d="M28.2 91.5C29.5 82.4 32.3 70.3 38.3 56.9C45.9 40.1 55.6 28.2 62.7 20.6C66.6 20.6 70.6 20.6 74.5 20.6C71 23.5 66.8 27.5 62.7 32.6C59 37.3 56.2 41.9 54.3 45.7L71.8999 69.4H56.8L46.0999 56.9C42.9999 61.2 39.6999 66.2 36.5999 72.1C32.8999 79.1 30.2 85.7 28.2 91.5Z" stroke="#673AB7" stroke-width="2" stroke-miterlimit="10" stroke-linecap="round" stroke-linejoin="round"/>
</svg>