<svg width="32" height="32" viewBox="0 0 32 32" fill="none" xmlns="http://www.w3.org/2000/svg">
<path d="M16 32C24.8366 32 32 24.8366 32 16C32 7.16344 24.8366 0 16 0C7.16344 0 0 7.16344 0 16C0 24.8366 7.16344 32 16 32Z" fill="#1571FA"/>
<path d="M21.3109 16.7874C21.8325 15.9018 22.6741 15.9018 23.1958 16.7874L26.444 22.392C26.9656 23.2776 26.5388 24 25.4956 24H18.9518C17.9204 24 17.4936 23.2776 18.0034 22.392L21.3109 16.7874ZM15.0278 5.99754C15.5494 5.11198 16.3793 5.11198 16.9009 5.99754L17.624 7.27928L19.3311 10.2273C19.746 11.0662 19.746 12.0566 19.3311 12.8956L13.6053 22.6484C13.0836 23.4407 12.2182 23.9418 11.258 24H6.50425C5.46103 24 5.03426 23.2893 5.55587 22.392L15.0278 5.99754Z" fill="white"/>
</svg>
