<svg width="32" height="32" viewBox="0 0 32 32" fill="none" xmlns="http://www.w3.org/2000/svg">
<path d="M16 32C24.8366 32 32 24.8366 32 16C32 7.16344 24.8366 0 16 0C7.16344 0 0 7.16344 0 16C0 24.8366 7.16344 32 16 32Z" fill="#1571FA"/>
<path d="M11.5115 14.1559L15.9997 9.6679L20.4901 14.1583L23.1017 11.5467L15.9997 4.44446L8.90008 11.5444L11.5115 14.1559ZM4.44434 15.9996L7.05596 13.388L9.66742 15.9995L7.05581 18.6111L4.44434 15.9996ZM11.5115 17.844L15.9997 22.3321L20.49 17.8418L23.103 20.452L23.1017 20.4534L15.9997 27.5555L8.89984 20.4558L8.89615 20.4521L11.5115 17.844ZM22.3324 16.0011L24.944 13.3894L27.5554 16.0009L24.9438 18.6125L22.3324 16.0011Z" fill="white"/>
<path d="M18.6486 15.9985H18.6497L15.9997 13.3485L14.0413 15.3069H14.0411L13.8162 15.532L13.3521 15.9962L13.3484 15.9998L13.3521 16.0036L15.9997 18.6513L18.6497 16.0013L18.651 15.9998L18.6486 15.9985" fill="white"/>
</svg>
