<svg width="36" height="36" viewBox="0 0 36 36" fill="none" xmlns="http://www.w3.org/2000/svg">
<rect width="36" height="36" rx="18" fill="#1571fa"/>
<path d="M26.8219 14.1094C26.8219 14.3062 26.8219 14.5031 26.8219 14.6719C26.8219 20.4937 22.3781 27.2156 14.2781 27.2156C11.775 27.2156 9.46875 26.4844 7.5 25.2469C7.8375 25.275 8.20312 25.3031 8.54062 25.3031C10.5937 25.3031 12.5062 24.6 14.025 23.4187C12.0844 23.3906 10.4531 22.0969 9.91875 20.3531C10.2 20.4094 10.4531 20.4375 10.7625 20.4375C11.1562 20.4375 11.55 20.3812 11.9156 20.2687C9.89062 19.875 8.37187 18.1031 8.37187 15.9656C8.37187 15.9375 8.37187 15.9375 8.37187 15.9094C8.9625 16.2469 9.6375 16.4437 10.3687 16.4719C9.1875 15.6844 8.4 14.3344 8.4 12.7875C8.4 11.9719 8.625 11.2125 8.99062 10.5656C11.1562 13.2375 14.4187 14.9812 18.075 15.1781C17.9906 14.8687 17.9625 14.5031 17.9625 14.1656C17.9625 11.7187 19.9312 9.75 22.3781 9.75C23.6437 9.75 24.7969 10.2844 25.5844 11.1281C26.5969 10.9312 27.525 10.5656 28.3969 10.0594C28.0594 11.1 27.3562 11.9437 26.4562 12.5062C27.3562 12.3937 28.2 12.1687 28.9875 11.8031C28.425 12.7031 27.6937 13.4906 26.8219 14.1094Z" fill="white"/>
</svg>
