<svg width="609" height="192" viewBox="0 0 609 192" fill="none" xmlns="http://www.w3.org/2000/svg">
<path d="M142.012 0C145.844 5.02649 149.436 10.053 153.268 14.8401C166.918 32.0738 180.569 49.0681 194.219 66.3018C195.416 67.7379 195.656 68.9347 195.177 70.8496C188.951 97.4182 182.963 123.987 176.976 150.795C176.497 152.949 175.54 153.906 173.624 154.864C149.436 166.353 125.488 178.081 101.3 189.81C100.343 190.289 99.3846 190.767 98.4267 191.485C97.9477 191.485 97.7082 191.485 97.2293 191.485C96.2714 191.007 95.3134 190.289 94.3555 189.81C70.1679 178.081 46.2198 166.592 22.0323 154.864C20.1164 153.906 19.1585 152.71 18.6795 150.555C13.6504 128.535 8.62132 106.514 3.59222 84.4929C2.39481 79.4664 1.1974 74.6793 0 69.8921C0 69.4134 0 68.6954 0 68.2167C0.478962 67.7379 1.1974 67.0199 1.67637 66.5412C15.8057 48.8288 29.6956 31.1164 43.825 13.6433C47.1778 9.33491 50.5305 5.02649 53.8832 0.478715C83.3394 1.81901e-06 112.556 0 142.012 0ZM112.317 92.3917C111.359 92.3917 110.88 92.3917 110.401 92.3917C97.7082 95.0246 85.2552 97.6575 72.8022 100.29C71.6048 100.53 70.4074 101.487 69.689 102.445C59.6308 114.891 49.812 127.577 39.7538 140.024C38.0775 141.939 36.6406 144.093 34.7247 146.486C54.6017 156.061 73.9996 165.395 93.6371 174.97C99.8636 147.444 106.09 120.157 112.317 92.3917ZM16.7637 67.0199C18.2006 67.7379 19.1585 67.9773 19.8769 68.456C34.2458 74.4399 48.3752 80.4238 62.744 86.4078C65.1388 87.3652 66.3362 86.8865 67.7731 84.9716C74.4786 76.3548 81.4235 67.7379 88.129 59.3605C89.5659 57.685 89.5659 56.4882 88.129 54.8127C79.9866 44.7597 72.0838 34.4674 63.9414 24.4144C61.7861 21.7815 59.6308 19.1485 57.236 16.0369C43.825 33.2706 30.4141 49.7862 16.7637 67.0199ZM107.048 171.858C107.287 172.097 107.527 172.337 107.766 172.337C125.488 163.72 143.21 155.342 161.41 146.486C148.718 130.449 136.265 115.131 123.572 99.0937C118.064 123.987 112.556 147.922 107.048 171.858ZM167.637 134.758C168.116 133.322 168.355 132.843 168.595 132.125C172.426 115.131 176.258 98.1362 180.329 81.1419C181.048 78.2696 180.569 78.0303 177.455 78.509C163.805 81.3813 149.915 84.2535 136.265 87.1258C134.588 87.3652 132.912 87.8439 130.757 88.3226C143.21 103.881 155.184 118.96 167.637 134.758ZM128.841 75.8761C145.365 72.2857 161.41 69.1741 177.934 65.5837C165.721 50.0255 153.747 35.1854 141.533 19.8666C137.223 39.0151 133.151 57.2062 128.841 75.8761ZM57.7149 97.6575C43.5855 91.6736 29.9351 85.929 15.5663 79.9451C19.8769 98.3756 23.9481 116.327 27.7798 134.04C28.0193 134.04 28.2588 134.04 28.4982 134.279C38.0775 122.311 47.6567 110.104 57.7149 97.6575ZM97.9477 47.1533C107.287 35.4248 116.148 24.4144 125.249 12.6859C106.809 12.6859 88.8475 12.6859 70.4074 12.6859C79.7472 24.4144 88.608 35.4248 97.9477 47.1533ZM125.967 32.7919C125.728 32.7919 125.728 32.5525 125.488 32.5525C125.009 33.0312 124.77 33.5099 124.291 33.9886C119.262 40.2119 114.232 46.4352 109.203 52.8978C104.893 58.403 105.132 56.4882 109.203 61.754C111.598 64.8657 113.993 67.9773 117.106 71.5676C120.219 57.9243 123.093 45.2384 125.967 32.7919ZM84.0578 85.211C92.2002 83.5355 99.8636 81.86 108.245 80.1845C104.414 75.3974 101.3 71.3283 97.7082 67.0199C92.9186 73.0038 88.608 78.2696 84.2973 83.7748C84.2973 84.0142 84.2973 84.4929 84.0578 85.211Z" fill="url(#paint0_linear)"/>
<path d="M608.521 131.885C594.871 131.885 580.981 131.885 567.33 131.885C560.864 131.885 554.398 131.885 548.172 131.885C545.777 131.885 545.059 131.407 545.059 128.774C545.059 118.721 545.059 118.721 551.764 111.54C563.02 99.5724 574.515 87.3652 585.77 75.3973C586.01 74.9186 586.489 74.6793 587.207 73.7218C585.77 73.7218 584.812 73.7218 583.854 73.7218C572.12 73.7218 560.146 73.7218 548.411 73.7218C546.017 73.7218 545.059 73.0038 545.298 70.3708C545.538 67.7379 545.538 64.8657 545.298 62.2327C545.059 59.8392 546.256 59.1211 548.411 59.1211C563.499 59.1211 578.346 59.1211 593.434 59.1211C598.702 59.1211 603.731 59.1211 609 59.1211C609 63.6689 609 68.2166 609 72.7644C608.521 73.2431 608.042 73.4825 607.563 73.9612C594.392 87.8439 581.46 101.966 568.288 115.849C568.049 116.088 568.049 116.327 567.57 117.045C568.767 117.045 569.725 117.045 570.444 117.045C579.544 117.045 588.405 117.285 597.505 117.045C602.773 117.045 606.605 118.721 608.761 123.747C608.521 126.859 608.521 129.253 608.521 131.885Z" fill="black"/>
<path d="M273.248 70.3714C273.727 69.8927 274.445 69.6533 274.685 69.1746C283.546 54.5739 305.817 54.5739 317.552 64.8662C325.455 71.8075 329.526 80.6637 330.723 90.7167C331.921 103.642 329.047 115.37 319.707 124.705C310.607 133.562 299.83 135.955 287.617 132.365C282.588 130.929 278.517 127.578 275.403 123.269C274.924 122.551 274.206 121.833 273.009 121.115C273.009 122.072 272.769 123.03 272.769 123.987C272.769 132.365 272.769 140.742 272.769 149.12C272.769 152.231 272.53 155.104 270.135 157.497C267.74 160.13 260.316 161.806 257.203 160.37C256.724 160.13 256.484 159.651 256.484 159.173C256.245 158.455 256.484 157.737 256.484 157.019C256.484 125.663 256.484 94.3071 256.484 62.9513C256.484 59.361 256.484 59.361 260.077 59.361C263.429 59.361 266.782 59.361 270.135 59.361C272.051 59.361 272.769 60.0791 272.53 61.9939C272.53 64.6268 272.53 67.2598 272.53 70.132C272.769 70.132 273.009 70.3714 273.248 70.3714ZM272.53 95.5038C272.769 98.1368 273.009 100.77 273.488 103.163C275.643 112.498 282.827 118.961 292.167 119.2C302.704 119.44 310.368 114.174 313.241 104.599C314.918 99.3336 314.918 93.8284 313.72 88.5625C311.804 78.9882 303.902 72.5256 294.322 72.2863C283.785 72.0469 276.122 77.7915 273.488 87.6051C273.009 90.238 273.009 93.1103 272.53 95.5038Z" fill="black"/>
<path d="M498.839 95.743C498.839 115.131 487.105 129.971 468.425 133.322C446.872 137.152 426.995 123.987 424.6 101.248C422.924 86.6474 426.995 73.9615 438.969 64.8659C459.564 49.5471 494.289 58.6427 498.121 90.4771C498.6 92.1526 498.839 93.8281 498.839 95.743ZM482.554 95.9823C482.315 93.5887 482.075 91.6739 481.836 89.5197C480.16 79.9454 472.736 73.2434 463.635 72.7647C452.38 72.286 444.477 77.5518 442.082 87.6048C441.124 92.1526 440.885 96.9397 441.603 101.488C442.801 111.54 450.464 118.242 460.043 118.482C471.538 118.961 479.441 113.216 481.836 102.684C482.075 100.53 482.315 98.1365 482.554 95.9823Z" fill="black"/>
<path d="M415.021 95.743C415.021 115.131 403.286 129.971 384.846 133.322C361.616 137.391 341.26 121.833 340.781 97.4185C340.542 84.0145 344.613 72.7647 355.629 64.866C367.843 56.0098 381.493 55.2917 394.904 61.7543C407.836 67.9776 414.063 78.988 415.021 93.3494C414.781 94.0675 414.781 94.7855 415.021 95.743ZM356.827 95.9823C357.066 98.3759 357.306 100.769 357.785 103.163C359.94 112.977 367.364 118.721 377.422 118.721C387.72 118.721 395.383 113.216 397.538 103.402C398.257 99.5727 398.496 95.5036 398.257 91.6739C397.299 81.1422 389.875 73.4828 380.056 73.0041C368.322 72.286 360.179 78.0306 357.785 89.2803C357.066 91.1952 357.066 93.5888 356.827 95.9823Z" fill="black"/>
<path d="M529.013 81.142C529.013 96.9395 529.013 112.498 529.013 128.295C529.013 131.886 529.013 131.886 525.421 131.886C522.068 131.886 518.476 131.886 515.124 131.886C513.447 131.886 512.489 131.407 512.489 129.492C512.489 99.3331 512.489 69.4135 512.489 39.2546C512.489 33.9887 516.56 30.3984 521.59 30.159C528.774 29.9197 528.774 29.9197 528.774 37.1004C529.013 51.9405 529.013 66.5412 529.013 81.142Z" fill="black"/>
<defs>
<linearGradient id="paint0_linear" x1="-19.2466" y1="105.856" x2="229.419" y2="105.856" gradientUnits="userSpaceOnUse">
<stop stop-color="#12B7DB"/>
<stop offset="0.375" stop-color="#8B5AEA"/>
<stop offset="0.713542" stop-color="#CC67C8"/>
<stop offset="1" stop-color="#F16FB3"/>
</linearGradient>
</defs>
</svg>
