<svg xmlns:dc="http://purl.org/dc/elements/1.1/" xmlns:cc="http://creativecommons.org/ns#" xmlns:rdf="http://www.w3.org/1999/02/22-rdf-syntax-ns#" xmlns:svg="http://www.w3.org/2000/svg" xmlns="http://www.w3.org/2000/svg" viewBox="0 0 180 180"><metadata><rdf:RDF><cc:Work><dc:format>image/svg+xml</dc:format><dc:type rdf:resource="http://purl.org/dc/dcmitype/StillImage"/><dc:title>Bottts</dc:title><dc:creator><cc:Agent><dc:title>Pablo Stanley</dc:title></cc:Agent></dc:creator><dc:source>https://bottts.com/</dc:source><cc:license rdf:resource="https://bottts.com/"/><dc:contributor><cc:Agent><dc:title>Florian Körner</dc:title></cc:Agent></dc:contributor></cc:Work></rdf:RDF></metadata><mask id="avatarsRadiusMask"><rect width="180" height="180" rx="0" ry="0" x="0" y="0" fill="#fff"/></mask><g mask="url(#avatarsRadiusMask)"><g transform="translate(0, 66)"><path fill-rule="evenodd" clip-rule="evenodd" d="M13 11H11V31H12.4C10.1598 31 9.03969 31 8.18404 31.436C7.43139 31.8195 6.81947 32.4314 6.43597 33.184C6 34.0397 6 35.1598 6 37.4V38.6C6 40.8402 6 41.9603 6.43597 42.816C6.81947 43.5686 7.43139 44.1805 8.18404 44.564C9.03969 45 10.1598 45 12.4 45H18V55.6C18 57.8402 18 58.9603 18.436 59.816C18.8195 60.5686 19.4314 61.1805 20.184 61.564C21.0397 62 22.1598 62 24.4 62H47.6C49.8402 62 50.9603 62 51.816 61.564C52.5686 61.1805 53.1805 60.5686 53.564 59.816C54 58.9603 54 57.8402 54 55.6V20.4C54 18.1598 54 17.0397 53.564 16.184C53.1805 15.4314 52.5686 14.8195 51.816 14.436C50.9603 14 49.8402 14 47.6 14H24.4C22.1598 14 21.0397 14 20.184 14.436C19.4314 14.8195 18.8195 15.4314 18.436 16.184C18 17.0397 18 18.1598 18 20.4V31H13V11ZM126 34.4C126 32.1598 126 31.0397 126.436 30.184C126.819 29.4314 127.431 28.8195 128.184 28.436C129.04 28 130.16 28 132.4 28H155.6C157.84 28 158.96 28 159.816 28.436C160.569 28.8195 161.181 29.4314 161.564 30.184C162 31.0397 162 32.1598 162 34.4V45.6C162 47.8402 162 48.9603 161.564 49.816C161.181 50.5686 160.569 51.1805 159.816 51.564C158.96 52 157.84 52 155.6 52H132.4C130.16 52 129.04 52 128.184 51.564C127.431 51.1805 126.819 50.5686 126.436 49.816C126 48.9603 126 47.8402 126 45.6V34.4Z" fill="#0076DE"/><mask id="sidesAntenna01Mask0" mask-type="alpha" maskUnits="userSpaceOnUse" x="6" y="11" width="156" height="51"><path fill-rule="evenodd" clip-rule="evenodd" d="M13 11H11V31H12.4C10.1598 31 9.03969 31 8.18404 31.436C7.43139 31.8195 6.81947 32.4314 6.43597 33.184C6 34.0397 6 35.1598 6 37.4V38.6C6 40.8402 6 41.9603 6.43597 42.816C6.81947 43.5686 7.43139 44.1805 8.18404 44.564C9.03969 45 10.1598 45 12.4 45H18V55.6C18 57.8402 18 58.9603 18.436 59.816C18.8195 60.5686 19.4314 61.1805 20.184 61.564C21.0397 62 22.1598 62 24.4 62H47.6C49.8402 62 50.9603 62 51.816 61.564C52.5686 61.1805 53.1805 60.5686 53.564 59.816C54 58.9603 54 57.8402 54 55.6V20.4C54 18.1598 54 17.0397 53.564 16.184C53.1805 15.4314 52.5686 14.8195 51.816 14.436C50.9603 14 49.8402 14 47.6 14H24.4C22.1598 14 21.0397 14 20.184 14.436C19.4314 14.8195 18.8195 15.4314 18.436 16.184C18 17.0397 18 18.1598 18 20.4V31H13V11ZM126 34.4C126 32.1598 126 31.0397 126.436 30.184C126.819 29.4314 127.431 28.8195 128.184 28.436C129.04 28 130.16 28 132.4 28H155.6C157.84 28 158.96 28 159.816 28.436C160.569 28.8195 161.181 29.4314 161.564 30.184C162 31.0397 162 32.1598 162 34.4V45.6C162 47.8402 162 48.9603 161.564 49.816C161.181 50.5686 160.569 51.1805 159.816 51.564C158.96 52 157.84 52 155.6 52H132.4C130.16 52 129.04 52 128.184 51.564C127.431 51.1805 126.819 50.5686 126.436 49.816C126 48.9603 126 47.8402 126 45.6V34.4Z" fill="white"/></mask><g mask="url(#sidesAntenna01Mask0)"><rect width="180" height="76" fill="#78909C"/><rect y="38" width="180" height="38" fill="black" fill-opacity="0.1"/></g><rect x="11" y="11" width="2" height="20" fill="white" fill-opacity="0.4"/><path fill-rule="evenodd" clip-rule="evenodd" d="M12 12C14.2091 12 16 10.2091 16 8C16 5.79086 14.2091 4 12 4C9.79086 4 8 5.79086 8 8C8 10.2091 9.79086 12 12 12Z" fill="#FFEA8F"/><path fill-rule="evenodd" clip-rule="evenodd" d="M13 9C14.1046 9 15 8.10457 15 7C15 5.89543 14.1046 5 13 5C11.8954 5 11 5.89543 11 7C11 8.10457 11.8954 9 13 9Z" fill="white"/></g><g transform="translate(41, 0)"><path fill-rule="evenodd" clip-rule="evenodd" d="M71.2104 40C78.8499 33.2931 84.6313 20.6882 84 14C83.8635 12.5535 85.9998 12.2993 87 14C91.418 21.5124 89.7172 36.0672 89.1535 40H92V52H66V40H71.2104ZM16.521 13.7408C16.521 21.2733 21.4918 33.445 29.2618 40H34V52H8V40H11.2251C10.6299 36.4414 8.52929 21.6012 13.4337 14.1009C14.3353 12.7219 16.521 12.6807 16.521 13.7408Z" fill="#E1E6E8"/><mask id="topHornsMask0" mask-type="alpha" maskUnits="userSpaceOnUse" x="8" y="12" width="84" height="40"><path fill-rule="evenodd" clip-rule="evenodd" d="M71.2104 40C78.8499 33.2931 84.6313 20.6882 84 14C83.8635 12.5535 85.9998 12.2993 87 14C91.418 21.5124 89.7172 36.0672 89.1535 40H92V52H66V40H71.2104ZM16.521 13.7408C16.521 21.2733 21.4918 33.445 29.2618 40H34V52H8V40H11.2251C10.6299 36.4414 8.52929 21.6012 13.4337 14.1009C14.3353 12.7219 16.521 12.6807 16.521 13.7408Z" fill="white"/></mask><g mask="url(#topHornsMask0)"><rect width="100" height="52" fill="#78909C"/><rect y="40" width="100" height="12" fill="black" fill-opacity="0.4"/><path fill-rule="evenodd" clip-rule="evenodd" d="M15.4558 13H31.5689V40H20.8201C13.3712 32.1499 15.4558 13 15.4558 13Z" fill="white" fill-opacity="0.4"/><path fill-rule="evenodd" clip-rule="evenodd" d="M84.8203 13H92.5691V40H81.8203C87.5713 32.1946 84.8203 13 84.8203 13Z" fill="white" fill-opacity="0.4"/></g></g><g transform="translate(25, 44)"><rect width="130" height="120" rx="18" fill="#0076DE"/><mask id="faceSquare01Mask0" mask-type="alpha" maskUnits="userSpaceOnUse" x="0" y="0" width="130" height="120"><rect width="130" height="120" rx="18" fill="white"/></mask><g mask="url(#faceSquare01Mask0)"><rect x="-2" y="-2" width="134" height="124" fill="#546E7A"/><path fill-rule="evenodd" clip-rule="evenodd" d="M120 130.649C116.812 113.308 110.453 128.073 95.1523 125.017C88.3923 123.666 93.8542 117.769 88.8124 115.213C84.5536 113.054 78.7499 114.793 73.8715 113.397C66.8312 111.382 66.9237 107.282 60.3639 106.669C54.1604 106.09 47.6616 107.999 41.4049 107.282C29.5967 105.928 34.4383 88.0585 25.5835 84.9025C16.7287 81.7465 2.15043 87.1967 0.242157 96.1317C-1.61816 104.842 10.8129 137.252 10.8129 137.252H120" fill="black" fill-opacity="0.2"/><path fill-rule="evenodd" clip-rule="evenodd" d="M156 122.767C104.757 122.767 99.4219 96.9746 74.2092 85.1582C48.9964 73.3418 26.9059 103.905 18.4298 74.2122C9.9537 44.5195 10.0005 137.072 10.0005 137.072H156V122.767Z" fill="black" fill-opacity="0.1"/><path fill-rule="evenodd" clip-rule="evenodd" d="M161.575 9.17587C149.64 8.20079 156.546 19.9843 151.83 19.9843C144.863 19.9843 149.727 12.0062 141.247 12.2048C139.028 12.2568 136.303 14.1443 136.135 16.709C135.773 22.2193 139.852 31.7253 134.297 31.9953C129.117 32.247 133.193 22.3562 132.652 15.7593C132.343 11.9871 128.47 9.00745 125.684 9.00745C118.113 9.00745 123.998 24.7147 118.549 24.7147C113.1 24.7147 117.341 15.6639 113.467 10.8715C108.964 5.29973 94.1677 2.55906 104.718 0H161.867" fill="black" fill-opacity="0.4"/></g></g><g transform="translate(52, 124)"><path fill-rule="evenodd" clip-rule="evenodd" d="M18 10.2222C18 21.7845 24.4741 28 38 28C51.5182 28 58 21.6615 58 10.2222C58 9.49622 57.1739 8 55 8C39.2707 8 29.1917 8 21 8C18.949 8 18 9.38479 18 10.2222Z" fill="black" fill-opacity="0.8"/><mask id="mouthSmilie02Mask0" mask-type="alpha" maskUnits="userSpaceOnUse" x="18" y="8" width="40" height="20"><path fill-rule="evenodd" clip-rule="evenodd" d="M18 10.2222C18 21.7845 24.4741 28 38 28C51.5182 28 58 21.6615 58 10.2222C58 9.49622 57.1739 8 55 8C39.2707 8 29.1917 8 21 8C18.949 8 18 9.38479 18 10.2222Z" fill="white"/></mask><g mask="url(#mouthSmilie02Mask0)"><rect x="30" y="2" width="16" height="14" rx="2" fill="white"/></g></g><g transform="translate(38, 76)"><rect y="11" width="104" height="34" rx="17" fill="black" fill-opacity="0.8"/><path fill-rule="evenodd" clip-rule="evenodd" d="M29 41C36.1797 41 42 35.1797 42 28C42 20.8203 36.1797 15 29 15C21.8203 15 16 20.8203 16 28C16 35.1797 21.8203 41 29 41Z" fill="#F1EEDA"/><path fill-rule="evenodd" clip-rule="evenodd" d="M75 41C82.1797 41 88 35.1797 88 28C88 20.8203 82.1797 15 75 15C67.8203 15 62 20.8203 62 28C62 35.1797 67.8203 41 75 41Z" fill="#F1EEDA"/><rect x="24" y="23" width="10" height="10" rx="2" fill="black" fill-opacity="0.8"/><rect x="70" y="23" width="10" height="10" rx="2" fill="black" fill-opacity="0.8"/></g></g></svg>