<svg width="520" height="460" viewBox="0 0 520 460" fill="none" xmlns="http://www.w3.org/2000/svg">
<mask id="mask0" mask-type="alpha" maskUnits="userSpaceOnUse" x="0" y="0" width="520" height="460">
<rect width="520" height="460" fill="#C4C4C4"/>
</mask>
<g mask="url(#mask0)">
<path d="M378.101 3.02165L289.733 200.828L416.546 376.171L504.914 178.364L378.101 3.02165Z" fill="url(#paint0_linear)"/>
<path d="M378.023 2.9475L162.869 25.409L74.0985 222.887L289.666 200.732L378.023 2.9475Z" fill="url(#paint1_linear)"/>
<path d="M289.783 200.725L74.1533 222.887L200.987 398.26L416.617 376.099L289.783 200.725Z" fill="url(#paint2_linear)"/>
<path d="M446.314 453.261H207.238C207.072 453.261 206.912 453.194 206.795 453.073C206.677 452.952 206.611 452.787 206.611 452.616C206.611 452.445 206.677 452.281 206.795 452.16C206.912 452.039 207.072 451.971 207.238 451.971H446.314C446.48 451.971 446.64 452.039 446.758 452.16C446.875 452.281 446.942 452.445 446.942 452.616C446.942 452.787 446.875 452.952 446.758 453.073C446.64 453.194 446.48 453.261 446.314 453.261Z" fill="#6C6A82"/>
<rect x="61.4043" y="125.767" width="416.191" height="230.081" fill="#6B7B93"/>
<rect x="61.4043" y="125.767" width="416.191" height="230.081" fill="white" fill-opacity="0.15"/>
<rect x="69.04" y="133.403" width="400.92" height="214.81" fill="#93C5FE"/>
<rect x="69.04" y="133.403" width="400.92" height="214.81" fill="white" fill-opacity="0.85"/>
<rect x="69.04" y="133.403" width="400.92" height="214.81" stroke="white" stroke-width="3"/>
<path d="M61.4041 129.665H476.405V140.669H61.4041V129.665Z" fill="#6B7B93"/>
<path d="M61.4041 129.665H476.405V140.669H61.4041V129.665Z" fill="white" fill-opacity="0.15"/>
<path d="M468.117 138.012C466.545 138.012 465.27 136.738 465.27 135.167C465.27 133.595 466.545 132.322 468.117 132.322C469.69 132.322 470.964 133.595 470.964 135.167C470.964 136.738 469.69 138.012 468.117 138.012Z" fill="white"/>
<path d="M460.452 138.012C458.879 138.012 457.604 136.738 457.604 135.167C457.604 133.595 458.879 132.322 460.452 132.322C462.024 132.322 463.299 133.595 463.299 135.167C463.299 136.738 462.024 138.012 460.452 138.012Z" fill="white"/>
<path d="M452.786 138.012C451.214 138.012 449.939 136.738 449.939 135.167C449.939 133.595 451.214 132.322 452.786 132.322C454.359 132.322 455.633 133.595 455.633 135.167C455.633 136.738 454.359 138.012 452.786 138.012Z" fill="white"/>
<path d="M301.8 164.854H370.352V207.9H301.8V164.854Z" fill="#1571FA"/>
<path opacity="0.2" d="M396.716 164.854H465.268V207.9H396.716V164.854Z" fill="#6C6A82"/>
<path opacity="0.2" d="M206.882 164.854H275.435V207.9H206.882V164.854Z" fill="#6C6A82"/>
<path opacity="0.2" d="M396.717 226.394H465.269V269.441H396.717V226.394Z" fill="#6C6A82"/>
<path opacity="0.2" d="M301.8 226.394H370.352V269.441H301.8V226.394Z" fill="#6C6A82"/>
<path opacity="0.2" d="M206.882 226.394H275.435V269.441H206.882V226.394Z" fill="#6C6A82"/>
<path opacity="0.2" d="M396.717 287.931H465.269V330.977H396.717V287.931Z" fill="#6C6A82"/>
<path opacity="0.2" d="M301.8 287.931H370.352V330.977H301.8V287.931Z" fill="#6C6A82"/>
<path opacity="0.2" d="M206.882 287.931H275.435V330.977H206.882V287.931Z" fill="#6C6A82"/>
<path d="M318.6 202.56L323.331 204.232L325.048 201.387C326.362 199.198 328.184 196.204 329.529 194.029C331.903 190.203 328.798 184.372 328.798 184.372C328.798 184.372 328.237 178.52 326.239 176.716C324.242 174.913 323.686 184.372 323.686 184.372C315.665 188.014 319.962 196.581 319.962 196.581L319.183 199.978L318.6 202.56Z" fill="#EC7160"/>
<path d="M318.6 202.56L323.331 204.232L325.048 201.387C326.362 199.198 328.184 196.204 329.529 194.029C331.903 190.203 328.798 184.372 328.798 184.372C328.798 184.372 328.237 178.52 326.239 176.716C324.242 174.913 323.686 184.372 323.686 184.372C315.665 188.014 319.962 196.581 319.962 196.581L319.183 199.978L318.6 202.56Z" fill="white" fill-opacity="0.5"/>
<path opacity="0.1" d="M318.6 202.56L323.331 204.232L325.048 201.387V201.137C325.048 201.137 322.336 199.277 319.174 199.977L318.6 202.56Z" fill="#1D1B2B"/>
<path d="M326.239 221.732L323.869 219.728L325.056 201.684C325.056 201.684 318.924 197.491 314.386 204.052C314.386 204.052 314.57 208.062 314.386 209.156C314.202 210.251 315.661 211.345 314.386 212.435C313.111 213.525 314.386 217.176 314.386 217.176C314.386 217.176 312.945 219.728 312.034 220.454C311.123 221.181 310.207 227.2 312.034 228.474C313.86 229.747 317.286 232.667 317.286 233.941C317.286 235.215 321.666 238.318 321.666 238.318L325.512 233.236L326.239 221.732Z" fill="#6C6A82"/>
<path d="M377.49 331.262C386.33 327.515 384.367 318.361 382.703 313.752C382.37 312.818 381.98 311.906 381.533 311.021L376.575 308.013C376.575 308.013 375.563 310.592 374.481 314.05C371.971 322.095 369.084 334.829 377.49 331.262Z" fill="#EC7160"/>
<path d="M377.49 331.262C386.33 327.515 384.367 318.361 382.703 313.752C382.37 312.818 381.98 311.906 381.533 311.021L376.575 308.013C376.575 308.013 375.563 310.592 374.481 314.05C371.971 322.095 369.084 334.829 377.49 331.262Z" fill="white" fill-opacity="0.5"/>
<path d="M365.338 414.776C365.936 415.942 366.378 417.181 366.652 418.462C367.09 420.523 367.281 422.629 367.221 424.735C367.186 426.192 367.064 427.147 367.064 427.147L376.911 433.914C376.911 433.914 376.854 433.122 376.757 431.957C376.503 428.858 375.973 423.106 375.474 422.362C375.128 421.846 374.887 419.771 374.734 417.845C374.58 415.919 374.519 414.229 374.519 414.229C374.519 414.229 362.67 409.791 365.338 414.776Z" fill="#EC7160"/>
<path d="M365.338 414.776C365.936 415.942 366.378 417.181 366.652 418.462C367.09 420.523 367.281 422.629 367.221 424.735C367.186 426.192 367.064 427.147 367.064 427.147L376.911 433.914C376.911 433.914 376.854 433.122 376.757 431.957C376.503 428.858 375.973 423.106 375.474 422.362C375.128 421.846 374.887 419.771 374.734 417.845C374.58 415.919 374.519 414.229 374.519 414.229C374.519 414.229 362.67 409.791 365.338 414.776Z" fill="white" fill-opacity="0.5"/>
<path d="M342.083 419.631C342.083 419.631 342.083 421.513 342.153 423.702C342.223 425.89 342.354 428.473 342.63 429.677C342.884 430.78 342.902 432.807 342.854 434.676C342.788 436.864 342.63 438.834 342.63 438.834C342.63 438.834 352.683 429.335 351.658 428.583C351.382 428.381 351.111 427.571 350.861 426.495C350.554 425.181 350.278 423.43 350.072 421.942C349.827 420.169 349.674 418.742 349.674 418.742L342.083 419.631Z" fill="#EC7160"/>
<path d="M342.083 419.631C342.083 419.631 342.083 421.513 342.153 423.702C342.223 425.89 342.354 428.473 342.63 429.677C342.884 430.78 342.902 432.807 342.854 434.676C342.788 436.864 342.63 438.834 342.63 438.834C342.63 438.834 352.683 429.335 351.658 428.583C351.382 428.381 351.111 427.571 350.861 426.495C350.554 425.181 350.278 423.43 350.072 421.942C349.827 420.169 349.674 418.742 349.674 418.742L342.083 419.631Z" fill="white" fill-opacity="0.5"/>
<path opacity="0.1" d="M365.338 414.776C365.936 415.942 366.378 417.181 366.652 418.462C369.347 418.392 372.037 418.186 374.712 417.845C374.563 415.963 374.497 414.229 374.497 414.229C374.497 414.229 362.67 409.791 365.338 414.776Z" fill="#1D1B2B"/>
<path opacity="0.1" d="M342.083 419.631C342.083 419.631 342.083 421.513 342.153 423.701C345.289 424.502 348.513 422.9 350.073 421.951C349.827 420.178 349.674 418.751 349.674 418.751L342.083 419.631Z" fill="#1D1B2B"/>
<path d="M321.5 326.525C325.512 335.28 327.155 345.663 327.155 345.663L328.613 354.417C328.613 354.417 327.882 358.243 328.613 359.701C329.345 361.158 330.804 363.531 330.804 363.531C330.804 363.531 329.708 372.461 330.804 373.371C331.899 374.282 330.804 379.749 330.804 379.749L334.452 398.134L339.56 421.824C344.483 425.838 351.036 420.734 351.036 420.734L349.591 405.242C349.591 405.242 347.401 378.103 348.312 376.991C349.223 375.879 347.948 372.434 347.948 372.434C347.948 372.434 346.669 369.151 347.58 367.878C348.491 366.604 347.401 363.868 347.401 363.868C347.401 363.868 347.764 352.75 346.669 350.198C345.574 347.646 346.669 331.861 346.669 331.861L347.107 326.945L347.361 324.223L347.383 323.956C347.383 323.956 347.55 325.046 347.821 326.735C348.627 331.879 350.344 342.537 351.023 344.73C351.485 346.311 352.112 347.838 352.894 349.287C352.894 349.287 351.947 354.754 352.894 356.212C353.84 357.67 353.038 359.311 353.038 359.311C353.038 359.311 352.127 363.868 354.865 365.689C357.602 367.51 354.865 368.425 354.865 368.425C354.865 368.425 356.871 372.802 357.598 374.619C358.325 376.435 357.598 378.996 357.598 378.996L359.057 393.756C359.057 393.756 360.336 399.95 360.152 404.144C359.968 408.337 361.794 417.994 361.794 417.994C361.794 417.994 375.838 417.994 378.002 416.352C380.165 414.711 374.388 398.698 374.388 398.698C374.388 398.698 372.745 370.631 373.113 369.904C373.481 369.178 373.113 363.706 371.834 362.616C370.555 361.526 371.834 359.333 371.834 359.333C371.834 359.333 372.198 354.956 371.834 353.866C371.47 352.776 371.891 349.125 371.891 349.125C371.891 349.125 373.113 340.196 373.293 335.092C373.472 329.988 374.388 318.51 374.388 318.51C374.388 318.51 373.433 311.41 373.288 308.031C373.236 306.788 372.679 305.234 371.974 303.772C371.185 302.121 370.277 300.529 369.258 299.009C369.258 299.009 326.046 286.245 324.233 287.515C323.751 287.852 323.05 290.141 322.358 293.455C320.431 302.713 318.547 320.091 321.5 326.525Z" fill="#1C2147"/>
<path d="M348.123 215.136C341.173 215.136 335.539 209.505 335.539 202.56C335.539 195.614 341.173 189.984 348.123 189.984C355.074 189.984 360.708 195.614 360.708 202.56C360.708 209.505 355.074 215.136 348.123 215.136Z" fill="#1571FA"/>
<path opacity="0.1" d="M322.358 293.463C323.808 294.207 324.781 294.72 324.781 294.72C324.781 294.72 345.206 304.38 351.014 303.833C355.509 303.395 366.981 303.645 371.979 303.767C371.189 302.117 370.282 300.525 369.263 299.005C369.263 299.005 326.046 286.245 324.233 287.515C323.751 287.86 323.05 290.141 322.358 293.463Z" fill="#1D1B2B"/>
<path d="M356.88 222.643C356.88 222.643 368.536 224.481 371.286 226.285C374.037 228.088 379.486 231.573 379.486 239.045C379.486 246.517 380.761 254.173 381.493 256.357C382.224 258.541 370.003 276.221 370.003 276.221L374.383 303.015C374.383 303.015 356.862 302.467 351.027 303.015C345.193 303.562 324.776 293.901 324.776 293.901C324.776 293.901 312.739 287.523 310.185 287.335C307.632 287.147 315.293 273.301 315.293 273.301C315.293 273.301 327.15 250.89 325.144 247.243C323.138 243.597 321.666 238.314 321.666 238.314L323.856 219.728C323.856 219.728 327.137 218.633 329.875 220.638C332.613 222.643 341.912 221.548 341.912 221.548L356.88 222.643Z" fill="#6C6A82"/>
<path opacity="0.1" d="M376.664 255.083L381.237 256.357L382.503 273.507C382.503 273.507 380.86 278.064 382.503 279.522C384.145 280.979 384.509 312.146 384.509 312.146C384.509 312.146 379.218 315.971 373.019 313.056C373.019 313.056 373.931 309.594 371.193 297.018C368.455 284.442 368.46 278.064 368.46 278.064C368.46 278.064 368.46 262.389 367.18 259.837C365.901 257.285 367.18 250.907 367.18 250.907C367.18 250.907 369.734 247.445 369.555 246.171C369.375 244.897 376.664 255.083 376.664 255.083Z" fill="#1D1B2B"/>
<path opacity="0.1" d="M374.481 314.063C377.166 314.967 380.09 314.861 382.703 313.765C382.37 312.831 381.979 311.919 381.533 311.034L376.575 308.027C376.575 308.027 375.545 310.605 374.481 314.063Z" fill="#1D1B2B"/>
<path d="M376.941 255.083L381.501 256.357L382.776 273.507C382.776 273.507 381.133 278.064 382.776 279.522C384.418 280.979 384.782 312.146 384.782 312.146C384.782 312.146 379.486 315.967 373.292 313.039C373.292 313.039 374.203 309.577 371.47 297C368.737 284.424 368.732 278.047 368.732 278.047C368.732 278.047 368.732 262.371 367.458 259.82C366.183 257.268 367.458 250.89 367.458 250.89C367.458 250.89 370.011 247.427 369.827 246.154C369.643 244.88 376.941 255.083 376.941 255.083Z" fill="#6C6A82"/>
<path opacity="0.1" d="M330.251 257.814C330.251 257.814 332.62 278.226 339.554 282.056C339.554 282.056 324.052 277.683 330.251 257.814Z" fill="#1D1B2B"/>
<path opacity="0.1" d="M365.084 259.639C365.084 259.639 356.516 263.829 358.514 266.744C360.511 269.66 365.084 259.639 365.084 259.639Z" fill="#1D1B2B"/>
<path opacity="0.1" d="M365.084 268.023C365.084 268.023 359.613 273.674 360.704 275.678C361.794 277.683 365.084 268.023 365.084 268.023Z" fill="#1D1B2B"/>
<path opacity="0.1" d="M320.952 221.185C320.952 221.185 318.806 224.827 318.6 227.2C318.394 229.572 320.952 221.185 320.952 221.185Z" fill="#1D1B2B"/>
<path opacity="0.1" d="M320.952 216.265C320.952 216.265 319.875 215.35 317.124 216.265C314.373 217.18 320.952 216.265 320.952 216.265Z" fill="#1D1B2B"/>
<path opacity="0.2" d="M331.483 322.787C336.001 323.428 340.609 322.838 344.821 321.08L347.12 326.963L347.375 324.24C346.998 321.955 346.266 319.509 344.821 318.891C344.821 318.891 339.757 322.923 331.483 322.787Z" fill="#1D1B2B"/>
<path opacity="0.1" d="M368.895 330.443C368.895 330.443 357.677 332.768 354.532 332.357L368.895 330.443Z" fill="#1D1B2B"/>
<path opacity="0.1" d="M367.73 333.38C367.73 333.38 362.943 333.174 360.551 334.133L367.73 333.38Z" fill="#1D1B2B"/>
<path opacity="0.1" d="M367.182 335.363C364.998 335.827 362.78 336.12 360.55 336.239L367.182 335.363Z" fill="#1D1B2B"/>
<path opacity="0.2" d="M367.459 360.445C367.253 360.31 357.883 358.12 356.718 359.692L367.459 360.445Z" fill="#1D1B2B"/>
<path opacity="0.2" d="M367.459 363.317C367.459 363.317 359.32 362.358 359.114 363.317C358.908 364.276 367.459 363.317 367.459 363.317Z" fill="#1D1B2B"/>
<path opacity="0.2" d="M367.459 365.912C367.459 365.912 358.773 364.117 357.748 364.555C356.723 364.993 367.459 365.912 367.459 365.912Z" fill="#1D1B2B"/>
<path opacity="0.1" d="M367.047 427.151L376.894 433.918C376.894 433.918 376.837 433.126 376.74 431.961C374.55 426.577 371.698 423.737 371.698 423.737C369.478 423.159 368.076 423.693 367.204 424.739C367.169 426.192 367.047 427.151 367.047 427.151Z" fill="#1D1B2B"/>
<path d="M366.087 433.231C367.479 436.403 368.179 439.835 368.142 443.299C368.086 446.139 368.807 448.94 370.227 451.401C370.432 451.748 370.664 452.078 370.919 452.39C370.919 452.39 377.761 452.333 380.157 450.35C380.426 450.138 380.646 449.869 380.801 449.563C382.172 446.831 378.133 436.374 378.133 436.374C376.013 428.311 371.707 424.003 371.707 424.003C364.037 422.021 366.087 433.231 366.087 433.231Z" fill="#6C6A82"/>
<path opacity="0.25" d="M370.227 451.379C370.432 451.726 370.664 452.057 370.919 452.369C370.919 452.369 377.761 452.312 380.157 450.329C378.979 446.433 375.221 434.645 373.46 436.65C371.804 438.532 370.652 447.589 370.227 451.379Z" fill="#1D1B2B"/>
<path d="M371.163 437.381L371.58 452.994H369.285C369.285 452.994 368.973 439.548 367.948 437.381C366.923 435.214 371.163 437.381 371.163 437.381Z" fill="#6C6A82"/>
<path opacity="0.1" d="M342.63 438.834C342.63 438.834 352.683 429.335 351.658 428.582C351.382 428.381 351.111 427.571 350.861 426.494C348.929 426.157 345.604 426.962 342.854 434.675C342.788 436.864 342.63 438.834 342.63 438.834Z" fill="#1D1B2B"/>
<path d="M341.128 449.427C341.205 449.46 341.286 449.484 341.369 449.497C342.551 449.703 346.91 449.585 349.35 449.497C349.797 449.482 350.221 449.295 350.532 448.974C350.843 448.653 351.018 448.224 351.019 447.777C351.019 447.12 351.019 446.319 351.071 445.466C351.185 442.769 351.509 439.561 352.477 438.838C354.19 437.525 355.543 433.069 352.477 427.427C352.477 427.427 346.599 422.94 342.359 436.427C342.359 436.427 341.947 440.274 340.103 441.64C338.259 443.006 340.304 449.037 341.128 449.427Z" fill="#6C6A82"/>
<path opacity="0.25" d="M341.377 449.497C342.56 449.703 346.918 449.585 349.358 449.497C349.805 449.482 350.229 449.295 350.54 448.974C350.852 448.653 351.026 448.224 351.027 447.777C351.027 447.12 351.027 446.319 351.08 445.466C350.339 442.2 349.275 438.838 347.904 438.072C347.895 438.068 343.747 437.599 341.377 449.497Z" fill="#1D1B2B"/>
<path d="M351.817 437.837L350.466 451.971H348.75V436.632L351.817 437.837Z" fill="#6C6A82"/>
<path opacity="0.1" d="M348.307 182.521C352.28 182.816 356.126 184.051 359.529 186.123C360.405 186.653 361.281 187.296 361.645 188.246C361.96 189.069 361.829 189.997 361.815 190.873C361.697 198.41 370.107 204.114 369.845 211.647C369.739 214.637 368.237 217.421 367.961 220.402C367.501 225.375 370.445 229.949 373.266 234.068C370.359 234.245 367.497 233.296 365.272 231.42C362.295 241.334 361.91 251.846 364.155 261.951H360.12C359.722 261.922 359.322 261.971 358.942 262.096C358.588 262.264 358.271 262.5 358.009 262.792C354.237 266.543 351.71 272.089 353.151 277.211L344.566 273.993C342.511 273.223 340.426 272.439 338.639 271.17C336.852 269.901 335.354 268.058 334.977 265.895C334.745 264.582 334.82 263.015 333.738 262.253C333.205 261.97 332.636 261.76 332.047 261.627C329.69 260.796 328.648 258.073 328.166 255.622C327.579 252.614 327.395 249.542 327.618 246.486C327.999 241.365 329.515 236.165 328.267 231.166C327.561 228.36 325.993 225.747 325.866 222.849C325.66 218.073 329.397 213.958 329.953 209.209C330.343 205.9 329.147 202.551 329.537 199.242C329.753 197.534 330.379 195.903 331.36 194.488C332.341 193.073 333.65 191.915 335.174 191.113C336.23 190.57 337.364 190.207 338.407 189.607C340.786 188.229 342.305 185.747 344.465 184.04C346.624 182.332 350.221 181.689 351.846 183.908L348.307 182.521Z" fill="#1D1B2B"/>
<path d="M348.307 181.973C352.28 182.269 356.127 183.503 359.529 185.575C360.405 186.105 361.281 186.749 361.645 187.698C361.96 188.521 361.829 189.449 361.815 190.325C361.697 197.863 370.107 203.566 369.845 211.104C369.739 214.089 368.237 216.873 367.961 219.859C367.501 224.831 370.445 229.406 373.266 233.529C370.36 233.699 367.5 232.752 365.272 230.881C362.295 240.793 361.911 251.301 364.155 261.404H360.12C359.722 261.376 359.321 261.427 358.942 261.553C358.587 261.717 358.27 261.953 358.009 262.244C354.238 266 351.71 271.542 353.151 276.663L344.566 273.446C342.511 272.675 340.426 271.892 338.639 270.622C336.852 269.353 335.354 267.51 334.977 265.348C334.745 264.034 334.82 262.467 333.738 261.706C333.205 261.422 332.636 261.212 332.047 261.08C329.69 260.248 328.648 257.525 328.166 255.074C327.574 252.064 327.385 248.989 327.605 245.93C327.986 240.808 329.502 235.608 328.253 230.609C327.548 227.803 325.98 225.19 325.853 222.292C325.647 217.517 329.384 213.402 329.94 208.653C330.33 205.343 329.134 201.999 329.524 198.686C329.741 196.978 330.367 195.347 331.348 193.932C332.329 192.517 333.637 191.36 335.161 190.557C336.217 190.014 337.351 189.651 338.394 189.055C340.772 187.672 342.292 185.19 344.452 183.483C346.611 181.776 350.208 181.132 351.833 183.352L348.307 181.973Z" fill="#1D1B2B"/>
<g opacity="0.1">
<path opacity="0.1" d="M361.825 188.504C361.842 188.673 361.851 188.842 361.851 189.012C361.838 188.845 361.829 188.675 361.825 188.504Z" fill="#1D1B2B"/>
<path opacity="0.1" d="M329.989 206.026C329.831 203.706 329.314 201.378 329.507 199.066C329.652 201.386 330.169 203.715 329.989 206.026Z" fill="#1D1B2B"/>
<path opacity="0.1" d="M367.963 217.56C368.217 214.847 369.483 212.308 369.78 209.598C369.84 210.095 369.862 210.595 369.846 211.095C369.741 214.05 368.274 216.812 367.976 219.753C367.903 219.024 367.899 218.29 367.963 217.56Z" fill="#1D1B2B"/>
<path opacity="0.1" d="M328.237 228.342C328.647 230.123 328.795 231.955 328.675 233.778C328.631 232.715 328.484 231.658 328.237 230.622C327.532 227.817 325.963 225.203 325.836 222.306C325.816 221.791 325.839 221.276 325.907 220.765C326.248 223.369 327.61 225.794 328.237 228.342Z" fill="#1D1B2B"/>
<path opacity="0.1" d="M365.272 228.578C367.099 230.108 369.361 231.027 371.738 231.205C372.237 231.984 372.754 232.745 373.266 233.498C370.361 233.669 367.5 232.721 365.272 230.85C363.672 236.171 362.814 241.688 362.723 247.243C362.593 240.927 363.453 234.629 365.272 228.578Z" fill="#1D1B2B"/>
<path opacity="0.1" d="M328.154 252.78C328.636 255.232 329.678 257.954 332.035 258.782C332.625 258.913 333.194 259.125 333.726 259.412C334.808 260.174 334.733 261.75 334.965 263.054C335.342 265.216 336.836 267.055 338.627 268.307C340.419 269.559 342.499 270.364 344.554 271.135L352.745 274.199C352.787 275.02 352.92 275.835 353.139 276.628L344.554 273.411C342.499 272.64 340.414 271.857 338.627 270.587C336.84 269.318 335.342 267.475 334.965 265.313C334.733 264 334.808 262.432 333.726 261.671C333.193 261.387 332.624 261.177 332.035 261.045C329.678 260.213 328.636 257.49 328.154 255.039C327.655 252.488 327.448 249.889 327.536 247.291C327.594 249.135 327.8 250.97 328.154 252.78Z" fill="#1D1B2B"/>
<path opacity="0.1" d="M357.997 259.937C358.258 259.645 358.575 259.408 358.93 259.241C359.31 259.117 359.71 259.067 360.108 259.093H363.687C363.827 259.854 363.976 260.616 364.125 261.373H360.091C359.692 261.346 359.292 261.396 358.912 261.522C358.558 261.687 358.24 261.922 357.979 262.214C355.22 264.962 353.13 268.666 352.771 272.465C352.329 267.922 354.685 263.247 357.997 259.937Z" fill="#1D1B2B"/>
</g>
<path opacity="0.1" d="M378.01 274.856C378.01 274.856 374.751 273.489 374.024 274.856C373.297 276.222 378.01 274.856 378.01 274.856Z" fill="#1D1B2B"/>
<path opacity="0.1" d="M376.858 277.198C376.858 277.198 373.599 275.831 372.867 277.198C372.136 278.564 376.858 277.198 376.858 277.198Z" fill="#1D1B2B"/>
<path d="M148.016 266.228C149.256 266.228 150.468 266.595 151.499 267.284C152.53 267.972 153.333 268.95 153.808 270.095C154.282 271.239 154.406 272.499 154.164 273.714C153.922 274.929 153.325 276.045 152.449 276.921C151.572 277.797 150.455 278.394 149.239 278.636C148.023 278.877 146.763 278.753 145.618 278.279C144.472 277.805 143.493 277.002 142.805 275.972C142.116 274.942 141.748 273.731 141.748 272.492C141.753 270.832 142.415 269.241 143.589 268.068C144.764 266.894 146.355 266.233 148.016 266.228ZM166.344 217.075V223.339H160.076L148.792 246.18L153.509 253.853C154.024 254.761 154.295 255.787 154.293 256.83C154.293 261.023 151.424 263.094 147.535 263.094H110.884V257.071H146.768C146.873 257.077 146.978 257.061 147.076 257.024C147.174 256.987 147.263 256.929 147.337 256.855C147.411 256.781 147.468 256.692 147.506 256.594C147.543 256.496 147.559 256.392 147.552 256.287C147.47 256.016 147.358 255.755 147.219 255.508L144.087 250.566H120.736C119.608 250.575 118.499 250.273 117.531 249.693C116.563 249.113 115.775 248.278 115.252 247.279L103.964 227.883C103.743 227.39 103.636 226.855 103.648 226.316C103.653 225.913 103.738 225.514 103.899 225.145C104.06 224.775 104.294 224.442 104.586 224.164C104.879 223.887 105.224 223.671 105.602 223.529C105.979 223.387 106.381 223.323 106.784 223.339H153.176L156.155 217.075H166.344ZM117.157 266.228C118.397 266.229 119.608 266.597 120.638 267.286C121.669 267.975 122.471 268.953 122.945 270.098C123.419 271.243 123.542 272.502 123.3 273.717C123.058 274.931 122.46 276.047 121.583 276.923C120.707 277.798 119.59 278.394 118.374 278.636C117.158 278.877 115.898 278.753 114.753 278.279C113.608 277.804 112.629 277.002 111.941 275.972C111.252 274.942 110.884 273.731 110.884 272.492C110.889 270.831 111.552 269.24 112.727 268.066C113.903 266.892 115.495 266.231 117.157 266.228Z" fill="#1571FA"/>
<path d="M125.177 234.405H130.433V229.152H134.375V234.405H139.632V238.344H134.375V243.597H130.433V238.344H125.177V234.405Z" fill="white"/>
</g>
<defs>
<linearGradient id="paint0_linear" x1="475.071" y1="178.466" x2="272.515" y2="208.416" gradientUnits="userSpaceOnUse">
<stop stop-color="#EFF6FF"/>
<stop offset="1" stop-color="white" stop-opacity="0.33"/>
</linearGradient>
<linearGradient id="paint1_linear" x1="305.309" y1="82.8467" x2="106.365" y2="67.7543" gradientUnits="userSpaceOnUse">
<stop stop-color="#EFF6FF"/>
<stop offset="1" stop-color="white" stop-opacity="0.33"/>
</linearGradient>
<linearGradient id="paint2_linear" x1="335.439" y1="313.703" x2="158.899" y2="398.253" gradientUnits="userSpaceOnUse">
<stop stop-color="#EFF6FF"/>
<stop offset="1" stop-color="white" stop-opacity="0.33"/>
</linearGradient>
</defs>
</svg>
