<svg width="520" height="460" viewBox="0 0 520 460" fill="none" xmlns="http://www.w3.org/2000/svg">
<mask id="mask0" mask-type="alpha" maskUnits="userSpaceOnUse" x="0" y="0" width="520" height="460">
<rect width="520" height="460" fill="#C4C4C4"/>
</mask>
<g mask="url(#mask0)">
<path d="M40.9396 117.705L259.755 213.8L282.857 458.79L64.0418 362.695L40.9396 117.705Z" fill="url(#paint0_linear)"/>
<path d="M40.8001 117.854L236.55 -31.0793L455.526 64.4632L259.657 213.974L40.8001 117.854Z" fill="url(#paint1_linear)"/>
<path d="M259.867 213.957L455.627 64.5217L478.72 309.45L282.961 458.885L259.867 213.957Z" fill="url(#paint2_linear)"/>
</g>
<path d="M514 392.367H6V392.621H514V392.367Z" fill="#93C5FE"/>
<path d="M514 392.367H6V392.621H514V392.367Z" fill="white" fill-opacity="0.6"/>
<path d="M463.098 408.715H429.448V408.969H463.098V408.715Z" fill="#93C5FE"/>
<path d="M463.098 408.715H429.448V408.969H463.098V408.715Z" fill="white" fill-opacity="0.6"/>
<path d="M342.519 411.478H333.69V411.732H342.519V411.478Z" fill="#93C5FE"/>
<path d="M342.519 411.478H333.69V411.732H342.519V411.478Z" fill="white" fill-opacity="0.6"/>
<path d="M428.433 399.286H408.936V399.54H428.433V399.286Z" fill="#93C5FE"/>
<path d="M428.433 399.286H408.936V399.54H428.433V399.286Z" fill="white" fill-opacity="0.6"/>
<path d="M103.18 400.993H59.2991V401.247H103.18V400.993Z" fill="#93C5FE"/>
<path d="M103.18 400.993H59.2991V401.247H103.18V400.993Z" fill="white" fill-opacity="0.6"/>
<path d="M118.664 400.993H112.233V401.247H118.664V400.993Z" fill="#93C5FE"/>
<path d="M118.664 400.993H112.233V401.247H118.664V400.993Z" fill="white" fill-opacity="0.6"/>
<path d="M234.753 405.281H139.574V405.535H234.753V405.281Z" fill="#93C5FE"/>
<path d="M234.753 405.281H139.574V405.535H234.753V405.281Z" fill="white" fill-opacity="0.6"/>
<path d="M246.792 347.054H50.6127C49.0759 347.051 47.6029 346.439 46.5171 345.351C45.4313 344.264 44.8215 342.79 44.8215 341.253V65.4798C44.8349 63.9518 45.4506 62.4907 46.535 61.414C47.6193 60.3373 49.0846 59.7319 50.6127 59.7292H246.792C248.331 59.7292 249.806 60.3405 250.894 61.4284C251.982 62.5164 252.594 63.992 252.594 65.5306V341.253C252.594 342.791 251.982 344.267 250.894 345.355C249.806 346.443 248.331 347.054 246.792 347.054ZM50.6127 59.9324C49.1432 59.9351 47.7349 60.5208 46.6967 61.5608C45.6586 62.6009 45.0755 64.0103 45.0755 65.4798V341.253C45.0755 342.722 45.6586 344.132 46.6967 345.172C47.7349 346.212 49.1432 346.797 50.6127 346.8H246.792C248.263 346.797 249.672 346.212 250.712 345.172C251.752 344.133 252.337 342.723 252.34 341.253V65.4798C252.337 64.0094 251.752 62.5999 250.712 61.5602C249.672 60.5204 248.263 59.9351 246.792 59.9324H50.6127Z" fill="#93C5FE"/>
<path d="M246.792 347.054H50.6127C49.0759 347.051 47.6029 346.439 46.5171 345.351C45.4313 344.264 44.8215 342.79 44.8215 341.253V65.4798C44.8349 63.9518 45.4506 62.4907 46.535 61.414C47.6193 60.3373 49.0846 59.7319 50.6127 59.7292H246.792C248.331 59.7292 249.806 60.3405 250.894 61.4284C251.982 62.5164 252.594 63.992 252.594 65.5306V341.253C252.594 342.791 251.982 344.267 250.894 345.355C249.806 346.443 248.331 347.054 246.792 347.054ZM50.6127 59.9324C49.1432 59.9351 47.7349 60.5208 46.6967 61.5608C45.6586 62.6009 45.0755 64.0103 45.0755 65.4798V341.253C45.0755 342.722 45.6586 344.132 46.6967 345.172C47.7349 346.212 49.1432 346.797 50.6127 346.8H246.792C248.263 346.797 249.672 346.212 250.712 345.172C251.752 344.133 252.337 342.723 252.34 341.253V65.4798C252.337 64.0094 251.752 62.5999 250.712 61.5602C249.672 60.5204 248.263 59.9351 246.792 59.9324H50.6127Z" fill="white" fill-opacity="0.6"/>
<path d="M466.563 347.054H270.373C268.836 347.051 267.362 346.439 266.274 345.352C265.187 344.264 264.575 342.79 264.572 341.253V65.4798C264.588 63.9508 265.206 62.4898 266.292 61.4134C267.378 60.3369 268.844 59.7318 270.373 59.7292H466.563C468.089 59.7345 469.552 60.3411 470.634 61.4176C471.716 62.494 472.331 63.9535 472.344 65.4798V341.253C472.344 342.788 471.736 344.26 470.652 345.348C469.568 346.435 468.098 347.049 466.563 347.054ZM270.373 59.9324C268.903 59.9351 267.494 60.5204 266.454 61.5602C265.414 62.5999 264.829 64.0094 264.826 65.4798V341.253C264.829 342.723 265.414 344.133 266.454 345.172C267.494 346.212 268.903 346.797 270.373 346.8H466.563C468.033 346.797 469.443 346.212 470.483 345.172C471.522 344.133 472.108 342.723 472.11 341.253V65.4798C472.108 64.0094 471.522 62.5999 470.483 61.5602C469.443 60.5204 468.033 59.9351 466.563 59.9324H270.373Z" fill="#93C5FE"/>
<path d="M466.563 347.054H270.373C268.836 347.051 267.362 346.439 266.274 345.352C265.187 344.264 264.575 342.79 264.572 341.253V65.4798C264.588 63.9508 265.206 62.4898 266.292 61.4134C267.378 60.3369 268.844 59.7318 270.373 59.7292H466.563C468.089 59.7345 469.552 60.3411 470.634 61.4176C471.716 62.494 472.331 63.9535 472.344 65.4798V341.253C472.344 342.788 471.736 344.26 470.652 345.348C469.568 346.435 468.098 347.049 466.563 347.054ZM270.373 59.9324C268.903 59.9351 267.494 60.5204 266.454 61.5602C265.414 62.5999 264.829 64.0094 264.826 65.4798V341.253C264.829 342.723 265.414 344.133 266.454 345.172C267.494 346.212 268.903 346.797 270.373 346.8H466.563C468.033 346.797 469.443 346.212 470.483 345.172C471.522 344.133 472.108 342.723 472.11 341.253V65.4798C472.108 64.0094 471.522 62.5999 470.483 61.5602C469.443 60.5204 468.033 59.9351 466.563 59.9324H270.373Z" fill="white" fill-opacity="0.6"/>
<path d="M406.233 152.5L295.651 115.152L295.56 115.06L237.14 55.1774L190.282 97.9713L189.601 97.2195L237.18 53.7651L296.2 114.258L405.846 151.291L450.855 89.3861L451.678 89.9855L406.233 152.5Z" fill="#6B7B93"/>
<path d="M406.233 152.5L295.651 115.152L295.56 115.06L237.14 55.1774L190.282 97.9713L189.601 97.2195L237.18 53.7651L296.2 114.258L405.846 151.291L450.855 89.3861L451.678 89.9855L406.233 152.5Z" fill="white" fill-opacity="0.15"/>
<path d="M62.4998 244.427C62.4998 245.509 62.1792 246.565 61.5786 247.464C60.978 248.363 60.1243 249.064 59.1255 249.477C58.1267 249.891 57.0276 249.999 55.9673 249.789C54.907 249.578 53.9331 249.057 53.1686 248.293C52.4042 247.528 51.8836 246.554 51.6727 245.494C51.4617 244.434 51.57 243.335 51.9837 242.336C52.3974 241.337 53.098 240.483 53.9969 239.883C54.8958 239.282 55.9526 238.961 57.0337 238.961C58.4834 238.961 59.8737 239.537 60.8988 240.562C61.9239 241.587 62.4998 242.978 62.4998 244.427Z" fill="#6B7B93"/>
<path d="M62.4998 244.427C62.4998 245.509 62.1792 246.565 61.5786 247.464C60.978 248.363 60.1243 249.064 59.1255 249.477C58.1267 249.891 57.0276 249.999 55.9673 249.789C54.907 249.578 53.9331 249.057 53.1686 248.293C52.4042 247.528 51.8836 246.554 51.6727 245.494C51.4617 244.434 51.57 243.335 51.9837 242.336C52.3974 241.337 53.098 240.483 53.9969 239.883C54.8958 239.282 55.9526 238.961 57.0337 238.961C58.4834 238.961 59.8737 239.537 60.8988 240.562C61.9239 241.587 62.4998 242.978 62.4998 244.427Z" fill="white" fill-opacity="0.15"/>
<path d="M242.627 54.4661C242.627 55.5472 242.306 56.604 241.706 57.5029C241.105 58.4018 240.251 59.1024 239.252 59.5161C238.254 59.9298 237.155 60.038 236.094 59.8271C235.034 59.6162 234.06 59.0956 233.296 58.3312C232.531 57.5667 232.011 56.5928 231.8 55.5325C231.589 54.4721 231.697 53.3731 232.111 52.3743C232.524 51.3755 233.225 50.5218 234.124 49.9212C235.023 49.3206 236.08 49 237.161 49C238.61 49 240.001 49.5759 241.026 50.601C242.051 51.6261 242.627 53.0164 242.627 54.4661Z" fill="#6B7B93"/>
<path d="M242.627 54.4661C242.627 55.5472 242.306 56.604 241.706 57.5029C241.105 58.4018 240.251 59.1024 239.252 59.5161C238.254 59.9298 237.155 60.038 236.094 59.8271C235.034 59.6162 234.06 59.0956 233.296 58.3312C232.531 57.5667 232.011 56.5928 231.8 55.5325C231.589 54.4721 231.697 53.3731 232.111 52.3743C232.524 51.3755 233.225 50.5218 234.124 49.9212C235.023 49.3206 236.08 49 237.161 49C238.61 49 240.001 49.5759 241.026 50.601C242.051 51.6261 242.627 53.0164 242.627 54.4661Z" fill="white" fill-opacity="0.15"/>
<path d="M456.729 89.6807C456.729 90.7618 456.408 91.8186 455.807 92.7175C455.207 93.6164 454.353 94.317 453.354 94.7307C452.355 95.1444 451.256 95.2526 450.196 95.0417C449.136 94.8308 448.162 94.3102 447.397 93.5458C446.633 92.7813 446.112 91.8074 445.901 90.7471C445.691 89.6867 445.799 88.5877 446.212 87.5889C446.626 86.5901 447.327 85.7364 448.226 85.1358C449.125 84.5352 450.181 84.2146 451.262 84.2146C452.712 84.2146 454.102 84.7905 455.128 85.8156C456.153 86.8407 456.729 88.231 456.729 89.6807Z" fill="#6B7B93"/>
<path d="M456.729 89.6807C456.729 90.7618 456.408 91.8186 455.807 92.7175C455.207 93.6164 454.353 94.317 453.354 94.7307C452.355 95.1444 451.256 95.2526 450.196 95.0417C449.136 94.8308 448.162 94.3102 447.397 93.5458C446.633 92.7813 446.112 91.8074 445.901 90.7471C445.691 89.6867 445.799 88.5877 446.212 87.5889C446.626 86.5901 447.327 85.7364 448.226 85.1358C449.125 84.5352 450.181 84.2146 451.262 84.2146C452.712 84.2146 454.102 84.7905 455.128 85.8156C456.153 86.8407 456.729 88.231 456.729 89.6807Z" fill="white" fill-opacity="0.15"/>
<path d="M457.205 378.123C457.205 379.204 456.885 380.261 456.284 381.16C455.683 382.059 454.83 382.759 453.831 383.173C452.832 383.587 451.733 383.695 450.673 383.484C449.612 383.273 448.638 382.753 447.874 381.988C447.109 381.224 446.589 380.25 446.378 379.189C446.167 378.129 446.275 377.03 446.689 376.031C447.103 375.032 447.803 374.179 448.702 373.578C449.601 372.978 450.658 372.657 451.739 372.657C453.189 372.657 454.579 373.233 455.604 374.258C456.629 375.283 457.205 376.673 457.205 378.123Z" fill="#6B7B93"/>
<path d="M457.205 378.123C457.205 379.204 456.885 380.261 456.284 381.16C455.683 382.059 454.83 382.759 453.831 383.173C452.832 383.587 451.733 383.695 450.673 383.484C449.612 383.273 448.638 382.753 447.874 381.988C447.109 381.224 446.589 380.25 446.378 379.189C446.167 378.129 446.275 377.03 446.689 376.031C447.103 375.032 447.803 374.179 448.702 373.578C449.601 372.978 450.658 372.657 451.739 372.657C453.189 372.657 454.579 373.233 455.604 374.258C456.629 375.283 457.205 376.673 457.205 378.123Z" fill="white" fill-opacity="0.15"/>
<path d="M301.392 114.705C301.392 115.786 301.071 116.843 300.47 117.742C299.87 118.641 299.016 119.341 298.017 119.755C297.019 120.169 295.92 120.277 294.859 120.066C293.799 119.855 292.825 119.334 292.06 118.57C291.296 117.806 290.775 116.832 290.565 115.771C290.354 114.711 290.462 113.612 290.876 112.613C291.289 111.614 291.99 110.761 292.889 110.16C293.788 109.559 294.844 109.239 295.926 109.239C297.375 109.239 298.766 109.815 299.791 110.84C300.816 111.865 301.392 113.255 301.392 114.705Z" fill="#6B7B93"/>
<path d="M301.392 114.705C301.392 115.786 301.071 116.843 300.47 117.742C299.87 118.641 299.016 119.341 298.017 119.755C297.019 120.169 295.92 120.277 294.859 120.066C293.799 119.855 292.825 119.334 292.06 118.57C291.296 117.806 290.775 116.832 290.565 115.771C290.354 114.711 290.462 113.612 290.876 112.613C291.289 111.614 291.99 110.761 292.889 110.16C293.788 109.559 294.844 109.239 295.926 109.239C297.375 109.239 298.766 109.815 299.791 110.84C300.816 111.865 301.392 113.255 301.392 114.705Z" fill="white" fill-opacity="0.15"/>
<path d="M200.412 378.265L199.995 378.184L62.9163 352.306L63.0991 351.311L199.761 377.107L295.448 114.532L296.403 114.877L200.412 378.265Z" fill="#6B7B93"/>
<path d="M200.412 378.265L199.995 378.184L62.9163 352.306L63.0991 351.311L199.761 377.107L295.448 114.532L296.403 114.877L200.412 378.265Z" fill="white" fill-opacity="0.15"/>
<path d="M69.4798 138.904L68.8062 139.665L115.575 181.085L116.248 180.325L69.4798 138.904Z" fill="#6B7B93"/>
<path d="M69.4798 138.904L68.8062 139.665L115.575 181.085L116.248 180.325L69.4798 138.904Z" fill="white" fill-opacity="0.15"/>
<path d="M451.475 378.56L383.698 336.558L385.181 336.152L456.382 267.653L405.572 152.104L406.507 151.687L457.602 267.887L457.348 268.141L385.994 336.782L452.003 377.696L451.475 378.56Z" fill="#6B7B93"/>
<path d="M451.475 378.56L383.698 336.558L385.181 336.152L456.382 267.653L405.572 152.104L406.507 151.687L457.602 267.887L457.348 268.141L385.994 336.782L452.003 377.696L451.475 378.56Z" fill="white" fill-opacity="0.15"/>
<path d="M63.4345 352.083L62.5811 351.524L103.546 288.258L56.3225 244.448L56.6679 244.082L115.809 180.044L116.165 180.247L385.689 336.172L385.181 337.046L116.002 181.334L57.7551 244.397L104.857 288.095L63.4345 352.083Z" fill="#6B7B93"/>
<path d="M63.4345 352.083L62.5811 351.524L103.546 288.258L56.3225 244.448L56.6679 244.082L115.809 180.044L116.165 180.247L385.689 336.172L385.181 337.046L116.002 181.334L57.7551 244.397L104.857 288.095L63.4345 352.083Z" fill="white" fill-opacity="0.15"/>
<path d="M415.556 148.077C415.561 151.223 414.543 154.286 412.655 156.803C411.411 158.447 409.839 159.814 408.038 160.818C406.056 161.909 403.846 162.522 401.585 162.609C399.324 162.695 397.074 162.252 395.014 161.315C394.844 161.245 394.674 161.162 394.508 161.075C393.484 160.57 392.525 159.941 391.654 159.203C389.785 157.627 388.343 155.606 387.462 153.326C386.581 151.045 386.288 148.579 386.612 146.156C386.935 143.733 387.864 141.43 389.313 139.461C390.762 137.492 392.683 135.919 394.9 134.889C397.118 133.859 399.558 133.404 401.998 133.566C404.437 133.729 406.796 134.503 408.857 135.819C410.918 137.134 412.614 138.947 413.789 141.091C414.963 143.235 415.579 145.641 415.578 148.086L415.556 148.077Z" fill="#6B7B93"/>
<path d="M415.556 148.077C415.561 151.223 414.543 154.286 412.655 156.803C411.411 158.447 409.839 159.814 408.038 160.818C406.056 161.909 403.846 162.522 401.585 162.609C399.324 162.695 397.074 162.252 395.014 161.315C394.844 161.245 394.674 161.162 394.508 161.075C393.484 160.57 392.525 159.941 391.654 159.203C389.785 157.627 388.343 155.606 387.462 153.326C386.581 151.045 386.288 148.579 386.612 146.156C386.935 143.733 387.864 141.43 389.313 139.461C390.762 137.492 392.683 135.919 394.9 134.889C397.118 133.859 399.558 133.404 401.998 133.566C404.437 133.729 406.796 134.503 408.857 135.819C410.918 137.134 412.614 138.947 413.789 141.091C414.963 143.235 415.579 145.641 415.578 148.086L415.556 148.077Z" fill="white" fill-opacity="0.75"/>
<g opacity="0.7">
<path d="M410.999 158.065C416.515 152.55 416.515 143.607 410.999 138.091C405.483 132.576 396.54 132.576 391.025 138.091C385.509 143.607 385.509 152.55 391.025 158.065C396.54 163.581 405.483 163.581 410.999 158.065Z" fill="#6B7B93"/>
<path d="M410.999 158.065C416.515 152.55 416.515 143.607 410.999 138.091C405.483 132.576 396.54 132.576 391.025 138.091C385.509 143.607 385.509 152.55 391.025 158.065C396.54 163.581 405.483 163.581 410.999 158.065Z" fill="white" fill-opacity="0.75"/>
</g>
<path d="M471.718 280.718C479.951 272.486 479.951 259.139 471.718 250.906C463.486 242.674 450.139 242.674 441.906 250.906C433.674 259.139 433.674 272.486 441.906 280.718C450.139 288.951 463.486 288.951 471.718 280.718Z" fill="#6B7B93"/>
<path d="M471.718 280.718C479.951 272.486 479.951 259.139 471.718 250.906C463.486 242.674 450.139 242.674 441.906 250.906C433.674 259.139 433.674 272.486 441.906 280.718C450.139 288.951 463.486 288.951 471.718 280.718Z" fill="white" fill-opacity="0.75"/>
<g opacity="0.7">
<path d="M477.304 265.811C477.309 269.006 476.56 272.157 475.117 275.007C474.839 275.561 474.527 276.098 474.209 276.623C473.955 277.029 473.69 277.43 473.401 277.802C472.203 279.46 470.763 280.929 469.127 282.158C468.756 282.447 468.373 282.706 467.978 282.971C466.385 284.007 464.657 284.818 462.843 285.383C458.058 286.848 452.902 286.519 448.342 284.457C448.011 284.304 447.681 284.139 447.357 283.974C443.725 282.071 440.74 279.133 438.78 275.532C438.509 275.031 438.255 274.5 438.025 273.97C436.812 271.178 436.236 268.15 436.339 265.108C436.443 262.065 437.223 259.084 438.623 256.38C440.023 253.677 442.007 251.32 444.433 249.479C446.858 247.639 449.663 246.363 452.643 245.742C455.624 245.122 458.705 245.173 461.663 245.893C464.621 246.613 467.382 247.983 469.744 249.903C472.106 251.823 474.011 254.246 475.32 256.995C476.628 259.743 477.308 262.749 477.309 265.794L477.304 265.811Z" fill="#6B7B93"/>
<path d="M477.304 265.811C477.309 269.006 476.56 272.157 475.117 275.007C474.839 275.561 474.527 276.098 474.209 276.623C473.955 277.029 473.69 277.43 473.401 277.802C472.203 279.46 470.763 280.929 469.127 282.158C468.756 282.447 468.373 282.706 467.978 282.971C466.385 284.007 464.657 284.818 462.843 285.383C458.058 286.848 452.902 286.519 448.342 284.457C448.011 284.304 447.681 284.139 447.357 283.974C443.725 282.071 440.74 279.133 438.78 275.532C438.509 275.031 438.255 274.5 438.025 273.97C436.812 271.178 436.236 268.15 436.339 265.108C436.443 262.065 437.223 259.084 438.623 256.38C440.023 253.677 442.007 251.32 444.433 249.479C446.858 247.639 449.663 246.363 452.643 245.742C455.624 245.122 458.705 245.173 461.663 245.893C464.621 246.613 467.382 247.983 469.744 249.903C472.106 251.823 474.011 254.246 475.32 256.995C476.628 259.743 477.308 262.749 477.309 265.794L477.304 265.811Z" fill="white" fill-opacity="0.75"/>
</g>
<path d="M102.967 316.29C119.161 316.29 132.289 303.162 132.289 286.968C132.289 270.774 119.161 257.646 102.967 257.646C86.7733 257.646 73.6455 270.774 73.6455 286.968C73.6455 303.162 86.7733 316.29 102.967 316.29Z" fill="#6B7B93"/>
<path d="M102.967 316.29C119.161 316.29 132.289 303.162 132.289 286.968C132.289 270.774 119.161 257.646 102.967 257.646C86.7733 257.646 73.6455 270.774 73.6455 286.968C73.6455 303.162 86.7733 316.29 102.967 316.29Z" fill="white" fill-opacity="0.75"/>
<g opacity="0.7">
<path d="M131.263 286.968C131.267 293.479 129.008 299.789 124.872 304.819C123.658 306.307 122.297 307.669 120.808 308.883C120.341 309.269 119.853 309.645 119.345 310.001C117.965 310.998 116.496 311.865 114.956 312.591C110.808 314.556 106.242 315.478 101.657 315.278C97.071 315.078 92.6034 313.761 88.6417 311.443C87.5784 310.821 86.5599 310.125 85.5937 309.361L85.4413 309.228C84.2914 308.341 83.2206 307.355 82.2409 306.282C79.0941 302.91 76.8191 298.82 75.614 294.369C74.409 289.917 74.3104 285.238 75.3269 280.739C76.3434 276.24 78.4442 272.058 81.4463 268.557C84.4485 265.056 88.2609 262.342 92.5518 260.651C96.8427 258.96 101.482 258.343 106.066 258.855C110.649 259.366 115.038 260.99 118.851 263.586C122.663 266.182 125.783 269.67 127.939 273.747C130.096 277.824 131.223 282.366 131.222 286.978L131.263 286.968Z" fill="#6B7B93"/>
<path d="M131.263 286.968C131.267 293.479 129.008 299.789 124.872 304.819C123.658 306.307 122.297 307.669 120.808 308.883C120.341 309.269 119.853 309.645 119.345 310.001C117.965 310.998 116.496 311.865 114.956 312.591C110.808 314.556 106.242 315.478 101.657 315.278C97.071 315.078 92.6034 313.761 88.6417 311.443C87.5784 310.821 86.5599 310.125 85.5937 309.361L85.4413 309.228C84.2914 308.341 83.2206 307.355 82.2409 306.282C79.0941 302.91 76.8191 298.82 75.614 294.369C74.409 289.917 74.3104 285.238 75.3269 280.739C76.3434 276.24 78.4442 272.058 81.4463 268.557C84.4485 265.056 88.2609 262.342 92.5518 260.651C96.8427 258.96 101.482 258.343 106.066 258.855C110.649 259.366 115.038 260.99 118.851 263.586C122.663 266.182 125.783 269.67 127.939 273.747C130.096 277.824 131.223 282.366 131.222 286.978L131.263 286.968Z" fill="white" fill-opacity="0.75"/>
</g>
<path d="M206.339 95.9066C206.344 100.118 204.947 104.212 202.37 107.543C201.689 108.433 200.93 109.259 200.101 110.012C199.34 110.712 198.52 111.343 197.65 111.9C197.62 111.932 197.582 111.956 197.541 111.971C196.862 112.416 196.154 112.814 195.42 113.161C191.628 114.957 187.349 115.452 183.247 114.57C179.144 113.687 175.448 111.476 172.729 108.28C170.737 105.939 169.34 103.152 168.656 100.155C167.972 97.1577 168.023 94.0399 168.803 91.0667C169.584 88.0935 171.071 85.3528 173.138 83.0777C175.205 80.8027 177.791 79.0606 180.676 77.9998C183.561 76.939 186.66 76.5908 189.708 76.9849C192.757 77.3789 195.665 78.5036 198.185 80.2631C200.706 82.0227 202.764 84.365 204.185 87.0909C205.606 89.8168 206.347 92.8456 206.345 95.9195L206.339 95.9066Z" fill="#6B7B93"/>
<path d="M206.339 95.9066C206.344 100.118 204.947 104.212 202.37 107.543C201.689 108.433 200.93 109.259 200.101 110.012C199.34 110.712 198.52 111.343 197.65 111.9C197.62 111.932 197.582 111.956 197.541 111.971C196.862 112.416 196.154 112.814 195.42 113.161C191.628 114.957 187.349 115.452 183.247 114.57C179.144 113.687 175.448 111.476 172.729 108.28C170.737 105.939 169.34 103.152 168.656 100.155C167.972 97.1577 168.023 94.0399 168.803 91.0667C169.584 88.0935 171.071 85.3528 173.138 83.0777C175.205 80.8027 177.791 79.0606 180.676 77.9998C183.561 76.939 186.66 76.5908 189.708 76.9849C192.757 77.3789 195.665 78.5036 198.185 80.2631C200.706 82.0227 202.764 84.365 204.185 87.0909C205.606 89.8168 206.347 92.8456 206.345 95.9195L206.339 95.9066Z" fill="white" fill-opacity="0.75"/>
<rect x="145" y="160" width="241" height="133.231" fill="#6B7B93"/>
<rect x="145" y="160" width="241" height="133.231" fill="white" fill-opacity="0.15"/>
<rect x="150.053" y="165.053" width="230.894" height="123.125" fill="#93C5FE"/>
<rect x="150.053" y="165.053" width="230.894" height="123.125" fill="white" fill-opacity="0.85"/>
<rect x="150.053" y="165.053" width="230.894" height="123.125" stroke="white" stroke-width="3"/>
<path d="M145 162.257H385.311V168.629H145V162.257Z" fill="#6B7B93"/>
<path d="M145 162.257H385.311V168.629H145V162.257Z" fill="white" fill-opacity="0.15"/>
<path d="M362.935 307.084L367.329 316.272L404.856 303.695L398.371 290.135L362.935 307.084Z" fill="#FFB8B8"/>
<path d="M368.922 334.953L355.112 306.079L366.268 300.743L375.15 319.314C376.457 322.047 376.625 325.187 375.617 328.043C374.609 330.899 372.508 333.238 369.775 334.545L368.922 334.953Z" fill="#1C2147"/>
<path d="M355.738 386.012L365.916 385.668L366.344 346.048L354.413 346.753L355.738 386.012Z" fill="#FFB8B8"/>
<path d="M356.114 177.362L368.549 177.019L369.072 137.469L354.496 138.172L356.114 177.362Z" fill="#FFB8B8"/>
<path d="M385.665 395H353.658V382.634H374.245C377.274 382.634 380.178 383.837 382.32 385.979C384.462 388.12 385.665 391.025 385.665 394.054V395Z" fill="#1C2147"/>
<path d="M356.575 380.06C355.722 380.06 354.893 379.774 354.221 379.247C353.549 378.72 353.074 377.984 352.87 377.155C347.294 354.753 326.547 241.878 344.893 219.709L345.053 219.516L345.296 219.455C346.584 219.129 370.862 211.612 385.107 223.345L385.274 223.482L393.202 246.432L414.574 278.157C415.745 279.895 416.554 281.85 416.956 283.906C417.357 285.962 417.341 288.078 416.909 290.127C416.478 292.177 415.639 294.12 414.443 295.84C413.247 297.56 411.718 299.022 409.946 300.14L381.881 317.85C381.203 318.259 380.415 318.449 379.625 318.394C378.835 318.338 378.082 318.04 377.468 317.539C376.952 317.112 376.556 316.56 376.317 315.934L370.419 301.19C370.067 300.296 370.061 299.303 370.403 298.405C370.744 297.507 371.408 296.769 372.265 296.334L385.414 289.76C385.774 289.561 386.086 289.287 386.329 288.955C386.571 288.623 386.738 288.242 386.818 287.839C386.854 287.474 386.8 287.106 386.663 286.766C386.525 286.427 386.308 286.125 386.029 285.888L370.765 272.73C370.426 272.437 370.008 272.25 369.564 272.191C369.12 272.133 368.668 272.205 368.264 272.399C367.861 272.594 367.522 272.901 367.291 273.285C367.06 273.669 366.946 274.112 366.963 274.56L370.746 374.447C370.782 375.385 370.472 376.303 369.876 377.028C369.279 377.753 368.438 378.234 367.511 378.381L357.188 380.011C356.986 380.043 356.781 380.06 356.575 380.06Z" fill="#6C6A82"/>
<path d="M382.905 227.416C382.819 227.416 382.732 227.413 382.645 227.407L344.581 224.587C344.053 224.549 343.54 224.389 343.084 224.121C342.627 223.852 342.238 223.482 341.948 223.039C341.657 222.596 341.473 222.092 341.409 221.566C341.345 221.04 341.403 220.507 341.578 220.007C343.92 213.256 344.207 205.963 342.404 199.049C339.925 189.274 339.866 171.099 340.052 161.135C340.094 159.446 340.771 157.835 341.949 156.623C343.126 155.411 344.718 154.688 346.405 154.597L346.405 154.584L347.172 154.593C353.373 154.68 364.752 155.123 374.064 157.06C377.202 157.71 380.025 159.408 382.069 161.876C384.113 164.344 385.256 167.435 385.31 170.639C385.521 179.889 385.552 192.41 384.502 199.528C383.616 205.533 385.252 217.064 386.306 223.403C386.388 223.897 386.361 224.403 386.228 224.885C386.094 225.367 385.858 225.815 385.534 226.197C385.211 226.579 384.808 226.885 384.354 227.096C383.9 227.307 383.406 227.416 382.905 227.416H382.905Z" fill="#6B7B93"/>
<path d="M382.905 227.416C382.819 227.416 382.732 227.413 382.645 227.407L344.581 224.587C344.053 224.549 343.54 224.389 343.084 224.121C342.627 223.852 342.238 223.482 341.948 223.039C341.657 222.596 341.473 222.092 341.409 221.566C341.345 221.04 341.403 220.507 341.578 220.007C343.92 213.256 344.207 205.963 342.404 199.049C339.925 189.274 339.866 171.099 340.052 161.135C340.094 159.446 340.771 157.835 341.949 156.623C343.126 155.411 344.718 154.688 346.405 154.597L346.405 154.584L347.172 154.593C353.373 154.68 364.752 155.123 374.064 157.06C377.202 157.71 380.025 159.408 382.069 161.876C384.113 164.344 385.256 167.435 385.31 170.639C385.521 179.889 385.552 192.41 384.502 199.528C383.616 205.533 385.252 217.064 386.306 223.403C386.388 223.897 386.361 224.403 386.228 224.885C386.094 225.367 385.858 225.815 385.534 226.197C385.211 226.579 384.808 226.885 384.354 227.096C383.9 227.307 383.406 227.416 382.905 227.416H382.905Z" fill="white" fill-opacity="0.15"/>
<path d="M396.494 263.702C395.48 263.216 394.584 262.514 393.871 261.645C393.158 260.776 392.644 259.761 392.365 258.672C392.086 257.583 392.05 256.446 392.258 255.341C392.466 254.236 392.914 253.19 393.57 252.277L375.99 176.467H389.281L404.797 250.783C406.257 251.987 407.226 253.685 407.518 255.555C407.811 257.425 407.407 259.338 406.383 260.93C405.36 262.523 403.788 263.684 401.965 264.195C400.142 264.706 398.196 264.53 396.494 263.702H396.494Z" fill="#FFB8B8"/>
<path d="M313.233 184.679L334.28 164.77L342.209 175.871L322.386 193.315L348.383 213.96C348.571 213.947 348.758 213.931 348.949 213.931C350.549 213.93 352.115 214.389 353.461 215.254C354.806 216.12 355.874 217.354 356.536 218.811C357.199 220.267 357.427 221.883 357.195 223.466C356.963 225.049 356.279 226.531 355.227 227.736C354.174 228.94 352.796 229.816 351.259 230.258C349.722 230.7 348.089 230.69 346.557 230.229C345.026 229.768 343.659 228.875 342.621 227.658C341.584 226.44 340.918 224.95 340.706 223.364L340.624 223.446L313.566 199.996C312.475 199.051 311.595 197.888 310.981 196.582C310.367 195.275 310.034 193.855 310.002 192.412C309.971 190.969 310.242 189.535 310.799 188.204C311.355 186.872 312.184 185.671 313.233 184.679Z" fill="#FFB8B8"/>
<path d="M377.39 181.324C376.74 181.326 376.102 181.143 375.551 180.796C375.001 180.449 374.56 179.953 374.281 179.365C372.605 175.825 371.45 172.059 370.854 168.187C369.941 161.863 374.339 158.1 378.811 157.281C383.161 156.483 388.46 158.396 389.815 164.479C389.928 164.994 390.016 165.514 390.077 166.038C390.619 170.649 391.13 174.236 391.594 176.698C391.685 177.182 391.672 177.68 391.554 178.159C391.436 178.637 391.217 179.085 390.912 179.472C390.607 179.858 390.223 180.175 389.785 180.401C389.347 180.627 388.865 180.756 388.373 180.78L377.567 181.32C377.508 181.323 377.449 181.324 377.39 181.324Z" fill="#6B7B93"/>
<path d="M377.39 181.324C376.74 181.326 376.102 181.143 375.551 180.796C375.001 180.449 374.56 179.953 374.281 179.365C372.605 175.825 371.45 172.059 370.854 168.187C369.941 161.863 374.339 158.1 378.811 157.281C383.161 156.483 388.46 158.396 389.815 164.479C389.928 164.994 390.016 165.514 390.077 166.038C390.619 170.649 391.13 174.236 391.594 176.698C391.685 177.182 391.672 177.68 391.554 178.159C391.436 178.637 391.217 179.085 390.912 179.472C390.607 179.858 390.223 180.175 389.785 180.401C389.347 180.627 388.865 180.756 388.373 180.78L377.567 181.32C377.508 181.323 377.449 181.324 377.39 181.324Z" fill="white" fill-opacity="0.15"/>
<path d="M362.32 148.068C375.031 148.068 385.335 137.763 385.335 125.053C385.335 112.342 375.031 102.038 362.32 102.038C349.609 102.038 339.305 112.342 339.305 125.053C339.305 137.763 349.609 148.068 362.32 148.068Z" fill="#1C2147"/>
<path d="M362.459 149.869C372.866 149.869 381.302 141.433 381.302 131.027C381.302 120.62 372.866 112.184 362.459 112.184C352.053 112.184 343.617 120.62 343.617 131.027C343.617 141.433 352.053 149.869 362.459 149.869Z" fill="#FFB8B8"/>
<path d="M329.016 172.155C328.535 171.716 328.188 171.151 328.017 170.523C327.846 169.895 327.856 169.232 328.048 168.61C329.204 164.866 330.896 161.311 333.073 158.053C336.673 152.774 342.457 152.971 346.308 155.389C350.054 157.74 352.668 162.73 349.557 168.13C349.293 168.586 349.006 169.029 348.697 169.457C345.982 173.223 343.935 176.212 342.613 178.341C342.353 178.759 342.007 179.117 341.597 179.39C341.187 179.664 340.723 179.846 340.236 179.925C339.75 180.004 339.253 179.977 338.777 179.848C338.302 179.718 337.86 179.488 337.481 179.174L329.149 172.271C329.104 172.233 329.059 172.194 329.016 172.155Z" fill="#6B7B93"/>
<path d="M329.016 172.155C328.535 171.716 328.188 171.151 328.017 170.523C327.846 169.895 327.856 169.232 328.048 168.61C329.204 164.866 330.896 161.311 333.073 158.053C336.673 152.774 342.457 152.971 346.308 155.389C350.054 157.74 352.668 162.73 349.557 168.13C349.293 168.586 349.006 169.029 348.697 169.457C345.982 173.223 343.935 176.212 342.613 178.341C342.353 178.759 342.007 179.117 341.597 179.39C341.187 179.664 340.723 179.846 340.236 179.925C339.75 180.004 339.253 179.977 338.777 179.848C338.302 179.718 337.86 179.488 337.481 179.174L329.149 172.271C329.104 172.233 329.059 172.194 329.016 172.155Z" fill="white" fill-opacity="0.15"/>
<path d="M357.85 104.498C353.219 101.735 352.216 94.8535 354.975 90.2198C357.734 85.5861 363.31 83.1689 368.701 83.0096C376.401 82.7821 383.837 86.616 389.227 92.1197C394.617 97.6234 398.174 104.669 400.884 111.879C403.594 119.09 405.539 126.569 408.21 133.795C409.581 137.503 411.268 141.31 414.403 143.718C417.538 146.125 422.522 146.56 425.202 143.654C425.192 148.304 421.627 152.531 417.206 153.97C412.784 155.41 407.783 154.323 403.907 151.754C397.182 147.298 393.936 139.164 392.08 131.314C390.224 123.463 389.31 115.237 385.579 108.086C384.034 105.122 381.915 102.307 378.935 100.795C375.954 99.2835 371.983 99.3828 369.585 101.711C368.475 102.79 367.756 104.26 366.495 105.159C365.698 105.658 364.797 105.968 363.862 106.065C362.926 106.163 361.981 106.045 361.097 105.721C359.338 105.06 357.692 104.131 356.217 102.967" fill="#1C2147"/>
<path d="M342.781 118.296C344.597 120.737 346.888 122.786 349.517 124.318C352.146 125.85 355.057 126.835 358.077 127.212C361.096 127.589 364.161 127.35 367.085 126.511C370.01 125.672 372.735 124.249 375.095 122.329C376.924 120.841 378.624 118.789 378.509 116.433C378.391 114.02 376.419 112.125 374.405 110.791C369.108 107.309 362.737 105.845 356.451 106.665C352.864 107.147 349.267 108.454 346.727 111.032C344.187 113.61 342.922 117.619 344.232 120.992" fill="#1C2147"/>
<path d="M441.478 394H310V394.699H441.478V394Z" fill="#6C6A82"/>
<path d="M210.886 216.917V237.611H207.106L198.1 224.586H197.952V237.611H193.572V216.917H197.413L206.348 229.932H206.53V216.917H210.886Z" fill="#1C2147"/>
<path d="M213.356 237.611V216.917H227.058V220.524H217.733V225.455H226.156V229.062H217.733V237.611H213.356Z" fill="#1C2147"/>
<path d="M229.211 220.524V216.917H246.212V220.524H239.875V237.611H235.549V220.524H229.211Z" fill="#1C2147"/>
<path d="M247.324 237.611V222.09H251.499V224.785H251.66C251.88 223.917 252.381 223.147 253.086 222.595C253.751 222.101 254.561 221.841 255.39 221.854C255.623 221.855 255.856 221.869 256.087 221.895C256.309 221.917 256.528 221.954 256.744 222.006V225.839C256.468 225.762 256.187 225.707 255.902 225.674C255.577 225.629 255.25 225.605 254.922 225.603C254.335 225.594 253.755 225.734 253.237 226.011C252.749 226.276 252.344 226.669 252.065 227.149C251.771 227.661 251.623 228.243 251.637 228.833V237.611H247.324Z" fill="#1C2147"/>
<path d="M262.816 237.904C261.906 237.92 261.003 237.742 260.168 237.381C259.418 237.056 258.78 236.519 258.331 235.835C257.859 235.067 257.625 234.177 257.658 233.276C257.633 232.523 257.796 231.777 258.133 231.103C258.438 230.53 258.883 230.043 259.426 229.689C259.999 229.319 260.629 229.046 261.29 228.88C262.012 228.694 262.747 228.566 263.49 228.496C264.388 228.402 265.116 228.312 265.673 228.227C266.095 228.186 266.503 228.057 266.872 227.85C266.994 227.768 267.093 227.656 267.158 227.525C267.224 227.394 267.254 227.248 267.246 227.102V227.041C267.263 226.765 267.218 226.488 267.114 226.231C267.01 225.974 266.851 225.743 266.647 225.556C266.163 225.178 265.557 224.991 264.945 225.03C264.29 224.995 263.641 225.174 263.095 225.539C262.657 225.851 262.337 226.302 262.186 226.819L258.203 226.482C258.387 225.577 258.797 224.733 259.396 224.03C260.02 223.318 260.809 222.769 261.694 222.433C262.739 222.042 263.849 221.852 264.965 221.874C265.801 221.871 266.634 221.973 267.445 222.177C268.199 222.363 268.915 222.681 269.558 223.117C270.168 223.535 270.669 224.094 271.016 224.747C271.391 225.484 271.575 226.303 271.552 227.129V237.611H267.472V235.458H267.357C267.105 235.944 266.762 236.377 266.347 236.735C265.904 237.115 265.393 237.407 264.841 237.594C264.188 237.81 263.503 237.914 262.816 237.904ZM264.049 234.933C264.633 234.945 265.211 234.814 265.733 234.552C266.196 234.322 266.589 233.973 266.872 233.542C267.149 233.103 267.29 232.592 267.28 232.073V230.416C267.109 230.519 266.924 230.599 266.731 230.652C266.498 230.723 266.236 230.787 265.946 230.844C265.656 230.901 265.37 230.952 265.08 230.995L264.291 231.113C263.84 231.175 263.399 231.293 262.977 231.467C262.633 231.604 262.33 231.828 262.098 232.117C261.884 232.41 261.774 232.765 261.785 233.127C261.769 233.388 261.819 233.648 261.931 233.884C262.043 234.119 262.213 234.323 262.425 234.475C262.905 234.794 263.473 234.955 264.049 234.933Z" fill="#1C2147"/>
<path d="M279.487 237.86C278.354 237.874 277.243 237.557 276.289 236.947C275.291 236.285 274.505 235.35 274.025 234.253C273.43 232.871 273.145 231.377 273.189 229.874C273.139 228.347 273.432 226.829 274.049 225.431C274.54 224.343 275.336 223.42 276.34 222.774C277.283 222.185 278.375 221.878 279.487 221.888C280.237 221.862 280.984 222.012 281.666 222.326C282.209 222.587 282.691 222.959 283.081 223.417C283.411 223.805 283.688 224.236 283.904 224.697H284.035V216.917H288.331V237.611H284.085V235.125H283.904C283.68 235.588 283.393 236.018 283.051 236.401C282.651 236.852 282.161 237.213 281.612 237.462C280.942 237.75 280.216 237.886 279.487 237.86ZM280.834 234.431C281.471 234.449 282.095 234.247 282.6 233.858C283.11 233.438 283.495 232.884 283.711 232.259C283.985 231.483 284.116 230.665 284.099 229.844C284.116 229.025 283.986 228.211 283.715 227.439C283.502 226.818 283.116 226.272 282.603 225.862C282.092 225.486 281.469 225.293 280.834 225.313C280.189 225.293 279.557 225.497 279.045 225.889C278.536 226.308 278.154 226.861 277.943 227.486C277.682 228.244 277.555 229.042 277.569 229.844C277.555 230.656 277.684 231.464 277.95 232.232C278.161 232.862 278.543 233.421 279.052 233.848C279.559 234.245 280.19 234.451 280.834 234.431Z" fill="#1C2147"/>
<path d="M298.354 237.913C296.919 237.952 295.498 237.616 294.233 236.937C293.095 236.297 292.172 235.333 291.582 234.168C290.934 232.848 290.615 231.391 290.652 229.921C290.62 228.465 290.939 227.023 291.582 225.717C292.168 224.546 293.078 223.568 294.203 222.898C295.412 222.203 296.788 221.854 298.182 221.887C299.158 221.879 300.128 222.044 301.046 222.376C301.917 222.694 302.71 223.196 303.371 223.848C304.062 224.544 304.593 225.383 304.924 226.307C305.315 227.418 305.503 228.591 305.48 229.769V230.951H292.367V228.284H301.423C301.434 227.709 301.295 227.141 301.019 226.637C300.756 226.165 300.369 225.775 299.9 225.508C299.396 225.228 298.826 225.088 298.249 225.101C297.641 225.088 297.041 225.243 296.514 225.549C296.023 225.838 295.617 226.253 295.338 226.751C295.051 227.266 294.902 227.846 294.904 228.435V230.961C294.882 231.649 295.026 232.331 295.322 232.952C295.592 233.494 296.016 233.943 296.541 234.245C297.113 234.56 297.758 234.717 298.411 234.7C298.857 234.705 299.301 234.637 299.725 234.498C300.102 234.372 300.447 234.165 300.736 233.892C301.024 233.615 301.245 233.276 301.383 232.901L305.365 233.164C305.177 234.091 304.749 234.953 304.125 235.663C303.466 236.399 302.642 236.967 301.72 237.321C300.646 237.731 299.503 237.932 298.354 237.913Z" fill="#1C2147"/>
<path d="M335.546 237.479L327.352 223.292C327.336 223.262 327.311 223.237 327.282 223.219C327.252 223.202 327.218 223.192 327.184 223.192C327.149 223.192 327.116 223.202 327.086 223.219C327.056 223.237 327.032 223.262 327.015 223.292L318.828 237.479C318.808 237.514 318.799 237.554 318.804 237.594C318.808 237.634 318.825 237.671 318.852 237.701C318.879 237.731 318.915 237.751 318.954 237.759C318.993 237.767 319.034 237.762 319.071 237.745L327.11 234.219C327.134 234.207 327.16 234.201 327.187 234.201C327.214 234.201 327.241 234.207 327.265 234.219L335.304 237.745C335.34 237.762 335.381 237.767 335.42 237.759C335.46 237.751 335.496 237.731 335.523 237.701C335.55 237.671 335.567 237.634 335.571 237.594C335.575 237.554 335.566 237.514 335.546 237.479Z" fill="#1571FA"/>
<path d="M326.898 217.327L318.704 231.514C318.687 231.545 318.663 231.57 318.633 231.587C318.604 231.605 318.57 231.614 318.535 231.614C318.501 231.614 318.467 231.605 318.438 231.587C318.408 231.57 318.384 231.545 318.367 231.514L310.183 217.327C310.162 217.293 310.153 217.253 310.157 217.213C310.16 217.173 310.177 217.135 310.204 217.105C310.23 217.075 310.266 217.054 310.305 217.045C310.345 217.037 310.386 217.041 310.422 217.058L318.465 220.588C318.488 220.599 318.514 220.606 318.541 220.606C318.567 220.606 318.593 220.599 318.616 220.588L326.655 217.058C326.692 217.043 326.733 217.039 326.771 217.048C326.81 217.056 326.846 217.077 326.872 217.107C326.899 217.136 326.916 217.173 326.92 217.213C326.925 217.253 326.917 217.293 326.898 217.327Z" fill="#93C5FE"/>
<defs>
<linearGradient id="paint0_linear" x1="144.856" y1="553.898" x2="329.28" y2="250.115" gradientUnits="userSpaceOnUse">
<stop stop-color="#EBF4FF"/>
<stop offset="1" stop-color="white" stop-opacity="0.33"/>
</linearGradient>
<linearGradient id="paint1_linear" x1="130.294" y1="261.446" x2="353.95" y2="-38.4914" gradientUnits="userSpaceOnUse">
<stop stop-color="#EFF6FF"/>
<stop offset="1" stop-color="white" stop-opacity="0.33"/>
</linearGradient>
<linearGradient id="paint2_linear" x1="207.288" y1="371.06" x2="489.508" y2="377.466" gradientUnits="userSpaceOnUse">
<stop stop-color="#EBF4FF"/>
<stop offset="1" stop-color="white" stop-opacity="0.33"/>
</linearGradient>
</defs>
</svg>
