<svg width="520" height="460" viewBox="0 0 520 460" fill="none" xmlns="http://www.w3.org/2000/svg">
<mask id="mask0" mask-type="alpha" maskUnits="userSpaceOnUse" x="0" y="0" width="520" height="460">
<rect width="520" height="460" fill="#C4C4C4"/>
</mask>
<g mask="url(#mask0)">
<path d="M174.948 430.83L285.575 230.481L514.006 225.684L403.379 426.033L174.948 430.83Z" fill="url(#paint0_linear)"/>
<path d="M174.772 430.679L57.0027 235.169L167.075 34.7097L285.365 230.373L174.772 430.679Z" fill="url(#paint1_linear)"/>
<path d="M285.384 230.602L167.022 34.819L395.525 30.0195L513.887 225.803L285.384 230.602Z" fill="url(#paint2_linear)"/>
</g>
<path d="M398.855 194.039C398.855 150.965 335.696 116.047 257.784 116.047C179.873 116.047 116.713 150.965 116.713 194.039" stroke="#6B7B93" stroke-width="2" stroke-miterlimit="10"/>
<path d="M398.855 194.039C398.855 150.965 335.696 116.047 257.784 116.047C179.873 116.047 116.713 150.965 116.713 194.039" stroke="white" stroke-opacity="0.75" stroke-width="2" stroke-miterlimit="10"/>
<path d="M116.713 194.039C116.713 239.199 179.873 275.808 257.784 275.808C335.696 275.808 398.855 239.199 398.855 194.039" stroke="#6B7B93" stroke-width="2" stroke-miterlimit="10"/>
<path d="M116.713 194.039C116.713 239.199 179.873 275.808 257.784 275.808C335.696 275.808 398.855 239.199 398.855 194.039" stroke="white" stroke-opacity="0.75" stroke-width="2" stroke-miterlimit="10"/>
<path d="M142.373 276.969C173.906 293.975 215.051 304.267 260.059 304.267C303.213 304.267 342.815 294.806 373.799 279.037" stroke="#6B7B93" stroke-width="2" stroke-miterlimit="10"/>
<path d="M142.373 276.969C173.906 293.975 215.051 304.267 260.059 304.267C303.213 304.267 342.815 294.806 373.799 279.037" stroke="white" stroke-opacity="0.75" stroke-width="2" stroke-miterlimit="10"/>
<path d="M187.333 94.9353C127.323 110.708 84.5836 145.404 80.6093 186.267" stroke="#6B7B93" stroke-width="2" stroke-miterlimit="10"/>
<path d="M187.333 94.9353C127.323 110.708 84.5836 145.404 80.6093 186.267" stroke="white" stroke-opacity="0.75" stroke-width="2" stroke-miterlimit="10"/>
<path d="M431.15 159.707C421.038 141.122 402.567 124.767 378.365 112.202" stroke="#6B7B93" stroke-width="2" stroke-miterlimit="10"/>
<path d="M431.15 159.707C421.038 141.122 402.567 124.767 378.365 112.202" stroke="white" stroke-opacity="0.75" stroke-width="2" stroke-miterlimit="10"/>
<path d="M229.299 49.3574C229.653 48.3751 230.302 47.526 231.156 46.9253C232.011 46.3246 233.029 46.0016 234.073 46H338.781C340.126 45.9995 341.416 46.5333 342.367 47.484C343.319 48.4347 343.853 49.7244 343.854 51.0694V131.424C343.852 132.769 343.317 134.059 342.366 135.01C341.415 135.961 340.126 136.496 338.781 136.498H234.073C232.728 136.496 231.439 135.961 230.488 135.01C229.537 134.059 229.002 132.769 229 131.424V51.0734C228.999 50.4884 229.1 49.9077 229.299 49.3574Z" fill="#6B7B93"/>
<path d="M229.299 49.3574C229.653 48.3751 230.302 47.526 231.156 46.9253C232.011 46.3246 233.029 46.0016 234.073 46H338.781C340.126 45.9995 341.416 46.5333 342.367 47.484C343.319 48.4347 343.853 49.7244 343.854 51.0694V131.424C343.852 132.769 343.317 134.059 342.366 135.01C341.415 135.961 340.126 136.496 338.781 136.498H234.073C232.728 136.496 231.439 135.961 230.488 135.01C229.537 134.059 229.002 132.769 229 131.424V51.0734C228.999 50.4884 229.1 49.9077 229.299 49.3574Z" fill="white" fill-opacity="0.15"/>
<path d="M232.917 50.9929V130.791C232.917 131.323 233.079 131.834 233.369 132.211C233.659 132.588 234.052 132.799 234.462 132.8H338.714C338.788 132.8 338.862 132.793 338.935 132.777C339.303 132.708 339.639 132.47 339.883 132.105C340.126 131.74 340.26 131.273 340.26 130.791V50.9929C340.26 50.7291 340.22 50.468 340.142 50.2243C340.065 49.9806 339.951 49.7591 339.807 49.5726C339.664 49.386 339.494 49.238 339.306 49.137C339.119 49.036 338.918 48.984 338.715 48.9839H234.463C234.26 48.9838 234.059 49.0357 233.871 49.1365C233.684 49.2373 233.513 49.3852 233.37 49.5716C233.226 49.758 233.112 49.9794 233.035 50.223C232.957 50.4666 232.917 50.7278 232.917 50.9915V50.9929Z" fill="#93C5FE"/>
<path d="M232.917 50.9929V130.791C232.917 131.323 233.079 131.834 233.369 132.211C233.659 132.588 234.052 132.799 234.462 132.8H338.714C338.788 132.8 338.862 132.793 338.935 132.777C339.303 132.708 339.639 132.47 339.883 132.105C340.126 131.74 340.26 131.273 340.26 130.791V50.9929C340.26 50.7291 340.22 50.468 340.142 50.2243C340.065 49.9806 339.951 49.7591 339.807 49.5726C339.664 49.386 339.494 49.238 339.306 49.137C339.119 49.036 338.918 48.984 338.715 48.9839H234.463C234.26 48.9838 234.059 49.0357 233.871 49.1365C233.684 49.2373 233.513 49.3852 233.37 49.5716C233.226 49.758 233.112 49.9794 233.035 50.223C232.957 50.4666 232.917 50.7278 232.917 50.9915V50.9929Z" fill="white" fill-opacity="0.85"/>
<path d="M311.726 93.6379C304.882 93.6379 299.334 88.0896 299.334 81.2453C299.334 74.4011 304.882 68.8528 311.726 68.8528C318.57 68.8528 324.119 74.4011 324.119 81.2453C324.119 88.0896 318.57 93.6379 311.726 93.6379Z" fill="#93C5FE"/>
<path d="M272.864 119.434H333.658C333.734 119.435 333.81 119.429 333.885 119.416L305.132 69.6122C304.957 69.302 304.702 69.044 304.394 68.8645C304.087 68.6849 303.737 68.5903 303.38 68.5903C303.024 68.5903 302.674 68.6849 302.366 68.8645C302.058 69.044 301.803 69.302 301.628 69.6122L282.331 103.035L281.407 104.634L272.864 119.434Z" fill="#93C5FE"/>
<path d="M272.864 119.434H333.658C333.734 119.435 333.81 119.429 333.885 119.416L305.132 69.6122C304.957 69.302 304.702 69.044 304.394 68.8645C304.087 68.6849 303.737 68.5903 303.38 68.5903C303.024 68.5903 302.674 68.6849 302.366 68.8645C302.058 69.044 301.803 69.302 301.628 69.6122L282.331 103.035L281.407 104.634L272.864 119.434Z" fill="white" fill-opacity="0.6"/>
<g opacity="0.2">
<path d="M272.864 119.435H293.621L283.432 104.634L282.698 103.568L282.332 103.035L281.407 104.634L272.864 119.435Z" fill="#1571FA"/>
<path d="M272.864 119.435H293.621L283.432 104.634L282.698 103.568L282.332 103.035L281.407 104.634L272.864 119.435Z" fill="white" fill-opacity="0.25"/>
</g>
<path d="M239.016 119.434H291.598L281.408 104.634L280.675 103.567L267.397 84.2797C266.527 83.0156 264.433 82.9369 263.409 84.0413C263.341 84.1166 263.277 84.1962 263.218 84.2797L239.016 119.434Z" fill="#93C5FE"/>
<path d="M23.2985 192.163C23.6533 191.18 24.3019 190.331 25.1562 189.73C26.0105 189.13 27.0291 188.807 28.0734 188.805H132.781C134.126 188.805 135.416 189.338 136.367 190.289C137.319 191.24 137.853 192.53 137.854 193.875V274.229C137.852 275.574 137.317 276.864 136.366 277.815C135.415 278.766 134.126 279.301 132.781 279.303H28.0734C26.7285 279.301 25.4392 278.766 24.4881 277.815C23.5371 276.864 23.002 275.574 23.0001 274.229V193.879C22.9991 193.294 23.1001 192.713 23.2985 192.163Z" fill="#6B7B93"/>
<path d="M23.2985 192.163C23.6533 191.18 24.3019 190.331 25.1562 189.73C26.0105 189.13 27.0291 188.807 28.0734 188.805H132.781C134.126 188.805 135.416 189.338 136.367 190.289C137.319 191.24 137.853 192.53 137.854 193.875V274.229C137.852 275.574 137.317 276.864 136.366 277.815C135.415 278.766 134.126 279.301 132.781 279.303H28.0734C26.7285 279.301 25.4392 278.766 24.4881 277.815C23.5371 276.864 23.002 275.574 23.0001 274.229V193.879C22.9991 193.294 23.1001 192.713 23.2985 192.163Z" fill="white" fill-opacity="0.15"/>
<path d="M26.9153 193.798V273.595C26.9151 274.128 27.0779 274.639 27.3676 275.016C27.6574 275.393 28.0504 275.604 28.4603 275.605H132.712C132.786 275.605 132.861 275.598 132.934 275.582C133.301 275.513 133.638 275.275 133.881 274.91C134.124 274.545 134.258 274.078 134.258 273.596V193.798C134.258 193.534 134.218 193.273 134.141 193.029C134.063 192.786 133.949 192.564 133.806 192.378C133.662 192.191 133.492 192.043 133.305 191.942C133.117 191.841 132.916 191.789 132.713 191.789H28.4614C28.2585 191.789 28.0575 191.841 27.8699 191.941C27.6824 192.042 27.512 192.19 27.3684 192.377C27.2248 192.563 27.1109 192.784 27.0331 193.028C26.9554 193.272 26.9154 193.533 26.9153 193.796V193.798Z" fill="#93C5FE"/>
<path d="M26.9153 193.798V273.595C26.9151 274.128 27.0779 274.639 27.3676 275.016C27.6574 275.393 28.0504 275.604 28.4603 275.605H132.712C132.786 275.605 132.861 275.598 132.934 275.582C133.301 275.513 133.638 275.275 133.881 274.91C134.124 274.545 134.258 274.078 134.258 273.596V193.798C134.258 193.534 134.218 193.273 134.141 193.029C134.063 192.786 133.949 192.564 133.806 192.378C133.662 192.191 133.492 192.043 133.305 191.942C133.117 191.841 132.916 191.789 132.713 191.789H28.4614C28.2585 191.789 28.0575 191.841 27.8699 191.941C27.6824 192.042 27.512 192.19 27.3684 192.377C27.2248 192.563 27.1109 192.784 27.0331 193.028C26.9554 193.272 26.9154 193.533 26.9153 193.796V193.798Z" fill="white" fill-opacity="0.85"/>
<path d="M105.725 236.443C98.8809 236.443 93.3326 230.894 93.3326 224.05C93.3326 217.206 98.8809 211.657 105.725 211.657C112.569 211.657 118.118 217.206 118.118 224.05C118.118 230.894 112.569 236.443 105.725 236.443Z" fill="#93C5FE"/>
<path d="M66.8629 262.239H127.657C127.733 262.24 127.809 262.234 127.884 262.221L99.1314 212.417C98.956 212.107 98.7013 211.849 98.3934 211.669C98.0856 211.49 97.7356 211.395 97.3792 211.395C97.0228 211.395 96.6729 211.49 96.365 211.669C96.0572 211.849 95.8025 212.107 95.627 212.417L76.3303 245.839L75.4058 247.439L66.8629 262.239Z" fill="#93C5FE"/>
<path d="M66.8629 262.239H127.657C127.733 262.24 127.809 262.234 127.884 262.221L99.1314 212.417C98.956 212.107 98.7013 211.849 98.3934 211.669C98.0856 211.49 97.7356 211.395 97.3792 211.395C97.0228 211.395 96.6729 211.49 96.365 211.669C96.0572 211.849 95.8025 212.107 95.627 212.417L76.3303 245.839L75.4058 247.439L66.8629 262.239Z" fill="white" fill-opacity="0.6"/>
<g opacity="0.2">
<path d="M66.865 262.239H87.6216L77.4323 247.439L76.6988 246.373L76.3321 245.84L75.4079 247.439L66.865 262.239Z" fill="#1571FA"/>
<path d="M66.865 262.239H87.6216L77.4323 247.439L76.6988 246.373L76.3321 245.84L75.4079 247.439L66.865 262.239Z" fill="white" fill-opacity="0.25"/>
</g>
<path d="M33.0147 262.239H85.5967L75.4073 247.438L74.6741 246.372L61.3964 227.084C60.526 225.82 58.4319 225.742 57.4084 226.846C57.3397 226.921 57.2758 227.001 57.2172 227.084L33.0147 262.239Z" fill="#93C5FE"/>
<path d="M374.115 174.536C374.47 173.554 375.118 172.705 375.973 172.104C376.827 171.504 377.845 171.181 378.89 171.179H483.597C484.942 171.178 486.232 171.712 487.184 172.663C488.135 173.614 488.67 174.903 488.67 176.248V256.603C488.669 257.948 488.133 259.238 487.182 260.189C486.231 261.14 484.942 261.675 483.597 261.677H378.89C377.545 261.675 376.256 261.14 375.305 260.189C374.354 259.238 373.818 257.948 373.817 256.603V176.252C373.816 175.667 373.917 175.087 374.115 174.536Z" fill="#6B7B93"/>
<path d="M374.115 174.536C374.47 173.554 375.118 172.705 375.973 172.104C376.827 171.504 377.845 171.181 378.89 171.179H483.597C484.942 171.178 486.232 171.712 487.184 172.663C488.135 173.614 488.67 174.903 488.67 176.248V256.603C488.669 257.948 488.133 259.238 487.182 260.189C486.231 261.14 484.942 261.675 483.597 261.677H378.89C377.545 261.675 376.256 261.14 375.305 260.189C374.354 259.238 373.818 257.948 373.817 256.603V176.252C373.816 175.667 373.917 175.087 374.115 174.536Z" fill="white" fill-opacity="0.15"/>
<path d="M377.732 176.172V255.97C377.732 256.503 377.894 257.014 378.184 257.39C378.474 257.767 378.867 257.979 379.277 257.979H483.529C483.603 257.98 483.677 257.972 483.75 257.957C484.118 257.888 484.454 257.649 484.698 257.284C484.941 256.919 485.075 256.453 485.075 255.97V176.172C485.075 175.909 485.035 175.647 484.957 175.404C484.88 175.16 484.766 174.939 484.622 174.752C484.479 174.565 484.309 174.417 484.121 174.316C483.934 174.215 483.733 174.163 483.53 174.163H379.278C379.075 174.163 378.874 174.215 378.686 174.316C378.499 174.417 378.328 174.565 378.185 174.751C378.041 174.937 377.927 175.159 377.85 175.402C377.772 175.646 377.732 175.907 377.732 176.171V176.172Z" fill="#93C5FE"/>
<path d="M377.732 176.172V255.97C377.732 256.503 377.894 257.014 378.184 257.39C378.474 257.767 378.867 257.979 379.277 257.979H483.529C483.603 257.98 483.677 257.972 483.75 257.957C484.118 257.888 484.454 257.649 484.698 257.284C484.941 256.919 485.075 256.453 485.075 255.97V176.172C485.075 175.909 485.035 175.647 484.957 175.404C484.88 175.16 484.766 174.939 484.622 174.752C484.479 174.565 484.309 174.417 484.121 174.316C483.934 174.215 483.733 174.163 483.53 174.163H379.278C379.075 174.163 378.874 174.215 378.686 174.316C378.499 174.417 378.328 174.565 378.185 174.751C378.041 174.937 377.927 175.159 377.85 175.402C377.772 175.646 377.732 175.907 377.732 176.171V176.172Z" fill="white" fill-opacity="0.85"/>
<path d="M456.542 218.817C449.697 218.817 444.149 213.269 444.149 206.424C444.149 199.58 449.697 194.032 456.542 194.032C463.386 194.032 468.934 199.58 468.934 206.424C468.934 213.269 463.386 218.817 456.542 218.817Z" fill="#93C5FE"/>
<path d="M417.679 244.613H478.474C478.55 244.614 478.626 244.608 478.701 244.595L449.948 194.791C449.772 194.481 449.518 194.223 449.21 194.043C448.902 193.864 448.552 193.769 448.196 193.769C447.839 193.769 447.489 193.864 447.181 194.043C446.874 194.223 446.619 194.481 446.443 194.791L427.147 228.214L426.222 229.813L417.679 244.613Z" fill="#93C5FE"/>
<path d="M417.679 244.613H478.474C478.55 244.614 478.626 244.608 478.701 244.595L449.948 194.791C449.772 194.481 449.518 194.223 449.21 194.043C448.902 193.864 448.552 193.769 448.196 193.769C447.839 193.769 447.489 193.864 447.181 194.043C446.874 194.223 446.619 194.481 446.443 194.791L427.147 228.214L426.222 229.813L417.679 244.613Z" fill="white" fill-opacity="0.6"/>
<g opacity="0.2">
<path d="M417.68 244.614H438.437L428.247 229.813L427.514 228.747L427.147 228.214L426.223 229.813L417.68 244.614Z" fill="#1571FA"/>
<path d="M417.68 244.614H438.437L428.247 229.813L427.514 228.747L427.147 228.214L426.223 229.813L417.68 244.614Z" fill="white" fill-opacity="0.25"/>
</g>
<path d="M383.831 244.613H436.413L426.224 229.813L425.49 228.747L412.213 209.459C411.342 208.195 409.248 208.116 408.225 209.221C408.156 209.296 408.092 209.376 408.034 209.459L383.831 244.613Z" fill="#93C5FE"/>
<path d="M306.703 431.29H67.6275C67.4611 431.29 67.3015 431.222 67.1838 431.101C67.0661 430.98 67 430.816 67 430.645C67 430.474 67.0661 430.31 67.1838 430.189C67.3015 430.068 67.4611 430 67.6275 430H306.703C306.87 430 307.029 430.068 307.147 430.189C307.265 430.31 307.331 430.474 307.331 430.645C307.331 430.816 307.265 430.98 307.147 431.101C307.029 431.222 306.87 431.29 306.703 431.29Z" fill="#6C6A82"/>
<path d="M162.399 201.98L161.123 250.971C183.801 262.052 229.518 250.644 229.518 250.644L214.319 156.211L197.583 148.974H183.68L158.073 157.78L162.399 201.98Z" fill="#6B7B93"/>
<path d="M162.399 201.98L161.123 250.971C183.801 262.052 229.518 250.644 229.518 250.644L214.319 156.211L197.583 148.974H183.68L158.073 157.78L162.399 201.98Z" fill="white" fill-opacity="0.15"/>
<path d="M192.59 430.652H206.203C206.41 430.635 206.582 430.617 206.737 430.566C206.823 430.548 206.892 430.514 206.961 430.497C207.099 430.445 207.22 430.393 207.323 430.324C207.409 430.273 207.478 430.221 207.547 430.152C208.219 429.532 207.995 428.549 207.995 428.549C210.39 427.343 213.837 430.634 213.837 430.634H233.137C236.428 430.342 236.876 428.842 236.876 428.842V426.189C231.31 426.326 224.366 426.516 222.074 426.602C218.042 426.757 212.958 424.5 209.357 423.914C205.772 423.311 192.452 423.914 192.452 423.914C191.694 424.328 191.314 424.844 191.125 425.224C191.108 425.258 191.09 425.31 191.073 425.344C191.056 425.379 191.039 425.413 191.021 425.448C191.004 425.499 190.987 425.534 190.97 425.585C190.97 425.603 190.953 425.637 190.953 425.654C190.935 425.706 190.935 425.723 190.935 425.723V428.567C190.642 430.514 192.59 430.652 192.59 430.652Z" fill="#494234"/>
<path d="M149.509 425.516C149.492 425.568 149.492 425.62 149.492 425.654C149.492 425.792 149.526 425.913 149.578 426.051C149.681 426.326 149.923 426.568 150.233 426.757C150.681 427.05 151.301 427.222 151.973 427.222H172.876C174.03 427.222 174.995 426.723 175.271 426.051C175.323 425.93 175.357 425.792 175.357 425.654C175.357 425.603 175.357 425.551 175.34 425.516V425.499C175.34 425.379 175.357 425.258 175.357 425.137C175.357 423.535 174.616 422.036 173.324 420.778C171.032 418.52 167 417.021 162.416 417.021C157.401 417.021 153.059 418.813 150.922 421.432C150.009 422.553 149.492 423.811 149.492 425.155C149.492 425.258 149.492 425.379 149.509 425.516C149.509 425.499 149.492 425.499 149.509 425.516Z" fill="#39372C"/>
<path d="M150.095 430.652H174.22C175.392 430.652 176.357 429.687 176.357 428.515V428.119C176.357 426.947 175.392 425.982 174.22 425.982H150.095C148.923 425.982 147.958 426.947 147.958 428.119V428.515C147.958 429.687 148.923 430.652 150.095 430.652Z" fill="#E2AE1B"/>
<path d="M144.736 296.62C146.821 297.137 150.422 298.55 152.956 298.825C155.489 299.101 157.729 301.117 158.125 298.687C158.522 296.258 158.78 292.691 159.418 290.83C159.917 289.399 159.624 286.935 158.315 284.609C157.936 283.919 157.47 283.265 156.902 282.627C154.42 279.818 154.42 279.818 154.42 279.818C154.42 279.818 155.351 233.102 158.78 215.663L147.458 209.804C147.458 209.804 141.841 230.861 144.426 270.134L145.029 281.111C145.029 281.111 142.857 281.386 142.478 284.626C142.099 287.831 142.651 296.103 144.736 296.62Z" fill="#FBBEBE"/>
<path d="M214.319 156.229C214.319 156.229 219.644 160.52 224.486 174.167C229.329 187.815 233.154 199.568 233.154 199.568L237.548 214.319C237.548 214.319 236.153 218.644 232.034 218.816C227.916 218.988 221.057 213.371 221.057 213.371L214.319 156.229Z" fill="#6B7B93"/>
<path d="M214.319 156.229C214.319 156.229 219.644 160.52 224.486 174.167C229.329 187.815 233.154 199.568 233.154 199.568L237.548 214.319C237.548 214.319 236.153 218.644 232.034 218.816C227.916 218.988 221.057 213.371 221.057 213.371L214.319 156.229Z" fill="white" fill-opacity="0.15"/>
<path d="M215.525 168.136C215.525 168.136 217.938 173.926 219.092 180.268C220.247 186.609 223.625 214.043 223.625 214.043L221.057 213.388C221.057 213.388 215.749 170.325 215.525 168.136Z" fill="#6B7B93"/>
<path d="M144.736 296.619C146.821 297.136 150.422 298.549 152.956 298.825C155.489 299.101 157.729 301.117 158.125 298.687C158.522 296.258 158.78 292.691 159.418 290.829C159.917 289.399 159.624 286.935 158.315 284.609C158.315 284.609 156.505 287.4 156.299 291.57C156.092 295.741 151.818 294.173 147.476 292.966C143.133 291.743 142.478 284.626 142.478 284.626C142.099 287.831 142.651 296.103 144.736 296.619Z" fill="#FBBEBE"/>
<path d="M150.922 421.415C153.421 423.138 157.315 424.259 161.709 424.259C166.62 424.259 170.928 422.863 173.341 420.778C171.049 418.52 167.017 417.021 162.433 417.021C157.418 417.004 153.059 418.796 150.922 421.415Z" fill="#514A3D"/>
<path d="M235.929 197.948C235.929 197.948 234.843 196.259 232.896 196.259C230.966 196.259 230.276 196.604 228.536 197.104C226.796 197.603 224.917 201.481 223.625 202.549C222.315 203.617 221.66 210.2 221.867 211.269C222.057 212.337 223.625 214.043 223.625 214.043C223.625 214.043 227.571 217.214 228.881 218.161C230.19 219.109 234.55 219.35 236.291 218.161C238.031 216.972 238.479 214.043 238.479 214.043L235.929 197.948Z" fill="#93C5FE"/>
<path d="M235.929 197.948C235.929 197.948 234.843 196.259 232.896 196.259C230.966 196.259 230.276 196.604 228.536 197.104C226.796 197.603 224.917 201.481 223.625 202.549C222.315 203.617 221.66 210.2 221.867 211.269C222.057 212.337 223.625 214.043 223.625 214.043C223.625 214.043 227.571 217.214 228.881 218.161C230.19 219.109 234.55 219.35 236.291 218.161C238.031 216.972 238.479 214.043 238.479 214.043L235.929 197.948Z" fill="white" fill-opacity="0.6"/>
<path d="M142.065 227.467C142.065 227.467 143.064 227.639 144.633 227.88C147.7 228.346 152.938 229.035 157.005 229.087C158.005 229.104 158.935 229.069 159.745 229C159.745 229 162.778 208.597 163.553 184.938C163.553 184.938 165.139 164.776 158.022 157.762C158.022 157.762 148.975 165.793 147.08 177.511C145.167 189.263 142.065 227.467 142.065 227.467Z" fill="#6B7B93"/>
<path d="M142.065 227.467C142.065 227.467 143.064 227.639 144.633 227.88C147.7 228.346 152.938 229.035 157.005 229.087C158.005 229.104 158.935 229.069 159.745 229C159.745 229 162.778 208.597 163.553 184.938C163.553 184.938 165.139 164.776 158.022 157.762C158.022 157.762 148.975 165.793 147.08 177.511C145.167 189.263 142.065 227.467 142.065 227.467Z" fill="white" fill-opacity="0.15"/>
<path d="M153.128 398.255H171.428C171.428 398.255 175.323 361.43 182.716 335.754C183.457 333.152 184.146 330.429 184.783 327.655C184.801 327.552 184.835 327.448 184.852 327.345C184.887 327.31 184.921 327.276 184.939 327.241C185.163 326.259 185.369 325.277 185.559 324.295C186.8 318.177 187.816 311.87 188.609 305.856C188.643 305.667 188.661 305.494 188.678 305.305C189.832 296.62 190.573 288.555 191.039 282.627C191.09 281.903 191.142 281.231 191.194 280.577C191.418 277.492 191.538 275.166 191.607 273.89C191.625 273.529 191.642 273.253 191.642 273.081C191.659 272.891 191.659 272.805 191.659 272.805H196.725C196.725 272.805 196.743 273.046 196.76 273.494C196.829 274.631 196.949 277.113 197.139 280.594C197.173 281.335 197.225 282.11 197.26 282.937C197.742 292.174 198.449 306.528 199.034 321.003C199.121 323.071 199.207 325.139 199.276 327.19C199.5 333.014 199.689 338.735 199.827 344.026C200.603 373.096 196.329 400.719 196.329 400.719H214.233C214.233 400.719 217.8 378.817 220.575 356.191C221.505 348.644 222.332 341.027 222.936 334.117C222.936 334.117 223.349 330.688 223.969 325.07C223.987 324.984 223.987 324.898 224.004 324.812C226.158 305.339 230.742 260.363 229.501 238.547L227.502 214.336C227.502 214.336 218.007 214.922 217.232 209.304C216.456 203.686 212.338 174.237 212.338 174.237H176.908C176.908 174.237 178.511 192.572 178.063 199.913C177.632 207.253 175.978 210.476 175.978 210.476C171.515 214.939 160.865 215.318 160.865 215.318C160.865 215.318 161.761 312.146 160.813 321.107C160.813 321.124 160.813 321.158 160.796 321.176C160.796 321.193 160.796 321.193 160.796 321.21C160.779 321.296 160.779 321.382 160.762 321.469C160.762 321.486 160.762 321.503 160.762 321.52C160.762 321.555 160.745 321.572 160.745 321.606C160.452 323.829 160.107 325.828 159.745 327.586C155.454 347.386 152.335 372.579 153.128 398.255Z" fill="#1661D6"/>
<path d="M142.461 222.745C142.461 222.745 141.462 224.744 141.272 225.64C141.065 226.536 141.668 230.345 141.065 231.447C140.462 232.55 144.236 235.135 144.236 235.135C144.236 235.135 145.27 234.136 147.079 234.136C148.889 234.136 156.006 234.48 156.35 236.772C156.35 236.772 159.659 236.807 159.573 235.135C159.487 233.464 161.21 230.534 161.003 229.087C160.796 227.639 160.245 225.33 160.245 225.33C160.245 225.33 156.505 225.847 155.506 225.847C154.506 225.847 152.197 224.244 149.888 224.141C147.579 224.038 143.547 224.055 142.461 222.745Z" fill="#93C5FE"/>
<path d="M142.461 222.745C142.461 222.745 141.462 224.744 141.272 225.64C141.065 226.536 141.668 230.345 141.065 231.447C140.462 232.55 144.236 235.135 144.236 235.135C144.236 235.135 145.27 234.136 147.079 234.136C148.889 234.136 156.006 234.48 156.35 236.772C156.35 236.772 159.659 236.807 159.573 235.135C159.487 233.464 161.21 230.534 161.003 229.087C160.796 227.639 160.245 225.33 160.245 225.33C160.245 225.33 156.505 225.847 155.506 225.847C154.506 225.847 152.197 224.244 149.888 224.141C147.579 224.038 143.547 224.055 142.461 222.745Z" fill="white" fill-opacity="0.6"/>
<path d="M167.655 214.301C167.655 214.301 169.481 176.804 162.812 169.618L160.745 168.136C160.745 168.136 162.83 182.129 162.847 194.777C162.864 207.426 161.899 215.284 161.899 215.284C161.899 215.284 165.535 215.042 167.655 214.301Z" fill="#6B7B93"/>
<path d="M209.339 180.268C209.339 180.268 212.665 196.931 209.339 200.412C206.013 203.893 185.49 204.772 183.301 198.672C181.113 192.572 180.63 180.268 180.63 180.268H209.339Z" fill="#1571FA"/>
<path d="M209.339 180.268C209.339 180.268 212.665 196.931 209.339 200.412C206.013 203.893 185.49 204.772 183.301 198.672C181.113 192.572 180.63 180.268 180.63 180.268H209.339Z" fill="white" fill-opacity="0.25"/>
<path d="M176.908 174.168C176.908 174.168 172.91 155.712 170.705 153.437L170.257 153.592C170.257 153.592 170.153 152.851 170.791 152.541C171.428 152.214 175.771 150.956 175.771 150.956C175.771 150.956 176.236 151.111 176.529 151.438C176.805 151.766 181.63 164.586 183.164 174.185H176.908V174.168Z" fill="#1661D6"/>
<path d="M212.355 174.167C212.355 174.167 209.46 155.832 208.167 153.902C208.167 153.902 207.719 153.075 207.116 152.834C206.513 152.593 204.256 151.748 204.256 151.748C204.256 151.748 202.343 151.352 202.084 151.61L203.17 152.024C203.17 152.024 206.117 166.516 206.496 174.167H212.355Z" fill="#1661D6"/>
<path d="M172.929 83.4755C172.91 83.4567 172.91 83.4567 172.929 83.4755C172.91 83.4755 172.91 83.4755 172.929 83.4755Z" fill="#F3C03A"/>
<path d="M264.465 431.1H263.207C261.656 431.1 260.398 429.859 260.381 428.308L258.917 149.095C258.917 147.544 260.157 146.286 261.708 146.269H262.966C264.517 146.269 265.775 147.509 265.792 149.06L267.257 428.274C267.257 429.824 266.016 431.082 264.465 431.1Z" fill="#6B7B93"/>
<path d="M257.883 172.289H257.848L257.538 172.599C257.538 172.599 256.659 173.823 257.883 174.443L258.434 174.512C258.434 174.512 256.918 175.701 257.607 176.89C257.607 176.89 257.969 177.666 258.244 177.804C258.244 177.804 257.693 179.182 257.659 179.992C257.659 179.992 257.555 181.147 258.262 181.508C258.262 181.508 257.848 183.249 258.71 183.697L259.054 183.869L258.934 181.302V181.095L258.761 177.631V177.562L258.641 175.064C258.624 175.029 258.624 175.012 258.624 174.977L258.468 171.652L258.451 171.669C258.382 171.807 258.089 172.289 257.883 172.289Z" fill="#FBBEBE"/>
<path d="M255.47 175.908C255.47 175.908 256.125 178.062 256.125 178.148C256.125 178.234 255.591 181.095 256.952 184.197L257.297 186.936L257.314 187.023L256.383 188.108C256.383 188.108 255.918 193.485 255.918 193.64C255.918 193.743 256.9 196.776 257.4 198.327C258.537 197 259.209 196.173 259.209 196.173L259.158 185.317L259.141 185.058L259.123 184.593C257.71 183.8 257.934 182.008 257.934 182.008C256.918 180.698 257.917 178.165 257.917 178.165C256.659 176.735 257.607 174.822 257.607 174.822C256.418 172.806 257.883 172.306 257.883 172.306C257.883 172.306 257.417 170.325 257.09 169.773C257.073 169.739 257.038 169.704 257.021 169.67C256.969 169.601 256.918 169.549 256.849 169.515C256.849 169.515 255.901 168.67 255.281 169.911L254.953 172.134L255.47 175.908Z" fill="#FBBEBE"/>
<path d="M257.59 176.89C257.59 176.89 257.952 177.666 258.228 177.803C258.228 177.803 257.676 179.182 257.642 179.992C257.642 179.992 257.538 181.147 258.245 181.508C258.245 181.508 257.831 183.249 258.693 183.697L259.037 183.869L259.072 183.886L259.623 184.162L261.398 183.904L264.293 184.145L265.017 185.403L265.775 191.658C265.775 191.658 267.378 190.262 267.964 189.073L268.653 185.627C268.653 185.627 269.825 184.507 269.635 182.921C269.635 182.921 270.531 181.56 269.842 179.63C269.842 179.63 270.721 177.321 268.963 175.598L266.378 169.911C266.378 169.911 265.689 168.119 263.604 168.688L260.192 169.946L258.452 171.669L258.434 171.686L257.814 172.289L257.504 172.599C257.504 172.599 256.625 173.823 257.848 174.443L258.4 174.512C258.434 174.512 256.918 175.701 257.59 176.89Z" fill="#FBBEBE"/>
<path d="M257.882 178.148C257.882 178.148 256.883 180.681 257.9 181.991C257.9 181.991 257.676 183.783 259.089 184.576L259.054 183.869L258.71 183.697C257.848 183.249 258.262 181.509 258.262 181.509C257.538 181.147 257.658 179.992 257.658 179.992C257.693 179.182 258.244 177.804 258.244 177.804C257.969 177.666 257.607 176.89 257.607 176.89C256.935 175.701 258.434 174.512 258.434 174.512L257.882 174.443C256.659 173.823 257.538 172.599 257.538 172.599L257.848 172.289C257.848 172.289 256.383 172.789 257.572 174.805C257.572 174.788 256.625 176.718 257.882 178.148Z" fill="#FBBEBE"/>
<path d="M237.548 214.318C244.476 212.526 253.557 202.721 257.383 198.31C258.52 196.983 259.192 196.156 259.192 196.156L257.4 186.833C257.4 186.833 257.365 186.867 257.296 186.954C256.607 187.643 252.489 191.451 241.133 195.69C228.553 200.378 226.227 206.271 225.451 210.01C224.659 213.698 228.553 216.645 237.548 214.318Z" fill="#FBBEBE"/>
<path d="M285.402 141.202C280.249 145.338 274.752 147.613 269.427 148.664C267.256 149.095 265.119 149.353 263.052 149.422C260.346 149.233 257.934 148.922 255.762 148.543C246.25 146.854 241.994 143.701 241.994 143.701C242.149 130.811 233.619 96.95 230.689 85.6801C231.189 81.0274 234.756 86.9381 234.756 86.9381C238.341 93.09 244.424 132.983 244.424 132.983C247.594 135.55 250.196 136.239 252.264 135.998H252.333C258.743 136.463 260.605 130.363 260.605 130.363C261.811 120.041 254.608 82.9747 254.022 79.9935L253.798 80.028C253.867 79.9418 253.918 79.8556 253.97 79.804C254.349 79.4421 254.797 79.5282 255.228 79.804C255.952 80.2692 256.624 81.2515 256.624 81.2515C261.673 90.3673 266.481 131.862 266.481 131.862C268.17 135.55 270.823 135.878 273.219 135.085H273.287C276.889 134.981 281.404 130.88 281.404 130.88C283.041 116.44 275.597 86.9381 273.667 79.5799C274.494 78.098 276.372 79.8729 276.372 79.8729C287.711 109.047 285.402 141.202 285.402 141.202Z" fill="#1C2147"/>
<path d="M260.587 130.363C260.587 130.363 258.726 136.463 252.316 135.998C256.245 135.533 258.175 131.862 258.175 131.862C259.312 124.332 253.229 85.1114 253.229 85.1114C253.109 82.2164 253.384 80.6999 253.781 80.0279L254.005 79.9934C254.591 82.9746 261.811 120.041 260.587 130.363Z" fill="#1C2147"/>
<path d="M253.143 79.9938C253.109 79.8559 253.091 79.8042 253.091 79.8042H254.435L253.143 79.9938Z" fill="#1C2147"/>
<path d="M281.404 130.88C281.404 130.88 276.889 134.982 273.287 135.085C276.182 134.12 278.681 131.604 278.681 131.604C281.61 122.281 273.201 83.0436 273.201 83.0436C273.081 81.1826 273.27 80.1486 273.649 79.5627C275.614 86.9381 283.041 116.44 281.404 130.88Z" fill="#1C2147"/>
<path d="M263.034 149.439C260.518 149.543 258.071 149.439 255.762 149.198C246.147 148.164 239.133 144.632 239.133 144.632C241.236 133.465 230.724 89.6954 230.724 89.6954C230.552 87.886 230.552 86.6108 230.655 85.6975C233.585 96.9674 242.114 130.846 241.959 143.718C241.959 143.718 246.216 146.872 255.728 148.561C257.916 148.94 260.346 149.233 263.034 149.439Z" fill="#1C2147"/>
<path d="M267.601 148.664V165.431C267.394 165.569 267.187 165.706 267.015 165.81C261.845 169.118 259.019 167.499 257.83 166.327C257.365 165.827 257.141 165.431 257.141 165.431L256.521 149.181C258.382 149.422 260.363 149.543 262.414 149.422C264.103 149.353 265.843 149.112 267.601 148.664Z" fill="#1C2147"/>
<path d="M256.521 148.681C256.521 148.681 264.223 150.456 267.601 148.974V150.284C267.601 150.284 260.501 151.059 256.555 150.318L256.521 148.681Z" fill="#1C2147"/>
<path d="M262.673 155.867C263.444 155.867 264.068 155.188 264.068 154.351C264.068 153.513 263.444 152.834 262.673 152.834C261.902 152.834 261.277 153.513 261.277 154.351C261.277 155.188 261.902 155.867 262.673 155.867Z" fill="#1C2147"/>
<path d="M262.673 162.243C263.444 162.243 264.068 161.564 264.068 160.726C264.068 159.889 263.444 159.21 262.673 159.21C261.902 159.21 261.277 159.889 261.277 160.726C261.277 161.564 261.902 162.243 262.673 162.243Z" fill="#1C2147"/>
<path d="M192.452 430.652H206.151C208.409 430.496 207.944 428.549 207.944 428.549C210.356 427.343 213.82 430.652 213.82 430.652H233.241C236.549 430.359 236.997 428.842 236.997 428.842V424.034C236.704 413.798 231.138 419.812 223.901 415.608C223.901 415.608 216.491 406.044 219.403 396.325C222.315 386.606 228.347 350.642 228.347 350.642C228.347 350.642 227.209 350.522 225.314 350.349C219.73 349.867 207.547 348.971 198.587 349.712C196.243 349.901 194.123 350.194 192.4 350.642C192.4 350.642 195.468 391.448 193.055 400.495C191.228 407.371 190.867 419.968 190.815 425.637C190.815 425.671 190.798 425.689 190.798 425.689V426.912C190.798 427.946 190.798 428.549 190.798 428.549C190.505 430.514 192.452 430.652 192.452 430.652Z" fill="#1C2147"/>
<path d="M192.452 430.652H206.151C208.409 430.496 207.961 428.549 207.961 428.549C210.373 427.343 213.837 430.652 213.837 430.652H233.24C236.549 430.359 236.997 428.842 236.997 428.842V426.171C231.397 426.309 224.418 426.499 222.108 426.585C218.042 426.74 212.924 424.482 209.322 423.879C205.703 423.276 192.314 423.879 192.314 423.879C190.953 424.637 190.815 425.689 190.815 425.689V428.549C190.505 430.514 192.452 430.652 192.452 430.652Z" fill="#1661D6"/>
<path d="M150.112 419.433C149.837 421.984 149.561 424.551 149.268 427.102H175.513C175.513 427.102 175.34 425.603 175.116 423.621C174.841 421.226 174.479 418.141 174.203 416.142C173.686 411.834 173.152 406.923 173.117 405.114C173.049 401.615 183.491 350.591 183.491 350.591C183.491 350.591 183.095 350.505 182.354 350.384C178.408 349.712 164.812 347.696 153.007 349.781C151.732 350.005 150.492 350.281 149.268 350.591C149.303 350.987 149.32 351.866 149.354 352.245C149.785 358.38 150.181 364.497 150.578 370.632C151.095 378.869 151.612 387.106 151.991 395.343C152.163 399.289 152.318 403.27 151.853 407.181C151.56 409.68 151.146 412.162 150.767 414.643C150.526 416.246 150.285 417.831 150.112 419.433Z" fill="#1C2147"/>
<path d="M149.371 425.379C149.354 425.43 149.354 425.482 149.354 425.516C149.354 425.654 149.388 425.792 149.44 425.913C149.561 426.189 149.785 426.43 150.095 426.637C150.543 426.929 151.181 427.102 151.87 427.102H173.1C174.272 427.102 175.254 426.602 175.53 425.913C175.581 425.792 175.616 425.654 175.616 425.516C175.616 425.465 175.616 425.413 175.599 425.379V425.361C175.599 425.241 175.616 425.12 175.616 424.982C175.616 423.345 174.858 421.829 173.565 420.554C171.239 418.262 167.155 416.728 162.502 416.728C157.419 416.728 153.007 418.555 150.836 421.208C149.905 422.346 149.371 423.621 149.371 424.982C149.354 425.103 149.354 425.223 149.371 425.379C149.371 425.361 149.354 425.361 149.371 425.379Z" fill="#1C2147"/>
<path d="M150.113 430.876H174.375C175.564 430.876 176.529 429.911 176.529 428.722V428.325C176.529 427.136 175.564 426.171 174.375 426.171H150.113C148.923 426.171 147.958 427.136 147.958 428.325V428.722C147.958 429.911 148.923 430.876 150.113 430.876Z" fill="#1661D6"/>
<path d="M150.802 421.208C153.335 422.966 157.298 424.086 161.744 424.086C166.724 424.086 171.101 422.673 173.548 420.554C171.222 418.262 167.138 416.728 162.485 416.728C157.384 416.728 152.973 418.555 150.802 421.208Z" fill="#1C2147"/>
<path d="M189.652 140.072C176.428 140.072 165.707 129.215 165.707 115.822C165.707 102.429 176.428 91.572 189.652 91.572C202.876 91.572 213.597 102.429 213.597 115.822C213.597 129.215 202.876 140.072 189.652 140.072Z" fill="#FBBEBE"/>
<path d="M168.454 93.4752C168.454 93.4752 175.887 77.3807 190.135 81.0948C204.382 84.8089 212.435 90.3801 213.055 95.9513C213.674 101.522 212.745 109.879 212.745 109.879C212.745 109.879 211.196 98.4274 201.285 100.903C191.374 103.38 175.887 101.522 175.887 101.522L173.41 123.807C173.41 123.807 170.622 119.784 167.525 122.26C164.427 124.736 158.543 98.4273 168.454 93.4752Z" fill="#1C2147"/>
<path d="M215.25 93.1746C214.586 92.915 213.577 92.3669 212.841 92.1506C212.394 92.0063 211.687 91.8621 211.211 91.7467C210.836 91.6458 210.534 91.141 210.13 91.04C209.12 90.8092 208.471 90.1313 207.332 89.9727C207.26 89.9439 207.159 89.9294 207.072 89.9294C206.524 89.8573 205.947 89.7852 205.356 89.7131C204.635 89.641 203.885 89.5833 203.12 89.5544C202.76 89.5256 202.399 89.5112 202.038 89.4967C201.678 89.4823 201.303 89.4679 200.942 89.4679C199.457 89.4535 197.885 89.5112 196.197 89.6121C195.115 89.6842 194.063 89.7708 193.082 89.8717C192.591 89.915 192.101 89.9583 191.625 90.0304C191.091 90.1025 190.558 90.1602 190.053 90.2323C189.664 90.29 189.274 90.3333 188.914 90.4054C188.192 90.5063 187.515 90.6217 186.866 90.766C176.943 92.6265 173.741 95.7419 173.741 95.7419C170.409 97.7611 164.597 102.535 164.236 102.838C164.222 102.852 164.222 102.852 164.222 102.852C164.222 102.852 161.943 85.5016 165.923 80.5257C165.923 80.5257 171.621 69.2903 194.784 69.0018C212.423 68.7999 215.048 85.6747 215.25 93.1746Z" fill="#1571FA"/>
<path d="M215.25 93.1746C214.586 92.915 213.577 92.3669 212.841 92.1506C212.394 92.0063 211.687 91.8621 211.211 91.7467C210.836 91.6458 210.534 91.141 210.13 91.04C209.12 90.8092 208.471 90.1313 207.332 89.9727C207.26 89.9439 207.159 89.9294 207.072 89.9294C206.524 89.8573 205.947 89.7852 205.356 89.7131C204.635 89.641 203.885 89.5833 203.12 89.5544C202.76 89.5256 202.399 89.5112 202.038 89.4967C201.678 89.4823 201.303 89.4679 200.942 89.4679C199.457 89.4535 197.885 89.5112 196.197 89.6121C195.115 89.6842 194.063 89.7708 193.082 89.8717C192.591 89.915 192.101 89.9583 191.625 90.0304C191.091 90.1025 190.558 90.1602 190.053 90.2323C189.664 90.29 189.274 90.3333 188.914 90.4054C188.192 90.5063 187.515 90.6217 186.866 90.766C176.943 92.6265 173.741 95.7419 173.741 95.7419C170.409 97.7611 164.597 102.535 164.236 102.838C164.222 102.852 164.222 102.852 164.222 102.852C164.222 102.852 161.943 85.5016 165.923 80.5257C165.923 80.5257 171.621 69.2903 194.784 69.0018C212.423 68.7999 215.048 85.6747 215.25 93.1746Z" fill="white" fill-opacity="0.25"/>
<path d="M192.995 87.4342C210.404 86.0928 219.793 95.3379 222.23 98.1792C222.476 98.4533 222.692 98.7129 222.88 98.9869V99.0013C223.442 99.809 223.702 100.573 223.658 101.28C223.63 101.785 223.471 102.362 222.923 102.521C222.432 102.65 222.043 102.434 222.029 101.915C222.014 99.5782 219.764 98.41 217.932 97.559C216.678 96.9677 215.437 96.4052 214.139 95.9148C201.793 93.2754 200.423 97.1552 189.476 100.429C178.226 103.804 169.991 98.2946 169.991 98.2946C169.991 98.2946 172.471 89.0207 192.995 87.4342Z" fill="#93C5FE"/>
<path d="M183.704 148.917L184.314 139.156H195.905L197.583 148.917H183.704Z" fill="#FBBEBE"/>
<defs>
<linearGradient id="paint0_linear" x1="384.5" y1="400.831" x2="280.903" y2="211.218" gradientUnits="userSpaceOnUse">
<stop stop-color="#EFF6FF"/>
<stop offset="1" stop-color="white" stop-opacity="0.33"/>
</linearGradient>
<linearGradient id="paint1_linear" x1="195.926" y1="318.581" x2="56.7635" y2="160.657" gradientUnits="userSpaceOnUse">
<stop stop-color="#EFF6FF"/>
<stop offset="1" stop-color="white" stop-opacity="0.33"/>
</linearGradient>
<linearGradient id="paint2_linear" x1="409.674" y1="197.135" x2="368.525" y2="-5.38668" gradientUnits="userSpaceOnUse">
<stop stop-color="#EFF6FF"/>
<stop offset="1" stop-color="white" stop-opacity="0.33"/>
</linearGradient>
</defs>
</svg>
