<svg width="520" height="460" viewBox="0 0 520 460" fill="none" xmlns="http://www.w3.org/2000/svg">
<mask id="mask0" mask-type="alpha" maskUnits="userSpaceOnUse" x="0" y="0" width="520" height="460">
<rect width="520" height="460" fill="#C4C4C4"/>
</mask>
<g mask="url(#mask0)">
<path d="M132.044 17.3779L260.145 238.523L132.962 460.042L4.86087 238.897L132.044 17.3779Z" fill="url(#paint0_linear)"/>
<path d="M132.07 17.3482L387.344 16.974L515.888 237.7L260.166 238.485L132.07 17.3482Z" fill="url(#paint1_linear)"/>
<path d="M260.125 238.485L515.869 237.7L388.68 459.23L132.936 460.015L260.125 238.485Z" fill="url(#paint2_linear)"/>
<path d="M70.1169 370.295H64.0013C63.9872 370.146 63.9712 369.981 63.9532 369.797C63.862 368.871 63.7197 367.5 63.5145 365.72C63.1042 362.16 62.4426 356.961 61.4364 350.398C59.424 337.272 56.0331 318.687 50.5177 296.835L50.5176 296.835C45.6596 277.614 53.1737 259.308 63.0701 244.873C72.9549 230.454 85.1064 220.062 89.2072 216.752C89.6259 216.417 89.9595 216.154 90.1985 215.967C99.8577 219.659 105.353 225.822 108.213 233.001C111.141 240.35 111.336 248.84 110.247 256.964C109.159 265.078 106.803 272.744 104.711 278.392C103.667 281.214 102.691 283.525 101.977 285.128C101.62 285.93 101.329 286.554 101.128 286.977C101.093 287.049 101.062 287.115 101.033 287.175C99.8434 287.418 98.6778 287.766 97.5499 288.217C90.3839 291.078 85.1565 297.852 81.3233 306.155C77.4802 314.479 74.9627 324.504 73.3087 334.133C71.6532 343.771 70.8551 353.059 70.4704 359.934C70.278 363.373 70.1889 366.211 70.1479 368.191C70.1297 369.068 70.121 369.776 70.1169 370.295Z" stroke="#6B7B93" stroke-width="2"/>
<path opacity="0.2" d="M93.0085 216.073C92.0634 215.638 91.0879 215.224 90.0518 214.845C90.0518 214.845 89.5464 215.239 88.6063 215.982C80.3429 222.654 39.6523 257.835 49.5735 297.09C60.5864 340.723 63.0882 371.295 63.0882 371.295H67.6015C67.6015 371.295 65.0997 340.712 54.0615 297.08C44.1808 258.007 84.4771 222.957 93.0085 216.073Z" fill="white"/>
<path d="M222.537 369.799C222.52 369.982 222.504 370.147 222.49 370.295H216.361C216.357 369.75 216.347 368.996 216.328 368.057C216.284 365.994 216.19 363.04 215.985 359.47C215.575 352.334 214.723 342.722 212.953 332.84C211.185 322.97 208.492 312.775 204.376 304.502C200.269 296.248 194.659 289.737 186.972 287.544C186.469 287.393 185.958 287.265 185.443 287.162C185.414 287.102 185.383 287.037 185.349 286.967C185.148 286.544 184.857 285.92 184.5 285.118C183.785 283.514 182.809 281.203 181.764 278.382C179.671 272.734 177.313 265.069 176.225 256.955C175.135 248.832 175.329 240.343 178.257 232.995C181.119 225.817 186.617 219.655 196.282 215.966C196.463 216.107 196.7 216.293 196.987 216.524L196.988 216.525C200.754 219.539 213.006 229.878 223.06 244.376C233.125 258.89 240.872 277.401 235.96 296.845C230.431 318.697 227.044 337.28 225.039 350.403C224.036 356.965 223.379 362.163 222.972 365.722C222.768 367.502 222.627 368.872 222.537 369.799Z" stroke="#6B7B93" stroke-width="2"/>
<path d="M181.653 298.846L181.653 298.846C178.848 309.915 175.562 321.272 171.796 332.916C171.79 332.922 171.783 332.928 171.776 332.935C171.647 333.055 171.447 333.234 171.174 333.46C170.627 333.911 169.788 334.545 168.643 335.254C166.352 336.672 162.832 338.39 157.964 339.539C148.302 341.818 133.235 341.873 111.811 332.715C111.796 332.67 111.779 332.621 111.761 332.568C111.634 332.196 111.446 331.638 111.206 330.904C110.725 329.434 110.034 327.255 109.192 324.424C107.51 318.762 105.228 310.493 102.838 300.076L102.838 300.076C92.3075 254.246 79.6939 166.961 106.576 77.3422L106.577 77.3397C114.445 50.8583 125.574 25.4591 139.705 1.72534C139.741 1.7697 139.778 1.81544 139.816 1.86256C140.47 2.6741 141.427 3.89374 142.63 5.517C145.036 8.76359 148.426 13.6244 152.343 20.064C160.179 32.9432 170.127 52.1354 178.551 77.3565C195.395 127.79 206.136 202.37 181.653 298.846Z" fill="#93C5FE"/>
<path d="M181.653 298.846L181.653 298.846C178.848 309.915 175.562 321.272 171.796 332.916C171.79 332.922 171.783 332.928 171.776 332.935C171.647 333.055 171.447 333.234 171.174 333.46C170.627 333.911 169.788 334.545 168.643 335.254C166.352 336.672 162.832 338.39 157.964 339.539C148.302 341.818 133.235 341.873 111.811 332.715C111.796 332.67 111.779 332.621 111.761 332.568C111.634 332.196 111.446 331.638 111.206 330.904C110.725 329.434 110.034 327.255 109.192 324.424C107.51 318.762 105.228 310.493 102.838 300.076L102.838 300.076C92.3075 254.246 79.6939 166.961 106.576 77.3422L106.577 77.3397C114.445 50.8583 125.574 25.4591 139.705 1.72534C139.741 1.7697 139.778 1.81544 139.816 1.86256C140.47 2.6741 141.427 3.89374 142.63 5.517C145.036 8.76359 148.426 13.6244 152.343 20.064C160.179 32.9432 170.127 52.1354 178.551 77.3565C195.395 127.79 206.136 202.37 181.653 298.846Z" fill="white" fill-opacity="0.85"/>
<path d="M181.653 298.846L181.653 298.846C178.848 309.915 175.562 321.272 171.796 332.916C171.79 332.922 171.783 332.928 171.776 332.935C171.647 333.055 171.447 333.234 171.174 333.46C170.627 333.911 169.788 334.545 168.643 335.254C166.352 336.672 162.832 338.39 157.964 339.539C148.302 341.818 133.235 341.873 111.811 332.715C111.796 332.67 111.779 332.621 111.761 332.568C111.634 332.196 111.446 331.638 111.206 330.904C110.725 329.434 110.034 327.255 109.192 324.424C107.51 318.762 105.228 310.493 102.838 300.076L102.838 300.076C92.3075 254.246 79.6939 166.961 106.576 77.3422L106.577 77.3397C114.445 50.8583 125.574 25.4591 139.705 1.72534C139.741 1.7697 139.778 1.81544 139.816 1.86256C140.47 2.6741 141.427 3.89374 142.63 5.517C145.036 8.76359 148.426 13.6244 152.343 20.064C160.179 32.9432 170.127 52.1354 178.551 77.3565C195.395 127.79 206.136 202.37 181.653 298.846Z" stroke="#6B7B93" stroke-width="2"/>
<path d="M143.236 184.591C163.23 184.591 179.438 168.383 179.438 148.389C179.438 128.394 163.23 112.186 143.236 112.186C123.242 112.186 107.033 128.394 107.033 148.389C107.033 168.383 123.242 184.591 143.236 184.591Z" fill="#1571FA"/>
<path d="M143.236 184.591C163.23 184.591 179.438 168.383 179.438 148.389C179.438 128.394 163.23 112.186 143.236 112.186C123.242 112.186 107.033 128.394 107.033 148.389C107.033 168.383 123.242 184.591 143.236 184.591Z" fill="white" fill-opacity="0.25"/>
<path d="M168.911 148.409C168.911 153.271 167.53 158.033 164.93 162.141C162.329 166.249 158.616 169.534 154.221 171.614C149.827 173.695 144.932 174.484 140.106 173.892C135.281 173.299 130.722 171.348 126.962 168.266C125.126 166.755 123.507 164.998 122.15 163.046C121.541 162.173 120.987 161.263 120.493 160.321C118.567 156.646 117.563 152.558 117.566 148.409C117.566 148.202 117.566 147.999 117.566 147.797C117.698 142.307 119.585 137.003 122.95 132.663C126.315 128.322 130.982 125.174 136.267 123.679C138.284 123.123 140.361 122.807 142.453 122.739H143.221C146.594 122.737 149.933 123.399 153.05 124.689C156.166 125.978 158.998 127.868 161.384 130.252C163.77 132.636 165.662 135.466 166.954 138.582C168.245 141.697 168.91 145.036 168.911 148.409Z" fill="#93C5FE"/>
<path d="M168.911 148.409C168.911 153.271 167.53 158.033 164.93 162.141C162.329 166.249 158.616 169.534 154.221 171.614C149.827 173.695 144.932 174.484 140.106 173.892C135.281 173.299 130.722 171.348 126.962 168.266C125.126 166.755 123.507 164.998 122.15 163.046C121.541 162.173 120.987 161.263 120.493 160.321C118.567 156.646 117.563 152.558 117.566 148.409C117.566 148.202 117.566 147.999 117.566 147.797C117.698 142.307 119.585 137.003 122.95 132.663C126.315 128.322 130.982 125.174 136.267 123.679C138.284 123.123 140.361 122.807 142.453 122.739H143.221C146.594 122.737 149.933 123.399 153.05 124.689C156.166 125.978 158.998 127.868 161.384 130.252C163.77 132.636 165.662 135.466 166.954 138.582C168.245 141.697 168.91 145.036 168.911 148.409Z" fill="white" fill-opacity="0.85"/>
<path d="M177.5 77.5C136.425 97.1655 107.5 77.5 107.5 77.5C116 50.5 125 30 139.5 3C139.5 3 160.604 26.8983 177.5 77.5Z" fill="#6B7B93"/>
<path d="M177.5 77.5C136.425 97.1655 107.5 77.5 107.5 77.5C116 50.5 125 30 139.5 3C139.5 3 160.604 26.8983 177.5 77.5Z" fill="white" fill-opacity="0.15"/>
<path d="M182.623 299.092C180.702 306.653 178.562 314.343 176.204 322.164C175.085 325.894 173.906 329.654 172.666 333.445C172.666 333.445 154.613 352.251 111.006 333.445C111.006 333.445 109.591 329.457 107.468 322.164C105.881 316.655 103.905 309.271 101.843 300.285C101.843 300.285 118.077 307.214 141.118 307.214C155.353 307.263 169.457 304.502 182.623 299.092Z" fill="#6B7B93"/>
<path d="M182.623 299.092C180.702 306.653 178.562 314.343 176.204 322.164C175.085 325.894 173.906 329.654 172.666 333.445C172.666 333.445 154.613 352.251 111.006 333.445C111.006 333.445 109.591 329.457 107.468 322.164C105.881 316.655 103.905 309.271 101.843 300.285C101.843 300.285 118.077 307.214 141.118 307.214C155.353 307.263 169.457 304.502 182.623 299.092Z" fill="white" fill-opacity="0.15"/>
<g opacity="0.65">
<path d="M176.204 322.164C175.085 325.894 173.906 329.654 172.666 333.445C172.666 333.445 154.612 352.251 111.006 333.445C111.006 333.445 109.59 329.457 107.468 322.164C107.463 322.164 151.909 334.951 176.204 322.164Z" fill="#93C5FE"/>
<path d="M176.204 322.164C175.085 325.894 173.906 329.654 172.666 333.445C172.666 333.445 154.612 352.251 111.006 333.445C111.006 333.445 109.59 329.457 107.468 322.164C107.463 322.164 151.909 334.951 176.204 322.164Z" fill="white" fill-opacity="0.85"/>
</g>
<g opacity="0.2">
<path d="M136.281 123.644L136.226 123.684L117.576 147.762C117.576 147.964 117.576 148.166 117.576 148.373C117.573 152.523 118.577 156.611 120.503 160.286L142.478 122.704L136.281 123.644Z" fill="#6B7B93"/>
<path d="M136.281 123.644L136.226 123.684L117.576 147.762C117.576 147.964 117.576 148.166 117.576 148.373C117.573 152.523 118.577 156.611 120.503 160.286L142.478 122.704L136.281 123.644Z" fill="white" fill-opacity="0.15"/>
</g>
<g opacity="0.2">
<path d="M142.235 145.376L126.962 168.246C125.126 166.734 123.507 164.978 122.15 163.025L140.345 143.496L142.235 145.376Z" fill="#6B7B93"/>
<path d="M142.235 145.376L126.962 168.246C125.126 166.734 123.507 164.978 122.15 163.025L140.345 143.496L142.235 145.376Z" fill="white" fill-opacity="0.15"/>
</g>
<path d="M291.736 260.26C291.736 243.26 303.736 222.5 318.456 213.98C325.846 209.71 332.536 209.31 337.366 212.12L340.686 214C343.469 218.66 345.015 223.954 345.176 229.38C345.176 246.38 333.176 267.14 318.456 275.66C313.682 278.241 308.323 279.549 302.896 279.46L299.556 277.53C294.726 274.77 291.736 268.78 291.736 260.26Z" fill="#6B7B93"/>
<path d="M291.736 260.26C291.736 243.26 303.736 222.5 318.456 213.98C325.846 209.71 332.536 209.31 337.366 212.12L340.686 214C343.469 218.66 345.015 223.954 345.176 229.38C345.176 246.38 333.176 267.14 318.456 275.66C313.682 278.241 308.323 279.549 302.896 279.46L299.556 277.53C294.726 274.77 291.736 268.78 291.736 260.26Z" fill="white" fill-opacity="0.15"/>
<path opacity="0.1" d="M326.756 269.38L293.056 249.92C292.205 253.302 291.762 256.773 291.736 260.26C291.736 268.78 294.736 274.77 299.556 277.56L302.896 279.49C308.337 279.586 313.71 278.277 318.496 275.69C321.488 273.919 324.261 271.801 326.756 269.38Z" fill="#1C2147"/>
<path d="M340.688 257.672C351.124 239.598 351.123 220.061 340.687 214.035C330.25 208.01 313.33 217.778 302.895 235.852C292.46 253.927 292.46 273.464 302.897 279.49C313.333 285.515 330.253 275.747 340.688 257.672Z" fill="#6B7B93"/>
<path d="M300.046 259.66C300.046 245.6 309.916 228.5 322.046 221.47C328.146 217.95 333.666 217.63 337.656 219.94L349.036 226.51C351.33 230.352 352.603 234.717 352.736 239.19C352.736 253.25 342.866 270.35 330.736 277.38C326.799 279.507 322.381 280.585 317.906 280.51L306.496 273.93C302.496 271.63 300.046 266.69 300.046 259.66Z" fill="#1571FA"/>
<path opacity="0.15" d="M306.396 238.11C302.496 245 300.046 252.69 300.046 259.66C300.046 266.63 302.506 271.66 306.496 273.93L317.896 280.51C322.371 280.585 326.789 279.507 330.726 277.38C336.726 273.89 342.236 267.93 346.216 261.1L306.396 238.11Z" fill="#1C2147"/>
<path opacity="0.4" d="M352.776 239.19C352.776 246.28 350.266 254.14 346.206 261.1L306.396 238.1C310.396 231.1 315.946 225.01 322.086 221.46C328.226 217.91 333.706 217.62 337.696 219.93L349.076 226.5C351.371 230.345 352.645 234.714 352.776 239.19Z" fill="white"/>
<path opacity="0.76" d="M300.496 254.22C301.503 248.545 303.5 243.092 306.396 238.11L346.206 261.11C343.347 266.113 339.623 270.569 335.206 274.27L300.496 254.22Z" fill="#1571FA"/>
<path d="M311.436 266.24C311.436 252.18 321.306 235.09 333.436 228.06C345.566 221.03 355.496 226.72 355.496 240.78C355.496 254.84 345.666 271.94 333.496 279C321.326 286.06 311.436 280.3 311.436 266.24Z" fill="#1571FA"/>
<path d="M315.496 270.63C315.405 270.48 315.366 270.304 315.386 270.13V258.66C315.396 258.445 315.466 258.238 315.588 258.061C315.71 257.885 315.879 257.746 316.076 257.66L316.546 257.39C317.006 257.13 317.236 257.19 317.236 257.58V267.39L318.996 266.39C319.126 266.32 319.216 266.39 319.266 266.46C319.342 266.664 319.373 266.883 319.356 267.1V267.67C319.365 267.917 319.335 268.163 319.266 268.4C319.25 268.479 319.218 268.553 319.171 268.618C319.125 268.684 319.065 268.739 318.996 268.78L315.826 270.61C315.686 270.7 315.576 270.7 315.496 270.63Z" fill="#93C5FE"/>
<path d="M315.496 270.63C315.405 270.48 315.366 270.304 315.386 270.13V258.66C315.396 258.445 315.466 258.238 315.588 258.061C315.71 257.885 315.879 257.746 316.076 257.66L316.546 257.39C317.006 257.13 317.236 257.19 317.236 257.58V267.39L318.996 266.39C319.126 266.32 319.216 266.39 319.266 266.46C319.342 266.664 319.373 266.883 319.356 267.1V267.67C319.365 267.917 319.335 268.163 319.266 268.4C319.25 268.479 319.218 268.553 319.171 268.618C319.125 268.684 319.065 268.739 318.996 268.78L315.826 270.61C315.686 270.7 315.576 270.7 315.496 270.63Z" fill="white" fill-opacity="0.85"/>
<path d="M319.866 267.92C319.858 267.803 319.858 267.687 319.866 267.57L321.686 254.94C321.733 254.729 321.832 254.532 321.973 254.368C322.114 254.204 322.294 254.078 322.496 254L323.266 253.56C323.706 253.3 323.946 253.33 324.006 253.64L325.826 264.17C325.826 264.33 325.826 264.44 325.826 264.49C325.811 264.64 325.756 264.784 325.666 264.905C325.576 265.026 325.455 265.121 325.316 265.18L324.686 265.54C324.316 265.76 324.106 265.75 324.066 265.54L323.756 263.54L321.956 264.54L321.636 266.94C321.61 267.093 321.547 267.238 321.45 267.36C321.354 267.482 321.229 267.579 321.086 267.64L320.466 268C320.056 268.21 319.866 268.19 319.866 267.92ZM323.496 261.38L322.966 257.83C322.906 257.42 322.866 256.99 322.826 256.53H322.766C322.726 257.037 322.676 257.527 322.616 258L322.096 262.16L323.496 261.38Z" fill="#93C5FE"/>
<path d="M319.866 267.92C319.858 267.803 319.858 267.687 319.866 267.57L321.686 254.94C321.733 254.729 321.832 254.532 321.973 254.368C322.114 254.204 322.294 254.078 322.496 254L323.266 253.56C323.706 253.3 323.946 253.33 324.006 253.64L325.826 264.17C325.826 264.33 325.826 264.44 325.826 264.49C325.811 264.64 325.756 264.784 325.666 264.905C325.576 265.026 325.455 265.121 325.316 265.18L324.686 265.54C324.316 265.76 324.106 265.75 324.066 265.54L323.756 263.54L321.956 264.54L321.636 266.94C321.61 267.093 321.547 267.238 321.45 267.36C321.354 267.482 321.229 267.579 321.086 267.64L320.466 268C320.056 268.21 319.866 268.19 319.866 267.92ZM323.496 261.38L322.966 257.83C322.906 257.42 322.866 256.99 322.826 256.53H322.766C322.726 257.037 322.676 257.527 322.616 258L322.096 262.16L323.496 261.38Z" fill="white" fill-opacity="0.85"/>
<path d="M327.496 263C327.199 262.676 326.977 262.29 326.846 261.87C326.714 261.45 326.677 261.006 326.736 260.57V252.11C326.745 251.895 326.815 251.687 326.937 251.51C327.059 251.334 327.229 251.195 327.426 251.11L327.896 250.83C328.356 250.57 328.586 250.63 328.586 251.02V259.31C328.55 259.681 328.645 260.053 328.856 260.36C329.036 260.57 329.286 260.58 329.586 260.36C329.921 260.152 330.178 259.839 330.316 259.47C330.506 259.042 330.601 258.578 330.596 258.11V249.9C330.607 249.686 330.677 249.478 330.798 249.301C330.92 249.125 331.089 248.986 331.286 248.9L331.746 248.64C332.196 248.37 332.426 248.43 332.426 248.82V257.29C332.446 258.431 332.189 259.56 331.676 260.58C331.21 261.51 330.484 262.285 329.586 262.81C328.676 263.34 327.986 263.41 327.496 263Z" fill="#93C5FE"/>
<path d="M327.496 263C327.199 262.676 326.977 262.29 326.846 261.87C326.714 261.45 326.677 261.006 326.736 260.57V252.11C326.745 251.895 326.815 251.687 326.937 251.51C327.059 251.334 327.229 251.195 327.426 251.11L327.896 250.83C328.356 250.57 328.586 250.63 328.586 251.02V259.31C328.55 259.681 328.645 260.053 328.856 260.36C329.036 260.57 329.286 260.58 329.586 260.36C329.921 260.152 330.178 259.839 330.316 259.47C330.506 259.042 330.601 258.578 330.596 258.11V249.9C330.607 249.686 330.677 249.478 330.798 249.301C330.92 249.125 331.089 248.986 331.286 248.9L331.746 248.64C332.196 248.37 332.426 248.43 332.426 248.82V257.29C332.446 258.431 332.189 259.56 331.676 260.58C331.21 261.51 330.484 262.285 329.586 262.81C328.676 263.34 327.986 263.41 327.496 263Z" fill="white" fill-opacity="0.85"/>
<path d="M333.926 259.62V248C333.933 247.786 334.001 247.578 334.121 247.401C334.242 247.224 334.41 247.085 334.606 247L334.916 246.82C335.028 246.743 335.16 246.701 335.296 246.7C335.386 246.7 335.466 246.81 335.526 246.98L337.656 251.68C337.814 252.069 337.951 252.466 338.066 252.87V252.81C338.006 252.21 337.976 251.75 337.976 251.43V245.62C337.984 245.406 338.053 245.199 338.173 245.022C338.293 244.846 338.461 244.706 338.656 244.62L338.946 244.45C339.406 244.19 339.626 244.25 339.626 244.64V256.3C339.619 256.514 339.552 256.722 339.431 256.899C339.311 257.076 339.143 257.215 338.946 257.3L338.716 257.43C338.602 257.512 338.466 257.557 338.326 257.56C338.226 257.56 338.146 257.46 338.076 257.29L335.826 252.4C335.687 252.078 335.58 251.743 335.506 251.4L335.446 251.49C335.497 251.885 335.527 252.282 335.536 252.68V258.68C335.526 258.893 335.457 259.099 335.337 259.276C335.217 259.452 335.051 259.592 334.856 259.68L334.566 259.84C334.146 260.07 333.926 260 333.926 259.62Z" fill="#93C5FE"/>
<path d="M333.926 259.62V248C333.933 247.786 334.001 247.578 334.121 247.401C334.242 247.224 334.41 247.085 334.606 247L334.916 246.82C335.028 246.743 335.16 246.701 335.296 246.7C335.386 246.7 335.466 246.81 335.526 246.98L337.656 251.68C337.814 252.069 337.951 252.466 338.066 252.87V252.81C338.006 252.21 337.976 251.75 337.976 251.43V245.62C337.984 245.406 338.053 245.199 338.173 245.022C338.293 244.846 338.461 244.706 338.656 244.62L338.946 244.45C339.406 244.19 339.626 244.25 339.626 244.64V256.3C339.619 256.514 339.552 256.722 339.431 256.899C339.311 257.076 339.143 257.215 338.946 257.3L338.716 257.43C338.602 257.512 338.466 257.557 338.326 257.56C338.226 257.56 338.146 257.46 338.076 257.29L335.826 252.4C335.687 252.078 335.58 251.743 335.506 251.4L335.446 251.49C335.497 251.885 335.527 252.282 335.536 252.68V258.68C335.526 258.893 335.457 259.099 335.337 259.276C335.217 259.452 335.051 259.592 334.856 259.68L334.566 259.84C334.146 260.07 333.926 260 333.926 259.62Z" fill="white" fill-opacity="0.85"/>
<path d="M341.766 254.21C341.266 253.45 341.016 251.93 341.016 249.66C340.956 247.85 341.223 246.044 341.806 244.33C342.236 243.074 343.097 242.011 344.236 241.33C344.544 241.142 344.883 241.01 345.236 240.94C345.476 240.94 345.606 241.1 345.606 241.51C345.604 241.958 345.55 242.404 345.446 242.84C345.336 243.26 345.206 243.48 345.046 243.49C344.778 243.518 344.519 243.603 344.286 243.74C343.743 244.125 343.365 244.699 343.226 245.35C342.965 246.413 342.847 247.506 342.876 248.6C342.822 249.563 342.941 250.528 343.226 251.45C343.254 251.565 343.311 251.67 343.391 251.757C343.472 251.843 343.573 251.907 343.685 251.943C343.798 251.98 343.918 251.986 344.033 251.963C344.149 251.94 344.257 251.887 344.346 251.81C344.483 251.739 344.61 251.651 344.726 251.55C344.826 251.46 344.966 251.33 345.126 251.16L345.236 251.08C345.396 250.99 345.516 251.08 345.586 251.33C345.679 251.699 345.719 252.08 345.706 252.46C345.71 252.633 345.687 252.805 345.636 252.97C345.577 253.139 345.485 253.296 345.366 253.43C345.201 253.608 345.024 253.775 344.836 253.93C344.622 254.108 344.39 254.265 344.146 254.4C343.076 255 342.276 255 341.766 254.21Z" fill="#93C5FE"/>
<path d="M341.766 254.21C341.266 253.45 341.016 251.93 341.016 249.66C340.956 247.85 341.223 246.044 341.806 244.33C342.236 243.074 343.097 242.011 344.236 241.33C344.544 241.142 344.883 241.01 345.236 240.94C345.476 240.94 345.606 241.1 345.606 241.51C345.604 241.958 345.55 242.404 345.446 242.84C345.336 243.26 345.206 243.48 345.046 243.49C344.778 243.518 344.519 243.603 344.286 243.74C343.743 244.125 343.365 244.699 343.226 245.35C342.965 246.413 342.847 247.506 342.876 248.6C342.822 249.563 342.941 250.528 343.226 251.45C343.254 251.565 343.311 251.67 343.391 251.757C343.472 251.843 343.573 251.907 343.685 251.943C343.798 251.98 343.918 251.986 344.033 251.963C344.149 251.94 344.257 251.887 344.346 251.81C344.483 251.739 344.61 251.651 344.726 251.55C344.826 251.46 344.966 251.33 345.126 251.16L345.236 251.08C345.396 250.99 345.516 251.08 345.586 251.33C345.679 251.699 345.719 252.08 345.706 252.46C345.71 252.633 345.687 252.805 345.636 252.97C345.577 253.139 345.485 253.296 345.366 253.43C345.201 253.608 345.024 253.775 344.836 253.93C344.622 254.108 344.39 254.265 344.146 254.4C343.076 255 342.276 255 341.766 254.21Z" fill="white" fill-opacity="0.85"/>
<path d="M346.976 252.08V240.43C346.985 240.215 347.055 240.007 347.177 239.83C347.299 239.653 347.469 239.515 347.666 239.43L348.166 239.14C348.616 238.88 348.836 238.95 348.836 239.34V243.83L350.836 242.67V238.17C350.845 237.955 350.915 237.747 351.037 237.57C351.159 237.393 351.329 237.255 351.526 237.17L352.006 236.89C352.466 236.63 352.696 236.69 352.696 237.08V248.73C352.687 248.945 352.618 249.153 352.496 249.33C352.374 249.506 352.204 249.645 352.006 249.73L351.526 250.01C351.066 250.27 350.836 250.21 350.836 249.82V245.07L348.836 246.24V251C348.831 251.213 348.766 251.42 348.647 251.598C348.528 251.775 348.362 251.914 348.166 252L347.666 252.29C347.206 252.53 346.976 252.47 346.976 252.08Z" fill="#93C5FE"/>
<path d="M346.976 252.08V240.43C346.985 240.215 347.055 240.007 347.177 239.83C347.299 239.653 347.469 239.515 347.666 239.43L348.166 239.14C348.616 238.88 348.836 238.95 348.836 239.34V243.83L350.836 242.67V238.17C350.845 237.955 350.915 237.747 351.037 237.57C351.159 237.393 351.329 237.255 351.526 237.17L352.006 236.89C352.466 236.63 352.696 236.69 352.696 237.08V248.73C352.687 248.945 352.618 249.153 352.496 249.33C352.374 249.506 352.204 249.645 352.006 249.73L351.526 250.01C351.066 250.27 350.836 250.21 350.836 249.82V245.07L348.836 246.24V251C348.831 251.213 348.766 251.42 348.647 251.598C348.528 251.775 348.362 251.914 348.166 252L347.666 252.29C347.206 252.53 346.976 252.47 346.976 252.08Z" fill="white" fill-opacity="0.85"/>
<path d="M352.408 234.985C352.408 234.985 336.329 227.303 336.587 233.938C336.844 240.572 352.794 244.937 352.794 244.937L352.408 234.985Z" fill="#EC7160"/>
<path d="M352.408 234.985C352.408 234.985 336.329 227.303 336.587 233.938C336.844 240.572 352.794 244.937 352.794 244.937L352.408 234.985Z" fill="white" fill-opacity="0.5"/>
<path d="M361.229 291.122C361.229 291.122 353.644 309.688 350.841 323.086C348.038 336.484 343.77 354.921 349.26 367.998C354.751 381.074 370.36 419.505 370.521 423.651C370.682 427.798 369.184 432.009 372.501 431.88C375.819 431.751 393.871 426.068 394.603 423.548C395.336 421.028 388.445 414.651 388.445 414.651L371.427 361.324L389.182 326.582L401.989 378.411L404.498 443.098C404.498 443.098 416.809 439.298 418.596 442.551C418.596 442.551 424.112 434.862 424.813 431.513C425.513 428.163 422.208 364.338 422.208 364.338C422.208 364.338 433.508 291.641 424.386 291.995C415.263 292.349 379.532 270.479 361.229 291.122Z" fill="#6B7B93"/>
<path d="M372.021 428.816C372.021 428.816 363.514 447.741 362.709 448.617C361.903 449.494 356.359 458.161 360.551 457.998C364.743 457.834 374.64 453.222 381.926 446.177C389.211 439.131 398.816 426.925 397.945 426.114C397.074 425.302 391.108 423 391.108 423L372.021 428.816Z" fill="#1C2147"/>
<path d="M405.995 438.886C405.995 438.886 405.488 447.212 403.958 450.593C402.428 453.975 402.621 458.951 406.767 458.79C410.914 458.629 421.631 456.552 421.631 456.552C421.631 456.552 422.267 451.544 421.406 450.747C420.544 449.95 416.873 440.956 418.435 438.404C419.997 435.852 405.995 438.886 405.995 438.886Z" fill="#1C2147"/>
<path d="M412.13 168.716C412.13 168.716 420.97 182.493 424.416 185.682C427.862 188.87 418.167 195.891 418.167 195.891L400.816 198.225C400.816 198.225 401.034 182.436 400.141 180.809C399.247 179.183 412.13 168.716 412.13 168.716Z" fill="#EC7160"/>
<path d="M412.13 168.716C412.13 168.716 420.97 182.493 424.416 185.682C427.862 188.87 418.167 195.891 418.167 195.891L400.816 198.225C400.816 198.225 401.034 182.436 400.141 180.809C399.247 179.183 412.13 168.716 412.13 168.716Z" fill="white" fill-opacity="0.5"/>
<path d="M397.048 186.743C397.048 186.743 400.623 193.249 403.94 193.12C407.257 192.992 424.416 185.682 425.149 183.162C425.882 180.642 430.832 201.214 430.832 201.214L388.847 275.101L378.606 268.023L383.568 224.641L387.643 201.227L397.048 186.743Z" fill="#6B7B93"/>
<path d="M426.697 252.869C425.023 256.372 423.977 260.025 424.122 263.766C424.128 263.932 424.135 264.097 424.149 264.263C424.547 271.939 427.374 280.816 428.389 287.271C429.125 291.902 428.915 295.282 426.205 296.077C419.635 297.993 427.163 299.362 401.744 307.823C376.325 316.283 371.889 308.98 371.824 307.322C371.76 305.663 375.424 293.063 374.563 292.265C373.701 291.468 362.509 302.7 359.127 301.17C355.746 299.64 358.741 291.218 358.741 291.218C358.741 291.218 366.359 273.481 366.198 269.334C366.038 265.188 377.738 245.631 377.738 245.631L385.695 193.828C385.695 193.828 388.755 187.064 392.87 186.074C396.984 185.084 400.398 187.443 400.398 187.443L393.513 202.661L386.249 229.52L387.464 239.44C387.464 239.44 395.911 221.67 401.459 214.811C407.007 207.951 418.836 191.712 418.836 191.712C418.836 191.712 421.597 182.394 419.513 179.609C417.428 176.816 428.209 176.398 432.806 187.848C435.242 193.916 439.197 202.965 441.675 211.391C443.883 218.855 444.926 225.833 442.739 229.821C439.395 235.914 430.985 243.923 426.697 252.869Z" fill="#1C2147"/>
<path d="M381.209 228.055L368.068 231.887L349.823 232.594L347.946 248.448L377.93 250.607C377.93 250.607 385.42 229.553 381.209 228.055Z" fill="#1C2147"/>
<path d="M434.278 204.402C434.278 204.402 448.312 202.197 447.554 225.482C446.796 248.767 449.033 263.63 443.389 268.002C437.744 272.373 419.41 292.187 415.263 292.348C411.117 292.509 404.45 291.937 401.994 292.863C399.538 293.789 398.098 278.064 398.098 278.064C398.098 278.064 399.564 273.023 406.102 270.278C412.64 267.533 428.043 257.8 427.914 254.482C427.786 251.165 424.018 239.683 424.018 239.683C424.018 239.683 418.778 211.647 434.278 204.402Z" fill="#1C2147"/>
<path d="M399.755 189.116C389.671 189.116 381.496 180.941 381.496 170.858C381.496 160.774 389.671 152.599 399.755 152.599C409.839 152.599 418.013 160.774 418.013 170.858C418.013 180.941 409.839 189.116 399.755 189.116Z" fill="#EC7160"/>
<path d="M399.755 189.116C389.671 189.116 381.496 180.941 381.496 170.858C381.496 160.774 389.671 152.599 399.755 152.599C409.839 152.599 418.013 160.774 418.013 170.858C418.013 180.941 409.839 189.116 399.755 189.116Z" fill="white" fill-opacity="0.5"/>
<path d="M387.461 144.687C387.02 145.067 386.493 145.332 385.926 145.458C385.641 145.509 385.347 145.445 385.109 145.28C384.872 145.115 384.709 144.863 384.656 144.578C384.238 145.445 383.767 146.368 382.914 146.813C382.061 147.257 380.742 146.884 380.619 145.931C380.495 146.655 380.174 147.331 379.693 147.886C379.164 148.391 378.204 148.518 377.742 147.952C378.116 149.993 377.885 152.092 378.002 154.164C378.12 156.235 378.672 158.432 380.237 159.794C382.52 161.781 385.953 161.291 388.956 160.914C389.41 160.819 389.881 160.845 390.322 160.989C391.446 161.468 391.395 163.033 391.41 164.255C391.502 166.399 392.351 168.442 393.806 170.019C395.26 171.597 397.227 172.608 399.357 172.873C400.549 173.057 401.765 172.76 402.738 172.048C403.591 171.325 404.026 170.148 405.003 169.605C406.592 168.722 408.52 170.01 409.681 171.408C410.843 172.806 411.988 174.526 413.788 174.782C416.169 175.121 417.982 172.695 418.871 170.461C420.099 167.33 420.687 163.985 420.601 160.623C420.515 157.262 419.756 153.951 418.371 150.887C413.4 140.052 396.421 138.338 387.461 144.687Z" fill="#1C2147"/>
<path d="M300.363 459H438.637C438.733 459 438.826 458.947 438.894 458.854C438.962 458.76 439 458.633 439 458.5C439 458.367 438.962 458.24 438.894 458.146C438.826 458.053 438.733 458 438.637 458H300.363C300.267 458 300.174 458.053 300.106 458.146C300.038 458.24 300 458.367 300 458.5C300 458.633 300.038 458.76 300.106 458.854C300.174 458.947 300.267 459 300.363 459Z" fill="#3F3D56"/>
</g>
<defs>
<linearGradient id="paint0_linear" x1="39.8937" y1="235.308" x2="281.278" y2="245.464" gradientUnits="userSpaceOnUse">
<stop stop-color="#EFF6FF"/>
<stop offset="1" stop-color="white" stop-opacity="0.33"/>
</linearGradient>
<linearGradient id="paint1_linear" x1="227.264" y1="102.081" x2="458.912" y2="59.816" gradientUnits="userSpaceOnUse">
<stop stop-color="#EFF6FF"/>
<stop offset="1" stop-color="white" stop-opacity="0.33"/>
</linearGradient>
<linearGradient id="paint2_linear" x1="220.49" y1="376.719" x2="348.528" y2="539.38" gradientUnits="userSpaceOnUse">
<stop stop-color="#EFF6FF"/>
<stop offset="1" stop-color="white" stop-opacity="0.33"/>
</linearGradient>
</defs>
</svg>
