<svg width="520" height="460" viewBox="0 0 520 460" fill="none" xmlns="http://www.w3.org/2000/svg">
<mask id="mask0" mask-type="alpha" maskUnits="userSpaceOnUse" x="0" y="0" width="520" height="460">
<rect width="520" height="460" fill="#C4C4C4"/>
</mask>
<g mask="url(#mask0)">
<path d="M174.948 430.83L285.575 230.481L514.006 225.684L403.379 426.033L174.948 430.83Z" fill="url(#paint0_linear)"/>
<path d="M174.771 430.679L57.0025 235.169L167.075 34.7097L285.365 230.373L174.771 430.679Z" fill="url(#paint1_linear)"/>
<path d="M285.384 230.602L167.022 34.819L395.525 30.0195L513.887 225.803L285.384 230.602Z" fill="url(#paint2_linear)"/>
<path d="M127.193 125.5H423.147C424.274 125.501 425.355 125.952 426.152 126.753C426.949 127.555 427.397 128.642 427.398 129.776V331.458C427.397 332.592 427.399 334.96 427.398 335.734C426.499 335.734 424.274 335.733 423.147 335.734H127.193C126.579 335.734 125.971 335.6 125.413 335.341C124.855 335.082 124.36 334.704 123.961 334.234C123.927 334.197 123.896 334.157 123.868 334.116C123.615 333.804 123.409 333.455 123.259 333.081C123.045 332.567 122.935 332.016 122.937 331.458V205.909H124.151V331.458C124.151 332.055 124.325 332.638 124.653 333.135C124.945 333.573 125.34 333.93 125.804 334.175C126.234 334.398 126.71 334.514 127.193 334.513H423.147C423.952 334.512 425 334.611 426.185 334.513C426.185 333.873 426.184 332.268 426.185 331.458V129.776C426.184 128.966 425.863 128.189 425.294 127.617C424.724 127.044 423.952 126.722 423.147 126.721H127.193C126.387 126.721 125 126.721 124.151 126.721C124 127.704 124.152 128.965 124.151 129.776V206.02H122.937V129.776C122.938 128.641 123 126.377 123.043 125.5C123.889 125.5 126.065 125.5 127.193 125.5Z" fill="#6B7B93"/>
<path d="M127.193 125.5H423.147C424.274 125.501 425.355 125.952 426.152 126.753C426.949 127.555 427.397 128.642 427.398 129.776V331.458C427.397 332.592 427.399 334.96 427.398 335.734C426.499 335.734 424.274 335.733 423.147 335.734H127.193C126.579 335.734 125.971 335.6 125.413 335.341C124.855 335.082 124.36 334.704 123.961 334.234C123.927 334.197 123.896 334.157 123.868 334.116C123.615 333.804 123.409 333.455 123.259 333.081C123.045 332.567 122.935 332.016 122.937 331.458V205.909H124.151V331.458C124.151 332.055 124.325 332.638 124.653 333.135C124.945 333.573 125.34 333.93 125.804 334.175C126.234 334.398 126.71 334.514 127.193 334.513H423.147C423.952 334.512 425 334.611 426.185 334.513C426.185 333.873 426.184 332.268 426.185 331.458V129.776C426.184 128.966 425.863 128.189 425.294 127.617C424.724 127.044 423.952 126.722 423.147 126.721H127.193C126.387 126.721 125 126.721 124.151 126.721C124 127.704 124.152 128.965 124.151 129.776V206.02H122.937V129.776C122.938 128.641 123 126.377 123.043 125.5C123.889 125.5 126.065 125.5 127.193 125.5Z" fill="white" fill-opacity="0.15"/>
<path d="M123.605 140.361H426.733V141.701H123.605V140.361Z" fill="#6B7B93"/>
<path d="M123.605 140.361H426.733V141.701H123.605V140.361Z" fill="white" fill-opacity="0.15"/>
<path d="M416.406 136.344C414.382 136.344 412.742 134.695 412.742 132.661C412.742 130.628 414.382 128.979 416.406 128.979C418.43 128.979 420.07 130.628 420.07 132.661C420.07 134.695 418.43 136.344 416.406 136.344Z" fill="#6B7B93"/>
<path d="M416.406 136.344C414.382 136.344 412.742 134.695 412.742 132.661C412.742 130.628 414.382 128.979 416.406 128.979C418.43 128.979 420.07 130.628 420.07 132.661C420.07 134.695 418.43 136.344 416.406 136.344Z" fill="white" fill-opacity="0.75"/>
<path d="M406.413 136.344C404.389 136.344 402.749 134.695 402.749 132.661C402.749 130.628 404.389 128.979 406.413 128.979C408.437 128.979 410.077 130.628 410.077 132.661C410.077 134.695 408.437 136.344 406.413 136.344Z" fill="#6B7B93"/>
<path d="M406.413 136.344C404.389 136.344 402.749 134.695 402.749 132.661C402.749 130.628 404.389 128.979 406.413 128.979C408.437 128.979 410.077 130.628 410.077 132.661C410.077 134.695 408.437 136.344 406.413 136.344Z" fill="white" fill-opacity="0.75"/>
<path d="M395.755 136.344C393.731 136.344 392.091 134.695 392.091 132.661C392.091 130.628 393.731 128.979 395.755 128.979C397.778 128.979 399.419 130.628 399.419 132.661C399.419 134.695 397.778 136.344 395.755 136.344Z" fill="#6B7B93"/>
<path d="M395.755 136.344C393.731 136.344 392.091 134.695 392.091 132.661C392.091 130.628 393.731 128.979 395.755 128.979C397.778 128.979 399.419 130.628 399.419 132.661C399.419 134.695 397.778 136.344 395.755 136.344Z" fill="white" fill-opacity="0.75"/>
<rect x="378" y="77" width="138" height="200" fill="#6B7B93"/>
<rect x="378" y="77" width="138" height="200" fill="white" fill-opacity="0.15"/>
<rect x="382" y="81" width="130" height="192" fill="#93C5FE"/>
<rect x="382" y="81" width="130" height="192" fill="white" fill-opacity="0.85"/>
<rect x="382" y="81" width="130" height="192" stroke="white" stroke-width="2"/>
<rect x="6" y="209" width="138" height="200" fill="#6B7B93"/>
<rect x="6" y="209" width="138" height="200" fill="white" fill-opacity="0.15"/>
<rect x="10" y="213" width="130" height="192" fill="#93C5FE"/>
<rect x="10" y="213" width="130" height="192" fill="white" fill-opacity="0.85"/>
<rect x="10" y="213" width="130" height="192" stroke="white" stroke-width="2"/>
<path d="M130.539 347.938C129.999 347.117 129.287 346.425 128.452 345.91C127.617 345.395 126.68 345.071 125.707 344.96C124.734 344.848 123.748 344.953 122.82 345.266C121.891 345.578 121.042 346.092 120.332 346.77L99.177 335.797L100.492 348.159L120.38 356.685C121.593 357.807 123.173 358.444 124.822 358.474C126.471 358.503 128.073 357.924 129.325 356.846C130.578 355.768 131.393 354.266 131.616 352.624C131.84 350.982 131.457 349.315 130.539 347.938Z" fill="#EC7160"/>
<path d="M130.539 347.938C129.999 347.117 129.287 346.425 128.452 345.91C127.617 345.395 126.68 345.071 125.707 344.96C124.734 344.848 123.748 344.953 122.82 345.266C121.891 345.578 121.042 346.092 120.332 346.77L99.177 335.797L100.492 348.159L120.38 356.685C121.593 357.807 123.173 358.444 124.822 358.474C126.471 358.503 128.073 357.924 129.325 356.846C130.578 355.768 131.393 354.266 131.616 352.624C131.84 350.982 131.457 349.315 130.539 347.938Z" fill="white" fill-opacity="0.5"/>
<path d="M64.6677 292.976C66.3086 291.686 68.3208 290.963 70.4039 290.916C72.4871 290.869 74.5296 291.5 76.2266 292.715C76.9921 293.267 77.6761 293.926 78.2584 294.67L96.8325 329.292L113.974 342.308C114.542 342.738 114.939 343.357 115.094 344.055C115.21 344.567 115.189 345.101 115.034 345.602L113.348 351.065C113.168 351.652 112.815 352.17 112.335 352.552C112.148 352.692 111.947 352.814 111.736 352.913C111.71 352.927 111.684 352.938 111.656 352.947C111.282 353.108 110.879 353.19 110.473 353.189C110.066 353.188 109.664 353.103 109.291 352.94L89.1976 344.182L88.9777 344.082C82.2053 341.07 76.7361 335.711 73.5682 328.984L63.0021 306.575C61.4361 304.546 60.7323 301.978 61.0443 299.43C61.3564 296.882 62.659 294.562 64.6677 292.976Z" fill="#6B7B93"/>
<path d="M62.5403 280.218C53.5033 280.218 46.1773 272.856 46.1773 263.774C46.1773 254.692 53.5033 247.329 62.5403 247.329C71.5774 247.329 78.9033 254.692 78.9033 263.774C78.9033 272.856 71.5774 280.218 62.5403 280.218Z" fill="#EC7160"/>
<path d="M62.5403 280.218C53.5033 280.218 46.1773 272.856 46.1773 263.774C46.1773 254.692 53.5033 247.329 62.5403 247.329C71.5774 247.329 78.9033 254.692 78.9033 263.774C78.9033 272.856 71.5774 280.218 62.5403 280.218Z" fill="white" fill-opacity="0.5"/>
<path d="M51.4627 373.742L51.6292 372.463L52.4022 366.631L53.2482 360.264L56.2527 360.78L57.4121 360.974L58.5845 361.175L58.9709 361.242L88.7776 366.33L92.4883 364.087L92.5684 364.04L92.5349 364.382L91.8355 371.673L88.4979 406H47.1124L51.4627 373.742Z" fill="#3F3D56"/>
<path d="M40.0048 306.836C40.5354 300.871 43.3403 295.344 47.8328 291.41C52.1565 287.561 57.8238 285.596 63.5888 285.946C69.0851 286.314 73.3088 288.584 76.2271 292.715C77.7282 294.926 78.8371 297.382 79.5048 299.973C82.8225 311.971 86.3202 329.546 88.9782 344.082C90.4707 352.197 91.6964 359.367 92.4891 364.087C92.5025 364.188 92.5158 364.282 92.5357 364.382C92.8424 366.223 93.0753 367.663 93.2285 368.62C93.3257 369.211 93.245 369.817 92.9969 370.361C92.7489 370.905 92.3447 371.362 91.8363 371.673C91.8298 371.68 91.8164 371.687 91.8096 371.693C88.447 373.715 84.6087 374.799 80.6905 374.833C75.9469 374.833 70.2574 373.173 64.2683 367.81C63.8614 367.439 63.3379 367.223 62.7888 367.2C62.2398 367.176 61.7 367.347 61.2635 367.683L60.6106 368.192L54.1619 373.233C53.6583 373.629 53.0418 373.852 52.403 373.869C52.0848 373.884 51.7666 373.841 51.4635 373.742C51.4362 373.739 51.4095 373.732 51.3838 373.722C50.9189 373.57 50.4983 373.305 50.159 372.952C49.8198 372.598 49.5722 372.166 49.4382 371.693C49.0787 370.435 48.6789 368.982 48.2391 367.361C48.0592 366.685 47.8728 365.976 47.6796 365.239C46.8335 361.985 45.894 358.209 44.9747 354.098C41.7634 339.73 38.7124 321.271 40.0048 306.836Z" fill="#6B7B93"/>
<path d="M66.9515 375.46C67.031 374.479 66.8956 373.492 66.5547 372.569C66.2138 371.646 65.6757 370.81 64.9783 370.119C64.281 369.428 63.4413 368.899 62.5185 368.569C61.5957 368.239 60.6122 368.117 59.6373 368.211L49.7293 346.455L43.1727 356.999L53.5866 376.041C53.8517 377.677 54.7045 379.158 55.9835 380.204C57.2625 381.25 58.8788 381.788 60.5262 381.716C62.1736 381.645 63.7376 380.968 64.9218 379.815C66.106 378.662 66.8282 377.112 66.9515 375.46Z" fill="#EC7160"/>
<path d="M66.9515 375.46C67.031 374.479 66.8956 373.492 66.5547 372.569C66.2138 371.646 65.6757 370.81 64.9783 370.119C64.281 369.428 63.4413 368.899 62.5185 368.569C61.5957 368.239 60.6122 368.117 59.6373 368.211L49.7293 346.455L43.1727 356.999L53.5866 376.041C53.8517 377.677 54.7045 379.158 55.9835 380.204C57.2625 381.25 58.8788 381.788 60.5262 381.716C62.1736 381.645 63.7376 380.968 64.9218 379.815C66.106 378.662 66.8282 377.112 66.9515 375.46Z" fill="white" fill-opacity="0.5"/>
<path d="M33.762 325.214L39.2118 301.024C39.2253 298.638 40.111 296.339 41.7005 294.567C43.29 292.794 45.4724 291.67 47.8326 291.409C48.1723 291.376 48.5187 291.356 48.872 291.356C50.1444 291.359 51.4036 291.614 52.5777 292.107C53.7517 292.6 54.8176 293.321 55.7142 294.228C56.6108 295.136 57.3206 296.212 57.8029 297.395C58.2853 298.578 58.5308 299.845 58.5253 301.124L51.8764 339.884L51.8963 339.964L55.4206 353.335L57.3727 360.76C57.3931 360.83 57.4065 360.901 57.4127 360.974C57.5375 361.597 57.4556 362.244 57.1795 362.815C56.958 363.295 56.613 363.706 56.1802 364.007L52.4028 366.632L51.5033 367.261C51.003 367.611 50.4075 367.798 49.7977 367.797C49.5623 367.796 49.3277 367.769 49.0983 367.716C49.0717 367.71 49.0518 367.703 49.0252 367.696C48.7483 367.624 48.4834 367.511 48.2389 367.361C47.785 367.085 47.4125 366.692 47.1596 366.223L36.7268 346.867C33.1632 340.248 32.1098 332.554 33.762 325.214Z" fill="#6B7B93"/>
<path opacity="0.2" d="M57.2004 317.468L51.2044 342.911L59.8652 364.336L53.8693 343.58L57.2004 317.468Z" fill="#1C2147"/>
<path d="M49.2963 273.657C47.9251 273.166 46.6643 272.406 45.5869 271.422C45.1107 270.995 44.5989 270.598 44.1237 270.171C39.9279 266.4 38.6673 259.914 40.5393 254.579C42.4114 249.243 47.0674 245.142 52.3877 243.294C57.708 241.446 63.605 241.698 69.007 243.289C74.826 245.002 80.6536 248.861 82.0357 254.794C82.4035 256.373 82.4175 258.126 81.3474 259.458C81.0256 259.86 80.6043 260.171 80.1256 260.358C78.2399 261.085 77.1892 259.602 75.7818 258.972C73.8473 258.106 71.4664 259.041 70.1199 260.684C68.7733 262.326 68.2748 264.508 68.068 266.626C68.0262 267.931 67.8223 269.227 67.4613 270.482C67.2734 271.109 66.9293 271.677 66.4617 272.132C65.9941 272.588 65.4184 272.916 64.7893 273.086C63.2713 273.367 61.8116 272.317 60.8566 271.098C59.9017 269.879 59.2246 268.432 58.0961 267.373C56.9676 266.315 55.127 265.756 53.8901 266.684C53.4758 267.036 53.1263 267.457 52.8575 267.93C50.9615 270.857 51.1923 270.73 49.2963 273.657H49.2963Z" fill="#3F3D56"/>
<path d="M124.372 338.373L133.343 342.263C133.718 342.426 134.012 342.726 134.158 343.097C134.304 343.469 134.291 343.881 134.122 344.243L133.06 346.518C133.185 346.573 133.282 346.673 133.331 346.797C133.38 346.92 133.376 347.057 133.32 347.178L132.895 348.088C132.838 348.209 132.734 348.303 132.606 348.35C132.478 348.397 132.335 348.393 132.21 348.339L131.785 349.249C131.91 349.304 132.008 349.404 132.056 349.527C132.105 349.651 132.101 349.788 132.045 349.909L131.62 350.819C131.563 350.94 131.46 351.033 131.331 351.08C131.203 351.127 131.061 351.123 130.936 351.07L125.2 363.358C125.031 363.72 124.72 364.003 124.334 364.143C123.949 364.284 123.522 364.272 123.146 364.109L114.175 360.218C113.799 360.056 113.506 359.755 113.36 359.384C113.214 359.013 113.227 358.601 113.396 358.239L122.318 339.124C122.487 338.762 122.798 338.479 123.183 338.338C123.568 338.197 123.996 338.21 124.372 338.373Z" fill="#6B7B93"/>
<path d="M124.372 338.373L133.343 342.263C133.718 342.426 134.012 342.726 134.158 343.097C134.304 343.469 134.291 343.881 134.122 344.243L133.06 346.518C133.185 346.573 133.282 346.673 133.331 346.797C133.38 346.92 133.376 347.057 133.32 347.178L132.895 348.088C132.838 348.209 132.734 348.303 132.606 348.35C132.478 348.397 132.335 348.393 132.21 348.339L131.785 349.249C131.91 349.304 132.008 349.404 132.056 349.527C132.105 349.651 132.101 349.788 132.045 349.909L131.62 350.819C131.563 350.94 131.46 351.033 131.331 351.08C131.203 351.127 131.061 351.123 130.936 351.07L125.2 363.358C125.031 363.72 124.72 364.003 124.334 364.143C123.949 364.284 123.522 364.272 123.146 364.109L114.175 360.218C113.799 360.056 113.506 359.755 113.36 359.384C113.214 359.013 113.227 358.601 113.396 358.239L122.318 339.124C122.487 338.762 122.798 338.479 123.183 338.338C123.568 338.197 123.996 338.21 124.372 338.373Z" fill="white" fill-opacity="0.15"/>
<path d="M115.384 357.103L116.6 354.397L119.79 347.311L122.59 341.088C122.746 340.741 123.033 340.47 123.388 340.335C123.743 340.199 124.137 340.21 124.484 340.365L129.238 342.503L131.416 343.485C131.762 343.642 132.031 343.929 132.166 344.283C132.3 344.638 132.289 345.032 132.134 345.378L129.238 351.816L128.127 354.282L124.928 361.398C124.77 361.744 124.482 362.013 124.126 362.148C123.77 362.282 123.376 362.27 123.029 362.115L116.102 358.996C115.756 358.84 115.486 358.552 115.352 358.198C115.217 357.843 115.229 357.449 115.384 357.103Z" fill="#6B7B93"/>
<path d="M115.384 357.103L116.6 354.397L119.79 347.311L122.59 341.088C122.746 340.741 123.033 340.47 123.388 340.335C123.743 340.199 124.137 340.21 124.484 340.365L129.238 342.503L131.416 343.485C131.762 343.642 132.031 343.929 132.166 344.283C132.3 344.638 132.289 345.032 132.134 345.378L129.238 351.816L128.127 354.282L124.928 361.398C124.77 361.744 124.482 362.013 124.126 362.148C123.77 362.282 123.376 362.27 123.029 362.115L116.102 358.996C115.756 358.84 115.486 358.552 115.352 358.198C115.217 357.843 115.229 357.449 115.384 357.103Z" fill="white" fill-opacity="0.75"/>
<mask id="mask1" mask-type="alpha" maskUnits="userSpaceOnUse" x="418" y="129" width="80" height="148">
<rect x="418.298" y="129.195" width="79.3454" height="147.436" fill="#C4C4C4"/>
</mask>
<g mask="url(#mask1)">
<path d="M421.8 217.607C421.906 217.44 421.63 217.075 421.183 216.792C420.736 216.509 420.288 216.415 420.182 216.583C420.076 216.75 420.352 217.116 420.799 217.399C421.245 217.681 421.694 217.775 421.8 217.607Z" fill="#6B7B93"/>
<path d="M420.233 214.49C420.471 214.114 420.848 213.849 421.281 213.751C421.715 213.654 422.17 213.733 422.545 213.971L443.78 227.418C444.155 227.655 444.421 228.032 444.518 228.466C444.616 228.9 444.537 229.354 444.299 229.73L420.233 214.49Z" fill="#1571FA"/>
<path d="M420.233 214.49C420.471 214.114 420.848 213.849 421.281 213.751C421.715 213.654 422.17 213.733 422.545 213.971L443.78 227.418C444.155 227.655 444.421 228.032 444.518 228.466C444.616 228.9 444.537 229.354 444.299 229.73L420.233 214.49Z" fill="white" fill-opacity="0.25"/>
<path d="M418.224 215.201L418.892 214.146C419.055 213.89 419.312 213.708 419.609 213.641C419.905 213.575 420.216 213.629 420.472 213.791L444.65 229.102C444.954 229.294 445.169 229.599 445.247 229.95C445.326 230.301 445.262 230.669 445.07 230.973L444.515 231.85L418.224 215.201Z" fill="#6B7B93"/>
<path d="M421.824 215.781L421.568 216.185L423.186 217.21L423.442 216.805L421.824 215.781Z" fill="#93C5FE"/>
<path d="M421.824 215.781L421.568 216.185L423.186 217.21L423.442 216.805L421.824 215.781Z" fill="white" fill-opacity="0.85"/>
<path d="M424.049 217.189L423.792 217.594L425.41 218.618L425.667 218.214L424.049 217.189Z" fill="#93C5FE"/>
<path d="M424.049 217.189L423.792 217.594L425.41 218.618L425.667 218.214L424.049 217.189Z" fill="white" fill-opacity="0.85"/>
<path d="M456.094 168.053C464.43 168.053 471.187 161.296 471.187 152.96C471.187 144.625 464.43 137.867 456.094 137.867C447.758 137.867 441.001 144.625 441.001 152.96C441.001 161.296 447.758 168.053 456.094 168.053Z" fill="#EC7160"/>
<path d="M456.094 168.053C464.43 168.053 471.187 161.296 471.187 152.96C471.187 144.625 464.43 137.867 456.094 137.867C447.758 137.867 441.001 144.625 441.001 152.96C441.001 161.296 447.758 168.053 456.094 168.053Z" fill="white" fill-opacity="0.5"/>
<path d="M457.015 163.636C457.015 163.636 464.377 175.232 462.537 178.545C460.696 181.858 454.99 190.877 454.99 190.877C454.99 190.877 480.391 172.103 477.078 168.053C477.078 168.053 469.531 161.611 469.163 157.562L457.015 163.636Z" fill="#EC7160"/>
<path d="M457.015 163.636C457.015 163.636 464.377 175.232 462.537 178.545C460.696 181.858 454.99 190.877 454.99 190.877C454.99 190.877 480.391 172.103 477.078 168.053C477.078 168.053 469.531 161.611 469.163 157.562L457.015 163.636Z" fill="white" fill-opacity="0.5"/>
<path d="M469.992 229.07L471.188 237.26C471.188 237.26 486.281 267.262 469.9 281.987L447.812 336.469C447.812 336.469 445.42 364.815 438.425 374.754L431.983 397.394L412.841 392.424L428.302 343.28C428.302 343.28 428.118 322.665 430.327 318.063L440.082 274.257L441.83 227.413C441.83 227.413 467.599 225.573 469.992 229.07Z" fill="#3F3D56"/>
<path d="M491.251 186.828L478.212 215.675L472.55 228.199L470.452 232.843L440.082 232.475L443.211 211.308C438.793 199.896 449.285 195.294 449.285 195.294L458.12 185.88V187.38C458.12 187.38 466.77 177.072 470.636 171.182C474.501 165.292 479.839 167.501 479.839 167.501C489.042 166.581 491.251 186.828 491.251 186.828Z" fill="#6B7B93"/>
<path opacity="0.2" d="M478.212 215.675L472.55 228.199C470.732 224.798 469.348 220.945 469.348 218.67C469.348 212.412 475.606 215.725 475.606 215.725C475.606 215.725 470.544 188.024 470.544 179.741C470.544 174.24 475.131 198.655 478.212 215.675Z" fill="#3F3D56"/>
<path d="M473.213 217.75L445.787 217.198C445.787 217.198 425.725 218.854 428.67 226.953C431.615 235.052 447.628 226.953 447.628 226.953L479.655 231.923L473.213 217.75Z" fill="#EC7160"/>
<path d="M473.213 217.75L445.787 217.198C445.787 217.198 425.725 218.854 428.67 226.953C431.615 235.052 447.628 226.953 447.628 226.953L479.655 231.923L473.213 217.75Z" fill="white" fill-opacity="0.5"/>
<path d="M478.365 168.973C478.365 168.973 468.794 169.71 468.794 177.992C468.794 186.275 477.445 215.725 477.445 215.725C477.445 215.725 471.187 212.412 471.187 218.67C471.187 224.928 481.678 243.15 482.783 231.002C482.783 231.002 498.612 238.733 497.692 224.192C496.771 209.651 486.832 178.913 486.832 178.913C486.832 178.913 485.728 168.421 478.365 168.973Z" fill="#6B7B93"/>
<path d="M456.597 151.319C455.54 150.296 455.56 148.571 454.708 147.371C453.371 145.489 450.586 145.615 448.299 145.94C446.769 146.09 445.265 146.44 443.826 146.979C443.195 147.239 442.632 147.642 442.183 148.156C441.734 148.67 441.411 149.282 441.239 149.942C441.06 150.684 440.665 148.579 440.263 145.853C439.851 143.072 440.333 140.232 441.639 137.742C442.945 135.252 445.007 133.241 447.529 131.999C447.559 131.984 447.589 131.97 447.619 131.955C450.205 130.699 452.915 129.589 455.773 129.277C458.632 128.965 461.683 129.529 463.925 131.33C464.949 132.153 465.783 133.21 466.882 133.931C468.812 135.199 471.256 135.26 473.55 135.527C476.161 135.753 478.695 136.531 480.983 137.808C483.284 139.109 484.979 141.265 485.701 143.808C486.427 146.766 485.242 150.264 482.333 151.547C481.825 151.761 481.375 152.092 481.018 152.512C478.63 155.432 482.486 157.03 483.045 159.571C483.512 161.692 481.472 163.612 479.381 164.196C477.412 164.686 475.335 164.475 473.505 163.601C471.675 162.726 470.206 161.242 469.349 159.404C468.632 157.74 468.469 155.9 468.273 154.098C468.05 152.036 462.642 148.302 466.293 151.111C467.001 151.642 467.56 152.348 467.912 153.159C469.023 155.818 466.718 157.327 465.482 159.225C464.809 160.293 464.448 161.528 464.442 162.79C464.435 164.052 464.782 165.29 465.444 166.365C463.861 165.479 462.638 164.069 461.985 162.377C461.332 160.686 461.289 158.82 461.865 157.1C462.197 156.198 462.699 155.364 463 154.451C463.471 153.027 463.055 150.26 460.953 150.821C459.453 151.221 458.171 152.841 456.597 151.319Z" fill="#3F3D56"/>
</g>
<path d="M286.396 138.256H422.031C423.736 138.254 425.371 137.573 426.576 136.361C427.782 135.149 428.46 133.507 428.462 131.793V62.463C428.46 60.7495 427.782 59.1067 426.576 57.8951C425.371 56.6835 423.736 56.0019 422.031 56H286.396C284.691 56.0019 283.056 56.6835 281.851 57.8951C280.645 59.1067 279.967 60.7495 279.965 62.463V131.793C279.967 133.507 280.645 135.15 281.851 136.361C283.056 137.573 284.691 138.254 286.396 138.256Z" fill="#6B7B93"/>
<path d="M286.396 138.256H422.031C423.736 138.254 425.371 137.573 426.576 136.361C427.782 135.149 428.46 133.507 428.462 131.793V62.463C428.46 60.7495 427.782 59.1067 426.576 57.8951C425.371 56.6835 423.736 56.0019 422.031 56H286.396C284.691 56.0019 283.056 56.6835 281.851 57.8951C280.645 59.1067 279.967 60.7495 279.965 62.463V131.793C279.967 133.507 280.645 135.15 281.851 136.361C283.056 137.573 284.691 138.254 286.396 138.256Z" fill="white" fill-opacity="0.75"/>
<path d="M287.956 133.556H420.473C421.352 133.555 422.194 133.204 422.815 132.579C423.436 131.955 423.785 131.109 423.786 130.226V64.0296C423.785 63.1469 423.436 62.3006 422.815 61.6764C422.194 61.0523 421.352 60.7012 420.473 60.7002H287.956C287.078 60.7012 286.236 61.0523 285.615 61.6764C284.994 62.3006 284.644 63.1469 284.643 64.0296V130.226C284.644 131.109 284.994 131.955 285.615 132.579C286.236 133.204 287.078 133.555 287.956 133.556Z" fill="#93C5FE"/>
<path d="M287.956 133.556H420.473C421.352 133.555 422.194 133.204 422.815 132.579C423.436 131.955 423.785 131.109 423.786 130.226V64.0296C423.785 63.1469 423.436 62.3006 422.815 61.6764C422.194 61.0523 421.352 60.7012 420.473 60.7002H287.956C287.078 60.7012 286.236 61.0523 285.615 61.6764C284.994 62.3006 284.644 63.1469 284.643 64.0296V130.226C284.644 131.109 284.994 131.955 285.615 132.579C286.236 133.204 287.078 133.555 287.956 133.556Z" fill="white" fill-opacity="0.85"/>
<path d="M413.899 151C414.228 150.999 414.553 150.933 414.857 150.805C415.31 150.622 415.697 150.306 415.968 149.898C416.24 149.49 416.382 149.01 416.377 148.519V135.777L397.27 135.291L412.173 150.269C412.398 150.499 412.667 150.683 412.963 150.808C413.259 150.934 413.577 150.999 413.899 151Z" fill="#6B7B93"/>
<path d="M413.899 151C414.228 150.999 414.553 150.933 414.857 150.805C415.31 150.622 415.697 150.306 415.968 149.898C416.24 149.49 416.382 149.01 416.377 148.519V135.777L397.27 135.291L412.173 150.269C412.398 150.499 412.667 150.683 412.963 150.808C413.259 150.934 413.577 150.999 413.899 151Z" fill="white" fill-opacity="0.75"/>
<path d="M304.088 94.1597H371.126C371.536 94.1603 371.942 94.0797 372.321 93.9225C372.7 93.7653 373.044 93.5346 373.334 93.2435C373.624 92.9525 373.854 92.6068 374.011 92.2264C374.168 91.8459 374.249 91.438 374.249 91.0261C374.249 90.6142 374.168 90.2064 374.011 89.8259C373.854 89.4454 373.624 89.0998 373.334 88.8088C373.044 88.5177 372.7 88.287 372.321 88.1298C371.942 87.9726 371.536 87.892 371.126 87.8926H304.088C303.261 87.8926 302.468 88.2227 301.884 88.8104C301.299 89.398 300.97 90.1951 300.97 91.0261C300.97 91.8572 301.299 92.6542 301.884 93.2419C302.468 93.8296 303.261 94.1597 304.088 94.1597Z" fill="#6B7B93"/>
<path d="M304.088 94.1597H371.126C371.536 94.1603 371.942 94.0797 372.321 93.9225C372.7 93.7653 373.044 93.5346 373.334 93.2435C373.624 92.9525 373.854 92.6068 374.011 92.2264C374.168 91.8459 374.249 91.438 374.249 91.0261C374.249 90.6142 374.168 90.2064 374.011 89.8259C373.854 89.4454 373.624 89.0998 373.334 88.8088C373.044 88.5177 372.7 88.287 372.321 88.1298C371.942 87.9726 371.536 87.892 371.126 87.8926H304.088C303.261 87.8926 302.468 88.2227 301.884 88.8104C301.299 89.398 300.97 90.1951 300.97 91.0261C300.97 91.8572 301.299 92.6542 301.884 93.2419C302.468 93.8296 303.261 94.1597 304.088 94.1597Z" fill="white" fill-opacity="0.75"/>
<path d="M325.915 80.8418H371.127C371.954 80.8418 372.747 80.5117 373.331 79.924C373.916 79.3364 374.245 78.5393 374.245 77.7083C374.245 76.8772 373.916 76.0802 373.331 75.4925C372.747 74.9048 371.954 74.5747 371.127 74.5747H325.915C325.088 74.5747 324.295 74.9048 323.71 75.4925C323.125 76.0802 322.797 76.8772 322.797 77.7083C322.797 78.5393 323.125 79.3364 323.71 79.924C324.295 80.5117 325.088 80.8418 325.915 80.8418Z" fill="#6B7B93"/>
<path d="M325.915 80.8418H371.127C371.954 80.8418 372.747 80.5117 373.331 79.924C373.916 79.3364 374.245 78.5393 374.245 77.7083C374.245 76.8772 373.916 76.0802 373.331 75.4925C372.747 74.9048 371.954 74.5747 371.127 74.5747H325.915C325.088 74.5747 324.295 74.9048 323.71 75.4925C323.125 76.0802 322.797 76.8772 322.797 77.7083C322.797 78.5393 323.125 79.3364 323.71 79.924C324.295 80.5117 325.088 80.8418 325.915 80.8418Z" fill="white" fill-opacity="0.75"/>
<path d="M398.879 94.1597C393.497 94.1597 389.135 89.7754 389.135 84.3672C389.135 78.9589 393.497 74.5747 398.879 74.5747C404.26 74.5747 408.623 78.9589 408.623 84.3672C408.623 89.7754 404.26 94.1597 398.879 94.1597Z" fill="#1571FA"/>
<path d="M398.879 94.1597C393.497 94.1597 389.135 89.7754 389.135 84.3672C389.135 78.9589 393.497 74.5747 398.879 74.5747C404.26 74.5747 408.623 78.9589 408.623 84.3672C408.623 89.7754 404.26 94.1597 398.879 94.1597Z" fill="white" fill-opacity="0.25"/>
<path d="M324.75 119.681C323.028 119.681 321.632 118.278 321.632 116.548C321.632 114.817 323.028 113.414 324.75 113.414C326.472 113.414 327.868 114.817 327.868 116.548C327.868 118.278 326.472 119.681 324.75 119.681Z" fill="#6B7B93"/>
<path d="M324.75 119.681C323.028 119.681 321.632 118.278 321.632 116.548C321.632 114.817 323.028 113.414 324.75 113.414C326.472 113.414 327.868 114.817 327.868 116.548C327.868 118.278 326.472 119.681 324.75 119.681Z" fill="white" fill-opacity="0.75"/>
<path d="M313.836 119.681C312.114 119.681 310.718 118.278 310.718 116.548C310.718 114.817 312.114 113.414 313.836 113.414C315.558 113.414 316.954 114.817 316.954 116.548C316.954 118.278 315.558 119.681 313.836 119.681Z" fill="#6B7B93"/>
<path d="M313.836 119.681C312.114 119.681 310.718 118.278 310.718 116.548C310.718 114.817 312.114 113.414 313.836 113.414C315.558 113.414 316.954 114.817 316.954 116.548C316.954 118.278 315.558 119.681 313.836 119.681Z" fill="white" fill-opacity="0.75"/>
<path d="M302.923 119.681C301.201 119.681 299.805 118.278 299.805 116.548C299.805 114.817 301.201 113.414 302.923 113.414C304.645 113.414 306.041 114.817 306.041 116.548C306.041 118.278 304.645 119.681 302.923 119.681Z" fill="#6B7B93"/>
<path d="M302.923 119.681C301.201 119.681 299.805 118.278 299.805 116.548C299.805 114.817 301.201 113.414 302.923 113.414C304.645 113.414 306.041 114.817 306.041 116.548C306.041 118.278 304.645 119.681 302.923 119.681Z" fill="white" fill-opacity="0.75"/>
<path d="M205.109 284.981H355.888C360.011 284.976 367.937 284.981 371.438 284.981C371.437 280.981 371.433 273.525 371.438 269.392V184.74C371.433 180.607 371.437 172.651 371.438 169.151C367.438 169.151 360.011 169.156 355.888 169.151H205.109C200.987 169.156 192.5 169.152 189.56 169.151C189.56 172.651 189.565 180.607 189.56 184.74V269.392C189.565 273.525 191.205 277.488 194.12 280.41C197.035 283.332 200.987 284.976 205.109 284.981Z" fill="#1571FA"/>
<path d="M205.109 284.981H355.888C360.011 284.976 367.937 284.981 371.438 284.981C371.437 280.981 371.433 273.525 371.438 269.392V184.74C371.433 180.607 371.437 172.651 371.438 169.151C367.438 169.151 360.011 169.156 355.888 169.151H205.109C200.987 169.156 192.5 169.152 189.56 169.151C189.56 172.651 189.565 180.607 189.56 184.74V269.392C189.565 273.525 191.205 277.488 194.12 280.41C197.035 283.332 200.987 284.976 205.109 284.981Z" fill="white" fill-opacity="0.25"/>
<path d="M132.77 296.735H268.405C270.11 296.733 271.744 296.051 272.95 294.84C274.156 293.628 274.834 291.985 274.836 290.272V220.942C274.834 219.228 274.156 217.585 272.95 216.374C271.744 215.162 270.11 214.481 268.405 214.479H132.77C131.065 214.481 129.43 215.162 128.225 216.374C127.019 217.585 126.341 219.228 126.339 220.942V290.272C126.341 291.985 127.019 293.628 128.225 294.84C129.43 296.051 131.065 296.733 132.77 296.735Z" fill="#6B7B93"/>
<path d="M132.77 296.735H268.405C270.11 296.733 271.744 296.051 272.95 294.84C274.156 293.628 274.834 291.985 274.836 290.272V220.942C274.834 219.228 274.156 217.585 272.95 216.374C271.744 215.162 270.11 214.481 268.405 214.479H132.77C131.065 214.481 129.43 215.162 128.225 216.374C127.019 217.585 126.341 219.228 126.339 220.942V290.272C126.341 291.985 127.019 293.628 128.225 294.84C129.43 296.051 131.065 296.733 132.77 296.735Z" fill="white" fill-opacity="0.75"/>
<path d="M134.33 292.034H266.847C267.725 292.033 268.567 291.682 269.188 291.058C269.81 290.434 270.159 289.588 270.16 288.705V222.508C270.159 221.626 269.81 220.779 269.188 220.155C268.567 219.531 267.725 219.18 266.847 219.179H134.33C133.452 219.18 132.61 219.531 131.989 220.155C131.368 220.779 131.018 221.626 131.017 222.508V288.705C131.018 289.588 131.368 290.434 131.989 291.058C132.61 291.682 133.452 292.033 134.33 292.034Z" fill="#93C5FE"/>
<path d="M134.33 292.034H266.847C267.725 292.033 268.567 291.682 269.188 291.058C269.81 290.434 270.159 289.588 270.16 288.705V222.508C270.159 221.626 269.81 220.779 269.188 220.155C268.567 219.531 267.725 219.18 266.847 219.179H134.33C133.452 219.18 132.61 219.531 131.989 220.155C131.368 220.779 131.018 221.626 131.017 222.508V288.705C131.018 289.588 131.368 290.434 131.989 291.058C132.61 291.682 133.452 292.033 134.33 292.034Z" fill="white" fill-opacity="0.85"/>
<path d="M142.004 308.748L156.907 293.77L137.8 294.255V306.998C137.795 307.488 137.937 307.969 138.209 308.377C138.48 308.785 138.867 309.101 139.32 309.284C139.624 309.412 139.949 309.478 140.278 309.479C140.6 309.478 140.918 309.412 141.214 309.287C141.51 309.161 141.779 308.978 142.004 308.748Z" fill="#6B7B93"/>
<path d="M142.004 308.748L156.907 293.77L137.8 294.255V306.998C137.795 307.488 137.937 307.969 138.209 308.377C138.48 308.785 138.867 309.101 139.32 309.284C139.624 309.412 139.949 309.478 140.278 309.479C140.6 309.478 140.918 309.412 141.214 309.287C141.51 309.161 141.779 308.978 142.004 308.748Z" fill="white" fill-opacity="0.75"/>
<path d="M150.464 252.638H217.502C217.912 252.639 218.318 252.558 218.697 252.401C219.075 252.244 219.42 252.013 219.71 251.722C220 251.431 220.23 251.085 220.387 250.705C220.544 250.324 220.625 249.917 220.625 249.505C220.625 249.093 220.544 248.685 220.387 248.304C220.23 247.924 220 247.578 219.71 247.287C219.42 246.996 219.075 246.766 218.697 246.608C218.318 246.451 217.912 246.37 217.502 246.371H150.464C150.054 246.37 149.648 246.451 149.269 246.608C148.891 246.766 148.546 246.996 148.256 247.287C147.966 247.578 147.736 247.924 147.579 248.304C147.422 248.685 147.341 249.093 147.341 249.505C147.341 249.917 147.422 250.324 147.579 250.705C147.736 251.085 147.966 251.431 148.256 251.722C148.546 252.013 148.891 252.244 149.269 252.401C149.648 252.558 150.054 252.639 150.464 252.638Z" fill="#6B7B93"/>
<path d="M150.464 252.638H217.502C217.912 252.639 218.318 252.558 218.697 252.401C219.075 252.244 219.42 252.013 219.71 251.722C220 251.431 220.23 251.085 220.387 250.705C220.544 250.324 220.625 249.917 220.625 249.505C220.625 249.093 220.544 248.685 220.387 248.304C220.23 247.924 220 247.578 219.71 247.287C219.42 246.996 219.075 246.766 218.697 246.608C218.318 246.451 217.912 246.37 217.502 246.371H150.464C150.054 246.37 149.648 246.451 149.269 246.608C148.891 246.766 148.546 246.996 148.256 247.287C147.966 247.578 147.736 247.924 147.579 248.304C147.422 248.685 147.341 249.093 147.341 249.505C147.341 249.917 147.422 250.324 147.579 250.705C147.736 251.085 147.966 251.431 148.256 251.722C148.546 252.013 148.891 252.244 149.269 252.401C149.648 252.558 150.054 252.639 150.464 252.638Z" fill="white" fill-opacity="0.75"/>
<path d="M172.291 239.32H217.502C217.912 239.32 218.317 239.239 218.696 239.082C219.074 238.924 219.418 238.694 219.707 238.403C219.997 238.112 220.226 237.766 220.383 237.386C220.54 237.006 220.62 236.598 220.62 236.187C220.62 235.775 220.54 235.368 220.383 234.988C220.226 234.607 219.997 234.262 219.707 233.971C219.418 233.68 219.074 233.449 218.696 233.292C218.317 233.134 217.912 233.053 217.502 233.053H172.291C171.464 233.053 170.671 233.383 170.086 233.971C169.501 234.559 169.173 235.356 169.173 236.187C169.173 237.018 169.501 237.815 170.086 238.403C170.671 238.99 171.464 239.32 172.291 239.32Z" fill="#6B7B93"/>
<path d="M172.291 239.32H217.502C217.912 239.32 218.317 239.239 218.696 239.082C219.074 238.924 219.418 238.694 219.707 238.403C219.997 238.112 220.226 237.766 220.383 237.386C220.54 237.006 220.62 236.598 220.62 236.187C220.62 235.775 220.54 235.368 220.383 234.988C220.226 234.607 219.997 234.262 219.707 233.971C219.418 233.68 219.074 233.449 218.696 233.292C218.317 233.134 217.912 233.053 217.502 233.053H172.291C171.464 233.053 170.671 233.383 170.086 233.971C169.501 234.559 169.173 235.356 169.173 236.187C169.173 237.018 169.501 237.815 170.086 238.403C170.671 238.99 171.464 239.32 172.291 239.32Z" fill="white" fill-opacity="0.75"/>
<path d="M245.252 252.638C239.871 252.638 235.508 248.254 235.508 242.846C235.508 237.437 239.871 233.053 245.252 233.053C250.634 233.053 254.996 237.437 254.996 242.846C254.996 248.254 250.634 252.638 245.252 252.638Z" fill="#1571FA"/>
<path d="M245.252 252.638C239.871 252.638 235.508 248.254 235.508 242.846C235.508 237.437 239.871 233.053 245.252 233.053C250.634 233.053 254.996 237.437 254.996 242.846C254.996 248.254 250.634 252.638 245.252 252.638Z" fill="white" fill-opacity="0.25"/>
<path d="M171.123 278.16C169.401 278.16 168.005 276.757 168.005 275.026C168.005 273.296 169.401 271.893 171.123 271.893C172.845 271.893 174.241 273.296 174.241 275.026C174.241 276.757 172.845 278.16 171.123 278.16Z" fill="#6B7B93"/>
<path d="M171.123 278.16C169.401 278.16 168.005 276.757 168.005 275.026C168.005 273.296 169.401 271.893 171.123 271.893C172.845 271.893 174.241 273.296 174.241 275.026C174.241 276.757 172.845 278.16 171.123 278.16Z" fill="white" fill-opacity="0.75"/>
<path d="M160.209 278.16C158.487 278.16 157.091 276.757 157.091 275.026C157.091 273.296 158.487 271.893 160.209 271.893C161.931 271.893 163.327 273.296 163.327 275.026C163.327 276.757 161.931 278.16 160.209 278.16Z" fill="#6B7B93"/>
<path d="M160.209 278.16C158.487 278.16 157.091 276.757 157.091 275.026C157.091 273.296 158.487 271.893 160.209 271.893C161.931 271.893 163.327 273.296 163.327 275.026C163.327 276.757 161.931 278.16 160.209 278.16Z" fill="white" fill-opacity="0.75"/>
<path d="M149.296 278.16C147.574 278.16 146.178 276.757 146.178 275.026C146.178 273.296 147.574 271.893 149.296 271.893C151.018 271.893 152.414 273.296 152.414 275.026C152.414 276.757 151.018 278.16 149.296 278.16Z" fill="#6B7B93"/>
<path d="M149.296 278.16C147.574 278.16 146.178 276.757 146.178 275.026C146.178 273.296 147.574 271.893 149.296 271.893C151.018 271.893 152.414 273.296 152.414 275.026C152.414 276.757 151.018 278.16 149.296 278.16Z" fill="white" fill-opacity="0.75"/>
</g>
<defs>
<linearGradient id="paint0_linear" x1="384.5" y1="400.831" x2="280.903" y2="211.218" gradientUnits="userSpaceOnUse">
<stop stop-color="#EFF6FF"/>
<stop offset="1" stop-color="white" stop-opacity="0.33"/>
</linearGradient>
<linearGradient id="paint1_linear" x1="195.926" y1="318.581" x2="56.7633" y2="160.657" gradientUnits="userSpaceOnUse">
<stop stop-color="#EFF6FF"/>
<stop offset="1" stop-color="white" stop-opacity="0.33"/>
</linearGradient>
<linearGradient id="paint2_linear" x1="409.674" y1="197.135" x2="368.525" y2="-5.38668" gradientUnits="userSpaceOnUse">
<stop stop-color="#EFF6FF"/>
<stop offset="1" stop-color="white" stop-opacity="0.33"/>
</linearGradient>
</defs>
</svg>
