<svg width="430" height="430" viewBox="0 0 430 430" fill="none" xmlns="http://www.w3.org/2000/svg">
<g clip-path="url(#clip0)">
<path d="M82.2601 270.362L83.1691 268.982" stroke="#666668" stroke-width="0.506498" stroke-miterlimit="10" stroke-linecap="round"/>
<path d="M84.9533 266.289L94.7834 251.51" stroke="#666668" stroke-width="0.506498" stroke-miterlimit="10" stroke-linecap="round" stroke-dasharray="3.23 3.23"/>
<path d="M95.6587 250.163L96.6013 248.783" stroke="#666668" stroke-width="0.506498" stroke-miterlimit="10" stroke-linecap="round"/>
<path d="M116.497 233.499C118.382 240.266 114.444 247.268 107.711 249.153C100.978 251.038 93.9418 247.1 92.0566 240.367C90.1714 233.6 94.1101 226.598 100.843 224.712C107.61 222.794 114.612 226.732 116.497 233.499Z" fill="white"/>
<path d="M105.8 249.524C112.758 248.676 117.71 242.348 116.862 235.391C116.014 228.433 109.686 223.48 102.729 224.329C95.7713 225.177 90.8187 231.504 91.6669 238.462C92.515 245.419 98.8427 250.372 105.8 249.524Z" stroke="#989899" stroke-width="0.675331" stroke-miterlimit="10"/>
<path d="M349.828 270.362L348.919 268.982" stroke="#666668" stroke-width="0.506498" stroke-miterlimit="10" stroke-linecap="round"/>
<path d="M347.134 266.289L337.304 251.51" stroke="#666668" stroke-width="0.506498" stroke-miterlimit="10" stroke-linecap="round" stroke-dasharray="3.23 3.23"/>
<path d="M336.429 250.163L335.486 248.783" stroke="#666668" stroke-width="0.506498" stroke-miterlimit="10" stroke-linecap="round"/>
<path d="M315.591 233.499C313.705 240.266 317.644 247.268 324.377 249.153C331.11 251.038 338.146 247.1 340.031 240.367C341.916 233.6 337.978 226.598 331.245 224.712C324.478 222.794 317.476 226.732 315.591 233.499Z" fill="white"/>
<path d="M340.391 238.449C341.239 231.491 336.286 225.164 329.329 224.316C322.371 223.468 316.044 228.42 315.195 235.378C314.347 242.335 319.3 248.663 326.257 249.511C333.215 250.359 339.543 245.407 340.391 238.449Z" stroke="#989899" stroke-width="0.675331" stroke-miterlimit="10"/>
<path d="M60.58 353.581V355.264" stroke="#666668" stroke-width="0.506498" stroke-miterlimit="10" stroke-linecap="round"/>
<path d="M60.6137 358.496L60.8157 376.238" stroke="#666668" stroke-width="0.506498" stroke-miterlimit="10" stroke-linecap="round" stroke-dasharray="3.23 3.23"/>
<path d="M60.8157 377.853L60.8493 379.537" stroke="#666668" stroke-width="0.506498" stroke-miterlimit="10" stroke-linecap="round"/>
<path d="M52.9718 403.371C47.6191 398.86 46.9458 390.848 51.4569 385.495C55.968 380.143 63.9802 379.469 69.3329 383.98C74.6856 388.491 75.3589 396.504 70.8478 401.856C66.3367 407.209 58.3245 407.882 52.9718 403.371Z" fill="white"/>
<path d="M70.112 402.616C75.0683 397.66 75.0683 389.624 70.112 384.667C65.1557 379.711 57.1198 379.711 52.1635 384.667C47.2072 389.624 47.2072 397.66 52.1635 402.616C57.1199 407.572 65.1557 407.572 70.112 402.616Z" stroke="#989899" stroke-width="0.675331" stroke-miterlimit="10"/>
<path d="M370.834 353.581V355.264" stroke="#666668" stroke-width="0.506498" stroke-miterlimit="10" stroke-linecap="round"/>
<path d="M370.868 358.496L371.07 376.238" stroke="#666668" stroke-width="0.506498" stroke-miterlimit="10" stroke-linecap="round" stroke-dasharray="3.23 3.23"/>
<path d="M371.07 377.853L371.104 379.537" stroke="#666668" stroke-width="0.506498" stroke-miterlimit="10" stroke-linecap="round"/>
<path d="M363.226 403.371C357.873 398.86 357.2 390.848 361.711 385.495C366.222 380.143 374.235 379.469 379.587 383.98C384.94 388.491 385.613 396.504 381.102 401.856C376.591 407.209 368.579 407.882 363.226 403.371Z" fill="white"/>
<path d="M380.364 402.616C385.32 397.66 385.32 389.624 380.364 384.668C375.407 379.712 367.371 379.712 362.415 384.668C357.459 389.624 357.459 397.66 362.415 402.616C367.371 407.573 375.407 407.573 380.364 402.616Z" stroke="#989899" stroke-width="0.675331" stroke-miterlimit="10"/>
<path d="M255.465 390.309C255.465 368.663 237.926 351.124 216.28 351.124C194.633 351.124 177.094 368.663 177.094 390.309C177.094 411.956 194.633 429.495 216.28 429.495C237.926 429.495 255.465 411.956 255.465 390.309Z" fill="white"/>
<path d="M216.782 429.485C238.422 429.205 255.737 411.437 255.458 389.797C255.179 368.158 237.41 350.842 215.77 351.121C194.131 351.4 176.815 369.169 177.094 390.809C177.374 412.448 195.142 429.764 216.782 429.485Z" stroke="#939598" stroke-width="1.013" stroke-miterlimit="10"/>
<path d="M216.782 429.485C238.422 429.205 255.737 411.437 255.458 389.797C255.179 368.158 237.41 350.842 215.77 351.121C194.131 351.4 176.815 369.169 177.094 390.809C177.374 412.448 195.142 429.764 216.782 429.485Z" stroke="#323233" stroke-width="0.675331" stroke-miterlimit="10"/>
<path d="M100.877 309.413C100.877 287.767 83.3374 270.227 61.6909 270.227C40.0445 270.227 22.5051 287.767 22.5051 309.413C22.5051 331.059 40.0445 348.599 61.6909 348.599C83.3374 348.599 100.877 331.059 100.877 309.413Z" fill="white"/>
<path d="M67.3442 348.191C88.7608 345.077 103.598 325.191 100.484 303.774C97.3693 282.357 77.4831 267.52 56.0665 270.634C34.6499 273.749 19.8128 293.635 22.9271 315.052C26.0413 336.468 45.9275 351.305 67.3442 348.191Z" stroke="#939598" stroke-width="1.013" stroke-miterlimit="10"/>
<path d="M67.3442 348.191C88.7608 345.077 103.598 325.191 100.484 303.774C97.3693 282.357 77.4831 267.52 56.0665 270.634C34.6499 273.749 19.8128 293.635 22.9271 315.052C26.0413 336.468 45.9275 351.305 67.3442 348.191Z" stroke="#323233" stroke-width="0.675331" stroke-miterlimit="10"/>
<path d="M100.877 123.617C100.877 101.971 83.3374 84.4314 61.6909 84.4314C40.0445 84.4314 22.5051 101.971 22.5051 123.617C22.5051 145.264 40.0445 162.803 61.6909 162.803C83.3374 162.803 100.877 145.264 100.877 123.617Z" fill="white"/>
<path d="M98.6608 136.643C105.848 116.229 95.1251 93.853 74.7105 86.6658C54.2958 79.4786 31.9201 90.2015 24.7329 110.616C17.5457 131.031 28.2686 153.406 48.6833 160.594C69.0979 167.781 91.4736 157.058 98.6608 136.643Z" stroke="#939598" stroke-width="1.013" stroke-miterlimit="10"/>
<path d="M98.6608 136.643C105.848 116.229 95.1251 93.853 74.7105 86.6658C54.2958 79.4786 31.9201 90.2015 24.7329 110.616C17.5457 131.031 28.2686 153.406 48.6833 160.594C69.0979 167.781 91.4736 157.058 98.6608 136.643Z" stroke="#323233" stroke-width="0.675331" stroke-miterlimit="10"/>
<path d="M409.785 123.819C409.785 102.173 392.245 84.6335 370.599 84.6335C348.952 84.6335 331.413 102.173 331.413 123.819C331.413 145.466 348.952 163.005 370.599 163.005C392.245 163.005 409.785 145.466 409.785 123.819Z" fill="white"/>
<path d="M373.756 162.884C395.329 161.146 411.408 142.249 409.67 120.677C407.933 99.1043 389.036 83.0251 367.464 84.7628C345.891 86.5005 329.812 105.397 331.55 126.97C333.287 148.542 352.184 164.621 373.756 162.884Z" stroke="#939598" stroke-width="1.013" stroke-miterlimit="10"/>
<path d="M373.756 162.884C395.329 161.146 411.408 142.249 409.67 120.677C407.933 99.1043 389.036 83.0251 367.464 84.7628C345.891 86.5005 329.812 105.397 331.55 126.97C333.287 148.542 352.184 164.621 373.756 162.884Z" stroke="#323233" stroke-width="0.675331" stroke-miterlimit="10"/>
<path d="M409.683 311.164C409.683 332.81 392.144 350.349 370.498 350.349C348.851 350.349 331.312 332.81 331.312 311.164C331.312 289.517 348.851 271.978 370.498 271.978C392.144 271.978 409.683 289.517 409.683 311.164Z" fill="white"/>
<path d="M371.18 350.329C392.817 349.944 410.046 332.092 409.661 310.454C409.276 288.817 391.424 271.588 369.787 271.973C348.149 272.357 330.921 290.21 331.305 311.847C331.69 333.485 349.542 350.713 371.18 350.329Z" stroke="#939598" stroke-width="1.013" stroke-miterlimit="10"/>
<path d="M371.18 350.329C392.817 349.944 410.046 332.092 409.661 310.454C409.276 288.817 391.424 271.588 369.787 271.973C348.149 272.357 330.921 290.21 331.305 311.847C331.69 333.485 349.542 350.713 371.18 350.329Z" stroke="#323233" stroke-width="0.675331" stroke-miterlimit="10"/>
<path d="M345.217 123.713V115.08H350.998V116.329H346.76V118.705H350.753V119.942H346.76V122.464H350.998V123.713H345.217Z" fill="#3A3A3A"/>
<path d="M355.356 122.66C355.535 122.66 355.723 122.648 355.919 122.624L355.845 123.762C355.6 123.787 355.376 123.799 355.172 123.799C354.331 123.799 353.71 123.607 353.31 123.224C352.91 122.832 352.71 122.252 352.71 121.485V118.876H351.559V117.725H352.71V115.937H354.241V117.725H355.821V118.876H354.241V121.46C354.241 122.26 354.613 122.66 355.356 122.66Z" fill="#3A3A3A"/>
<path d="M360.292 117.578C361.011 117.578 361.546 117.782 361.897 118.191C362.248 118.599 362.423 119.215 362.423 120.04V123.713H360.892V120.125C360.892 119.66 360.803 119.321 360.623 119.109C360.452 118.897 360.178 118.791 359.803 118.791C359.362 118.791 359.007 118.929 358.737 119.207C358.476 119.485 358.345 119.856 358.345 120.321V123.713H356.815V115.08H358.345V118.558C358.549 118.24 358.819 117.999 359.153 117.835C359.496 117.664 359.876 117.578 360.292 117.578Z" fill="#3A3A3A"/>
<path d="M369.231 120.995H365.154C365.203 121.55 365.37 121.962 365.656 122.232C365.941 122.501 366.35 122.636 366.88 122.636C367.542 122.636 368.146 122.424 368.693 121.999L369.133 123.052C368.856 123.281 368.505 123.464 368.08 123.603C367.664 123.742 367.244 123.811 366.819 123.811C365.839 123.811 365.064 123.534 364.492 122.979C363.929 122.424 363.647 121.664 363.647 120.701C363.647 120.089 363.77 119.546 364.015 119.072C364.26 118.599 364.602 118.231 365.043 117.97C365.492 117.709 365.999 117.578 366.562 117.578C367.386 117.578 368.035 117.844 368.509 118.374C368.991 118.905 369.231 119.636 369.231 120.566V120.995ZM366.599 118.656C366.19 118.656 365.86 118.787 365.607 119.048C365.362 119.309 365.211 119.685 365.154 120.174H367.921C367.905 119.676 367.782 119.301 367.554 119.048C367.325 118.787 367.007 118.656 366.599 118.656Z" fill="#3A3A3A"/>
<path d="M374.427 118.852L373.533 118.938C372.521 119.044 372.014 119.558 372.014 120.481V123.713H370.484V117.725H371.941V118.778C372.251 118.06 372.892 117.668 373.863 117.603L374.329 117.566L374.427 118.852Z" fill="#3A3A3A"/>
<path d="M380.305 120.995H376.228C376.277 121.55 376.444 121.962 376.73 122.232C377.015 122.501 377.424 122.636 377.954 122.636C378.615 122.636 379.22 122.424 379.767 121.999L380.207 123.052C379.93 123.281 379.579 123.464 379.154 123.603C378.738 123.742 378.318 123.811 377.893 123.811C376.913 123.811 376.138 123.534 375.566 122.979C375.003 122.424 374.721 121.664 374.721 120.701C374.721 120.089 374.844 119.546 375.089 119.072C375.334 118.599 375.676 118.231 376.117 117.97C376.566 117.709 377.072 117.578 377.636 117.578C378.46 117.578 379.109 117.844 379.583 118.374C380.065 118.905 380.305 119.636 380.305 120.566V120.995ZM377.673 118.656C377.264 118.656 376.934 118.787 376.681 119.048C376.436 119.309 376.285 119.685 376.228 120.174H378.995C378.979 119.676 378.856 119.301 378.628 119.048C378.399 118.787 378.081 118.656 377.673 118.656Z" fill="#3A3A3A"/>
<path d="M387.056 117.725V123.713H385.562V122.795C385.374 123.122 385.121 123.375 384.803 123.554C384.484 123.726 384.125 123.811 383.725 123.811C382.256 123.811 381.521 122.987 381.521 121.338V117.725H383.052V121.35C383.052 121.775 383.137 122.089 383.309 122.293C383.48 122.497 383.75 122.599 384.117 122.599C384.542 122.599 384.88 122.46 385.133 122.183C385.395 121.897 385.525 121.521 385.525 121.056V117.725H387.056Z" fill="#3A3A3A"/>
<path d="M395.764 117.578C396.442 117.578 396.948 117.782 397.283 118.191C397.617 118.591 397.785 119.207 397.785 120.04V123.713H396.254V120.101C396.254 119.644 396.176 119.313 396.021 119.109C395.866 118.897 395.617 118.791 395.274 118.791C394.866 118.791 394.548 118.929 394.319 119.207C394.091 119.485 393.976 119.872 393.976 120.37V123.713H392.445V120.101C392.445 119.644 392.368 119.313 392.213 119.109C392.066 118.897 391.817 118.791 391.466 118.791C391.066 118.791 390.751 118.929 390.523 119.207C390.294 119.485 390.18 119.872 390.18 120.37V123.713H388.649V117.725H390.143V118.57C390.323 118.244 390.572 117.999 390.89 117.835C391.209 117.664 391.572 117.578 391.98 117.578C392.886 117.578 393.486 117.954 393.78 118.705C393.968 118.354 394.237 118.08 394.589 117.884C394.94 117.68 395.331 117.578 395.764 117.578Z" fill="#3A3A3A"/>
<path d="M359.655 137.074V128.44H365.313V129.702H361.21V132.053H365.068V133.314H361.21V137.074H359.655Z" fill="#3A3A3A"/>
<path d="M369.068 137.172C368.456 137.172 367.917 137.045 367.451 136.792C366.994 136.539 366.639 136.176 366.386 135.702C366.133 135.229 366.006 134.678 366.006 134.049C366.006 133.42 366.133 132.873 366.386 132.408C366.639 131.935 366.994 131.571 367.451 131.318C367.917 131.065 368.456 130.939 369.068 130.939C369.68 130.939 370.215 131.065 370.672 131.318C371.138 131.571 371.493 131.935 371.738 132.408C371.991 132.873 372.117 133.42 372.117 134.049C372.117 134.678 371.991 135.229 371.738 135.702C371.493 136.176 371.138 136.539 370.672 136.792C370.215 137.045 369.68 137.172 369.068 137.172ZM369.056 135.984C369.554 135.984 369.933 135.821 370.195 135.494C370.456 135.168 370.586 134.686 370.586 134.049C370.586 133.42 370.456 132.943 370.195 132.616C369.933 132.282 369.558 132.114 369.068 132.114C368.578 132.114 368.198 132.282 367.929 132.616C367.668 132.943 367.537 133.42 367.537 134.049C367.537 134.686 367.668 135.168 367.929 135.494C368.19 135.821 368.566 135.984 369.056 135.984Z" fill="#3A3A3A"/>
<path d="M377.324 132.212L376.43 132.298C375.418 132.404 374.912 132.918 374.912 133.841V137.074H373.381V131.086H374.838V132.139C375.148 131.42 375.789 131.028 376.761 130.963L377.226 130.926L377.324 132.212Z" fill="#3A3A3A"/>
<path d="M384.069 137.074H382.171L379.6 134.343V137.074H378.069V128.44H379.6V133.706L382.012 131.098H383.873L381.179 133.963L384.069 137.074Z" fill="#3A3A3A"/>
<path d="M266.339 216.7C266.339 244.608 243.716 267.197 215.842 267.197C187.934 267.197 165.345 244.575 165.345 216.7C165.345 188.826 187.967 166.203 215.842 166.203C243.75 166.203 266.339 188.826 266.339 216.7Z" fill="white"/>
<path d="M265.635 225.004C270.215 197.494 251.626 171.481 224.117 166.902C196.607 162.322 170.594 180.911 166.015 208.421C161.435 235.93 180.024 261.943 207.533 266.523C235.043 271.102 261.056 252.513 265.635 225.004Z" stroke="#939598" stroke-width="1.013" stroke-miterlimit="10"/>
<path d="M265.635 225.004C270.215 197.494 251.626 171.481 224.117 166.902C196.607 162.322 170.594 180.911 166.015 208.421C161.435 235.93 180.024 261.943 207.533 266.523C235.043 271.102 261.056 252.513 265.635 225.004Z" stroke="#323233" stroke-width="0.675331" stroke-miterlimit="10"/>
<path d="M216.01 216.566V226.025L227.322 208.856L216.01 216.566Z" fill="#323233"/>
<path d="M216.01 216.566V226.025L204.699 208.856L216.01 216.566Z" fill="#4E4E4F"/>
<path d="M216.01 187.816L204.699 206.635L216.01 201.517V187.816Z" fill="#4E4E4F"/>
<path d="M216.01 201.517L204.699 206.634L216.01 214.276V201.517Z" fill="#727272"/>
<path d="M216.01 187.816L227.322 206.635L216.01 201.517V187.816Z" fill="#323233"/>
<path d="M216.01 201.517L227.322 206.634L216.01 214.276V201.517Z" fill="#4E4E4F"/>
<path d="M188.388 241.26V232.241H194.427V233.546H190V236.028H194.171V237.32H190V239.955H194.427V241.26H188.388Z" fill="#3A3A3A"/>
<path d="M198.979 240.16C199.167 240.16 199.363 240.147 199.568 240.122L199.491 241.311C199.235 241.337 199 241.35 198.787 241.35C197.909 241.35 197.261 241.149 196.843 240.749C196.425 240.339 196.216 239.734 196.216 238.932V236.207H195.013V235.005H196.216V233.137H197.815V235.005H199.465V236.207H197.815V238.906C197.815 239.742 198.203 240.16 198.979 240.16Z" fill="#3A3A3A"/>
<path d="M204.136 234.851C204.887 234.851 205.445 235.064 205.812 235.491C206.179 235.917 206.362 236.561 206.362 237.422V241.26H204.763V237.512C204.763 237.026 204.669 236.672 204.482 236.45C204.303 236.228 204.017 236.118 203.625 236.118C203.164 236.118 202.793 236.263 202.512 236.553C202.239 236.843 202.102 237.231 202.102 237.717V241.26H200.503V232.241H202.102V235.875C202.315 235.542 202.597 235.29 202.947 235.12C203.305 234.941 203.701 234.851 204.136 234.851Z" fill="#3A3A3A"/>
<path d="M213.474 238.42H209.214C209.266 239 209.44 239.431 209.739 239.712C210.037 239.994 210.464 240.135 211.018 240.135C211.709 240.135 212.34 239.913 212.912 239.469L213.372 240.569C213.082 240.808 212.715 241 212.272 241.145C211.837 241.29 211.398 241.363 210.954 241.363C209.931 241.363 209.121 241.073 208.524 240.493C207.935 239.913 207.641 239.12 207.641 238.113C207.641 237.474 207.769 236.906 208.025 236.412C208.281 235.917 208.639 235.533 209.099 235.261C209.568 234.988 210.097 234.851 210.686 234.851C211.547 234.851 212.225 235.128 212.72 235.683C213.223 236.237 213.474 237 213.474 237.973V238.42ZM210.724 235.977C210.298 235.977 209.952 236.113 209.688 236.386C209.432 236.659 209.274 237.051 209.214 237.563H212.106C212.089 237.043 211.961 236.651 211.722 236.386C211.483 236.113 211.15 235.977 210.724 235.977Z" fill="#3A3A3A"/>
<path d="M218.902 236.182L217.968 236.271C216.91 236.382 216.382 236.919 216.382 237.883V241.26H214.782V235.005H216.305V236.105C216.629 235.354 217.298 234.945 218.313 234.877L218.799 234.838L218.902 236.182Z" fill="#3A3A3A"/>
<path d="M225.043 238.42H220.783C220.834 239 221.009 239.431 221.307 239.712C221.606 239.994 222.032 240.135 222.587 240.135C223.277 240.135 223.908 239.913 224.48 239.469L224.94 240.569C224.65 240.808 224.284 241 223.84 241.145C223.405 241.29 222.966 241.363 222.523 241.363C221.499 241.363 220.689 241.073 220.092 240.493C219.504 239.913 219.209 239.12 219.209 238.113C219.209 237.474 219.337 236.906 219.593 236.412C219.849 235.917 220.207 235.533 220.668 235.261C221.137 234.988 221.665 234.851 222.254 234.851C223.115 234.851 223.793 235.128 224.288 235.683C224.791 236.237 225.043 237 225.043 237.973V238.42ZM222.292 235.977C221.866 235.977 221.52 236.113 221.256 236.386C221 236.659 220.842 237.051 220.783 237.563H223.674C223.657 237.043 223.529 236.651 223.29 236.386C223.051 236.113 222.719 235.977 222.292 235.977Z" fill="#3A3A3A"/>
<path d="M232.095 235.005V241.26H230.534V240.301C230.338 240.642 230.073 240.906 229.741 241.094C229.408 241.273 229.033 241.363 228.615 241.363C227.08 241.363 226.312 240.501 226.312 238.778V235.005H227.911V238.791C227.911 239.235 228.001 239.563 228.18 239.776C228.359 239.99 228.641 240.096 229.024 240.096C229.468 240.096 229.822 239.951 230.086 239.661C230.359 239.363 230.496 238.97 230.496 238.484V235.005H232.095Z" fill="#3A3A3A"/>
<path d="M241.191 234.851C241.899 234.851 242.428 235.064 242.778 235.491C243.127 235.909 243.302 236.553 243.302 237.422V241.26H241.703V237.486C241.703 237.009 241.622 236.663 241.46 236.45C241.298 236.228 241.038 236.118 240.68 236.118C240.253 236.118 239.921 236.263 239.682 236.553C239.443 236.843 239.324 237.248 239.324 237.768V241.26H237.725V237.486C237.725 237.009 237.644 236.663 237.482 236.45C237.328 236.228 237.068 236.118 236.701 236.118C236.283 236.118 235.955 236.263 235.716 236.553C235.477 236.843 235.358 237.248 235.358 237.768V241.26H233.759V235.005H235.32V235.887C235.507 235.546 235.767 235.29 236.1 235.12C236.433 234.941 236.812 234.851 237.239 234.851C238.185 234.851 238.812 235.243 239.119 236.028C239.315 235.661 239.597 235.376 239.963 235.171C240.33 234.958 240.739 234.851 241.191 234.851Z" fill="#3A3A3A"/>
<path d="M255.162 39.6909C255.162 61.3374 237.623 78.8767 215.976 78.8767C194.33 78.8767 176.791 61.3374 176.791 39.6909C176.791 18.0445 194.33 0.505127 215.976 0.505127C237.623 0.505127 255.162 18.0445 255.162 39.6909Z" fill="white"/>
<path d="M243.673 67.3914C258.976 52.0885 258.976 27.2777 243.673 11.9748C228.371 -3.32801 203.56 -3.32802 188.257 11.9748C172.954 27.2777 172.954 52.0885 188.257 67.3914C203.56 82.6942 228.371 82.6942 243.673 67.3914Z" stroke="#939598" stroke-width="1.013" stroke-miterlimit="10"/>
<path d="M243.673 67.3914C258.976 52.0885 258.976 27.2777 243.673 11.9748C228.371 -3.32801 203.56 -3.32802 188.257 11.9748C172.954 27.2777 172.954 52.0885 188.257 67.3914C203.56 82.6942 228.371 82.6942 243.673 67.3914Z" stroke="#323233" stroke-width="0.675331" stroke-miterlimit="10"/>
<path d="M199.396 60.5865C199.592 60.6436 199.763 60.7375 199.91 60.8681C200.057 60.9906 200.2 61.1661 200.339 61.3947L201.221 62.8275L199.898 63.4643L198.71 61.5417C198.482 61.1661 198.094 60.9783 197.547 60.9783C196.706 60.9783 195.975 60.7987 195.355 60.4395C194.743 60.0803 194.269 59.566 193.934 58.8965C193.6 58.2271 193.432 57.4433 193.432 56.5453C193.432 55.6473 193.6 54.8676 193.934 54.2063C194.269 53.5369 194.743 53.0225 195.355 52.6633C195.975 52.3041 196.706 52.1245 197.547 52.1245C198.38 52.1245 199.102 52.3041 199.714 52.6633C200.335 53.0225 200.812 53.5369 201.147 54.2063C201.482 54.8676 201.649 55.6473 201.649 56.5453C201.649 57.525 201.453 58.3659 201.061 59.068C200.678 59.7619 200.123 60.2681 199.396 60.5865ZM197.547 59.717C198.339 59.717 198.955 59.4435 199.396 58.8965C199.845 58.3495 200.07 57.5658 200.07 56.5453C200.07 55.5248 199.845 54.7451 199.396 54.2063C198.955 53.6593 198.339 53.3858 197.547 53.3858C196.747 53.3858 196.122 53.6593 195.673 54.2063C195.232 54.7451 195.012 55.5248 195.012 56.5453C195.012 57.5658 195.232 58.3495 195.673 58.8965C196.122 59.4435 196.747 59.717 197.547 59.717Z" fill="#3A3A3A"/>
<path d="M208.609 54.8799V60.8681H207.115V59.9497C206.927 60.2762 206.674 60.5293 206.355 60.7089C206.037 60.8804 205.678 60.9661 205.278 60.9661C203.808 60.9661 203.073 60.1415 203.073 58.4924V54.8799H204.604V58.5047C204.604 58.9292 204.69 59.2435 204.861 59.4476C205.033 59.6517 205.302 59.7537 205.67 59.7537C206.094 59.7537 206.433 59.615 206.686 59.3374C206.947 59.0516 207.078 58.6761 207.078 58.2108V54.8799H208.609Z" fill="#3A3A3A"/>
<path d="M212.933 60.9661C212.32 60.9661 211.782 60.8396 211.316 60.5865C210.859 60.3334 210.504 59.9701 210.251 59.4966C209.998 59.0231 209.871 58.472 209.871 57.8434C209.871 57.2147 209.998 56.6678 210.251 56.2024C210.504 55.7289 210.859 55.3656 211.316 55.1125C211.782 54.8594 212.32 54.7329 212.933 54.7329C213.545 54.7329 214.08 54.8594 214.537 55.1125C215.002 55.3656 215.357 55.7289 215.602 56.2024C215.855 56.6678 215.982 57.2147 215.982 57.8434C215.982 58.472 215.855 59.0231 215.602 59.4966C215.357 59.9701 215.002 60.3334 214.537 60.5865C214.08 60.8396 213.545 60.9661 212.933 60.9661ZM212.92 59.7782C213.418 59.7782 213.798 59.615 214.059 59.2884C214.321 58.9618 214.451 58.4802 214.451 57.8434C214.451 57.2147 214.321 56.7372 214.059 56.4106C213.798 56.0759 213.422 55.9085 212.933 55.9085C212.443 55.9085 212.063 56.0759 211.794 56.4106C211.533 56.7372 211.402 57.2147 211.402 57.8434C211.402 58.4802 211.533 58.9618 211.794 59.2884C212.055 59.615 212.431 59.7782 212.92 59.7782Z" fill="#3A3A3A"/>
<path d="M221.189 56.0065L220.295 56.0922C219.283 56.1983 218.776 56.7127 218.776 57.6352V60.8681H217.246V54.8799H218.703V55.933C219.013 55.2146 219.654 54.8227 220.625 54.7574L221.091 54.7207L221.189 56.0065Z" fill="#3A3A3A"/>
<path d="M227.432 54.8799V60.8681H225.938V59.9497C225.75 60.2762 225.497 60.5293 225.179 60.7089C224.86 60.8804 224.501 60.9661 224.101 60.9661C222.632 60.9661 221.897 60.1415 221.897 58.4924V54.8799H223.428V58.5047C223.428 58.9292 223.513 59.2435 223.685 59.4476C223.856 59.6517 224.126 59.7537 224.493 59.7537C224.917 59.7537 225.256 59.615 225.509 59.3374C225.771 59.0516 225.901 58.6761 225.901 58.2108V54.8799H227.432Z" fill="#3A3A3A"/>
<path d="M236.14 54.7329C236.818 54.7329 237.324 54.937 237.659 55.3452C237.993 55.7452 238.161 56.3616 238.161 57.1943V60.8681H236.63V57.2556C236.63 56.7984 236.552 56.4677 236.397 56.2636C236.242 56.0514 235.993 55.9453 235.65 55.9453C235.242 55.9453 234.924 56.084 234.695 56.3616C234.466 56.6392 234.352 57.027 234.352 57.525V60.8681H232.821V57.2556C232.821 56.7984 232.744 56.4677 232.589 56.2636C232.442 56.0514 232.193 55.9453 231.842 55.9453C231.442 55.9453 231.127 56.084 230.899 56.3616C230.67 56.6392 230.556 57.027 230.556 57.525V60.8681H229.025V54.8799H230.519V55.7248C230.699 55.3983 230.948 55.1533 231.266 54.9901C231.585 54.8186 231.948 54.7329 232.356 54.7329C233.262 54.7329 233.862 55.1084 234.156 55.8595C234.344 55.5085 234.613 55.235 234.964 55.0391C235.316 54.835 235.707 54.7329 236.14 54.7329Z" fill="#3A3A3A"/>
<path d="M212.509 31.443V34.4055H201.198V20.7712H217.862V43.5959H227.793V35.954H219.309V32.8569H230.789V46.4911H214.765L214.832 23.9021L204.261 23.8347L204.329 31.443H212.509Z" fill="#323233"/>
<path d="M141.746 352.066C141.746 356.106 138.447 359.405 134.407 359.405C130.367 359.405 127.068 356.106 127.068 352.066C127.068 348.026 130.367 344.727 134.407 344.727C138.48 344.727 141.746 348.026 141.746 352.066Z" fill="white"/>
<path d="M263.781 189.331L265.262 188.489" stroke="#666668" stroke-width="0.506498" stroke-miterlimit="10" stroke-linecap="round"/>
<path d="M268.494 186.638L286.403 176.471" stroke="#666668" stroke-width="0.506498" stroke-miterlimit="10" stroke-linecap="round" stroke-dasharray="3.75 3.75"/>
<path d="M288.019 175.528L289.5 174.72" stroke="#666668" stroke-width="0.506498" stroke-miterlimit="10" stroke-linecap="round"/>
<path d="M333.265 149.741L331.783 150.549" stroke="#666668" stroke-width="0.506498" stroke-miterlimit="10" stroke-linecap="round"/>
<path d="M328.653 152.333L311.416 162.096" stroke="#666668" stroke-width="0.506498" stroke-miterlimit="10" stroke-linecap="round" stroke-dasharray="3.61 3.61"/>
<path d="M309.834 162.971L308.353 163.813" stroke="#666668" stroke-width="0.506498" stroke-miterlimit="10" stroke-linecap="round"/>
<path d="M370.498 204.581C370.531 204.581 370.531 204.581 370.565 204.581V202.898" stroke="#666668" stroke-width="0.506498" stroke-miterlimit="10" stroke-linecap="round"/>
<path d="M370.565 199.195V171.354" stroke="#666668" stroke-width="0.506498" stroke-miterlimit="10" stroke-linecap="round" stroke-dasharray="3.73 3.73"/>
<path d="M370.565 169.502V167.819" stroke="#666668" stroke-width="0.506498" stroke-miterlimit="10" stroke-linecap="round"/>
<path d="M370.498 267.669C370.498 267.669 370.498 266.995 370.531 265.985" stroke="#666668" stroke-width="0.506498" stroke-miterlimit="10" stroke-linecap="round"/>
<path d="M370.532 263.595C370.532 262.417 370.532 261.104 370.565 260.027" stroke="#666668" stroke-width="0.506498" stroke-miterlimit="10" stroke-linecap="round" stroke-dasharray="2.39 2.39"/>
<path d="M370.565 258.848C370.565 257.838 370.565 257.165 370.599 257.165V255.482" stroke="#666668" stroke-width="0.506498" stroke-miterlimit="10" stroke-linecap="round"/>
<path d="M370.599 251.88L370.565 232.152" stroke="#666668" stroke-width="0.506498" stroke-miterlimit="10" stroke-linecap="round" stroke-dasharray="3.6 3.6"/>
<path d="M370.565 230.368V228.685C370.531 228.685 370.531 228.685 370.498 228.685" stroke="#666668" stroke-width="0.506498" stroke-miterlimit="10" stroke-linecap="round"/>
<path d="M308.353 270.598L309.834 271.439" stroke="#666668" stroke-width="0.506498" stroke-miterlimit="10" stroke-linecap="round"/>
<path d="M313.066 273.324L330.841 283.626" stroke="#666668" stroke-width="0.506498" stroke-miterlimit="10" stroke-linecap="round" stroke-dasharray="3.75 3.75"/>
<path d="M332.457 284.568L333.938 285.41" stroke="#666668" stroke-width="0.506498" stroke-miterlimit="10" stroke-linecap="round"/>
<path d="M263.578 244.44L265.026 245.315" stroke="#666668" stroke-width="0.506498" stroke-miterlimit="10" stroke-linecap="round"/>
<path d="M268.191 247.133L285.494 257.266" stroke="#666668" stroke-width="0.506498" stroke-miterlimit="10" stroke-linecap="round" stroke-dasharray="3.66 3.66"/>
<path d="M287.077 258.175L288.524 259.051" stroke="#666668" stroke-width="0.506498" stroke-miterlimit="10" stroke-linecap="round"/>
<path d="M216.078 82.6472V84.3305" stroke="#666668" stroke-width="0.506498" stroke-miterlimit="10" stroke-linecap="round"/>
<path d="M216.078 87.6968V106.212" stroke="#666668" stroke-width="0.506498" stroke-miterlimit="10" stroke-linecap="round" stroke-dasharray="3.38 3.38"/>
<path d="M216.078 107.896V109.579" stroke="#666668" stroke-width="0.506498" stroke-miterlimit="10" stroke-linecap="round"/>
<path d="M216.078 132.134V133.818" stroke="#666668" stroke-width="0.506498" stroke-miterlimit="10" stroke-linecap="round"/>
<path d="M216.078 137.521V157.955" stroke="#666668" stroke-width="0.506498" stroke-miterlimit="10" stroke-linecap="round" stroke-dasharray="3.73 3.73"/>
<path d="M216.078 159.807V161.49" stroke="#666668" stroke-width="0.506498" stroke-miterlimit="10" stroke-linecap="round"/>
<path d="M216.28 300.626V298.943" stroke="#666668" stroke-width="0.506498" stroke-miterlimit="10" stroke-linecap="round"/>
<path d="M216.246 295.307L216.078 275.412" stroke="#666668" stroke-width="0.506498" stroke-miterlimit="10" stroke-linecap="round" stroke-dasharray="3.63 3.63"/>
<path d="M216.044 273.627V271.944" stroke="#666668" stroke-width="0.506498" stroke-miterlimit="10" stroke-linecap="round"/>
<path d="M216.28 346.141V344.458" stroke="#666668" stroke-width="0.506498" stroke-miterlimit="10" stroke-linecap="round"/>
<path d="M216.28 341.596V325.875" stroke="#666668" stroke-width="0.506498" stroke-miterlimit="10" stroke-linecap="round" stroke-dasharray="2.87 2.87"/>
<path d="M216.28 324.461V322.778" stroke="#666668" stroke-width="0.506498" stroke-miterlimit="10" stroke-linecap="round"/>
<path d="M144.944 357.924L146.425 358.732" stroke="#666668" stroke-width="0.506498" stroke-miterlimit="10" stroke-linecap="round"/>
<path d="M149.455 360.449L172.246 373.174" stroke="#666668" stroke-width="0.506498" stroke-miterlimit="10" stroke-linecap="round" stroke-dasharray="3.49 3.49"/>
<path d="M173.795 374.016L175.242 374.857" stroke="#666668" stroke-width="0.506498" stroke-miterlimit="10" stroke-linecap="round"/>
<path d="M99.7994 332.642L101.281 333.45" stroke="#666668" stroke-width="0.506498" stroke-miterlimit="10" stroke-linecap="round"/>
<path d="M104.31 335.133L120.941 344.458" stroke="#666668" stroke-width="0.506498" stroke-miterlimit="10" stroke-linecap="round" stroke-dasharray="3.48 3.48"/>
<path d="M122.456 345.333L123.937 346.141" stroke="#666668" stroke-width="0.506498" stroke-miterlimit="10" stroke-linecap="round"/>
<path d="M123.836 270.598L122.389 271.439" stroke="#666668" stroke-width="0.506498" stroke-miterlimit="10" stroke-linecap="round"/>
<path d="M119.325 273.257L102.594 283.188" stroke="#666668" stroke-width="0.506498" stroke-miterlimit="10" stroke-linecap="round" stroke-dasharray="3.55 3.55"/>
<path d="M101.079 284.097L99.6311 284.972" stroke="#666668" stroke-width="0.506498" stroke-miterlimit="10" stroke-linecap="round"/>
<path d="M168.24 244.642L166.759 245.484" stroke="#666668" stroke-width="0.506498" stroke-miterlimit="10" stroke-linecap="round"/>
<path d="M163.628 247.302L146.257 257.3" stroke="#666668" stroke-width="0.506498" stroke-miterlimit="10" stroke-linecap="round" stroke-dasharray="3.65 3.65"/>
<path d="M144.675 258.209L143.227 259.051" stroke="#666668" stroke-width="0.506498" stroke-miterlimit="10" stroke-linecap="round"/>
<path d="M306.434 347.522L307.915 346.714" stroke="#666668" stroke-width="0.506498" stroke-miterlimit="10" stroke-linecap="round"/>
<path d="M311.147 344.896L328.922 334.931" stroke="#666668" stroke-width="0.506498" stroke-miterlimit="10" stroke-linecap="round" stroke-dasharray="3.72 3.72"/>
<path d="M330.538 334.022L332.019 333.214" stroke="#666668" stroke-width="0.506498" stroke-miterlimit="10" stroke-linecap="round"/>
<path d="M258.024 374.857L259.471 374.016" stroke="#666668" stroke-width="0.506498" stroke-miterlimit="10" stroke-linecap="round"/>
<path d="M262.198 372.467L282.633 360.954" stroke="#666668" stroke-width="0.506498" stroke-miterlimit="10" stroke-linecap="round" stroke-dasharray="3.14 3.14"/>
<path d="M284.013 360.179L285.461 359.338" stroke="#666668" stroke-width="0.506498" stroke-miterlimit="10" stroke-linecap="round"/>
<path d="M141.914 174.215L143.395 175.057" stroke="#666668" stroke-width="0.506498" stroke-miterlimit="10" stroke-linecap="round"/>
<path d="M146.694 176.942L164.873 187.412" stroke="#666668" stroke-width="0.506498" stroke-miterlimit="10" stroke-linecap="round" stroke-dasharray="3.83 3.83"/>
<path d="M166.523 188.354L167.971 189.196" stroke="#666668" stroke-width="0.506498" stroke-miterlimit="10" stroke-linecap="round"/>
<path d="M97.7122 148.731L99.1598 149.573" stroke="#666668" stroke-width="0.506498" stroke-miterlimit="10" stroke-linecap="round"/>
<path d="M101.752 151.088L121.076 162.332" stroke="#666668" stroke-width="0.506498" stroke-miterlimit="10" stroke-linecap="round" stroke-dasharray="2.99 2.99"/>
<path d="M122.389 163.072L123.836 163.914" stroke="#666668" stroke-width="0.506498" stroke-miterlimit="10" stroke-linecap="round"/>
<path d="M61.2196 229.021V230.705" stroke="#666668" stroke-width="0.506498" stroke-miterlimit="10" stroke-linecap="round"/>
<path d="M61.2196 233.802V263.09" stroke="#666668" stroke-width="0.506498" stroke-miterlimit="10" stroke-linecap="round" stroke-dasharray="3.09 3.09"/>
<path d="M61.2196 264.605V266.288" stroke="#666668" stroke-width="0.506498" stroke-miterlimit="10" stroke-linecap="round"/>
<path d="M61.2196 167.011V168.694" stroke="#666668" stroke-width="0.506498" stroke-miterlimit="10" stroke-linecap="round"/>
<path d="M61.2196 171.926V202.662" stroke="#666668" stroke-width="0.506498" stroke-miterlimit="10" stroke-linecap="round" stroke-dasharray="3.24 3.24"/>
<path d="M61.2196 204.278V205.961" stroke="#666668" stroke-width="0.506498" stroke-miterlimit="10" stroke-linecap="round"/>
<path d="M38.3108 319.359H42.0825C43.0051 319.359 43.7235 319.592 44.2378 320.057C44.7522 320.514 45.0093 321.159 45.0093 321.992C45.0093 322.825 44.7522 323.474 44.2378 323.939C43.7235 324.404 43.0051 324.637 42.0825 324.637H39.8905V327.993H38.3108V319.359ZM41.8866 323.425C42.9724 323.425 43.5153 322.951 43.5153 322.004C43.5153 321.523 43.3806 321.167 43.1112 320.939C42.8418 320.702 42.4336 320.584 41.8866 320.584H39.8905V323.425H41.8866Z" fill="#3A3A3A"/>
<path d="M48.7759 328.091C48.1636 328.091 47.6248 327.964 47.1595 327.711C46.7023 327.458 46.3471 327.095 46.0941 326.621C45.841 326.147 45.7144 325.596 45.7144 324.968C45.7144 324.339 45.841 323.792 46.0941 323.327C46.3471 322.853 46.7023 322.49 47.1595 322.237C47.6248 321.984 48.1636 321.857 48.7759 321.857C49.3882 321.857 49.923 321.984 50.3801 322.237C50.8455 322.49 51.2006 322.853 51.4455 323.327C51.6986 323.792 51.8252 324.339 51.8252 324.968C51.8252 325.596 51.6986 326.147 51.4455 326.621C51.2006 327.095 50.8455 327.458 50.3801 327.711C49.923 327.964 49.3882 328.091 48.7759 328.091ZM48.7637 326.903C49.2617 326.903 49.6413 326.739 49.9025 326.413C50.1638 326.086 50.2944 325.605 50.2944 324.968C50.2944 324.339 50.1638 323.862 49.9025 323.535C49.6413 323.2 49.2658 323.033 48.7759 323.033C48.2861 323.033 47.9065 323.2 47.637 323.535C47.3758 323.862 47.2452 324.339 47.2452 324.968C47.2452 325.605 47.3758 326.086 47.637 326.413C47.8983 326.739 48.2738 326.903 48.7637 326.903Z" fill="#3A3A3A"/>
<path d="M53.0889 327.993V319.359H54.6196V327.993H53.0889Z" fill="#3A3A3A"/>
<path d="M62.1987 327.993H60.3006L57.729 325.262V327.993H56.1982V319.359H57.729V324.625L60.1414 322.017H62.0028L59.3087 324.882L62.1987 327.993Z" fill="#3A3A3A"/>
<path d="M65.3114 321.857C66.1523 321.857 66.7768 322.061 67.185 322.47C67.5932 322.878 67.7973 323.506 67.7973 324.355V327.993H66.3401V327.074C66.2013 327.392 65.9809 327.641 65.6788 327.821C65.3849 328.001 65.042 328.091 64.6501 328.091C64.2501 328.091 63.8868 328.009 63.5602 327.846C63.2337 327.682 62.9765 327.458 62.7887 327.172C62.601 326.886 62.5071 326.568 62.5071 326.217C62.5071 325.776 62.6173 325.429 62.8377 325.176C63.0663 324.923 63.4337 324.739 63.9399 324.625C64.446 324.511 65.1441 324.453 66.0339 324.453H66.3401V324.172C66.3401 323.764 66.2503 323.47 66.0707 323.29C65.8992 323.11 65.6094 323.021 65.2012 323.021C64.8828 323.021 64.5481 323.078 64.197 323.192C63.8541 323.298 63.5153 323.449 63.1806 323.645L62.752 322.592C63.0867 322.38 63.4908 322.204 63.9644 322.065C64.4379 321.927 64.8869 321.857 65.3114 321.857ZM64.9563 326.988C65.3645 326.988 65.6951 326.854 65.9482 326.584C66.2094 326.307 66.3401 325.952 66.3401 325.519V325.262H66.1196C65.5727 325.262 65.1481 325.286 64.8461 325.335C64.544 325.384 64.3277 325.47 64.197 325.592C64.0664 325.715 64.0011 325.882 64.0011 326.094C64.0011 326.356 64.0909 326.572 64.2705 326.743C64.4501 326.907 64.6787 326.988 64.9563 326.988Z" fill="#3A3A3A"/>
<path d="M75.1331 319.359V327.993H73.6147V327.025C73.435 327.36 73.1738 327.621 72.8309 327.809C72.4962 327.997 72.1125 328.091 71.6798 328.091C71.1655 328.091 70.7042 327.96 70.296 327.699C69.896 327.437 69.5816 327.07 69.3531 326.597C69.1326 326.115 69.0224 325.564 69.0224 324.943C69.0224 324.323 69.1326 323.78 69.3531 323.315C69.5816 322.849 69.896 322.49 70.296 322.237C70.696 321.984 71.1573 321.857 71.6798 321.857C72.1125 321.857 72.4962 321.947 72.8309 322.127C73.1656 322.306 73.4228 322.559 73.6024 322.886V319.359H75.1331ZM72.0839 326.903C72.5737 326.903 72.9493 326.735 73.2105 326.401C73.4799 326.066 73.6147 325.588 73.6147 324.968C73.6147 324.347 73.4799 323.874 73.2105 323.547C72.9493 323.213 72.5778 323.045 72.0962 323.045C71.6063 323.045 71.2267 323.208 70.9573 323.535C70.6879 323.862 70.5532 324.331 70.5532 324.943C70.5532 325.564 70.6879 326.045 70.9573 326.388C71.2267 326.731 71.6022 326.903 72.0839 326.903Z" fill="#3A3A3A"/>
<path d="M79.4387 328.091C78.8264 328.091 78.2875 327.964 77.8222 327.711C77.365 327.458 77.0099 327.095 76.7568 326.621C76.5037 326.147 76.3772 325.596 76.3772 324.968C76.3772 324.339 76.5037 323.792 76.7568 323.327C77.0099 322.853 77.365 322.49 77.8222 322.237C78.2875 321.984 78.8264 321.857 79.4387 321.857C80.051 321.857 80.5857 321.984 81.0429 322.237C81.5082 322.49 81.8634 322.853 82.1083 323.327C82.3614 323.792 82.4879 324.339 82.4879 324.968C82.4879 325.596 82.3614 326.147 82.1083 326.621C81.8634 327.095 81.5082 327.458 81.0429 327.711C80.5857 327.964 80.051 328.091 79.4387 328.091ZM79.4264 326.903C79.9244 326.903 80.304 326.739 80.5653 326.413C80.8265 326.086 80.9572 325.605 80.9572 324.968C80.9572 324.339 80.8265 323.862 80.5653 323.535C80.304 323.2 79.9285 323.033 79.4387 323.033C78.9488 323.033 78.5692 323.2 78.2998 323.535C78.0385 323.862 77.9079 324.339 77.9079 324.968C77.9079 325.605 78.0385 326.086 78.2998 326.413C78.561 326.739 78.9366 326.903 79.4264 326.903Z" fill="#3A3A3A"/>
<path d="M86.7772 326.939C86.9568 326.939 87.1446 326.927 87.3406 326.903L87.2671 328.042C87.0222 328.066 86.7976 328.078 86.5935 328.078C85.7527 328.078 85.1322 327.886 84.7322 327.503C84.3321 327.111 84.1321 326.531 84.1321 325.764V323.155H82.981V322.004H84.1321V320.216H85.6629V322.004H87.2426V323.155H85.6629V325.739C85.6629 326.539 86.0343 326.939 86.7772 326.939Z" fill="#3A3A3A"/>
<path d="M64.3841 310.558C64.3841 311.601 63.5425 312.443 62.4989 312.443C61.4553 312.443 60.6137 311.601 60.6137 310.558C60.6137 309.514 61.4553 308.672 62.4989 308.672C63.5425 308.672 64.3841 309.514 64.3841 310.558Z" fill="#323233"/>
<path d="M55.9006 313.486C55.7996 313.486 55.6986 313.486 55.564 313.453C54.7223 313.284 54.1837 312.443 54.352 311.601L58.3245 292.917C58.4928 292.076 59.3344 291.537 60.176 291.705C61.0177 291.874 61.5563 292.715 61.388 293.557L57.4155 312.241C57.2472 312.981 56.6076 313.486 55.9006 313.486Z" fill="#323233"/>
<path d="M57.2472 307.056C56.7086 307.056 56.1699 306.787 55.9006 306.282C55.463 305.542 55.7323 304.565 56.4729 304.128L57.3482 303.623C58.4591 302.983 59.7047 302.646 60.984 302.646H62.0613C64.2158 302.646 66.202 301.805 67.7506 300.256C69.2319 298.741 70.0735 296.755 70.0398 294.668C70.0398 292.513 69.1645 290.527 67.6159 289.046C66.0674 287.565 64.0475 286.757 61.8929 286.824C57.6512 286.925 54.1837 290.493 54.2174 294.769C54.2174 295.779 54.4194 296.789 54.7897 297.698C55.1263 298.506 54.7223 299.415 53.9144 299.751C53.1064 300.088 52.1975 299.684 51.8608 298.876C51.3222 297.563 51.0529 296.183 51.0529 294.769C51.0529 291.874 52.1302 289.147 54.15 287.06C56.1699 284.972 58.8631 283.794 61.7583 283.693C64.7544 283.626 67.5823 284.703 69.7368 286.79C71.8914 288.878 73.0696 291.672 73.1033 294.634C73.137 297.563 71.9924 300.324 69.9052 302.444C68.8952 303.488 67.6833 304.296 66.3367 304.868C64.9564 305.474 63.5088 305.744 61.9939 305.744H60.9167C60.2097 305.744 59.4691 305.946 58.8631 306.282L57.9878 306.787C57.7858 306.989 57.5165 307.056 57.2472 307.056Z" fill="#323233"/>
<path d="M198.986 391.143C198.137 391.143 197.394 390.964 196.757 390.604C196.128 390.237 195.643 389.719 195.3 389.049C194.965 388.38 194.798 387.6 194.798 386.71C194.798 385.82 194.965 385.045 195.3 384.383C195.643 383.714 196.128 383.2 196.757 382.84C197.394 382.473 198.137 382.289 198.986 382.289C199.565 382.289 200.112 382.379 200.627 382.559C201.141 382.738 201.574 382.991 201.925 383.318L201.398 384.469C201.006 384.159 200.619 383.934 200.235 383.796C199.851 383.649 199.443 383.575 199.01 383.575C198.178 383.575 197.533 383.845 197.075 384.383C196.626 384.922 196.402 385.698 196.402 386.71C196.402 387.731 196.626 388.51 197.075 389.049C197.533 389.588 198.178 389.857 199.01 389.857C199.443 389.857 199.851 389.788 200.235 389.649C200.619 389.502 201.006 389.274 201.398 388.963L201.925 390.114C201.574 390.441 201.141 390.694 200.627 390.874C200.112 391.053 199.565 391.143 198.986 391.143Z" fill="#3A3A3A"/>
<path d="M208.611 385.045V391.033H207.117V390.114C206.929 390.441 206.676 390.694 206.357 390.874C206.039 391.045 205.68 391.131 205.28 391.131C203.81 391.131 203.076 390.306 203.076 388.657V385.045H204.606V388.669C204.606 389.094 204.692 389.408 204.863 389.612C205.035 389.816 205.304 389.919 205.672 389.919C206.096 389.919 206.435 389.78 206.688 389.502C206.949 389.216 207.08 388.841 207.08 388.376V385.045H208.611Z" fill="#3A3A3A"/>
<path d="M212.408 391.131C211.878 391.131 211.388 391.066 210.939 390.935C210.498 390.804 210.122 390.617 209.812 390.372L210.241 389.306C210.877 389.772 211.608 390.004 212.433 390.004C212.784 390.004 213.049 389.947 213.229 389.833C213.416 389.719 213.51 389.555 213.51 389.343C213.51 389.163 213.445 389.025 213.314 388.927C213.192 388.829 212.967 388.739 212.641 388.657L211.661 388.437C211.106 388.314 210.694 388.114 210.424 387.837C210.155 387.559 210.02 387.2 210.02 386.759C210.02 386.392 210.122 386.069 210.326 385.792C210.539 385.506 210.828 385.285 211.196 385.13C211.571 384.975 212.004 384.898 212.494 384.898C212.918 384.898 213.327 384.963 213.719 385.094C214.119 385.224 214.47 385.408 214.772 385.645L214.343 386.686C213.723 386.237 213.102 386.012 212.482 386.012C212.147 386.012 211.886 386.073 211.698 386.196C211.51 386.318 211.416 386.49 211.416 386.71C211.416 386.873 211.473 387.008 211.588 387.114C211.71 387.22 211.902 387.302 212.163 387.359L213.18 387.592C213.776 387.722 214.212 387.931 214.49 388.216C214.768 388.494 214.906 388.861 214.906 389.318C214.906 389.874 214.682 390.314 214.233 390.641C213.784 390.968 213.176 391.131 212.408 391.131Z" fill="#3A3A3A"/>
<path d="M219.149 389.98C219.329 389.98 219.517 389.968 219.713 389.943L219.639 391.082C219.394 391.106 219.17 391.119 218.966 391.119C218.125 391.119 217.504 390.927 217.104 390.543C216.704 390.151 216.504 389.572 216.504 388.804V386.196H215.353V385.045H216.504V383.257H218.035V385.045H219.615V386.196H218.035V388.78C218.035 389.58 218.406 389.98 219.149 389.98Z" fill="#3A3A3A"/>
<path d="M223.339 391.131C222.727 391.131 222.188 391.004 221.723 390.751C221.265 390.498 220.91 390.135 220.657 389.661C220.404 389.188 220.278 388.637 220.278 388.008C220.278 387.38 220.404 386.833 220.657 386.367C220.91 385.894 221.265 385.53 221.723 385.277C222.188 385.024 222.727 384.898 223.339 384.898C223.951 384.898 224.486 385.024 224.943 385.277C225.409 385.53 225.764 385.894 226.009 386.367C226.262 386.833 226.388 387.38 226.388 388.008C226.388 388.637 226.262 389.188 226.009 389.661C225.764 390.135 225.409 390.498 224.943 390.751C224.486 391.004 223.951 391.131 223.339 391.131ZM223.327 389.943C223.825 389.943 224.204 389.78 224.466 389.453C224.727 389.127 224.858 388.645 224.858 388.008C224.858 387.38 224.727 386.902 224.466 386.575C224.204 386.241 223.829 386.073 223.339 386.073C222.849 386.073 222.47 386.241 222.2 386.575C221.939 386.902 221.808 387.38 221.808 388.008C221.808 388.645 221.939 389.127 222.2 389.453C222.461 389.78 222.837 389.943 223.327 389.943Z" fill="#3A3A3A"/>
<path d="M234.767 384.898C235.445 384.898 235.951 385.102 236.285 385.51C236.62 385.91 236.788 386.526 236.788 387.359V391.033H235.257V387.42C235.257 386.963 235.179 386.633 235.024 386.428C234.869 386.216 234.62 386.11 234.277 386.11C233.869 386.11 233.55 386.249 233.322 386.526C233.093 386.804 232.979 387.192 232.979 387.69V391.033H231.448V387.42C231.448 386.963 231.371 386.633 231.216 386.428C231.069 386.216 230.82 386.11 230.469 386.11C230.069 386.11 229.754 386.249 229.526 386.526C229.297 386.804 229.183 387.192 229.183 387.69V391.033H227.652V385.045H229.146V385.89C229.326 385.563 229.575 385.318 229.893 385.155C230.211 384.983 230.575 384.898 230.983 384.898C231.889 384.898 232.489 385.273 232.783 386.024C232.971 385.673 233.24 385.4 233.591 385.204C233.942 385 234.334 384.898 234.767 384.898Z" fill="#3A3A3A"/>
<path d="M198.141 393.849H199.623V402.483H198.435L193.806 396.458V402.483H192.336V393.849H193.512L198.141 399.862V393.849Z" fill="#3A3A3A"/>
<path d="M206.604 399.764H202.526C202.575 400.319 202.742 400.732 203.028 401.001C203.314 401.271 203.722 401.405 204.252 401.405C204.914 401.405 205.518 401.193 206.065 400.768L206.506 401.822C206.228 402.05 205.877 402.234 205.453 402.373C205.036 402.511 204.616 402.581 204.191 402.581C203.212 402.581 202.436 402.303 201.864 401.748C201.301 401.193 201.019 400.434 201.019 399.47C201.019 398.858 201.142 398.315 201.387 397.842C201.632 397.368 201.975 397.001 202.416 396.74C202.865 396.478 203.371 396.348 203.934 396.348C204.759 396.348 205.408 396.613 205.881 397.144C206.363 397.674 206.604 398.405 206.604 399.336V399.764ZM203.971 397.425C203.563 397.425 203.232 397.556 202.979 397.817C202.734 398.078 202.583 398.454 202.526 398.944H205.293C205.277 398.446 205.155 398.07 204.926 397.817C204.697 397.556 204.379 397.425 203.971 397.425Z" fill="#3A3A3A"/>
<path d="M210.834 401.43C211.013 401.43 211.201 401.418 211.397 401.393L211.323 402.532C211.078 402.556 210.854 402.569 210.65 402.569C209.809 402.569 209.189 402.377 208.788 401.993C208.388 401.601 208.188 401.022 208.188 400.254V397.646H207.037V396.495H208.188V394.707H209.719V396.495H211.299V397.646H209.719V400.23C209.719 401.03 210.091 401.43 210.834 401.43Z" fill="#3A3A3A"/>
<path d="M220.471 396.495H221.965L219.613 402.483H218.279L216.809 398.625L215.376 402.483H214.054L211.69 396.495H213.258L214.788 400.658L216.319 396.495H217.421L218.952 400.683L220.471 396.495Z" fill="#3A3A3A"/>
<path d="M225.511 402.581C224.899 402.581 224.36 402.454 223.895 402.201C223.438 401.948 223.083 401.585 222.83 401.111C222.576 400.638 222.45 400.087 222.45 399.458C222.45 398.83 222.576 398.283 222.83 397.817C223.083 397.344 223.438 396.98 223.895 396.727C224.36 396.474 224.899 396.348 225.511 396.348C226.124 396.348 226.658 396.474 227.116 396.727C227.581 396.98 227.936 397.344 228.181 397.817C228.434 398.283 228.561 398.83 228.561 399.458C228.561 400.087 228.434 400.638 228.181 401.111C227.936 401.585 227.581 401.948 227.116 402.201C226.658 402.454 226.124 402.581 225.511 402.581ZM225.499 401.393C225.997 401.393 226.377 401.23 226.638 400.903C226.899 400.577 227.03 400.095 227.03 399.458C227.03 398.83 226.899 398.352 226.638 398.025C226.377 397.691 226.001 397.523 225.511 397.523C225.022 397.523 224.642 397.691 224.373 398.025C224.111 398.352 223.981 398.83 223.981 399.458C223.981 400.095 224.111 400.577 224.373 400.903C224.634 401.23 225.009 401.393 225.499 401.393Z" fill="#3A3A3A"/>
<path d="M233.768 397.621L232.874 397.707C231.861 397.813 231.355 398.327 231.355 399.25V402.483H229.824V396.495H231.282V397.548C231.592 396.829 232.233 396.437 233.204 396.372L233.67 396.335L233.768 397.621Z" fill="#3A3A3A"/>
<path d="M240.513 402.483H238.615L236.043 399.752V402.483H234.512V393.849H236.043V399.115L238.455 396.507H240.317L237.623 399.372L240.513 402.483Z" fill="#3A3A3A"/>
<path d="M353.18 330.726C352.331 330.726 351.588 330.547 350.952 330.188C350.323 329.82 349.837 329.302 349.494 328.632C349.16 327.963 348.992 327.183 348.992 326.293C348.992 325.403 349.16 324.628 349.494 323.967C349.837 323.297 350.323 322.783 350.952 322.424C351.588 322.056 352.331 321.873 353.18 321.873C353.76 321.873 354.307 321.962 354.821 322.142C355.336 322.322 355.768 322.575 356.119 322.901L355.593 324.052C355.201 323.742 354.813 323.518 354.43 323.379C354.046 323.232 353.638 323.158 353.205 323.158C352.372 323.158 351.727 323.428 351.27 323.967C350.821 324.505 350.597 325.281 350.597 326.293C350.597 327.314 350.821 328.094 351.27 328.632C351.727 329.171 352.372 329.441 353.205 329.441C353.638 329.441 354.046 329.371 354.43 329.232C354.813 329.085 355.201 328.857 355.593 328.547L356.119 329.698C355.768 330.024 355.336 330.277 354.821 330.457C354.307 330.637 353.76 330.726 353.18 330.726Z" fill="#3A3A3A"/>
<path d="M360.038 330.714C359.425 330.714 358.887 330.588 358.421 330.335C357.964 330.081 357.609 329.718 357.356 329.245C357.103 328.771 356.976 328.22 356.976 327.591C356.976 326.963 357.103 326.416 357.356 325.95C357.609 325.477 357.964 325.114 358.421 324.861C358.887 324.607 359.425 324.481 360.038 324.481C360.65 324.481 361.185 324.607 361.642 324.861C362.107 325.114 362.462 325.477 362.707 325.95C362.96 326.416 363.087 326.963 363.087 327.591C363.087 328.22 362.96 328.771 362.707 329.245C362.462 329.718 362.107 330.081 361.642 330.335C361.185 330.588 360.65 330.714 360.038 330.714ZM360.026 329.526C360.524 329.526 360.903 329.363 361.164 329.036C361.426 328.71 361.556 328.228 361.556 327.591C361.556 326.963 361.426 326.485 361.164 326.159C360.903 325.824 360.528 325.657 360.038 325.657C359.548 325.657 359.168 325.824 358.899 326.159C358.638 326.485 358.507 326.963 358.507 327.591C358.507 328.228 358.638 328.71 358.899 329.036C359.16 329.363 359.536 329.526 360.026 329.526Z" fill="#3A3A3A"/>
<path d="M366.555 330.714C366.024 330.714 365.535 330.649 365.086 330.518C364.645 330.388 364.269 330.2 363.959 329.955L364.387 328.89C365.024 329.355 365.755 329.588 366.58 329.588C366.931 329.588 367.196 329.53 367.376 329.416C367.563 329.302 367.657 329.139 367.657 328.926C367.657 328.747 367.592 328.608 367.461 328.51C367.339 328.412 367.114 328.322 366.788 328.24L365.808 328.02C365.253 327.898 364.841 327.698 364.571 327.42C364.302 327.142 364.167 326.783 364.167 326.342C364.167 325.975 364.269 325.652 364.473 325.375C364.685 325.089 364.975 324.869 365.343 324.714C365.718 324.559 366.151 324.481 366.641 324.481C367.065 324.481 367.473 324.546 367.865 324.677C368.265 324.808 368.616 324.991 368.919 325.228L368.49 326.269C367.869 325.82 367.249 325.595 366.629 325.595C366.294 325.595 366.033 325.657 365.845 325.779C365.657 325.901 365.563 326.073 365.563 326.293C365.563 326.457 365.62 326.591 365.735 326.697C365.857 326.804 366.049 326.885 366.31 326.942L367.327 327.175C367.922 327.306 368.359 327.514 368.637 327.8C368.914 328.077 369.053 328.445 369.053 328.902C369.053 329.457 368.829 329.898 368.38 330.224C367.931 330.551 367.322 330.714 366.555 330.714Z" fill="#3A3A3A"/>
<path d="M377.409 324.481C378.087 324.481 378.593 324.685 378.928 325.093C379.262 325.493 379.43 326.11 379.43 326.942V330.616H377.899V327.004C377.899 326.546 377.822 326.216 377.666 326.012C377.511 325.799 377.262 325.693 376.919 325.693C376.511 325.693 376.193 325.832 375.964 326.11C375.736 326.387 375.621 326.775 375.621 327.273V330.616H374.091V327.004C374.091 326.546 374.013 326.216 373.858 326.012C373.711 325.799 373.462 325.693 373.111 325.693C372.711 325.693 372.397 325.832 372.168 326.11C371.939 326.387 371.825 326.775 371.825 327.273V330.616H370.294V324.628H371.788V325.473C371.968 325.146 372.217 324.901 372.535 324.738C372.854 324.567 373.217 324.481 373.625 324.481C374.531 324.481 375.132 324.856 375.425 325.608C375.613 325.257 375.883 324.983 376.234 324.787C376.585 324.583 376.977 324.481 377.409 324.481Z" fill="#3A3A3A"/>
<path d="M383.717 330.714C383.104 330.714 382.565 330.588 382.1 330.335C381.643 330.081 381.288 329.718 381.035 329.245C380.782 328.771 380.655 328.22 380.655 327.591C380.655 326.963 380.782 326.416 381.035 325.95C381.288 325.477 381.643 325.114 382.1 324.861C382.565 324.607 383.104 324.481 383.717 324.481C384.329 324.481 384.864 324.607 385.321 324.861C385.786 325.114 386.141 325.477 386.386 325.95C386.639 326.416 386.766 326.963 386.766 327.591C386.766 328.22 386.639 328.771 386.386 329.245C386.141 329.718 385.786 330.081 385.321 330.335C384.864 330.588 384.329 330.714 383.717 330.714ZM383.704 329.526C384.202 329.526 384.582 329.363 384.843 329.036C385.104 328.71 385.235 328.228 385.235 327.591C385.235 326.963 385.104 326.485 384.843 326.159C384.582 325.824 384.206 325.657 383.717 325.657C383.227 325.657 382.847 325.824 382.578 326.159C382.316 326.485 382.186 326.963 382.186 327.591C382.186 328.228 382.316 328.71 382.578 329.036C382.839 329.363 383.214 329.526 383.704 329.526Z" fill="#3A3A3A"/>
<path d="M390.234 330.714C389.703 330.714 389.213 330.649 388.764 330.518C388.323 330.388 387.948 330.2 387.638 329.955L388.066 328.89C388.703 329.355 389.434 329.588 390.258 329.588C390.609 329.588 390.875 329.53 391.054 329.416C391.242 329.302 391.336 329.139 391.336 328.926C391.336 328.747 391.271 328.608 391.14 328.51C391.018 328.412 390.793 328.322 390.466 328.24L389.487 328.02C388.932 327.898 388.519 327.698 388.25 327.42C387.981 327.142 387.846 326.783 387.846 326.342C387.846 325.975 387.948 325.652 388.152 325.375C388.364 325.089 388.654 324.869 389.021 324.714C389.397 324.559 389.83 324.481 390.319 324.481C390.744 324.481 391.152 324.546 391.544 324.677C391.944 324.808 392.295 324.991 392.597 325.228L392.169 326.269C391.548 325.82 390.928 325.595 390.307 325.595C389.973 325.595 389.711 325.657 389.524 325.779C389.336 325.901 389.242 326.073 389.242 326.293C389.242 326.457 389.299 326.591 389.413 326.697C389.536 326.804 389.728 326.885 389.989 326.942L391.005 327.175C391.601 327.306 392.038 327.514 392.316 327.8C392.593 328.077 392.732 328.445 392.732 328.902C392.732 329.457 392.507 329.898 392.058 330.224C391.609 330.551 391.001 330.714 390.234 330.714Z" fill="#3A3A3A"/>
<path d="M373.325 299.179C380.799 303.522 385.68 309.009 384.267 311.5C382.853 313.958 375.615 312.476 368.141 308.134C360.668 303.791 355.786 298.304 357.2 295.812C358.648 293.355 365.852 294.836 373.325 299.179Z" stroke="#727272" stroke-width="0.675331" stroke-miterlimit="10"/>
<path d="M368.141 299.179C360.668 303.522 355.786 309.009 357.2 311.5C358.614 313.958 365.852 312.476 373.325 308.134C380.799 303.791 385.68 298.304 384.267 295.812C382.819 293.355 375.615 294.836 368.141 299.179Z" stroke="#727272" stroke-width="0.675331" stroke-miterlimit="10"/>
<path d="M365.583 303.656C365.616 312.308 367.939 319.277 370.801 319.277C373.662 319.277 375.951 312.275 375.918 303.623C375.884 294.971 373.561 288.002 370.7 288.002C367.838 288.036 365.549 295.038 365.583 303.656Z" stroke="#727272" stroke-width="0.675331" stroke-miterlimit="10"/>
<path d="M372.417 303.757C372.417 304.666 371.676 305.407 370.767 305.407C369.858 305.407 369.117 304.666 369.117 303.757C369.117 302.848 369.858 302.108 370.767 302.108C371.676 302.108 372.417 302.848 372.417 303.757Z" fill="#323233"/>
<path d="M360.634 301.098C360.634 301.906 359.994 302.545 359.186 302.545C358.378 302.545 357.739 301.906 357.739 301.098C357.739 300.29 358.378 299.65 359.186 299.65C359.994 299.65 360.634 300.29 360.634 301.098Z" fill="#323233"/>
<path d="M368.478 314.665C368.478 315.473 367.838 316.112 367.03 316.112C366.222 316.112 365.583 315.473 365.583 314.665C365.583 313.857 366.222 313.217 367.03 313.217C367.838 313.217 368.478 313.857 368.478 314.665Z" fill="#323233"/>
<path d="M379.621 295.038C379.621 295.846 378.981 296.486 378.173 296.486C377.365 296.486 376.726 295.846 376.726 295.038C376.726 294.23 377.365 293.591 378.173 293.591C378.948 293.557 379.621 294.23 379.621 295.038Z" fill="#323233"/>
<path d="M139.558 168.694C139.558 173.138 135.955 176.774 131.478 176.774C127.034 176.774 123.398 173.172 123.398 168.694C123.398 164.217 127.001 160.615 131.478 160.615C135.955 160.648 139.558 164.251 139.558 168.694Z" fill="#E2475A"/>
<path d="M134.777 166.035L134.171 165.429C134.036 165.294 133.834 165.294 133.733 165.429L131.512 167.651L129.29 165.429C129.155 165.294 128.953 165.294 128.852 165.429L128.246 166.035C128.111 166.17 128.111 166.371 128.246 166.472L130.468 168.694L128.246 170.916C128.111 171.051 128.111 171.253 128.246 171.354L128.852 171.96C128.987 172.094 129.189 172.094 129.29 171.96L131.512 169.738L133.733 171.96C133.868 172.094 134.07 172.094 134.171 171.96L134.777 171.354C134.912 171.219 134.912 171.017 134.777 170.916L132.555 168.694L134.777 166.472C134.878 166.371 134.878 166.17 134.777 166.035Z" fill="white"/>
<path d="M307.006 169.267C307.006 173.71 303.404 177.346 298.927 177.346C294.483 177.346 290.847 173.744 290.847 169.267C290.847 164.823 294.449 161.187 298.927 161.187C303.37 161.187 307.006 164.823 307.006 169.267Z" fill="#E2475A"/>
<path d="M302.192 166.607L301.586 166.001C301.451 165.866 301.249 165.866 301.148 166.001L298.927 168.223L296.705 166.001C296.57 165.866 296.368 165.866 296.267 166.001L295.661 166.607C295.526 166.742 295.526 166.944 295.661 167.045L297.883 169.267L295.661 171.489C295.526 171.623 295.526 171.825 295.661 171.926L296.267 172.532C296.402 172.667 296.604 172.667 296.705 172.532L298.927 170.31L301.148 172.532C301.283 172.667 301.485 172.667 301.586 172.532L302.192 171.926C302.327 171.791 302.327 171.59 302.192 171.489L299.97 169.267L302.192 167.045C302.327 166.944 302.327 166.742 302.192 166.607Z" fill="white"/>
<path d="M224.359 310.591C224.359 315.035 220.757 318.671 216.279 318.671C211.836 318.671 208.2 315.069 208.2 310.591C208.2 306.148 211.802 302.512 216.279 302.512C220.757 302.512 224.359 306.114 224.359 310.591Z" fill="#E2475A"/>
<path d="M219.545 307.932L218.939 307.326C218.804 307.191 218.602 307.191 218.501 307.326L216.279 309.548L214.058 307.326C213.923 307.191 213.721 307.191 213.62 307.326L213.014 307.932C212.879 308.066 212.879 308.268 213.014 308.369L215.236 310.591L213.014 312.813C212.879 312.948 212.879 313.15 213.014 313.251L213.62 313.857C213.755 313.991 213.957 313.991 214.058 313.857L216.279 311.635L218.501 313.857C218.636 313.991 218.838 313.991 218.939 313.857L219.545 313.251C219.68 313.116 219.68 312.914 219.545 312.813L217.323 310.591L219.545 308.369C219.68 308.235 219.68 308.033 219.545 307.932Z" fill="white"/>
<path d="M35.538 123.713V115.08H41.3181V116.329H37.081V118.705H41.0732V119.941H37.081V122.464H41.3181V123.713H35.538Z" fill="#3A3A3A"/>
<path d="M45.6761 122.66C45.8557 122.66 46.0434 122.648 46.2394 122.623L46.1659 123.762C45.921 123.787 45.6965 123.799 45.4924 123.799C44.6515 123.799 44.031 123.607 43.631 123.223C43.2309 122.832 43.0309 122.252 43.0309 121.484V118.876H41.8798V117.725H43.0309V115.937H44.5617V117.725H46.1414V118.876H44.5617V121.46C44.5617 122.26 44.9331 122.66 45.6761 122.66Z" fill="#3A3A3A"/>
<path d="M50.6129 117.578C51.3313 117.578 51.8661 117.782 52.2171 118.19C52.5682 118.599 52.7437 119.215 52.7437 120.039V123.713H51.213V120.125C51.213 119.66 51.1231 119.321 50.9435 119.109C50.7721 118.896 50.4986 118.79 50.1231 118.79C49.6822 118.79 49.3271 118.929 49.0577 119.207C48.7964 119.484 48.6658 119.856 48.6658 120.321V123.713H47.135V115.08H48.6658V118.558C48.8699 118.239 49.1393 117.998 49.474 117.835C49.8169 117.664 50.1965 117.578 50.6129 117.578Z" fill="#3A3A3A"/>
<path d="M59.552 120.995H55.4741C55.5231 121.55 55.6904 121.962 55.9762 122.231C56.2619 122.501 56.6701 122.636 57.2007 122.636C57.862 122.636 58.4662 122.423 59.0132 121.999L59.454 123.052C59.1764 123.281 58.8254 123.464 58.4009 123.603C57.9845 123.742 57.564 123.811 57.1395 123.811C56.1598 123.811 55.3843 123.534 54.8128 122.978C54.2495 122.423 53.9678 121.664 53.9678 120.701C53.9678 120.088 54.0903 119.546 54.3352 119.072C54.5801 118.599 54.923 118.231 55.3639 117.97C55.8129 117.709 56.319 117.578 56.8824 117.578C57.7069 117.578 58.356 117.843 58.8295 118.374C59.3111 118.905 59.552 119.635 59.552 120.566V120.995ZM56.9191 118.656C56.5109 118.656 56.1803 118.786 55.9272 119.048C55.6822 119.309 55.5312 119.684 55.4741 120.174H58.2417C58.2253 119.676 58.1029 119.301 57.8743 119.048C57.6457 118.786 57.3273 118.656 56.9191 118.656Z" fill="#3A3A3A"/>
<path d="M64.7473 118.852L63.8534 118.937C62.841 119.043 62.3349 119.558 62.3349 120.48V123.713H60.8041V117.725H62.2614V118.778C62.5716 118.06 63.2125 117.668 64.184 117.603L64.6494 117.566L64.7473 118.852Z" fill="#3A3A3A"/>
<path d="M70.626 120.995H66.5481C66.597 121.55 66.7644 121.962 67.0501 122.231C67.3359 122.501 67.7441 122.636 68.2747 122.636C68.936 122.636 69.5401 122.423 70.0871 121.999L70.528 123.052C70.2504 123.281 69.8994 123.464 69.4748 123.603C69.0585 123.742 68.638 123.811 68.2135 123.811C67.2338 123.811 66.4583 123.534 65.8868 122.978C65.3235 122.423 65.0418 121.664 65.0418 120.701C65.0418 120.088 65.1643 119.546 65.4092 119.072C65.6541 118.599 65.997 118.231 66.4378 117.97C66.8869 117.709 67.393 117.578 67.9563 117.578C68.7809 117.578 69.4299 117.843 69.9034 118.374C70.3851 118.905 70.626 119.635 70.626 120.566V120.995ZM67.9931 118.656C67.5849 118.656 67.2542 118.786 67.0012 119.048C66.7562 119.309 66.6052 119.684 66.5481 120.174H69.3156C69.2993 119.676 69.1769 119.301 68.9483 119.048C68.7197 118.786 68.4013 118.656 67.9931 118.656Z" fill="#3A3A3A"/>
<path d="M77.3765 117.725V123.713H75.8825V122.795C75.6948 123.121 75.4417 123.374 75.1233 123.554C74.8049 123.725 74.4457 123.811 74.0456 123.811C72.5761 123.811 71.8414 122.987 71.8414 121.338V117.725H73.3721V121.35C73.3721 121.774 73.4578 122.089 73.6293 122.293C73.8007 122.497 74.0701 122.599 74.4375 122.599C74.862 122.599 75.2008 122.46 75.4539 122.182C75.7152 121.897 75.8458 121.521 75.8458 121.056V117.725H77.3765Z" fill="#3A3A3A"/>
<path d="M86.0847 117.578C86.7623 117.578 87.2684 117.782 87.6032 118.19C87.9379 118.59 88.1053 119.207 88.1053 120.039V123.713H86.5745V120.101C86.5745 119.643 86.4969 119.313 86.3418 119.109C86.1867 118.896 85.9377 118.79 85.5948 118.79C85.1866 118.79 84.8682 118.929 84.6396 119.207C84.4111 119.484 84.2968 119.872 84.2968 120.37V123.713H82.766V120.101C82.766 119.643 82.6885 119.313 82.5333 119.109C82.3864 118.896 82.1374 118.79 81.7863 118.79C81.3863 118.79 81.072 118.929 80.8434 119.207C80.6148 119.484 80.5005 119.872 80.5005 120.37V123.713H78.9698V117.725H80.4638V118.57C80.6434 118.243 80.8924 117.998 81.2108 117.835C81.5292 117.664 81.8925 117.578 82.3007 117.578C83.2069 117.578 83.8069 117.954 84.1008 118.705C84.2886 118.354 84.558 118.08 84.9091 117.884C85.2601 117.68 85.652 117.578 86.0847 117.578Z" fill="#3A3A3A"/>
<path d="M49.9757 137.074V128.44H55.6334V129.702H51.531V132.053H55.3885V133.314H51.531V137.074H49.9757Z" fill="#3A3A3A"/>
<path d="M59.3885 137.172C58.7762 137.172 58.2374 137.045 57.772 136.792C57.3148 136.539 56.9597 136.176 56.7066 135.702C56.4535 135.229 56.327 134.677 56.327 134.049C56.327 133.42 56.4535 132.873 56.7066 132.408C56.9597 131.934 57.3148 131.571 57.772 131.318C58.2374 131.065 58.7762 130.938 59.3885 130.938C60.0008 130.938 60.5355 131.065 60.9927 131.318C61.458 131.571 61.8132 131.934 62.0581 132.408C62.3112 132.873 62.4377 133.42 62.4377 134.049C62.4377 134.677 62.3112 135.229 62.0581 135.702C61.8132 136.176 61.458 136.539 60.9927 136.792C60.5355 137.045 60.0008 137.172 59.3885 137.172ZM59.3762 135.984C59.8742 135.984 60.2539 135.82 60.5151 135.494C60.7764 135.167 60.907 134.686 60.907 134.049C60.907 133.42 60.7764 132.943 60.5151 132.616C60.2539 132.281 59.8783 132.114 59.3885 132.114C58.8986 132.114 58.519 132.281 58.2496 132.616C57.9884 132.943 57.8577 133.42 57.8577 134.049C57.8577 134.686 57.9884 135.167 58.2496 135.494C58.5109 135.82 58.8864 135.984 59.3762 135.984Z" fill="#3A3A3A"/>
<path d="M67.6447 132.212L66.7507 132.298C65.7384 132.404 65.2322 132.918 65.2322 133.841V137.074H63.7015V131.085H65.1587V132.138C65.469 131.42 66.1098 131.028 67.0813 130.963L67.5467 130.926L67.6447 132.212Z" fill="#3A3A3A"/>
<path d="M74.3899 137.074H72.4918L69.9201 134.343V137.074H68.3894V128.44H69.9201V133.706L72.3326 131.098H74.1939L71.4998 133.963L74.3899 137.074Z" fill="#3A3A3A"/>
<path d="M141.072 265.312C141.072 269.756 137.47 273.392 132.993 273.392C128.549 273.392 124.913 269.79 124.913 265.312C124.913 260.835 128.516 257.233 132.993 257.233C137.437 257.266 141.072 260.868 141.072 265.312Z" fill="#E2475A"/>
<path d="M134.575 263.764C134.474 263.797 134.339 263.797 134.272 263.696C134.003 263.427 133.498 263.225 132.993 263.225C132.319 263.225 131.68 263.427 131.68 263.999C131.68 264.538 132.319 264.639 133.026 264.706C134.205 264.841 135.484 265.077 135.484 266.491C135.484 267.601 134.575 268.207 133.531 268.275V268.813C133.531 268.948 133.397 269.083 133.262 269.083H132.757C132.622 269.083 132.488 268.948 132.488 268.813V268.308C131.68 268.241 130.906 267.904 130.468 267.197C130.401 267.063 130.434 266.861 130.603 266.827L131.074 266.625C131.175 266.592 131.31 266.625 131.377 266.726C131.68 267.13 132.319 267.399 132.892 267.399C133.632 267.399 134.306 267.13 134.306 266.524C134.306 265.986 133.632 265.784 132.858 265.683C131.68 265.548 130.535 265.346 130.535 263.999C130.535 262.922 131.478 262.451 132.42 262.316V261.878C132.42 261.744 132.555 261.609 132.69 261.609H133.195C133.329 261.609 133.464 261.744 133.464 261.878V262.316C134.07 262.417 134.642 262.619 135.013 263.158C135.114 263.292 135.046 263.494 134.912 263.562L134.575 263.764Z" fill="white"/>
<path d="M307.343 265.312C307.343 269.756 303.741 273.392 299.263 273.392C294.819 273.392 291.184 269.79 291.184 265.312C291.184 260.835 294.786 257.233 299.263 257.233C303.741 257.266 307.343 260.868 307.343 265.312Z" fill="#E2475A"/>
<path d="M300.845 263.764C300.744 263.797 300.61 263.797 300.542 263.696C300.273 263.427 299.768 263.225 299.263 263.225C298.59 263.225 297.95 263.427 297.95 263.999C297.95 264.538 298.59 264.639 299.297 264.706C300.475 264.841 301.754 265.077 301.754 266.491C301.754 267.601 300.845 268.207 299.802 268.275V268.813C299.802 268.948 299.667 269.083 299.533 269.083H299.028C298.893 269.083 298.758 268.948 298.758 268.813V268.308C297.95 268.241 297.176 267.904 296.738 267.197C296.671 267.063 296.705 266.861 296.873 266.827L297.344 266.625C297.445 266.592 297.58 266.625 297.647 266.726C297.95 267.13 298.59 267.399 299.162 267.399C299.903 267.399 300.576 267.13 300.576 266.524C300.576 265.986 299.903 265.784 299.129 265.683C297.95 265.548 296.806 265.346 296.806 263.999C296.806 262.922 297.748 262.451 298.691 262.316V261.878C298.691 261.744 298.826 261.609 298.96 261.609H299.465C299.6 261.609 299.734 261.744 299.734 261.878V262.316C300.34 262.417 300.913 262.619 301.283 263.158C301.384 263.292 301.317 263.494 301.182 263.562L300.845 263.764Z" fill="white"/>
<path d="M224.157 120.857C224.157 125.3 220.555 128.936 216.077 128.936C211.634 128.936 207.998 125.334 207.998 120.857C207.998 116.413 211.6 112.777 216.077 112.777C220.521 112.777 224.157 116.379 224.157 120.857Z" fill="#E2475A"/>
<path d="M217.626 121.227C217.155 121.53 216.885 121.766 216.784 121.934C216.717 122.069 216.65 122.271 216.65 122.54C216.65 122.641 216.549 122.708 216.448 122.708H215.471C215.37 122.708 215.269 122.641 215.269 122.506V122.17C215.269 121.463 215.303 121.395 215.438 121.193C215.505 121.059 215.741 120.823 216.38 120.352C216.683 120.116 216.885 119.914 217.02 119.712C217.155 119.51 217.222 119.241 217.222 118.938C217.222 118.567 217.087 118.264 216.852 118.029C216.616 117.827 216.313 117.692 215.976 117.692C215.438 117.692 214.731 117.928 214.529 119.14C214.495 119.241 214.428 119.308 214.327 119.308L213.283 119.173C213.216 119.173 213.182 119.14 213.149 119.106C213.115 119.072 213.115 119.005 213.115 118.938C213.283 118.197 213.586 117.591 214.058 117.187C214.259 117.019 214.461 116.884 214.562 116.851C215.101 116.548 215.64 116.48 215.943 116.48C216.01 116.48 216.044 116.48 216.111 116.48C216.448 116.48 217.424 116.514 218.165 117.187C218.299 117.322 218.602 117.557 218.771 117.995C218.905 118.298 218.973 118.601 218.973 118.971C219.006 119.88 218.569 120.621 217.626 121.227ZM216.885 124.257C216.885 123.752 216.481 123.348 215.976 123.348C215.471 123.348 215.067 123.752 215.067 124.257C215.067 124.762 215.471 125.166 215.976 125.166C216.481 125.166 216.885 124.762 216.885 124.257Z" fill="white"/>
<path d="M283.104 72.8843L281.623 72.009" stroke="#666668" stroke-width="0.506498" stroke-miterlimit="10" stroke-linecap="round"/>
<path d="M279.031 70.4941L259.37 59.0144" stroke="#666668" stroke-width="0.506498" stroke-miterlimit="10" stroke-linecap="round" stroke-dasharray="3.04 3.04"/>
<path d="M258.058 58.2401L256.61 57.3984" stroke="#666668" stroke-width="0.506498" stroke-miterlimit="10" stroke-linecap="round"/>
<path d="M332.12 101.263L330.672 100.422" stroke="#666668" stroke-width="0.506498" stroke-miterlimit="10" stroke-linecap="round"/>
<path d="M327.777 98.7389L306.164 86.2156" stroke="#666668" stroke-width="0.506498" stroke-miterlimit="10" stroke-linecap="round" stroke-dasharray="3.34 3.34"/>
<path d="M304.717 85.3738L303.236 84.5322" stroke="#666668" stroke-width="0.506498" stroke-miterlimit="10" stroke-linecap="round"/>
<path d="M301.249 78.843C301.249 83.2867 297.647 86.9225 293.17 86.9225C288.726 86.9225 285.09 83.3204 285.09 78.843C285.09 74.3656 288.692 70.7634 293.17 70.7634C297.614 70.7634 301.249 74.3656 301.249 78.843Z" stroke="#727272" stroke-width="0.405199" stroke-miterlimit="10"/>
<path d="M296.435 76.318L295.829 75.7121C295.694 75.5774 295.492 75.5774 295.391 75.7121L293.17 77.934L290.948 75.7121C290.813 75.5774 290.611 75.5774 290.51 75.7121L289.904 76.318C289.77 76.4527 289.77 76.6547 289.904 76.7557L292.126 78.9776L289.904 81.1994C289.77 81.3341 289.77 81.5361 289.904 81.6371L290.51 82.243C290.645 82.3777 290.847 82.3777 290.948 82.243L293.17 80.0212L295.391 82.243C295.526 82.3777 295.728 82.3777 295.829 82.243L296.435 81.6371C296.57 81.5024 296.57 81.3004 296.435 81.1994L294.213 78.9776L296.435 76.7557C296.57 76.6547 296.57 76.4527 296.435 76.318Z" fill="#E2475A"/>
<path d="M148.016 72.8843L149.497 72.009" stroke="#666668" stroke-width="0.506498" stroke-miterlimit="10" stroke-linecap="round"/>
<path d="M152.089 70.4941L171.75 59.0144" stroke="#666668" stroke-width="0.506498" stroke-miterlimit="10" stroke-linecap="round" stroke-dasharray="3.04 3.04"/>
<path d="M173.063 58.2401L174.51 57.3984" stroke="#666668" stroke-width="0.506498" stroke-miterlimit="10" stroke-linecap="round"/>
<path d="M99.0001 101.263L100.448 100.422" stroke="#666668" stroke-width="0.506498" stroke-miterlimit="10" stroke-linecap="round"/>
<path d="M103.343 98.7389L124.956 86.2156" stroke="#666668" stroke-width="0.506498" stroke-miterlimit="10" stroke-linecap="round" stroke-dasharray="3.34 3.34"/>
<path d="M126.403 85.3738L127.884 84.5322" stroke="#666668" stroke-width="0.506498" stroke-miterlimit="10" stroke-linecap="round"/>
<path d="M129.871 78.843C129.871 83.2867 133.473 86.9225 137.95 86.9225C142.394 86.9225 146.03 83.3204 146.03 78.843C146.03 74.3656 142.428 70.7634 137.95 70.7634C133.507 70.7634 129.871 74.3656 129.871 78.843Z" stroke="#727272" stroke-width="0.405199" stroke-miterlimit="10"/>
<path d="M134.685 76.318L135.291 75.7121C135.426 75.5774 135.628 75.5774 135.729 75.7121L137.951 77.934L140.172 75.7121C140.307 75.5774 140.509 75.5774 140.61 75.7121L141.216 76.318C141.351 76.4527 141.351 76.6547 141.216 76.7557L138.994 78.9776L141.216 81.1994C141.351 81.3341 141.351 81.5361 141.216 81.6371L140.61 82.243C140.475 82.3777 140.273 82.3777 140.172 82.243L137.951 80.0212L135.729 82.243C135.594 82.3777 135.392 82.3777 135.291 82.243L134.685 81.6371C134.55 81.5024 134.55 81.3004 134.685 81.1994L136.907 78.9776L134.685 76.7557C134.55 76.6547 134.55 76.4527 134.685 76.318Z" fill="#E2475A"/>
<path d="M378.813 216.633C378.813 221.077 375.211 224.712 370.733 224.712C366.29 224.712 362.654 221.11 362.654 216.633C362.654 212.155 366.256 208.553 370.733 208.553C375.177 208.587 378.813 212.189 378.813 216.633Z" stroke="#727272" stroke-width="0.405199" stroke-miterlimit="10"/>
<path d="M372.282 217.138C371.811 217.441 371.541 217.676 371.44 217.845C371.373 217.979 371.306 218.181 371.306 218.451C371.306 218.552 371.205 218.619 371.104 218.619H370.127C370.026 218.619 369.925 218.552 369.925 218.417V218.08C369.925 217.373 369.959 217.306 370.094 217.104C370.161 216.97 370.397 216.734 371.036 216.263C371.339 216.027 371.541 215.825 371.676 215.623C371.811 215.421 371.878 215.152 371.878 214.849C371.878 214.478 371.743 214.175 371.508 213.94C371.272 213.738 370.969 213.603 370.632 213.603C370.094 213.603 369.387 213.839 369.185 215.051C369.151 215.152 369.084 215.219 368.983 215.219L367.939 215.084C367.872 215.084 367.838 215.051 367.805 215.017C367.771 214.983 367.771 214.916 367.771 214.849C367.939 214.108 368.242 213.502 368.713 213.098C368.915 212.93 369.117 212.795 369.218 212.761C369.757 212.458 370.296 212.391 370.599 212.391C370.666 212.391 370.7 212.391 370.767 212.391C371.104 212.391 372.08 212.425 372.821 213.098C372.955 213.233 373.258 213.468 373.427 213.906C373.561 214.209 373.629 214.512 373.629 214.882C373.662 215.791 373.225 216.532 372.282 217.138ZM371.541 220.168C371.541 219.663 371.137 219.259 370.632 219.259C370.127 219.259 369.723 219.663 369.723 220.168C369.723 220.673 370.127 221.077 370.632 221.077C371.137 221.077 371.541 220.673 371.541 220.168Z" fill="#E2475A"/>
<path d="M303.909 353.143C303.909 357.587 300.307 361.223 295.829 361.223C291.386 361.223 287.75 357.621 287.75 353.143C287.75 348.666 291.352 345.064 295.829 345.064C300.273 345.098 303.909 348.7 303.909 353.143Z" stroke="#727272" stroke-width="0.405199" stroke-miterlimit="10"/>
<path d="M297.378 353.648C296.907 353.951 296.637 354.187 296.536 354.355C296.469 354.49 296.402 354.692 296.402 354.961C296.402 355.062 296.301 355.13 296.2 355.13H295.223C295.122 355.13 295.021 355.062 295.021 354.928V354.591C295.021 353.884 295.055 353.817 295.19 353.615C295.257 353.48 295.493 353.245 296.132 352.773C296.435 352.538 296.637 352.336 296.772 352.134C296.907 351.932 296.974 351.662 296.974 351.359C296.974 350.989 296.839 350.686 296.604 350.45C296.368 350.248 296.065 350.114 295.728 350.114C295.19 350.114 294.483 350.349 294.281 351.561C294.247 351.662 294.18 351.73 294.079 351.73L293.035 351.595C292.968 351.595 292.934 351.561 292.901 351.528C292.867 351.494 292.867 351.427 292.867 351.359C293.035 350.619 293.338 350.013 293.809 349.609C294.011 349.44 294.213 349.306 294.314 349.272C294.853 348.969 295.392 348.902 295.695 348.902C295.762 348.902 295.796 348.902 295.863 348.902C296.2 348.902 297.176 348.935 297.917 349.609C298.051 349.743 298.354 349.979 298.523 350.417C298.657 350.72 298.725 351.023 298.725 351.393C298.758 352.302 298.321 353.043 297.378 353.648ZM296.637 356.678C296.637 356.173 296.233 355.769 295.728 355.769C295.223 355.769 294.819 356.173 294.819 356.678C294.819 357.183 295.223 357.587 295.728 357.587C296.233 357.587 296.637 357.183 296.637 356.678Z" fill="#E2475A"/>
<path d="M142.486 352.807C142.486 357.251 138.884 360.886 134.407 360.886C129.963 360.886 126.327 357.284 126.327 352.807C126.327 348.329 129.929 344.727 134.407 344.727C138.884 344.727 142.486 348.329 142.486 352.807Z" stroke="#727272" stroke-width="0.405199" stroke-miterlimit="10"/>
<path d="M135.989 353.278C135.518 353.581 135.249 353.817 135.148 353.985C135.08 354.12 135.013 354.322 135.013 354.591C135.013 354.692 134.912 354.759 134.811 354.759H133.835C133.734 354.759 133.633 354.692 133.633 354.557V354.221C133.633 353.514 133.666 353.446 133.801 353.244C133.868 353.11 134.104 352.874 134.744 352.403C135.047 352.167 135.249 351.965 135.383 351.763C135.518 351.561 135.585 351.292 135.585 350.989C135.585 350.619 135.451 350.316 135.215 350.08C134.979 349.878 134.676 349.743 134.34 349.743C133.801 349.743 133.094 349.979 132.892 351.191C132.858 351.292 132.791 351.359 132.69 351.359L131.646 351.225C131.579 351.225 131.545 351.191 131.512 351.157C131.478 351.124 131.478 351.056 131.478 350.989C131.646 350.248 131.949 349.642 132.421 349.238C132.623 349.07 132.825 348.935 132.926 348.902C133.464 348.599 134.003 348.531 134.306 348.531C134.373 348.531 134.407 348.531 134.474 348.531C134.811 348.531 135.787 348.565 136.528 349.238C136.662 349.373 136.965 349.609 137.134 350.046C137.268 350.349 137.336 350.652 137.336 351.023C137.369 351.931 136.898 352.672 135.989 353.278ZM135.249 356.308C135.249 355.803 134.845 355.399 134.34 355.399C133.835 355.399 133.431 355.803 133.431 356.308C133.431 356.813 133.835 357.217 134.34 357.217C134.845 357.217 135.249 356.813 135.249 356.308Z" fill="#E2475A"/>
<path d="M69.2991 217.475C69.2991 221.918 65.697 225.554 61.2196 225.554C56.7758 225.554 53.14 221.952 53.14 217.475C53.14 212.997 56.7422 209.395 61.2196 209.395C65.697 209.429 69.2991 213.031 69.2991 217.475Z" stroke="#727272" stroke-width="0.405199" stroke-miterlimit="10"/>
<path d="M62.8019 217.98C62.3306 218.283 62.0613 218.518 61.9603 218.687C61.8929 218.821 61.8256 219.023 61.8256 219.293C61.8256 219.394 61.7246 219.461 61.6236 219.461H60.6473C60.5463 219.461 60.4453 219.394 60.4453 219.259V218.922C60.4453 218.215 60.479 218.148 60.6137 217.946C60.681 217.811 60.9167 217.576 61.5563 217.104C61.8593 216.869 62.0613 216.667 62.1959 216.465C62.3306 216.263 62.3979 215.993 62.3979 215.69C62.3979 215.32 62.2632 215.017 62.0276 214.781C61.7919 214.579 61.489 214.445 61.1523 214.445C60.6137 214.445 59.9067 214.68 59.7047 215.892C59.6711 215.993 59.6037 216.061 59.5027 216.061L58.4591 215.926C58.3918 215.926 58.3581 215.892 58.3245 215.859C58.2908 215.825 58.2908 215.758 58.2908 215.69C58.4591 214.95 58.7621 214.344 59.2334 213.94C59.4354 213.772 59.6374 213.637 59.7384 213.603C60.277 213.3 60.8157 213.233 61.1186 213.233C61.186 213.233 61.2196 213.233 61.287 213.233C61.6236 213.233 62.5999 213.267 63.3405 213.94C63.4752 214.075 63.7782 214.31 63.9465 214.748C64.0811 215.051 64.1485 215.354 64.1485 215.724C64.1821 216.633 63.7108 217.374 62.8019 217.98ZM62.0613 221.009C62.0613 220.504 61.6573 220.101 61.1523 220.101C60.6473 220.101 60.2434 220.504 60.2434 221.009C60.2434 221.514 60.6473 221.918 61.1523 221.918C61.6573 221.918 62.0613 221.514 62.0613 221.009Z" fill="#E2475A"/>
</g>
<defs>
<clipPath id="clip0">
<rect width="388.289" height="430" fill="white" transform="translate(22.0001)"/>
</clipPath>
</defs>
</svg>
