<svg width="20" height="14" viewBox="0 0 20 14" fill="none" xmlns="http://www.w3.org/2000/svg">
<path d="M6.7978 6.21572C6.33294 6.21575 5.88692 6.39549 5.55823 6.71539C5.22954 7.0353 5.0449 7.46917 5.04491 7.92156C5.04493 8.37396 5.2296 8.80782 5.55831 9.1277C5.88702 9.44759 6.33283 9.6273 6.79769 9.6273C7.26255 9.6273 7.70837 9.44759 8.03708 9.1277C8.36578 8.80782 8.55046 8.37396 8.55047 7.92156C8.55049 7.46917 8.36584 7.0353 8.03715 6.71539C7.70846 6.39549 7.26266 6.21575 6.7978 6.21572ZM13.0477 6.21572C12.6649 6.18416 12.2813 6.2658 11.947 6.44995C11.6127 6.63411 11.3433 6.91221 11.1741 7.24784C11.0049 7.58347 10.9438 7.961 10.9988 8.331C11.0537 8.70099 11.2222 9.04623 11.4821 9.3215C11.742 9.59678 12.0813 9.78926 12.4555 9.87377C12.8297 9.95827 13.2214 9.93086 13.5793 9.79511C13.9372 9.65936 14.2447 9.42161 14.4614 9.11297C14.6782 8.80433 14.7942 8.43919 14.7942 8.06534C14.8044 7.83227 14.7673 7.59953 14.6851 7.38041C14.6028 7.16128 14.477 6.96009 14.3148 6.78831C14.1526 6.61654 13.9572 6.47755 13.7398 6.37931C13.5224 6.28106 13.2872 6.22547 13.0477 6.21572ZM14.76 13.9978C14.76 13.9978 14.1435 13.2813 13.6297 12.648C14.8709 12.3636 15.9688 11.6612 16.7292 10.665C16.1131 11.0641 15.4525 11.3939 14.76 11.6481C13.9634 11.979 13.1303 12.2195 12.2771 12.3647C10.8106 12.6275 9.30668 12.6218 7.84233 12.3481C6.98258 12.1843 6.14 11.9445 5.32508 11.6316C4.89558 11.4708 4.47794 11.2815 4.0751 11.065C4.02368 11.0316 3.97247 11.015 3.92106 10.9816C3.8953 10.9692 3.87209 10.9523 3.85258 10.9317C3.5445 10.7651 3.37298 10.6484 3.37298 10.6484C4.10587 11.6237 5.16579 12.3192 6.36961 12.6147C5.85608 13.2481 5.22247 13.9978 5.22247 13.9978C4.20533 14.0245 3.19705 13.8074 2.28637 13.3657C1.37569 12.924 0.590529 12.2713 0 11.4649C0.0555992 8.08661 0.898661 4.76472 2.46561 1.74973C3.84462 0.695721 5.52584 0.0843425 7.27716 0L7.44827 0.200052C5.80061 0.59682 4.26306 1.34214 2.94506 2.38298C2.94506 2.38298 3.32182 2.18304 3.95526 1.89973C5.18615 1.35291 6.49802 0.998627 7.84244 0.849978C7.93832 0.830562 8.03576 0.819378 8.13364 0.816555C9.28106 0.67109 10.4422 0.659934 11.5924 0.783327C13.4012 0.984316 15.1521 1.52774 16.7465 2.38298C15.4953 1.39181 14.0421 0.670464 12.483 0.266655L12.7226 0.000162232C14.474 0.0844349 16.1552 0.695821 17.5342 1.74989C19.1013 4.76481 19.9444 8.08669 20 11.4649C19.4047 12.2706 18.6161 12.9225 17.7028 13.3639C16.7896 13.8053 15.7794 14.023 14.76 13.9978Z" fill="white"/>
</svg>
