<svg width="19" height="17" viewBox="0 0 19 17" fill="none" xmlns="http://www.w3.org/2000/svg">
<path d="M15.995 16.2873C15.936 16.4375 15.8464 16.5731 15.732 16.685C15.6176 16.7968 15.4811 16.8824 15.3317 16.936C15.1823 16.9896 15.0234 17.0099 14.8657 16.9955C14.708 16.9812 14.5551 16.9326 14.4173 16.853L10.1428 13.4586L7.39944 16.0452C7.33579 16.0933 7.26132 16.1242 7.18291 16.1352C7.10449 16.1461 7.02463 16.1367 6.95069 16.1079L7.4766 11.2989L7.49343 11.3125L7.50418 11.2176C7.50418 11.2176 15.1959 4.06067 15.5093 3.75574C15.8265 3.45161 15.7218 3.38563 15.7218 3.38563C15.7399 3.01466 15.1526 3.38563 15.1526 3.38563L4.9612 10.0864L0.716988 8.60913C0.716988 8.60913 0.065119 8.37017 0.00371112 7.84476C-0.0608459 7.32339 0.738229 7.04017 0.738229 7.04017L17.6128 0.18902C17.6128 0.18902 19 -0.44262 19 0.603403L15.995 16.2873Z" fill="white"/>
</svg>
