<svg width="24" height="16" viewBox="0 0 24 16" fill="none" xmlns="http://www.w3.org/2000/svg">
<path d="M23 5.71001C23.0494 4.27867 22.7364 2.85803 22.09 1.58001C21.6514 1.05561 21.0427 0.701725 20.37 0.580015C17.5875 0.32754 14.7935 0.224059 12 0.270015C9.21664 0.221973 6.4327 0.322115 3.66 0.570015C3.11182 0.669731 2.60451 0.926857 2.2 1.31001C1.3 2.14001 1.2 3.56001 1.1 4.76002C0.954908 6.91758 0.954908 9.08245 1.1 11.24C1.12893 11.9154 1.22949 12.5858 1.4 13.24C1.52057 13.7451 1.76452 14.2124 2.11 14.6C2.51726 15.0035 3.03638 15.2752 3.6 15.38C5.75591 15.6461 7.92821 15.7564 10.1 15.71C13.6 15.76 16.67 15.71 20.3 15.43C20.8775 15.3317 21.4112 15.0596 21.83 14.65C22.11 14.3699 22.3191 14.0271 22.44 13.65C22.7976 12.5526 22.9733 11.4041 22.96 10.25C23 9.69001 23 6.31001 23 5.71001ZM9.74 10.85V4.66001L15.66 7.77002C14 8.69001 11.81 9.73001 9.74 10.85Z" fill="white"/>
</svg>
