<svg width="36" height="36" viewBox="0 0 36 36" fill="none" xmlns="http://www.w3.org/2000/svg">
<rect width="36" height="36" rx="18" fill="#1571fa"/>
<path d="M28.875 26.7429L27.248 25.1143C27.0768 25.0286 26.9911 24.7714 26.9911 24.6V11.5714C26.9911 11.4 27.0768 11.1429 27.248 10.9714L28.875 9.08571V9H23.0522L18.685 20.0571L13.7185 9H7.72441V9.08571L9.26575 11.2286C9.60827 11.5714 9.6939 12.0857 9.6939 12.5143V21.9429C9.77953 22.4571 9.6939 23.0571 9.43701 23.5714L7.125 26.7429V26.8286H13.2904V26.7429L10.9783 23.6571C10.7215 23.1429 10.6358 22.6286 10.7215 22.0286V13.4571C10.8071 13.6286 10.8927 13.6286 10.9783 13.9714L16.8012 27H16.8868L22.5384 12.8571C22.4528 13.3714 22.4528 13.9714 22.4528 14.4V24.5143C22.4528 24.7714 22.3671 24.9429 22.1959 25.1143L20.4833 26.7429V26.8286H28.875V26.7429Z" fill="white"/>
</svg>
