<svg width="36" height="36" viewBox="0 0 36 36" fill="none" xmlns="http://www.w3.org/2000/svg">
<path d="M18 36C27.9411 36 36 27.9411 36 18C36 8.05887 27.9411 0 18 0C8.05887 0 0 8.05887 0 18C0 27.9411 8.05887 36 18 36Z" fill="#1571FA"/>
<path d="M8.23641 17.6099L25.5914 10.9184C26.3969 10.6274 27.1004 11.1149 26.8394 12.3329L26.8409 12.3314L23.8859 26.2529C23.6669 27.2399 23.0804 27.4799 22.2599 27.0149L17.7599 23.6984L15.5894 25.7894C15.3494 26.0294 15.1469 26.2319 14.6819 26.2319L15.0014 21.6524L23.3414 14.1179C23.7044 13.7984 23.2604 13.6184 22.7819 13.9364L12.4754 20.4254L8.03241 19.0394C7.06791 18.7334 7.04691 18.0749 8.23641 17.6099Z" fill="white"/>
</svg>
