<svg width="103" height="123" viewBox="0 0 103 123" fill="none" xmlns="http://www.w3.org/2000/svg">
<path d="M84.0896 90.0178H78.677H73.3719H67.9593H65.8238H61.3111H46.4433H43.4483H32.7306H28.5805H21.9189H16.372C11.8727 90.0178 7.97783 91.6412 4.79476 94.8474C1.61168 98.0537 0 101.977 0 106.509C0 111.041 1.61168 114.964 4.79476 118.17C7.97783 121.377 11.8727 123 16.372 123H21.9189H32.7306H49.0623H82.6525H103L84.0896 90.0178Z" fill="white"/>
<path d="M16.3721 93.9139H28.8761V101.111H16.3721C14.8948 101.111 13.6323 101.639 12.5847 102.694C11.5371 103.749 11.0133 105.021 11.0133 106.509C11.0133 107.997 11.5371 109.269 12.5847 110.324C13.6323 111.379 14.8948 111.907 16.3721 111.907H21.731V102.91H28.8761V119.104H16.3721C12.9205 119.104 9.9657 117.873 7.53474 115.411C5.09036 112.962 3.86816 109.986 3.86816 106.509C3.86816 103.032 5.09036 100.056 7.53474 97.6072C9.9657 95.145 12.9205 93.9139 16.3721 93.9139Z" fill="#3C1A67"/>
<path d="M32.4492 106.509V93.9139H39.5943V106.509C39.5943 107.997 40.1181 109.269 41.1657 110.324C42.2133 111.379 43.4758 111.907 44.9532 111.907C46.4306 111.907 47.6931 111.379 48.7406 110.324C49.7882 109.269 50.312 107.997 50.312 106.509V93.9139H57.4572V106.509C57.4572 109.986 56.235 112.962 53.7906 115.411C51.3462 117.873 48.4049 119.104 44.9532 119.104C41.5015 119.104 38.5468 117.873 36.1158 115.411C33.658 112.962 32.4492 109.986 32.4492 106.509Z" fill="#3C1A67"/>
<path d="M80.1538 109.62L85.5798 119.104H77.3334L76.0306 116.817L74.7278 119.104H66.4814L71.9074 109.62L70.6717 107.456L64.0101 119.09H55.7637L70.6852 93.0752L76.044 102.437L81.4029 93.0752L96.2975 119.104H88.0511L81.3894 107.469L80.1538 109.62Z" fill="#3C1A67"/>
<path d="M67.2877 42.7496L54.9314 41.8838L43.7302 43.2907C43.3542 45.2794 43.3676 64.8279 44.0391 67.8988C43.8914 67.98 43.7974 68.0477 43.7974 68.1424C43.6228 74.8795 44.4421 84.9311 44.9256 85.3369C45.4091 85.7428 49.5995 85.9051 50.083 85.3369C50.3919 84.9716 52.3662 78.0181 53.6958 72.8502C54.3271 72.999 54.8912 73.0802 55.3478 73.0802C55.7239 73.0802 56.1805 73.0261 56.6909 72.9179C58.0205 78.0722 59.9814 84.9716 60.2769 85.3369C60.7604 85.9051 64.9508 85.7428 65.4343 85.3369C65.9178 84.9311 66.4684 75.0959 66.5624 68.1829C66.5759 66.1943 67.6638 44.8059 67.2877 42.7496Z" fill="white"/>
<path d="M36.5177 29.2888C41.1686 29.2888 44.9388 25.4912 44.9388 20.8065C44.9388 16.1219 41.1686 12.3242 36.5177 12.3242C31.8669 12.3242 28.0967 16.1219 28.0967 20.8065C28.0967 25.4912 31.8669 29.2888 36.5177 29.2888Z" fill="white"/>
<path d="M67.2208 62.501C64.2258 63.1368 45.0333 64.9902 43.4619 63.5291V65.6937C43.4619 65.6937 51.1308 67.1006 54.5557 66.4513C57.9805 65.8019 67.1402 64.5708 67.1402 64.5708L67.2208 62.501Z" fill="#112037"/>
<path d="M55.3475 48.3233C68.4173 48.3233 79.0124 37.6511 79.0124 24.4863C79.0124 11.3215 68.4173 0.649292 55.3475 0.649292C42.2778 0.649292 31.6826 11.3215 31.6826 24.4863C31.6826 37.6511 42.2778 48.3233 55.3475 48.3233Z" fill="white"/>
<g style="mix-blend-mode:multiply">
<path d="M55.3481 1.29858C54.4482 1.29858 53.5484 1.3527 52.6754 1.46092C63.017 1.60974 71.344 10.092 71.344 20.5495C71.3306 31.0881 62.8558 39.638 52.3799 39.638C41.904 39.638 33.4292 31.0881 33.4292 20.5495C33.4292 18.8314 33.6575 17.1538 34.0873 15.571C32.9457 18.3173 32.3145 21.3341 32.3145 24.4998C32.3145 37.3111 42.6292 47.7009 55.3481 47.7009C68.0669 47.7009 78.3817 37.3111 78.3817 24.4998C78.3683 11.6748 68.0669 1.29858 55.3481 1.29858Z" fill="#A493C2"/>
</g>
<path d="M69.1819 27.5436C69.746 26.0284 70.1086 24.3915 70.216 22.6599C70.7533 14.4481 65.2198 6.93989 57.2689 5.05945C47.639 2.80021 38.2778 9.23971 36.7333 18.899C36.5587 20.0218 36.4915 21.1312 36.5318 22.227C36.6124 24.4186 38.2241 26.2449 40.373 26.5831L64.1857 30.4387C66.3211 30.7904 68.4163 29.5864 69.1819 27.5436Z" fill="#101F36"/>
<path d="M48.0556 20.5901C47.975 16.4098 49.9627 13.0142 52.3937 10.6197C53.6561 9.38857 52.5817 7.22403 50.8491 7.4946C45.5709 8.33336 41.0716 12.0807 39.1107 18.1008C38.5869 19.7243 39.5942 21.4424 41.2731 21.7129L45.9335 22.457C47.0751 22.6464 48.069 21.74 48.0556 20.5901Z" fill="white"/>
<path d="M39.1105 66.5865C51.0305 66.5865 60.6936 56.8531 60.6936 44.8464C60.6936 32.8397 51.0305 23.1063 39.1105 23.1063C27.1904 23.1063 17.5273 32.8397 17.5273 44.8464C17.5273 56.8531 27.1904 66.5865 39.1105 66.5865Z" fill="#3C1A67"/>
<path d="M60.2501 48.5803C60.0352 48.5667 59.2965 48.6073 58.9205 48.6209C58.0743 48.6479 57.3222 48.4044 56.5701 48.1474C55.8314 47.9039 55.4822 47.7956 54.9047 47.5927C54.5824 47.755 54.6629 47.7415 54.4749 47.755C53.9243 47.7821 53.105 47.7145 52.7021 47.6468C51.9097 47.471 51.3187 47.3086 50.5263 46.9975C49.1161 46.6592 49.3175 46.5916 48.1625 46.6051C46.9537 46.6322 46.806 46.6592 45.4226 46.1722C45.0063 46.0234 44.5631 45.9287 44.1467 45.7934C43.4215 45.577 43.1663 45.6176 42.5082 45.6446C42.065 45.6581 41.6352 45.6717 41.2054 45.6176C40.6279 45.4552 39.9698 45.1711 39.4997 44.7923C38.6401 43.94 38.2372 43.2772 37.5657 43.1013C37.2165 43.0201 36.8673 42.9931 36.5181 42.9389C36.3166 42.9119 36.1017 42.8984 35.8868 42.8848C35.8197 42.7225 35.6988 42.5737 35.5242 42.4519C34.9064 42.0055 34.7184 41.8702 34.4363 41.4508C34.1677 41.0585 34.4095 41.4508 33.3484 39.9627C33.0127 39.7733 32.2606 39.2727 31.7368 39.0292C31.2264 38.7993 30.6623 38.4205 30.2325 38.2175C29.9639 38.0958 29.749 38.0146 29.467 37.8793C27.9896 37.2029 27.8553 36.7024 26.8211 36.1206C26.8883 36.2424 27.0226 36.4724 27.0226 36.4724C27.5464 37.3382 27.721 37.3652 28.1776 37.974C28.594 38.5963 28.6611 38.691 29.5073 39.6245C29.8027 39.9492 30.1654 40.2197 30.5146 40.4903C30.6623 40.6121 31.1324 40.9638 31.2264 41.0314C31.4547 41.2749 31.4413 41.3155 31.8576 41.762C31.8308 41.7484 31.8039 41.7484 31.777 41.7349C31.1458 41.5726 30.8906 41.5049 30.5414 41.2749C30.434 41.1803 30.3265 41.0855 30.2191 40.9638C29.655 40.4497 29.6013 40.5174 28.3388 40.0168C27.7075 39.7192 27.5464 39.5704 27.3718 39.408C26.4316 38.5963 26.4048 38.7451 26.069 38.3393C25.7735 37.8929 25.6124 37.6358 24.8199 37.23C24.0275 36.8106 23.8529 36.7971 23.4097 36.2424C22.4696 34.9572 22.7516 35.3225 22.0935 34.5108C21.8249 34.1455 21.7712 34.0237 21.704 33.8884C21.6369 33.7532 21.5831 33.6179 21.4757 33.4961C21.328 33.3338 21.1399 33.212 20.925 33.1309C19.3671 35.5795 18.2792 38.3799 17.7957 41.4238C17.7957 41.4238 17.7957 41.4238 17.8091 41.4238C17.9703 41.532 18.4135 41.6808 18.6015 41.7349C19.5014 42.019 20.052 42.1137 20.5356 42.1678C20.4281 42.1543 20.3475 42.1543 20.3072 42.1543C18.8567 42.1949 19.0447 42.2355 18.1315 41.992C18.0106 41.9649 17.8763 41.9378 17.742 41.9243C17.6882 42.2896 17.648 42.6548 17.6211 43.0336C18.2926 43.1689 18.4001 43.3448 19.6223 43.3583C20.4818 43.3583 20.4953 43.3448 21.5026 43.4801C21.8652 43.5342 22.2144 43.5883 22.5636 43.7101C22.6173 43.7371 22.6576 43.7642 22.7113 43.7912C23.2888 44.2783 23.3157 44.3459 23.5709 44.5759C24.4305 45.3876 25.6124 45.347 26.8077 45.7934C28.2045 46.3075 27.8553 46.1722 28.7954 46.6998C30.9578 47.9174 31.3338 47.8362 32.1665 48.1609C33.8051 48.7967 35.1616 48.932 36.4644 49.3379C36.8538 49.4596 37.2568 49.5543 37.6463 49.6896C37.9283 49.8114 38.1969 49.9466 38.479 50.0549C39.4057 50.4201 40.225 50.3525 40.9502 50.4337C41.3397 50.5148 42.1187 50.7448 42.3739 50.8395C42.6425 50.9748 43.7304 51.6106 44.0258 51.773C45.9061 52.8011 46.0136 52.8147 46.9134 52.9635C47.4641 53.0446 47.6118 53.1258 47.8939 53.234C48.9818 53.6399 49.6399 53.6534 50.5397 54.2757C50.9024 54.6139 50.8755 54.6681 51.1844 55.0874C51.8962 56.075 52.4066 56.4944 52.9438 57.022C53.199 57.2655 53.4945 57.482 53.8034 57.6714C54.1123 57.8743 54.4481 58.0231 54.7973 58.1584C54.9987 58.2395 55.2002 58.2801 55.4016 58.3342C55.4956 58.3613 55.5897 58.4019 55.6971 58.4289C55.7911 58.456 55.8583 58.4831 55.912 58.5101C56.2881 58.0501 56.6373 57.5767 56.973 57.0761C56.9327 57.022 56.879 56.9679 56.8387 56.9138C56.5432 56.5214 56.3284 56.2644 55.8851 56.0344C55.7643 55.9668 55.8046 55.9803 55.7374 55.9668C56.4089 56.1291 57.2014 56.1426 57.1611 56.1291C57.3357 56.1291 57.47 56.1426 57.564 56.1426C58.625 54.3975 59.4174 52.5576 59.9412 50.6636C59.6457 50.4607 59.4174 50.339 58.9876 50.2172C58.7593 50.1496 58.4773 50.136 58.2758 50.109C57.6446 50.0143 57.1745 49.9872 57.1476 49.9872C55.9254 49.9061 56.2881 49.8249 54.8644 49.2432C54.7704 49.2026 54.6898 49.1755 54.6092 49.1349C55.1465 49.1079 55.1733 49.0267 55.63 48.8373C56.1806 48.6885 55.8986 48.7967 57.7654 49.162C58.2087 49.2567 58.6384 49.392 59.0816 49.4461C59.6189 49.5137 59.6726 49.4867 59.8472 49.5002C59.9278 49.5137 59.9949 49.5408 60.0755 49.5408C60.1292 49.5408 60.1695 49.5408 60.2233 49.5273C60.2904 49.2026 60.3576 48.8914 60.4113 48.5667C60.3038 48.6073 60.2501 48.5803 60.2501 48.5803ZM34.4363 43.2636C34.0065 42.9119 33.5902 42.5872 33.2679 42.3707C33.523 42.5331 33.8722 42.7901 34.4363 43.2636ZM37.794 45.5364C37.6731 45.4958 37.5657 45.4417 37.4582 45.4011C37.3239 45.347 37.1896 45.2794 37.0553 45.2117C36.9747 45.1711 36.8807 45.117 36.8001 45.0764C36.7195 45.0223 36.6255 44.9817 36.5449 44.9141C36.4509 44.8464 36.3435 44.7923 36.236 44.7112C36.1823 44.6706 36.1286 44.63 36.0749 44.5894C35.9137 44.4812 35.7525 44.3459 35.5914 44.1971C35.5779 44.1836 35.5645 44.17 35.5376 44.1565C36.236 44.3324 36.2092 44.3594 36.6121 44.4676C36.6255 44.4676 37.0419 44.5759 37.0687 44.6029C37.2299 44.7788 37.8343 45.5229 37.8477 45.5364C37.8209 45.5499 37.8074 45.5499 37.794 45.5364ZM43.5423 46.8622C43.3812 46.8216 43.2603 46.7945 43.1528 46.7675C43.4617 46.8351 43.7169 46.9028 43.9184 46.9704C43.8109 46.9298 43.6901 46.9028 43.5423 46.8622ZM48.2296 52.9364C48.364 52.977 48.4983 53.0176 48.6594 53.0717C48.4983 53.0176 48.364 52.977 48.2296 52.9364ZM50.5263 49.0132C49.7742 49.0538 48.8743 48.8103 47.961 48.5803C47.8804 48.5532 47.7864 48.5397 47.7059 48.5126C49.1295 48.3503 48.6594 48.188 49.801 48.3774C50.1502 48.4585 50.7278 48.675 51.4127 48.8238C51.4396 48.8238 51.453 48.8103 51.4799 48.8103C51.1978 48.8644 50.9158 48.932 50.5263 49.0132ZM52.6081 48.7561C52.6349 48.7561 52.6752 48.7561 52.7021 48.7697C52.7155 48.7697 52.7289 48.7697 52.7558 48.7697C52.7021 48.7697 52.6483 48.7697 52.6081 48.7561Z" fill="#AC7BC8"/>
<path d="M53.6828 59.6465C53.4544 59.5789 53.1052 59.5112 53.1052 59.5112C52.0039 59.2812 52.2054 59.2001 50.4325 58.9566C49.8147 58.8619 49.3581 58.7942 48.9954 58.7401C48.7134 58.3748 48.4716 58.199 48.0956 57.9149C47.9613 57.8202 47.8135 57.739 47.6658 57.6578C47.3972 57.4955 47.1286 57.2926 46.8331 57.1708C46.5242 57.022 46.1884 56.9408 45.8661 56.8191C45.4094 56.5891 45.208 56.4132 45.0065 56.1832C44.1604 55.0063 44.5499 55.2904 43.7843 54.3569C43.0456 53.464 42.0115 52.8958 40.9907 52.4224C40.0103 51.9489 39.3522 51.6377 37.4316 51.4483C36.5317 51.3536 36.2497 51.543 35.4304 51.6918C35.229 51.7053 35.2155 51.6918 35.1215 51.6648C34.5977 51.3942 34.4903 51.2048 33.5636 50.8801C32.7443 50.596 32.4757 50.569 31.7773 50.4743C30.9446 50.366 30.0179 50.2172 29.2523 50.2984C28.9703 50.3255 28.6479 50.3796 28.339 50.366C27.9898 50.2984 27.184 50.0684 26.6333 49.8655C26.1498 49.649 25.9349 49.5002 25.5454 49.392C25.3305 49.3379 25.1022 49.3244 24.8873 49.3108C23.8935 49.2432 22.3758 49.7708 21.6505 49.9737C21.2207 49.6355 21.167 49.6085 20.5492 49.0673C20.3209 48.8779 20.1866 48.7426 19.8105 48.5127C19.5016 48.3233 18.951 48.0527 18.5077 47.985C18.2794 47.9445 18.0108 47.9445 17.7422 47.9445C18.0511 50.1902 18.7226 52.4088 19.7837 54.5598C19.8105 54.6004 19.8239 54.641 19.8508 54.6951H19.8642C20.2537 54.7628 20.4283 54.8033 20.6567 54.9116C20.7238 54.9522 20.7775 55.0063 20.8178 55.0469C20.885 55.1145 20.9387 55.1957 21.0058 55.2904C20.9253 55.3174 20.7641 55.3715 20.7641 55.3715C20.6029 55.4256 20.4283 55.4662 20.2672 55.4933C20.3477 55.6286 20.4283 55.7639 20.5089 55.8991C20.791 55.8586 21.0327 55.8315 21.3148 55.8315C21.3685 55.9127 21.4222 55.9803 21.5565 56.1021C21.8117 56.3321 22.2415 56.562 22.5504 56.6973C22.8056 56.8191 22.819 56.8461 23.3965 57.0355C24.1083 57.279 24.3635 57.4414 24.8739 57.5631C25.3037 57.6714 25.6394 57.7796 27.0228 57.7661C30.4879 57.7119 30.3939 57.6037 31.3341 58.1719C33.0666 59.2136 32.7443 58.9295 35.135 59.5924C35.4439 59.6736 35.9542 59.8359 36.4243 59.9306C36.975 60.0524 37.4316 60.0794 37.8748 60.1335C37.9285 60.1606 38.036 60.2282 38.036 60.2282C38.7478 60.5935 39.1373 60.6747 39.8088 60.6341C39.9029 60.6747 39.9834 60.7152 40.0774 60.7694C40.2386 60.8641 40.561 61.094 40.5744 61.094C41.4071 61.6487 41.7697 61.6216 42.5353 61.9463C43.274 62.2575 43.6366 62.731 45.3826 62.988C44.9797 62.9339 44.5767 62.8663 44.0529 62.6769C44.0798 62.7716 44.1201 62.988 44.1201 62.988C44.1872 63.2315 44.4021 63.7997 44.5633 64.0838C44.9528 64.7061 45.5572 65.1255 46.0004 65.2337C46.2287 65.2878 46.3362 65.2743 46.457 65.2743C46.457 65.2878 46.4705 65.2878 46.4705 65.3014C46.9137 65.139 47.3435 64.9632 47.7732 64.7738C47.733 64.6926 47.6792 64.6114 47.6121 64.5438C47.5986 64.5167 47.5718 64.4897 47.5584 64.4626C47.5181 64.4085 47.4778 64.3679 47.4375 64.3138C47.4375 64.3138 47.4375 64.3138 47.4375 64.3003C47.4375 64.2732 47.424 64.2462 47.424 64.2191C47.3838 63.9215 47.3569 63.6915 47.1823 63.448C47.3569 63.5291 47.5449 63.6238 47.7598 63.7456C47.7732 63.7456 48.3642 64.0973 48.7537 64.3138C50.916 63.2315 52.9172 61.7569 54.6766 59.9035C54.5558 59.8224 54.3006 59.7953 53.6828 59.6465ZM20.2403 49.6355C20.2134 49.5949 20.2 49.5543 20.1731 49.5138C20.3343 49.6761 20.4686 49.7978 20.5492 49.879C20.4955 49.8249 20.388 49.7437 20.2403 49.6355ZM22.1877 51.1101L22.1743 51.0966C22.1878 51.0966 22.2012 51.1101 22.2415 51.1236C22.2012 51.1236 22.2146 51.1236 22.1877 51.1101ZM24.2426 50.826C24.471 50.8531 24.7396 50.8936 25.0485 50.9342C24.7396 50.9072 24.5381 50.8801 24.2426 50.826ZM28.2987 51.7189C28.4062 51.773 28.527 51.8406 28.6479 51.9218C28.527 51.8542 28.4062 51.7865 28.2987 51.7189ZM41.622 56.1697C40.749 55.4662 40.0372 55.1145 39.1239 54.7628C38.6404 54.5734 38.1569 54.4516 37.7136 54.411C35.1618 54.181 34.0874 54.5869 32.3011 54.1675C31.0117 53.7481 30.4745 53.1529 30.0179 52.8011C29.9507 52.747 29.8701 52.6929 29.7761 52.6253C29.803 52.6388 29.8164 52.6523 29.8433 52.6659C30.3939 52.6794 30.9446 52.7741 31.6564 52.8688C32.1265 52.95 32.5965 53.0852 33.0532 53.2611C33.6039 53.5452 34.2082 54.1269 35.323 54.1405C35.5782 54.1405 36.2228 54.0322 36.3571 53.9916C36.572 53.9375 36.7869 53.8699 37.0018 53.8158C37.3376 53.8022 37.6868 53.8293 38.0226 53.8699C38.9896 54.0322 39.3925 54.181 39.8626 54.384C42.5084 55.5203 42.1592 55.9397 43.0322 57.0761C42.5218 56.8326 42.1458 56.6026 41.622 56.1697ZM46.3496 63.1368C46.2287 63.1098 46.1213 63.0827 46.0138 63.0692C46.1347 63.0827 46.2287 63.1098 46.3496 63.1368C46.3765 63.1368 46.4167 63.1504 46.4436 63.1639C46.457 63.1639 46.4705 63.1774 46.4839 63.1774C46.4436 63.1639 46.3899 63.1504 46.3496 63.1368ZM47.3972 58.429C47.4778 58.4425 47.5584 58.4695 47.6389 58.4831C47.5584 58.4695 47.4778 58.4425 47.3972 58.429Z" fill="#AC7BC8"/>
<path d="M41.7971 66.4242C41.3807 66.4783 40.951 66.5189 40.5346 66.5459C40.3734 66.4242 40.2526 66.2618 39.9437 66.0183C39.9437 66.0183 39.9302 66.0048 39.9168 66.0048C39.9168 66.0048 39.9168 66.0048 39.9034 66.0048C39.8228 65.9371 39.6616 65.8289 39.5273 65.7613C39.1781 65.5719 38.8961 65.4501 38.614 65.2742C38.4528 65.166 38.3185 65.0443 38.1439 64.9631C36.8949 64.4355 37.2844 64.5572 36.1562 64.1243C35.4175 63.8402 35.5787 63.9349 34.9877 63.9349C34.4908 63.9214 33.9939 63.8132 33.5641 63.5697C33.3223 63.4344 33.1074 63.2585 32.8657 63.1232C32.221 62.785 30.6362 62.3656 30.0855 62.2709C29.0917 62.1492 28.5141 62.1221 27.7889 61.4186C27.7217 61.4051 27.1039 61.3781 26.795 61.3375C26.3787 61.2969 25.9623 61.2157 25.5459 61.121C24.861 60.9857 24.5386 60.8234 24.2835 60.6475C24.2835 60.6475 24.27 60.6475 24.27 60.634C23.8671 60.2552 23.4776 59.8629 23.1016 59.4435C23.2493 59.3894 23.4105 59.3488 23.5716 59.3217C23.5582 59.3217 23.7462 59.2811 24.0283 59.3353C24.3238 59.4029 24.6192 59.4976 24.9147 59.5652C25.1296 59.5788 25.3445 59.5652 25.5728 59.5517C26.0563 59.4841 26.0697 59.4705 26.6876 59.43C27.7754 59.3623 27.6008 59.3353 28.0441 59.2947C28.4335 59.2541 28.8768 59.3894 29.1588 59.5923C29.2394 59.6599 29.32 59.7141 29.414 59.7546C29.508 59.7817 29.602 59.7952 29.696 59.8223C30.1258 59.8629 30.5556 59.8899 30.9854 59.9711C31.4286 60.0523 31.8584 60.1876 32.2882 60.2958C32.8388 60.4446 33 60.5122 33.5506 60.7422C33.8058 60.8504 34.0744 60.9587 34.3162 61.1075C34.9071 61.4863 34.7057 61.4457 35.3369 61.4322C36.0756 61.4186 36.492 61.5945 37.2441 61.8921C37.6873 62.068 38.1305 62.2303 38.5334 62.5009C39.6213 63.2044 39.393 63.3938 40.0511 63.9485C40.5212 64.2731 40.8032 64.422 41.1658 64.8684C41.327 65.0713 41.4882 65.2472 41.5956 65.6666C41.6359 65.8289 41.6762 66.0454 41.6628 66.2077C41.6896 66.2889 41.7434 66.3565 41.7971 66.4242Z" fill="#AC7BC8"/>
<path d="M59.1627 36.797C59.1224 36.77 59.1089 36.7565 59.1089 36.7565C58.6254 36.4588 58.2494 36.3641 57.5241 36.1883C57.0138 36.0665 56.5571 35.9718 55.899 35.9853C55.2275 35.9989 54.9454 36.1071 54.5157 36.1747C54.2202 36.1883 53.6024 36.1477 53.3069 36.1071C52.998 36.0259 52.7159 35.9177 51.937 35.593C51.1446 35.2142 50.0835 34.5513 49.5329 34.1455C49.2374 33.929 49.224 33.902 48.8613 33.7532C48.6196 33.6585 48.7002 33.672 48.2301 33.5096C48.4719 33.5773 48.7405 33.6179 49.0494 33.672C49.1702 33.699 49.7075 33.8884 50.3119 33.9696C50.7013 34.0237 50.5133 33.9696 51.252 34.1049C51.2923 34.1184 51.3192 34.1184 51.3594 34.1319C51.937 34.4702 51.937 34.7678 52.81 34.8084C53.28 34.8354 53.8576 34.5919 54.5425 34.6731C54.6768 34.7137 54.7977 34.7543 54.932 34.8084C55.8722 35.2819 56.4497 35.2954 57.2018 35.0113C57.6719 34.849 57.5644 34.8625 57.7793 34.7813C57.9136 34.7407 58.0614 34.7137 58.1822 34.6596C58.0882 34.4702 57.9808 34.2808 57.8733 34.0914C57.7927 34.1319 57.6853 34.1455 57.5913 34.1319C57.551 34.1319 57.4704 34.1049 57.3898 34.1049C56.9197 34.1996 56.96 34.2808 56.5034 34.2808C55.9527 34.2808 55.8587 34.2672 55.2275 34.1455C54.6097 34.0778 54.1396 34.2943 52.6757 33.8479C51.937 33.6179 50.8894 33.0767 50.2044 32.7115C49.7881 32.495 49.7075 32.4815 48.6867 31.8592C48.1361 31.521 48.3241 31.5751 47.1422 30.9257C46.3767 30.5199 46.3767 30.5199 45.5843 29.9382C44.7381 29.3158 44.7247 29.2617 44.2009 28.4906C43.9323 28.1524 43.5965 27.8818 43.2742 27.5977C41.1521 25.6767 41.7162 26.1908 41.085 25.4873C41.0044 25.4061 40.9372 25.325 40.8701 25.2438C40.3597 24.5403 40.7895 24.9327 40.0777 24.2292C39.7956 23.9451 39.4867 23.6339 38.9092 23.3498C38.6272 23.2281 38.4526 23.1469 38.3317 23.1063C38.0496 23.1199 37.7676 23.1334 37.4856 23.1469C37.7139 23.3769 37.9556 23.5257 38.1034 23.6339C38.5466 24.0398 38.5734 23.9721 38.9764 24.148C39.0167 24.1751 39.0569 24.2021 39.0838 24.2292C39.245 24.378 39.5942 24.7433 39.7151 24.8785C39.7956 25.2167 39.7151 25.2979 39.9434 25.8255C40.0911 26.1502 40.1851 26.272 40.4537 26.5696C40.9238 27.0701 41.179 27.1513 41.5953 27.3407C41.6894 27.7466 41.7162 28.4365 42.2669 29.1941C42.4281 29.4241 42.6295 29.5864 42.831 29.7623C43.3413 30.2222 43.6637 30.5605 44.4964 30.8581C45.0067 31.034 45.4902 31.0475 45.7991 31.0881C46.0543 31.8862 46.3364 32.0351 47.2094 32.9144C47.4511 33.1579 47.6929 33.3067 47.9615 33.4149C47.3705 33.212 47.5317 33.2391 46.417 32.725C45.5708 32.3327 45.3156 32.1027 44.9127 31.6833C44.3621 31.1016 43.9591 30.9257 42.925 30.2493C42.1863 29.7623 41.8908 29.5999 41.5148 29.3158C41.1118 28.9506 41.0447 28.7341 40.4537 28.0983C39.9165 27.5166 39.8896 27.476 39.7285 27.2189C39.2047 26.4478 39.0569 26.3125 38.6943 26.0149C37.7005 25.1897 37.4721 25.0003 37.2572 24.7703C37.0961 24.608 36.9752 24.4186 36.814 24.2562C36.626 24.0804 36.4245 23.9316 36.2634 23.7286C36.1559 23.5663 36.0753 23.4581 35.9545 23.3228C33.7518 23.6475 31.6566 24.3103 29.6958 25.2709C29.6958 25.2709 29.6958 25.2709 29.6958 25.2844C29.6286 25.5008 29.6152 25.7038 29.6555 25.9202C29.7092 26.2043 29.9241 26.3937 30.1121 26.6102C30.0181 27.8683 29.8032 27.8007 29.9375 28.7747C30.0853 29.7893 30.2196 29.9246 30.4613 30.2764C30.5688 30.4252 30.7299 30.5469 30.8642 30.6552C31.0523 30.8175 31.5358 31.034 31.7104 31.1151C31.9387 31.2098 32.1804 31.291 32.4088 31.3857C32.5028 31.4398 32.9191 31.6698 33.04 31.7374C33.0937 31.8592 33.1475 31.9809 33.2012 32.1027C33.2818 32.3597 33.4832 33.4285 33.4966 33.5502C33.5369 33.8479 33.6175 34.5784 33.9936 35.2954C34.2488 35.7689 34.6383 36.1206 35.0815 36.3912C35.4575 36.6212 35.8739 36.77 36.2634 36.9459C36.4648 37.0541 37.2438 37.5546 37.4318 37.6764C37.6064 38.0146 37.875 38.8263 38.0631 39.2321C38.1705 39.4621 38.3317 39.6651 38.466 39.868C38.6003 40.0574 38.7883 40.2062 38.9764 40.3685C39.0972 40.4632 39.2181 40.5579 39.3524 40.6256C39.9434 40.9367 39.9971 40.8961 40.6418 41.072C40.9238 41.1532 41.2059 41.2343 41.4879 41.3155C41.7565 41.3832 42.0386 41.4373 42.3072 41.5455C42.6832 41.6943 43.0593 41.8837 43.113 41.8972C43.8517 42.046 43.9054 42.2354 45.1813 42.6954C45.732 42.7901 45.8797 42.7495 46.2558 42.7225C46.5513 42.6954 46.9139 42.5601 47.2228 42.4925C47.3302 42.506 47.5854 42.6007 47.6929 42.6548C47.7869 42.7089 47.8675 42.7766 47.9481 42.8442C48.6733 43.5071 48.727 43.453 49.1971 43.8724C50.1507 43.9806 50.6476 43.8724 51.2251 43.9671C51.6952 44.0347 52.4742 44.2241 54.1262 44.4135C54.5962 44.4676 54.3411 44.4541 54.7843 44.3865C54.8649 44.3865 54.9454 44.3865 55.0395 44.4C55.1738 44.4406 55.3081 44.4812 55.4289 44.5353C55.7781 44.5488 55.8856 44.5623 56.396 44.5217C57.4435 44.4406 57.3227 44.5353 58.2225 44.3323C58.7195 44.2106 59.1492 44.1159 59.6596 44.1835C59.8611 44.2106 60.0491 44.2647 60.2371 44.3053C60.264 44.3053 60.2774 44.3053 60.2908 44.3053C60.4117 44.3053 60.546 44.3053 60.6803 44.2918C60.6803 44.2918 60.6938 44.2918 60.7072 44.2918C60.6266 41.7349 60.1162 39.2051 59.1627 36.797ZM30.7568 25.7173C30.7434 25.7173 30.7299 25.7038 30.7299 25.6902C30.7165 25.6767 30.7165 25.6767 30.7031 25.6632C30.6896 25.6632 30.6896 25.6497 30.6762 25.6361C30.6896 25.6497 30.6896 25.6497 30.7031 25.6632C30.7165 25.6767 30.7299 25.6902 30.7568 25.7173C30.7702 25.7308 30.7837 25.7308 30.7971 25.7444C30.8105 25.7579 30.8239 25.7714 30.8374 25.7714C30.8105 25.7579 30.7837 25.7444 30.7568 25.7173ZM31.2134 26.1637C31.2403 26.2178 31.2672 26.272 31.2806 26.3396C31.2672 26.272 31.2403 26.2178 31.2134 26.1637ZM32.0596 28.9776C32.0193 28.9506 31.979 28.9235 31.9387 28.8965C31.9924 28.9371 32.0596 28.9776 32.1267 29.0047C32.0999 28.9912 32.0864 28.9912 32.0596 28.9776ZM36.4648 34.3619C36.438 34.3484 36.4111 34.3349 36.3708 34.3078C36.4514 34.3484 36.532 34.389 36.6394 34.4296C36.5723 34.416 36.5186 34.389 36.4648 34.3619ZM38.3451 35.363C38.4929 35.4442 38.6003 35.5118 38.7212 35.593C38.7346 35.6065 38.7615 35.6201 38.7749 35.6336C38.6406 35.5389 38.4929 35.4442 38.3451 35.363ZM39.7285 36.8647C39.7822 36.9864 39.8359 37.1217 39.8897 37.2705C39.8359 37.1352 39.7822 36.9864 39.7285 36.8647ZM40.6283 38.5151C40.7224 38.5422 40.8298 38.5828 40.9238 38.6098C40.7895 38.5828 40.6955 38.5557 40.6283 38.5151ZM42.7638 39.0969C42.8578 39.1104 42.9518 39.151 43.0727 39.1916C42.9921 39.1645 42.8847 39.1239 42.7638 39.0969ZM46.9139 40.0574C46.9139 40.0574 46.9273 40.0574 46.9139 40.0574H46.9542C46.9408 40.0574 46.9273 40.0574 46.9139 40.0574ZM49.7343 41.1667C49.7343 41.1667 49.7209 41.1532 49.7075 41.1396C49.7612 41.1802 49.8284 41.2343 49.8955 41.2885C49.8418 41.2479 49.7746 41.2073 49.7343 41.1667ZM52.0041 42.1949C51.9638 42.1949 51.7355 42.1813 51.7355 42.1813C51.2386 42.1678 51.064 42.1407 51.0102 42.1407C51.2789 42.1678 52.0847 42.2084 52.7025 42.2084C52.5145 42.2084 52.2862 42.2084 52.0041 42.1949ZM54.6231 41.9243C54.7708 41.9108 54.9051 41.9108 55.0126 41.9108C54.8917 41.9108 54.744 41.9243 54.6231 41.9243ZM57.2421 42.6007C57.2421 42.6007 57.2555 42.6007 57.2421 42.6007C57.2555 42.6007 57.2555 42.6007 57.2421 42.6007ZM57.7659 42.3707C57.7927 42.3572 57.8062 42.3572 57.833 42.3437C57.8599 42.3301 57.8868 42.3301 57.9136 42.3166C57.8599 42.3437 57.8062 42.3572 57.7659 42.3707Z" fill="#AC7BC8"/>
<path d="M55.3341 30.5198C55.2401 30.5063 55.1327 30.4927 54.9984 30.4657C53.9508 30.2222 53.7224 29.7081 53.1315 29.3834C52.2182 28.8693 51.9227 28.8152 50.9557 28.3823C50.5931 28.1794 50.5797 28.0712 50.123 27.6653C49.8141 27.3812 49.4783 27.1377 49.156 26.8671C49.0351 26.7589 48.9008 26.6642 48.7531 26.583C48.6054 26.4883 48.4576 26.3801 48.3099 26.2989C47.222 25.7443 47.41 26.069 46.6848 25.7307C46.255 25.5008 46.2953 25.4331 45.9595 25.1761C45.8521 25.0949 45.7849 25.0814 45.6103 24.9461C45.3014 24.6485 45.2611 24.5944 44.8179 24.2967C44.3881 23.9856 44.2807 23.9991 44.1329 23.9721C43.0048 23.7421 42.7362 23.6068 42.4004 23.3633C47.316 24.1073 51.9362 26.6101 55.3341 30.5198Z" fill="#AC7BC8"/>
<g style="mix-blend-mode:multiply" opacity="0.49">
<path d="M58.4506 35.1738C56.3151 30.8988 52.9843 27.6249 49.076 25.5686C50.4996 27.0838 51.7353 28.8425 52.7157 30.8041C56.1271 37.7577 55.6839 46.0235 51.2652 52.666C44.8319 62.1629 32.7711 64.7062 23.3965 59.7819C32.8786 69.8605 49.1297 68.6565 56.9867 57.0492C61.4322 50.4067 61.862 42.1273 58.4506 35.1738Z" fill="#3C1A67"/>
</g>
<path d="M67.2207 45.8746C67.9728 51.9353 66.5626 59.2407 60.5457 63.9891C54.5287 68.7376 41.7561 74.2572 37.3643 63.9891C37.3643 62.041 44.7646 64.3138 45.9465 62.474C47.1284 60.6341 42.7634 58.4696 44.9392 56.305C47.1284 54.1405 48.9415 59.0107 49.6936 59.2271C50.4458 59.4436 57.4163 58.5778 60.8546 50.5825L67.2207 45.8746Z" fill="white"/>
<g style="mix-blend-mode:multiply">
<path d="M61.4595 50.8396C57.9406 59.0378 50.7955 60.2148 49.533 59.8495C49.0898 59.7278 48.7809 59.2678 48.2706 58.5238C47.7199 57.7121 46.8738 56.481 46.1485 56.4133C46.0545 56.3998 45.7993 56.3728 45.3964 56.7786C44.6443 57.5227 44.9263 58.145 45.8127 59.4843C46.4574 60.4448 47.2498 61.6488 46.4843 62.8393C45.6919 64.0704 43.5161 63.9622 41.2194 63.8539C40.1853 63.7998 38.4796 63.7187 38.0498 63.9757C39.2317 66.5867 43.4086 66.9519 45.947 67.1955C50.8358 67.6554 55.7111 66.9925 60.1433 63.4887C66.9795 58.0773 67.0064 49.9332 66.6169 46.3212L61.3789 50.2038C61.5132 50.3797 61.5535 50.6232 61.4595 50.8396Z" fill="#C8BDE2"/>
</g>
<path d="M76.6488 21.0907C73.9493 25.3927 72.3242 30.4523 72.1361 35.8772C72.1227 36.3507 72.4585 36.7566 72.9285 36.8377C73.5598 36.9324 74.2179 36.9595 74.8894 36.9189C78.9186 36.6078 82.2226 33.3745 82.6121 29.316C82.9747 25.5551 80.8929 22.2271 77.7905 20.766C77.3741 20.5631 76.8906 20.7119 76.6488 21.0907Z" fill="white"/>
<path d="M43.8643 74.5007C45.0596 75.0554 46.7653 76.9629 52.5136 77.2876L52.1913 78.451C52.1913 78.451 45.0059 79.1274 43.9717 76.7735L43.8911 75.096L43.8643 74.5007Z" fill="#112037"/>
<path d="M66.495 74.5007C65.2997 75.0554 63.594 76.9629 57.8457 77.2876L58.168 78.451C58.168 78.451 65.3534 79.1274 66.3876 76.7735L66.4682 75.096L66.495 74.5007Z" fill="#112037"/>
<path d="M44.4957 83.1453C42.2528 84.1194 37.6058 86.9738 38.3713 87.5826C39.1369 88.1914 49.8546 88.5972 50.2172 87.5556C50.5798 86.5139 50.8484 83.1453 50.8484 83.1453H44.4957Z" fill="white"/>
<path d="M65.8918 83.1453C68.1347 84.1194 72.7818 86.9738 72.0162 87.5826C71.2507 88.1914 60.5329 88.5972 60.1703 87.5556C59.8077 86.5139 59.5391 83.1453 59.5391 83.1453H65.8918Z" fill="white"/>
<path d="M25.3706 26.9755C25.3706 26.9755 21.919 25.6091 21.1131 29.0724C17.4062 31.3181 17.4063 35.1061 17.5674 36.4589C17.7286 37.8117 23.1277 41.1938 25.5318 38.8399C27.9493 36.4859 23.9604 32.5086 22.6711 30.3305L25.3706 26.9755Z" fill="#FFFFFD"/>
<path d="M61.1097 48.2963C61.1097 48.2963 60.9217 49.4191 60.8008 49.9603C61.0157 49.9197 61.2843 50.0144 61.3783 50.2038C61.4723 50.3932 61.5932 50.5555 61.3111 51.1508C61.0291 51.746 62.4796 49.7303 63.9301 49.568C65.3806 49.4056 66.7506 49.7979 66.7506 49.7979C66.7506 49.7979 66.8312 47.0111 66.6163 46.0776C64.83 47.3087 62.2513 47.9716 61.1097 48.2963Z" fill="#A493C2"/>
<g style="mix-blend-mode:multiply">
<path d="M71.8942 87.001C71.7733 86.4057 66.4548 83.4024 65.1654 82.7125C65.7832 80.6021 65.837 69.5764 65.8235 68.0748C65.8101 66.5731 65.1654 58.4155 65.1654 58.4155L62.1569 62.5417C62.1569 62.5417 60.5318 64.0027 58.9873 64.5709C59.0679 64.6115 59.1619 64.6792 59.2291 64.7739L54.7432 67.5742L52.366 68.643C52.366 68.6159 52.366 68.5889 52.3525 68.5753C52.0571 67.1954 50.4454 69.1841 50.4454 69.1841L46.161 70.307C45.8387 72.4174 46.6445 82.2661 46.8862 82.7125C47.128 83.1589 48.7397 85.0529 47.7727 85.7023C46.8057 86.3516 39.083 87.1633 39.083 87.1633C42.2929 87.6504 48.5248 87.7856 49.4649 87.1633C49.9619 84.9988 53.0644 77.5447 53.6553 72.8503C54.985 73.405 55.9251 73.0397 58.3292 72.7015C62.3718 74.379 61.0959 79.4657 61.6466 80.5885C62.3987 82.1308 61.7809 84.4035 61.6869 85.6617C61.5929 86.9334 61.5391 87.5557 62.5733 88.1239C63.6075 88.692 64.9237 88.1915 68.4962 88.1915C72.1225 88.205 72.0151 87.5962 71.8942 87.001Z" fill="#C8BDE2"/>
</g>
<path d="M79.4025 20.9555C77.6968 9.11812 67.5567 0 55.3482 0C46.5108 0 38.7613 4.77552 34.5037 11.8914C30.4745 12.8249 27.4526 16.464 27.4526 20.7931C27.4526 22.3624 27.8421 23.8505 28.5539 25.1493C27.6675 25.6363 26.808 26.1774 25.9887 26.7862C25.935 26.5968 25.8007 26.448 25.6126 26.3668C25.532 26.3397 23.7323 25.6363 22.2281 26.4344C21.4223 26.8538 20.8716 27.5979 20.5627 28.6396C16.6275 31.1694 16.7887 35.282 16.9364 36.5131C17.0036 37.0001 17.3796 37.5412 17.9437 38.0418C17.4199 39.7058 17.0707 41.4509 16.9364 43.2502C16.6678 47.3087 17.4333 51.1914 19.2062 54.817C19.9449 56.2916 20.7776 57.5091 21.3417 58.2938C21.9326 59.0919 22.255 59.4843 22.4564 59.6737C26.6468 64.4086 32.4354 67.0872 38.6001 67.2225C39.8089 68.6295 41.34 69.59 43.1665 70.0635C43.1665 72.7827 43.2874 76.0295 43.5023 79.1275C43.6097 80.6697 43.7172 81.8467 43.8246 82.7531C42.307 83.4971 37.8614 85.8917 37.6734 87.2716C37.6331 87.5827 37.754 87.8533 37.9823 88.0427C38.5867 88.5297 41.9981 88.7732 45.0603 88.7732C47.142 88.7732 49.0626 88.6515 49.8684 88.4215C50.1908 88.3268 50.634 88.1509 50.7817 87.718C51.1444 86.6763 51.3995 83.7812 51.4398 83.2266C51.4398 83.2266 51.4398 83.2266 51.4398 83.213C52.38 80.1556 53.6828 75.2042 54.126 73.5267C54.5826 73.6079 54.9855 73.6485 55.3213 73.6485C55.5765 73.6485 55.8854 73.6214 56.2077 73.5673C56.6509 75.2313 57.9806 80.2909 58.9207 83.3213C58.9207 83.3213 58.9207 83.3213 58.9207 83.3348C58.9879 84.1194 59.2296 86.7169 59.5654 87.7045C59.7131 88.1374 60.1564 88.3132 60.4787 88.4079C61.2711 88.6379 63.2051 88.7597 65.2734 88.7597C68.3356 88.7597 71.747 88.5162 72.3514 88.0292C72.5932 87.8398 72.7006 87.5557 72.6603 87.258C72.4723 85.8511 67.879 83.4024 66.4419 82.699C66.5225 81.8196 66.6165 80.6832 66.7105 79.1951C66.9254 75.7589 67.0866 71.5245 67.1269 68.156C67.1269 67.6419 67.2075 65.7344 67.3149 63.2993C67.4761 59.376 67.6507 55.4799 67.7716 52.1248V52.1113C68.0536 50.055 68.0267 48.1881 67.9193 46.7947V46.7811C67.9327 46.2806 67.9327 45.8071 67.9327 45.3742C71.1829 43.372 73.9362 40.6257 75.9508 37.3789C79.7786 36.6078 82.8139 33.3204 83.2034 29.343C83.5795 26.0286 82.0618 22.8224 79.4025 20.9555ZM33.6039 13.5284C32.0325 16.6805 31.1058 20.2249 31.0386 23.9723C30.582 24.1482 30.1388 24.3511 29.709 24.554C29.0912 23.4311 28.7554 22.146 28.7554 20.7796C28.742 17.5192 30.7431 14.7053 33.6039 13.5284ZM21.4357 29.6136C21.5834 29.5189 21.6909 29.3701 21.7312 29.2078C21.9192 28.4096 22.2818 27.8685 22.8056 27.5844C23.6249 27.1515 24.6859 27.422 25.0217 27.5302C24.1353 28.2608 23.3025 29.059 22.5504 29.9248C22.4161 30.0736 22.2952 30.2224 22.1609 30.3712C22.1609 30.5335 22.2012 30.7229 22.2818 30.8718C22.2952 30.8988 22.3087 30.9259 22.3221 30.9529C22.4564 31.1829 22.6042 31.4129 22.7788 31.6564C22.9802 31.954 23.2085 32.2652 23.4369 32.5899C25.2097 35.025 26.4588 37.0001 25.0754 38.3529C24.1218 39.2864 22.5639 38.9753 21.7177 38.7047C20.8313 38.4206 20.0523 38.0012 19.4479 37.5954C18.9779 37.2707 18.6152 36.946 18.4138 36.7025C18.2929 36.5537 18.2257 36.4454 18.1989 36.3643C18.078 35.3226 17.9437 31.7376 21.4357 29.6136ZM23.3563 58.7673C23.3563 58.7537 23.3563 58.7537 23.3563 58.7673L23.3025 58.7132C22.9936 58.3614 21.5431 56.6433 20.3478 54.2623C18.6824 50.8532 17.9571 47.187 18.2123 43.3584C18.3198 41.8027 18.6018 40.301 19.0316 38.867C19.6494 39.2593 20.3478 39.5976 21.0059 39.8275C21.8386 40.1252 22.6176 40.274 23.3294 40.274C24.3904 40.274 25.3037 39.9358 25.9887 39.2864C28.2853 37.0407 26.0961 34.0239 24.4844 31.8323C24.1755 31.4129 23.8935 31.0206 23.6517 30.6553C25.25 28.8831 27.1437 27.395 29.2389 26.2586C29.4269 26.1504 29.6284 26.0557 29.8164 25.961C30.0179 25.8663 30.2059 25.7716 30.4208 25.6769C30.6223 25.5822 30.8372 25.4875 31.0386 25.4063C31.2535 25.3251 31.455 25.2304 31.6699 25.1493C31.8848 25.0681 32.0996 24.9869 32.3145 24.9193C34.9067 24.0264 37.7002 23.6205 40.6013 23.837C41.5817 23.9046 42.5622 24.0399 43.5023 24.2429C43.7172 24.2834 43.9321 24.3376 44.147 24.3917C44.3619 24.4458 44.5633 24.4999 44.7782 24.554C50.3654 26.1368 55.1736 30.0871 57.8597 35.4714C58.8267 37.4465 59.4848 39.5164 59.8072 41.6133C59.8474 41.8162 59.8743 42.0327 59.9012 42.2356C59.928 42.4385 59.9549 42.655 59.9683 42.8579C60.1161 44.319 60.1026 45.78 59.9415 47.2276C59.9146 47.4575 59.8877 47.6875 59.8475 47.904C59.8206 48.134 59.7803 48.3639 59.74 48.5804C59.3908 50.542 58.7596 52.4495 57.8463 54.2758C54.6498 58.0367 50.6743 58.6861 49.9222 58.6185C49.7879 58.4832 49.5193 58.0909 49.3178 57.7932C48.5925 56.711 47.5852 55.2499 46.2556 55.1146C45.6244 55.047 45.02 55.304 44.4693 55.8451C44.3216 55.9939 44.2007 56.1292 44.0933 56.278C43.3546 57.3197 43.65 58.3614 44.1335 59.2543C44.3081 59.579 44.523 59.9037 44.7111 60.1877C45.3154 61.0942 45.6512 61.6894 45.3692 62.1223C45.2214 62.3658 44.7782 62.4876 44.2141 62.5417C44.0261 62.5687 43.8246 62.5823 43.6098 62.5823C43.4083 62.5823 43.2068 62.5958 42.9919 62.5958C42.3876 62.5958 41.7697 62.5687 41.2459 62.5417C39.097 62.4335 37.754 62.4064 37.069 63.0693C36.8138 63.3128 36.6795 63.624 36.6795 63.9892C36.6795 64.0704 36.6929 64.1651 36.7332 64.2463C36.9884 64.8415 37.2705 65.3962 37.5928 65.8967C32.1668 65.5179 27.0766 63.0017 23.3563 58.7673ZM49.9893 85.4182C49.9625 85.6482 49.9222 85.8781 49.8953 86.0946C49.8282 86.5546 49.7476 86.9604 49.667 87.231C48.5119 87.7856 41.1519 87.6233 39.1239 87.2039C39.876 86.4463 42.1458 84.9853 43.9992 84.0653C44.2007 83.9706 44.3887 83.8759 44.5768 83.7812C44.5902 83.7812 44.6036 83.7677 44.6171 83.7677H50.1639C50.1236 84.2412 50.0565 84.8365 49.9893 85.4182ZM57.2822 72.7556L57.1344 72.1874L56.5704 72.2956C56.0869 72.3904 55.6705 72.4445 55.3482 72.4445C54.9587 72.4445 54.4483 72.3768 53.8305 72.228L53.253 72.0927L53.1052 72.6744C52.2054 76.1648 51.1309 80.0474 50.3922 82.5096H45.0468C44.7379 79.601 44.4156 74.6631 44.4022 70.3205C44.9797 70.4017 45.5706 70.4423 46.1481 70.4423C51.8025 70.4423 57.8866 66.9114 60.9488 64.4898C63.6215 62.3793 65.3272 59.8766 66.3882 57.3738C66.2942 59.5249 66.2136 61.5812 66.133 63.2722C66.0256 65.802 65.945 67.6284 65.945 68.156C65.8778 73.4861 65.5689 79.2898 65.2734 82.5096H59.9818C59.2431 80.088 58.1686 76.2324 57.2822 72.7556ZM71.2635 87.2039C69.2355 87.6233 61.8755 87.7856 60.7204 87.231C60.6399 86.9604 60.5727 86.5546 60.4921 86.1081C60.4653 85.8917 60.425 85.6617 60.3981 85.4317C60.3175 84.85 60.2638 84.2547 60.2101 83.7677H65.757C65.945 83.8489 66.133 83.9436 66.3345 84.0383C68.2013 84.9447 70.5114 86.4328 71.2635 87.2039ZM66.6031 51.4214C66.1599 55.2634 64.6019 59.9578 60.1429 63.4751C55.966 66.7896 49.3984 69.8064 44.4022 69.0218C44.1873 68.9947 43.9858 68.9541 43.7843 68.9C43.7038 68.8865 43.6232 68.8594 43.556 68.8459C43.4217 68.8189 43.3008 68.7783 43.1665 68.7377C42.1189 68.413 41.1922 67.9125 40.3864 67.209C39.9566 66.8437 39.5671 66.4243 39.2045 65.9508C38.7613 65.3691 38.3718 64.7062 38.036 63.9622C38.4658 63.7051 40.1581 63.7863 41.2057 63.8404C41.8503 63.8675 42.4816 63.9081 43.0725 63.9081C43.2874 63.9081 43.4889 63.9081 43.6903 63.8945C43.9052 63.881 44.1067 63.8675 44.2947 63.8539C45.2752 63.7457 46.0676 63.4751 46.4839 62.8393C47.236 61.6488 46.4436 60.4583 45.8124 59.4843C44.926 58.145 44.6439 57.5227 45.396 56.7786C45.799 56.3863 46.0676 56.4133 46.1481 56.4133C46.8734 56.481 47.7061 57.7121 48.2702 58.5373C48.7806 59.2813 49.0895 59.7413 49.5327 59.8631C50.2311 60.066 52.7158 59.7954 55.3885 58.145C55.4019 58.1314 55.4153 58.1314 55.4288 58.1179C55.5093 58.0638 55.6034 58.0097 55.6974 57.9556C56.1406 57.6579 56.5972 57.3333 57.0404 56.9545C57.1747 56.8462 57.2956 56.7245 57.4299 56.6163C57.9269 56.1698 58.4238 55.6557 58.9073 55.0876C59.8609 53.9512 60.7339 52.5577 61.4591 50.8667C61.5531 50.6502 61.5129 50.4067 61.3785 50.2309C61.3114 50.1362 61.2308 50.0685 61.1234 50.0144C61.0159 49.9603 60.895 49.9468 60.7876 49.9603C60.9219 49.4056 61.0294 48.8645 61.1099 48.3098C63.044 47.8363 64.884 47.1193 66.6165 46.2129C66.6165 46.2535 66.6299 46.2941 66.6299 46.3347C66.6702 46.6864 66.7105 47.0788 66.724 47.4981V47.5117C66.7777 48.6075 66.7777 49.9468 66.6031 51.4214ZM67.973 43.8725C67.7716 44.0078 67.5701 44.1431 67.3686 44.2649C67.1672 44.3866 66.9657 44.5084 66.7643 44.6301C65.0586 45.6042 63.232 46.3753 61.2845 46.9029C61.4054 45.5906 61.4054 44.2648 61.298 42.9391C61.2845 42.7361 61.2577 42.5197 61.2308 42.3168C61.2039 42.1138 61.1771 41.8974 61.1502 41.6809C60.8145 39.3676 60.1161 37.0678 59.0282 34.8762C56.1943 29.1807 51.1175 25.014 45.2349 23.3094C45.0334 23.2418 44.8319 23.1876 44.6171 23.1471C44.4022 23.0929 44.2007 23.0388 43.9858 22.9982C42.9114 22.7547 41.81 22.5924 40.6953 22.5112C37.7808 22.2948 34.9604 22.66 32.3414 23.5123C32.5026 19.7244 33.5636 16.1664 35.323 13.0549C35.4573 12.8114 35.5916 12.5814 35.7394 12.3514C35.8737 12.1214 36.0214 11.8914 36.1691 11.675C40.2924 5.42488 47.3435 1.29872 55.3482 1.29872C66.5628 1.29872 75.9374 9.41575 77.9654 20.1302C77.2939 19.8597 76.5015 20.1167 76.112 20.7525C73.2781 25.271 71.6933 30.5065 71.5053 35.8637C71.4784 36.6619 72.0559 37.3654 72.8349 37.4871C73.305 37.5548 73.7616 37.5954 74.2451 37.5954C74.2854 37.5954 74.3257 37.5954 74.366 37.5954C72.6469 40.0711 70.4846 42.2221 67.973 43.8725ZM81.9678 29.2484C81.6723 32.2517 79.6308 34.795 76.9044 35.8096C76.6224 35.9178 76.3403 36.0125 76.0449 36.0802C75.7762 36.1478 75.4942 36.2019 75.1987 36.229C75.0779 36.2425 74.957 36.2561 74.8361 36.2696C74.2183 36.3237 73.6139 36.2966 73.023 36.2019C72.8752 36.1749 72.7678 36.0531 72.7812 35.9043C72.8752 33.3339 73.2916 30.8041 74.0437 28.369C74.7824 25.9339 75.8434 23.607 77.1999 21.4425C77.2536 21.3613 77.3342 21.3207 77.4148 21.3207C77.4417 21.3207 77.4819 21.3207 77.5088 21.3478C77.7506 21.456 77.9789 21.5913 78.2072 21.713C78.449 21.8619 78.6907 22.0242 78.9056 22.1865C79.1473 22.3624 79.3757 22.5653 79.604 22.7818C81.2963 24.4187 82.2095 26.7862 81.9678 29.2484Z" fill="#112037"/>
</svg>
